<svg width="184" height="48" viewBox="0 0 184 48" fill="none" xmlns="http://www.w3.org/2000/svg">
<path d="M61.6939 8.628C62.1979 8.628 62.6366 8.768 63.0099 9.048C63.3833 9.328 63.5699 9.692 63.5699 10.14C63.5699 10.4573 63.4766 10.7747 63.2899 11.092C62.6739 12.268 62.1979 13.8733 61.8619 15.908C61.5446 17.9427 61.3859 20.108 61.3859 22.404C61.3859 24.6627 61.5446 26.8 61.8619 28.816C62.1979 30.8133 62.6739 32.428 63.2899 33.66C63.4579 33.996 63.5419 34.304 63.5419 34.584C63.5419 35.032 63.3553 35.396 62.9819 35.676C62.6273 35.9747 62.2073 36.124 61.7219 36.124C61.3486 36.124 61.0313 36.012 60.7699 35.788C60.5086 35.5827 60.2566 35.256 60.0139 34.808C59.1926 33.1093 58.5673 31.1867 58.1379 29.04C57.7086 26.8933 57.4939 24.6907 57.4939 22.432C57.4939 20.1733 57.7086 17.9707 58.1379 15.824C58.5673 13.6773 59.1926 11.7173 60.0139 9.944C60.2379 9.496 60.4806 9.16933 60.7419 8.964C61.0033 8.74 61.3206 8.628 61.6939 8.628ZM86.2331 10.252C86.2331 9.71067 86.4291 9.29067 86.8211 8.992C87.2131 8.69333 87.6331 8.544 88.0811 8.544C88.5478 8.544 88.9678 8.69333 89.3411 8.992C89.7331 9.272 89.9291 9.692 89.9291 10.252V34.64C89.9291 35.2 89.7331 35.62 89.3411 35.9C88.9678 36.1987 88.5478 36.348 88.0811 36.348C87.6331 36.348 87.2131 36.1987 86.8211 35.9C86.4291 35.6013 86.2331 35.1813 86.2331 34.64V10.252ZM65.8771 26.996C65.8771 26.4547 66.1198 25.9227 66.6051 25.4C67.5571 24.3547 68.2851 23.4307 68.7891 22.628C69.3118 21.8067 69.7224 20.892 70.0211 19.884C70.3571 18.764 70.5251 17.224 70.5251 15.264V13.92C69.4798 13.864 68.5091 13.724 67.6131 13.5C66.7544 13.276 66.3251 12.7533 66.3251 11.932C66.3251 11.4467 66.4838 11.064 66.8011 10.784C67.1371 10.504 67.5478 10.4013 68.0331 10.476C69.9558 10.756 71.4024 10.896 72.3731 10.896C73.3438 10.896 74.7904 10.756 76.7131 10.476L76.9931 10.448C77.4224 10.448 77.7678 10.588 78.0291 10.868C78.2904 11.1293 78.4211 11.484 78.4211 11.932C78.4211 12.7533 77.9918 13.276 77.1331 13.5C76.3304 13.7053 75.3691 13.836 74.2491 13.892V15.264C74.2491 17.224 74.4171 18.764 74.7531 19.884C75.0331 20.8173 75.4251 21.6667 75.9291 22.432C76.4331 23.1973 77.1798 24.1867 78.1691 25.4C78.4118 25.6987 78.5891 25.96 78.7011 26.184C78.8318 26.408 78.8971 26.6787 78.8971 26.996C78.8971 27.3507 78.7571 27.6773 78.4771 27.976C78.1971 28.256 77.8238 28.396 77.3571 28.396C76.9278 28.396 76.5451 28.312 76.2091 28.144C75.8918 27.976 75.5558 27.7053 75.2011 27.332C74.5478 26.6227 73.9784 25.8387 73.4931 24.98C73.0078 24.1027 72.6438 23.2347 72.4011 22.376C72.1211 23.272 71.7571 24.1213 71.3091 24.924C70.8611 25.708 70.2731 26.5107 69.5451 27.332C69.2091 27.7053 68.8731 27.976 68.5371 28.144C68.2198 28.312 67.8464 28.396 67.4171 28.396C66.9691 28.396 66.5958 28.256 66.2971 27.976C66.0171 27.6773 65.8771 27.3507 65.8771 26.996ZM77.0211 18.568C77.0211 18.0827 77.1611 17.6907 77.4411 17.392C77.7211 17.0933 78.1038 16.944 78.5891 16.944H80.4371V10.56C80.4371 10.0187 80.6331 9.59867 81.0251 9.3C81.4171 9.00133 81.8371 8.852 82.2851 8.852C82.7518 8.852 83.1718 9.00133 83.5451 9.3C83.9371 9.58 84.1331 10 84.1331 10.56V34.136C84.1331 34.696 83.9371 35.116 83.5451 35.396C83.1718 35.6947 82.7518 35.844 82.2851 35.844C81.8371 35.844 81.4171 35.6947 81.0251 35.396C80.6331 35.0973 80.4371 34.6773 80.4371 34.136V20.192H78.5891C78.1038 20.192 77.7211 20.0427 77.4411 19.744C77.1611 19.4453 77.0211 19.0533 77.0211 18.568ZM97.516 29.88C96.9933 29.88 96.5733 29.7307 96.256 29.432C95.9387 29.1333 95.78 28.7507 95.78 28.284C95.78 27.7987 95.9387 27.416 96.256 27.136C96.5733 26.8373 96.9933 26.688 97.516 26.688H112.58C113.196 26.688 113.7 26.8467 114.092 27.164C114.484 27.4813 114.68 27.9107 114.68 28.452V34.612C114.68 35.1533 114.484 35.5733 114.092 35.872C113.7 36.1707 113.271 36.32 112.804 36.32C112.337 36.32 111.908 36.1707 111.516 35.872C111.124 35.5733 110.928 35.1533 110.928 34.612V29.88H97.516ZM92.896 23.412C92.896 22.9827 93.0267 22.6093 93.288 22.292C93.5493 21.9747 93.9227 21.816 94.408 21.816H103.564V20.164C102.22 20.108 101.016 19.996 99.952 19.828C98.9067 19.66 98.16 19.4733 97.712 19.268C97.1893 19.0253 96.8253 18.7267 96.62 18.372C96.4147 18.0173 96.312 17.5133 96.312 16.86V11.372C96.312 10.8307 96.508 10.4013 96.9 10.084C97.292 9.76667 97.796 9.608 98.412 9.608H112.468C113.084 9.608 113.588 9.76667 113.98 10.084C114.372 10.4013 114.568 10.8307 114.568 11.372V16.86C114.568 17.5133 114.465 18.0173 114.26 18.372C114.073 18.708 113.728 18.9973 113.224 19.24C112.776 19.464 112.011 19.66 110.928 19.828C109.864 19.996 108.66 20.108 107.316 20.164V21.816H116.472C116.957 21.816 117.331 21.9747 117.592 22.292C117.853 22.6093 117.984 22.9827 117.984 23.412C117.984 23.8413 117.844 24.2147 117.564 24.532C117.303 24.8493 116.939 25.008 116.472 25.008H94.408C93.9413 25.008 93.568 24.8493 93.288 24.532C93.0267 24.2147 92.896 23.8413 92.896 23.412ZM100.008 16.328C100.008 16.4587 100.083 16.552 100.232 16.608C100.587 16.72 101.268 16.832 102.276 16.944C103.284 17.0373 104.339 17.084 105.44 17.084C106.541 17.084 107.596 17.0373 108.604 16.944C109.612 16.832 110.293 16.72 110.648 16.608C110.797 16.552 110.872 16.4587 110.872 16.328V12.744H100.008V16.328ZM122.295 8.628C122.668 8.628 122.986 8.74 123.247 8.964C123.508 9.16933 123.751 9.496 123.975 9.944C124.796 11.7173 125.422 13.6773 125.851 15.824C126.28 17.9707 126.495 20.1733 126.495 22.432C126.495 24.6907 126.28 26.8933 125.851 29.04C125.422 31.1867 124.796 33.1093 123.975 34.808C123.732 35.256 123.48 35.5827 123.219 35.788C122.958 36.012 122.64 36.124 122.267 36.124C121.763 36.124 121.334 35.9747 120.979 35.676C120.624 35.396 120.447 35.032 120.447 34.584C120.447 34.304 120.531 33.996 120.699 33.66C121.315 32.428 121.782 30.8133 122.099 28.816C122.435 26.8 122.603 24.6627 122.603 22.404C122.603 20.108 122.435 17.9427 122.099 15.908C121.782 13.8733 121.315 12.268 120.699 11.092C120.512 10.7747 120.419 10.4573 120.419 10.14C120.419 9.692 120.606 9.328 120.979 9.048C121.352 8.768 121.791 8.628 122.295 8.628Z" fill="#75C382"/>
</svg>
