<svg width="184" height="48" viewBox="0 0 184 48" fill="none" xmlns="http://www.w3.org/2000/svg">
<path d="M14.7428 24.084C14.7428 23.58 14.9294 23.1693 15.3028 22.852C15.6761 22.516 16.1148 22.348 16.6188 22.348C17.1228 22.348 17.5614 22.516 17.9348 22.852C18.3081 23.1693 18.4948 23.58 18.4948 24.084V29.964C22.1721 29.9267 25.5414 29.516 28.6028 28.732C28.7148 28.6947 28.8828 28.676 29.1068 28.676C29.5734 28.676 29.9561 28.8347 30.2548 29.152C30.5534 29.4693 30.7028 29.8427 30.7028 30.272C30.7028 30.6267 30.5908 30.9533 30.3668 31.252C30.1428 31.5507 29.8068 31.756 29.3588 31.868C26.1294 32.764 22.3961 33.212 18.1588 33.212C13.9214 33.212 10.1881 32.764 6.95875 31.868C6.51075 31.756 6.17475 31.5507 5.95075 31.252C5.72675 30.9533 5.61475 30.6267 5.61475 30.272C5.61475 29.8427 5.76408 29.4693 6.06275 29.152C6.36142 28.816 6.74408 28.648 7.21075 28.648C7.37875 28.648 7.54675 28.676 7.71475 28.732C9.88008 29.3107 12.2228 29.684 14.7428 29.852V24.084ZM8.63875 18.988C8.63875 18.484 8.76008 18.0827 9.00275 17.784C9.24542 17.4853 9.60942 17.3267 10.0948 17.308L23.4508 17.112C23.5068 16.3467 23.5348 15.1893 23.5348 13.64H10.6828C10.1974 13.64 9.81475 13.4813 9.53475 13.164C9.27342 12.8467 9.14275 12.4733 9.14275 12.044C9.14275 11.596 9.27342 11.2227 9.53475 10.924C9.81475 10.6067 10.1974 10.448 10.6828 10.448H25.4108C25.9148 10.448 26.3534 10.6067 26.7268 10.924C27.1001 11.2413 27.2868 11.652 27.2868 12.156C27.2868 15.124 27.2214 17.4107 27.0908 19.016C26.9788 20.6027 26.6801 22.5253 26.1948 24.784C26.1014 25.1947 25.8774 25.5027 25.5228 25.708C25.1868 25.8947 24.8414 25.988 24.4868 25.988C23.9641 25.988 23.4974 25.8293 23.0868 25.512C22.6948 25.1947 22.4988 24.7933 22.4988 24.308C22.4988 24.308 22.5268 24.14 22.5828 23.804C22.8814 22.4413 23.0868 21.2373 23.1988 20.192L10.2908 20.612C9.78675 20.6307 9.38542 20.4907 9.08675 20.192C8.78808 19.8933 8.63875 19.492 8.63875 18.988ZM45.0377 33.212C40.8003 33.212 37.067 32.764 33.8377 31.868C33.3897 31.756 33.0537 31.5507 32.8297 31.252C32.6057 30.9533 32.4937 30.6267 32.4937 30.272C32.4937 29.8427 32.643 29.4693 32.9417 29.152C33.2403 28.816 33.623 28.648 34.0897 28.648C34.2577 28.648 34.4257 28.676 34.5937 28.732C37.7483 29.5533 41.2297 29.964 45.0377 29.964C48.8457 29.964 52.327 29.5533 55.4817 28.732C55.5937 28.6947 55.7617 28.676 55.9857 28.676C56.4523 28.676 56.835 28.8347 57.1337 29.152C57.4323 29.4693 57.5817 29.8427 57.5817 30.272C57.5817 30.6267 57.4697 30.9533 57.2457 31.252C57.0217 31.5507 56.6857 31.756 56.2377 31.868C53.0083 32.764 49.275 33.212 45.0377 33.212ZM35.1257 22.768C35.1257 22.3573 35.247 22.012 35.4897 21.732C35.7323 21.4333 36.059 21.2 36.4697 21.032C38.8777 20.08 40.8097 18.3907 42.2657 15.964C42.6203 15.3853 42.8537 14.844 42.9657 14.34C43.0963 13.836 43.1617 13.304 43.1617 12.744V11.848C43.1617 11.3067 43.3577 10.896 43.7497 10.616C44.1417 10.3173 44.571 10.168 45.0377 10.168C45.5043 10.168 45.9337 10.3173 46.3257 10.616C46.7177 10.896 46.9137 11.3067 46.9137 11.848V12.744C46.9137 13.304 46.9697 13.836 47.0817 14.34C47.2123 14.844 47.455 15.3853 47.8097 15.964C49.2657 18.3907 51.1977 20.08 53.6057 21.032C54.0163 21.2 54.343 21.4333 54.5857 21.732C54.8283 22.012 54.9497 22.3573 54.9497 22.768C54.9497 23.2347 54.8003 23.5987 54.5017 23.86C54.2217 24.1213 53.8483 24.2613 53.3817 24.28C52.8963 24.3173 52.5137 24.28 52.2337 24.168C50.759 23.664 49.471 22.9267 48.3697 21.956C47.287 20.9667 46.1763 19.688 45.0377 18.12C43.9177 19.6693 42.7977 20.9387 41.6777 21.928C40.5577 22.9173 39.251 23.664 37.7577 24.168C37.4963 24.2427 37.2257 24.28 36.9457 24.28C36.4043 24.28 35.9657 24.1493 35.6297 23.888C35.2937 23.6267 35.1257 23.2533 35.1257 22.768ZM85.3371 10.252C85.3371 9.71067 85.5331 9.29067 85.9251 8.992C86.3171 8.69333 86.7464 8.544 87.2131 8.544C87.6798 8.544 88.1091 8.69333 88.5011 8.992C88.8931 9.29067 89.0891 9.71067 89.0891 10.252V34.696C89.0891 35.2373 88.8931 35.6573 88.5011 35.956C88.1091 36.2547 87.6798 36.404 87.2131 36.404C86.7464 36.404 86.3171 36.2547 85.9251 35.956C85.5331 35.6573 85.3371 35.2373 85.3371 34.696V20.192H82.5091C82.0238 20.192 81.6411 20.052 81.3611 19.772C81.0811 19.4733 80.9411 19.0907 80.9411 18.624C80.9411 18.1573 81.0811 17.784 81.3611 17.504C81.6411 17.2053 82.0238 17.056 82.5091 17.056H85.3371V10.252ZM66.7171 27.472C66.7171 26.9493 66.9598 26.492 67.4451 26.1C69.8904 24.14 71.4958 21.928 72.2611 19.464C72.6531 18.1947 72.8491 16.468 72.8491 14.284V14.004C71.1504 13.948 69.7878 13.7987 68.7611 13.556C68.2571 13.444 67.8744 13.248 67.6131 12.968C67.3518 12.6693 67.2211 12.3333 67.2211 11.96C67.2211 11.4187 67.4171 11.0173 67.8091 10.756C68.2011 10.4947 68.6678 10.392 69.2091 10.448C71.1131 10.728 72.9704 10.868 74.7811 10.868C76.5918 10.868 78.4491 10.728 80.3531 10.448C80.8944 10.392 81.3611 10.4947 81.7531 10.756C82.1451 11.0173 82.3411 11.4187 82.3411 11.96C82.3411 12.3333 82.2104 12.6693 81.9491 12.968C81.6878 13.248 81.3051 13.444 80.8011 13.556C79.5691 13.8173 78.1504 13.9667 76.5451 14.004V14.284C76.5451 16.4493 76.7224 18.1573 77.0771 19.408C77.4504 20.7333 78.0478 21.9093 78.8691 22.936C79.6904 23.944 80.7171 24.896 81.9491 25.792C82.4531 26.184 82.7051 26.6507 82.7051 27.192C82.7051 27.696 82.5184 28.1067 82.1451 28.424C81.7718 28.7413 81.3424 28.9 80.8571 28.9C80.3531 28.9 79.8958 28.76 79.4851 28.48C77.4878 27.0613 75.8824 25.0547 74.6691 22.46C74.0718 23.692 73.3718 24.84 72.5691 25.904C71.7664 26.968 70.8798 27.892 69.9091 28.676C69.4798 29.012 69.0318 29.18 68.5651 29.18C68.0798 29.18 67.6504 29.0213 67.2771 28.704C66.9038 28.368 66.7171 27.9573 66.7171 27.472ZM98.02 30.244C98.02 29.0493 98.3653 27.9853 99.056 27.052C99.7653 26.1 100.755 25.3627 102.024 24.84C103.293 24.2987 104.74 24.028 106.364 24.028C107.988 24.028 109.435 24.2987 110.704 24.84C111.973 25.3627 112.953 26.1 113.644 27.052C114.353 27.9853 114.708 29.0493 114.708 30.244C114.708 31.4387 114.353 32.5027 113.644 33.436C112.953 34.388 111.973 35.1253 110.704 35.648C109.435 36.1893 107.988 36.46 106.364 36.46C104.74 36.46 103.293 36.1893 102.024 35.648C100.755 35.1253 99.7653 34.388 99.056 33.436C98.3653 32.5027 98.02 31.4387 98.02 30.244ZM93.008 21.284C93.008 20.5933 93.3627 20.0707 94.072 19.716C97.488 17.9987 99.196 16.0107 99.196 13.752V13.472C97.4787 13.416 96.1067 13.2667 95.08 13.024C94.576 12.912 94.1933 12.716 93.932 12.436C93.6707 12.1373 93.54 11.8013 93.54 11.428C93.54 10.8867 93.736 10.4853 94.128 10.224C94.52 9.96267 94.9867 9.86 95.528 9.916C97.432 10.196 99.2893 10.336 101.1 10.336C102.911 10.336 104.768 10.196 106.672 9.916C107.213 9.86 107.68 9.96267 108.072 10.224C108.464 10.4853 108.66 10.8867 108.66 11.428C108.66 11.8013 108.529 12.1373 108.268 12.436C108.007 12.716 107.624 12.912 107.12 13.024C106.056 13.2667 104.665 13.416 102.948 13.472V13.668C102.948 14.8813 103.331 15.9267 104.096 16.804C104.88 17.6627 106.159 18.5773 107.932 19.548C108.66 19.94 109.024 20.444 109.024 21.06C109.024 21.5453 108.847 21.9467 108.492 22.264C108.137 22.5813 107.699 22.74 107.176 22.74C106.803 22.74 106.429 22.656 106.056 22.488C105.123 22.0213 104.18 21.3867 103.228 20.584C102.295 19.7627 101.576 18.8947 101.072 17.98C100.549 18.8947 99.8307 19.7533 98.916 20.556C98.0013 21.3587 97.0307 22.0307 96.004 22.572C95.6307 22.7587 95.192 22.852 94.688 22.852C94.184 22.852 93.7733 22.7027 93.456 22.404C93.1573 22.0867 93.008 21.7133 93.008 21.284ZM101.772 30.244C101.772 31.1587 102.173 31.8867 102.976 32.428C103.797 32.988 104.927 33.268 106.364 33.268C107.801 33.268 108.921 32.988 109.724 32.428C110.545 31.8867 110.956 31.1587 110.956 30.244C110.956 29.3293 110.545 28.6013 109.724 28.06C108.921 27.5 107.801 27.22 106.364 27.22C104.927 27.22 103.797 27.5 102.976 28.06C102.173 28.6013 101.772 29.3293 101.772 30.244ZM110.928 10.252C110.928 9.71067 111.124 9.29067 111.516 8.992C111.908 8.69333 112.337 8.544 112.804 8.544C113.271 8.544 113.7 8.69333 114.092 8.992C114.484 9.29067 114.68 9.71067 114.68 10.252V14.228H117.004C117.489 14.228 117.872 14.3773 118.152 14.676C118.432 14.9747 118.572 15.3667 118.572 15.852C118.572 16.3373 118.432 16.7293 118.152 17.028C117.872 17.3267 117.489 17.476 117.004 17.476H114.68V22.376C114.68 22.9173 114.484 23.3373 114.092 23.636C113.7 23.9347 113.271 24.084 112.804 24.084C112.337 24.084 111.908 23.9347 111.516 23.636C111.124 23.3373 110.928 22.9173 110.928 22.376V10.252ZM144.451 10.252C144.451 9.71067 144.647 9.29067 145.039 8.992C145.431 8.69333 145.861 8.544 146.327 8.544C146.794 8.544 147.223 8.69333 147.615 8.992C148.007 9.29067 148.203 9.71067 148.203 10.252V15.768H150.527C151.013 15.768 151.395 15.9173 151.675 16.216C151.955 16.5147 152.095 16.9067 152.095 17.392C152.095 17.8773 151.955 18.2693 151.675 18.568C151.395 18.8667 151.013 19.016 150.527 19.016H148.203V28.256C148.203 28.7973 148.007 29.2173 147.615 29.516C147.223 29.8147 146.794 29.964 146.327 29.964C145.861 29.964 145.431 29.8147 145.039 29.516C144.647 29.2173 144.451 28.7973 144.451 28.256V10.252ZM126.307 24.644C126.307 24.1587 126.457 23.776 126.755 23.496C127.073 23.1973 127.483 23.048 127.987 23.048H132.607V21.144C130.965 20.8267 129.677 20.1453 128.743 19.1C127.829 18.036 127.371 16.7573 127.371 15.264C127.371 14.1067 127.651 13.0707 128.211 12.156C128.79 11.2413 129.611 10.5227 130.675 10C131.758 9.47733 133.027 9.216 134.483 9.216C135.939 9.216 137.199 9.47733 138.263 10C139.346 10.5227 140.167 11.2413 140.727 12.156C141.306 13.0707 141.595 14.1067 141.595 15.264C141.595 16.7573 141.129 18.036 140.195 19.1C139.281 20.1453 138.002 20.8267 136.359 21.144V23.02C138.338 22.9453 140.027 22.7493 141.427 22.432C141.689 22.3947 141.866 22.376 141.959 22.376C142.445 22.376 142.827 22.5253 143.107 22.824C143.406 23.104 143.555 23.4587 143.555 23.888C143.555 24.28 143.434 24.6253 143.191 24.924C142.949 25.204 142.594 25.4 142.127 25.512C141.045 25.7733 139.859 25.96 138.571 26.072C137.283 26.184 135.743 26.24 133.951 26.24H127.987C127.483 26.24 127.073 26.1 126.755 25.82C126.457 25.5213 126.307 25.1293 126.307 24.644ZM129.471 29.348C129.471 28.8067 129.667 28.3867 130.059 28.088C130.451 27.7893 130.881 27.64 131.347 27.64C131.814 27.64 132.243 27.7893 132.635 28.088C133.027 28.3867 133.223 28.8067 133.223 29.348V32.176C133.223 32.3067 133.261 32.4093 133.335 32.484C133.41 32.5587 133.513 32.596 133.643 32.596H147.167C147.653 32.596 148.035 32.7453 148.315 33.044C148.595 33.3427 148.735 33.7347 148.735 34.22C148.735 34.7053 148.595 35.0973 148.315 35.396C148.035 35.6947 147.653 35.844 147.167 35.844H131.879C131.189 35.844 130.61 35.6293 130.143 35.2C129.695 34.7707 129.471 34.2293 129.471 33.576V29.348ZM131.067 15.264C131.067 16.1227 131.375 16.8133 131.991 17.336C132.607 17.8587 133.438 18.12 134.483 18.12C135.529 18.12 136.359 17.8587 136.975 17.336C137.591 16.8133 137.899 16.1227 137.899 15.264C137.899 14.4053 137.591 13.7147 136.975 13.192C136.359 12.6693 135.529 12.408 134.483 12.408C133.438 12.408 132.607 12.6693 131.991 13.192C131.375 13.7147 131.067 14.4053 131.067 15.264ZM156.686 18.036C156.686 17.4947 156.882 17.0653 157.274 16.748C157.666 16.4307 158.17 16.272 158.786 16.272H171.162V13.36H158.03C157.47 13.36 157.069 13.2107 156.826 12.912C156.602 12.5947 156.49 12.212 156.49 11.764C156.49 11.2973 156.602 10.9147 156.826 10.616C157.069 10.3173 157.47 10.168 158.03 10.168H172.814C173.43 10.168 173.934 10.3267 174.326 10.644C174.718 10.9613 174.914 11.3907 174.914 11.932V17.868C174.914 18.316 174.728 18.6893 174.354 18.988C174 19.268 173.57 19.408 173.066 19.408H160.438V21.984C160.438 22.152 160.513 22.2547 160.662 22.292C161.241 22.4413 162.016 22.5627 162.986 22.656C163.957 22.7307 164.965 22.768 166.01 22.768C167.149 22.768 168.428 22.684 169.846 22.516C171.265 22.348 172.581 22.1147 173.794 21.816C174 21.76 174.186 21.732 174.354 21.732C174.858 21.732 175.26 21.9 175.558 22.236C175.857 22.5533 176.006 22.9267 176.006 23.356C176.006 23.7107 175.894 24.028 175.67 24.308C175.446 24.588 175.11 24.784 174.662 24.896C173.785 25.12 172.87 25.3067 171.918 25.456V29.572C173.43 29.3667 174.886 29.0867 176.286 28.732C176.398 28.6947 176.566 28.676 176.79 28.676C177.257 28.676 177.64 28.8347 177.938 29.152C178.237 29.4693 178.386 29.8427 178.386 30.272C178.386 30.6267 178.274 30.9533 178.05 31.252C177.826 31.5507 177.49 31.756 177.042 31.868C173.813 32.764 170.08 33.212 165.842 33.212C161.605 33.212 157.872 32.764 154.642 31.868C154.194 31.756 153.858 31.5507 153.634 31.252C153.41 30.9533 153.298 30.6267 153.298 30.272C153.298 29.8427 153.448 29.4693 153.746 29.152C154.045 28.816 154.428 28.648 154.894 28.648C155.062 28.648 155.23 28.676 155.398 28.732C156.705 29.0867 158.254 29.3853 160.046 29.628V25.428C159.412 25.2787 158.954 25.1573 158.674 25.064C157.965 24.8213 157.452 24.4853 157.134 24.056C156.836 23.608 156.686 23.048 156.686 22.376V18.036ZM163.798 29.936C164.246 29.9547 164.928 29.964 165.842 29.964C166.384 29.964 167.158 29.9453 168.166 29.908V25.876C167.42 25.932 166.701 25.96 166.01 25.96C165.506 25.96 164.769 25.9413 163.798 25.904V29.936Z" fill="#75C382"/>
</svg>
