<svg width="143" height="71" viewBox="0 0 143 71" fill="none" xmlns="http://www.w3.org/2000/svg">
<path d="M2.19081 54.848C2.92681 54.9653 3.82281 55.0453 4.87881 55.088V54.176C4.87881 53.888 4.98548 53.6533 5.19881 53.472C5.41215 53.28 5.66281 53.184 5.95081 53.184C6.23881 53.184 6.48948 53.28 6.70281 53.472C6.91615 53.6533 7.02281 53.888 7.02281 54.176V55.072C8.02548 55.04 8.87881 54.9707 9.58281 54.864C9.62548 54.8533 9.67881 54.848 9.74281 54.848C9.99881 54.848 10.2175 54.928 10.3988 55.088C10.5801 55.248 10.6708 55.472 10.6708 55.76C10.6708 55.9947 10.6015 56.192 10.4628 56.352C10.3241 56.5013 10.1321 56.6027 9.88681 56.656C9.46015 56.7307 8.86815 56.7947 8.11081 56.848C7.35348 56.9013 6.63348 56.928 5.95081 56.928C5.22548 56.928 4.48948 56.9067 3.74281 56.864C2.99615 56.8107 2.37748 56.7413 1.88681 56.656C1.64148 56.6027 1.44948 56.5013 1.31081 56.352C1.17215 56.192 1.10281 55.9947 1.10281 55.76C1.10281 55.44 1.20948 55.2 1.42281 55.04C1.64681 54.8693 1.90281 54.8053 2.19081 54.848ZM0.894813 65.488C0.894813 65.2107 0.985479 64.992 1.16681 64.832C1.34815 64.6613 1.57215 64.576 1.83881 64.576C1.92415 64.576 2.06815 64.5973 2.27081 64.64C2.96415 64.7893 3.83348 64.88 4.87881 64.912V63.28C4.03615 63.1093 3.36415 62.7627 2.86281 62.24C2.37215 61.7067 2.12681 61.0933 2.12681 60.4C2.12681 59.856 2.28681 59.3547 2.60681 58.896C2.92681 58.4373 3.37481 58.0747 3.95081 57.808C4.53748 57.5413 5.20415 57.408 5.95081 57.408C6.69748 57.408 7.35881 57.5413 7.93481 57.808C8.52148 58.0747 8.97481 58.4373 9.29481 58.896C9.61481 59.3547 9.77481 59.856 9.77481 60.4C9.77481 61.0933 9.52415 61.7067 9.02281 62.24C8.53215 62.7627 7.86548 63.1093 7.02281 63.28V64.88C8.10015 64.7947 9.00681 64.6347 9.74281 64.4C9.99881 64.3147 10.2015 64.272 10.3508 64.272C10.6175 64.272 10.8361 64.352 11.0068 64.512C11.1775 64.672 11.2628 64.8853 11.2628 65.152C11.2628 65.3547 11.1881 65.536 11.0388 65.696C10.8895 65.856 10.6815 65.984 10.4148 66.08C9.84948 66.2933 9.16148 66.4587 8.35081 66.576C7.54015 66.6933 6.71348 66.752 5.87081 66.752C4.04681 66.752 2.63348 66.6187 1.63081 66.352C1.41748 66.2987 1.24148 66.192 1.10281 66.032C0.964146 65.8827 0.894813 65.7013 0.894813 65.488ZM4.20681 60.4C4.20681 60.7627 4.36148 61.0613 4.67081 61.296C4.99081 61.52 5.41748 61.632 5.95081 61.632C6.48415 61.632 6.90548 61.52 7.21481 61.296C7.53481 61.0613 7.69481 60.7627 7.69481 60.4C7.69481 60.0373 7.53481 59.744 7.21481 59.52C6.90548 59.2853 6.48415 59.168 5.95081 59.168C5.41748 59.168 4.99081 59.2853 4.67081 59.52C4.36148 59.744 4.20681 60.0373 4.20681 60.4ZM11.9348 54.144C11.9348 53.8347 12.0468 53.5947 12.2708 53.424C12.4948 53.2533 12.7401 53.168 13.0068 53.168C13.2735 53.168 13.5188 53.2533 13.7428 53.424C13.9668 53.5947 14.0788 53.8347 14.0788 54.144V68.112C14.0788 68.4213 13.9668 68.6613 13.7428 68.832C13.5188 69.0027 13.2735 69.088 13.0068 69.088C12.7401 69.088 12.4948 69.0027 12.2708 68.832C12.0468 68.6613 11.9348 68.4213 11.9348 68.112V54.144ZM27.2942 54.144C27.2942 53.8347 27.4062 53.5947 27.6302 53.424C27.8542 53.2533 28.0995 53.168 28.3662 53.168C28.6329 53.168 28.8782 53.2533 29.1022 53.424C29.3262 53.5947 29.4382 53.8347 29.4382 54.144V64.528C29.4382 64.8373 29.3262 65.0773 29.1022 65.248C28.8782 65.4187 28.6329 65.504 28.3662 65.504C28.0995 65.504 27.8542 65.4187 27.6302 65.248C27.4062 65.0773 27.2942 64.8373 27.2942 64.528V64.416H24.5582C24.2702 64.416 24.0462 64.3413 23.8862 64.192C23.7369 64.032 23.6622 63.8133 23.6622 63.536C23.6622 63.2587 23.7369 63.0453 23.8862 62.896C24.0462 62.736 24.2702 62.656 24.5582 62.656H27.2942V54.144ZM16.3502 61.296C16.3502 61.0293 16.4515 60.8107 16.6542 60.64C16.8569 60.4693 17.1075 60.384 17.4062 60.384H21.1342C22.0835 60.384 22.8889 60.3573 23.5502 60.304C24.2115 60.2507 24.8302 60.16 25.4062 60.032C25.5555 60.0107 25.6569 60 25.7102 60C25.9875 60 26.2062 60.0853 26.3662 60.256C26.5369 60.416 26.6222 60.6187 26.6222 60.864C26.6222 61.088 26.5529 61.2853 26.4142 61.456C26.2755 61.616 26.0729 61.728 25.8062 61.792C24.8462 62.016 23.6995 62.1493 22.3662 62.192V63.84C22.3662 64.1493 22.2542 64.3733 22.0302 64.512C21.8169 64.6507 21.5715 64.72 21.2942 64.72C21.0169 64.72 20.7662 64.6507 20.5422 64.512C20.3289 64.3733 20.2222 64.1493 20.2222 63.84V62.208H17.4062C17.1075 62.208 16.8569 62.1227 16.6542 61.952C16.4515 61.7813 16.3502 61.5627 16.3502 61.296ZM17.0542 56.592C17.0542 55.984 17.2249 55.44 17.5662 54.96C17.9075 54.48 18.3982 54.1067 19.0382 53.84C19.6782 53.5733 20.4302 53.44 21.2942 53.44C22.1582 53.44 22.9102 53.5733 23.5502 53.84C24.1902 54.1067 24.6809 54.48 25.0222 54.96C25.3635 55.44 25.5342 55.984 25.5342 56.592C25.5342 57.2 25.3635 57.744 25.0222 58.224C24.6809 58.704 24.1902 59.0773 23.5502 59.344C22.9102 59.6107 22.1582 59.744 21.2942 59.744C20.4302 59.744 19.6782 59.6107 19.0382 59.344C18.3982 59.0773 17.9075 58.704 17.5662 58.224C17.2249 57.744 17.0542 57.2 17.0542 56.592ZM18.0782 65.088C18.0782 64.7787 18.1902 64.5387 18.4142 64.368C18.6382 64.1973 18.8835 64.112 19.1502 64.112C19.4169 64.112 19.6622 64.1973 19.8862 64.368C20.1102 64.5387 20.2222 64.7787 20.2222 65.088V66.672C20.2222 66.7467 20.2435 66.8053 20.2862 66.848C20.3289 66.8907 20.3875 66.912 20.4622 66.912H28.7182C28.9955 66.912 29.2142 66.9973 29.3742 67.168C29.5342 67.3387 29.6142 67.5627 29.6142 67.84C29.6142 68.1173 29.5342 68.3413 29.3742 68.512C29.2142 68.6827 28.9955 68.768 28.7182 68.768H19.4542C19.0595 68.768 18.7289 68.6453 18.4622 68.4C18.2062 68.1547 18.0782 67.8453 18.0782 67.472V65.088ZM19.1662 56.592C19.1662 56.9973 19.3582 57.3333 19.7422 57.6C20.1262 57.856 20.6435 57.984 21.2942 57.984C21.9342 57.984 22.4462 57.856 22.8302 57.6C23.2249 57.3333 23.4222 56.9973 23.4222 56.592C23.4222 56.1867 23.2302 55.856 22.8462 55.6C22.4622 55.3333 21.9449 55.2 21.2942 55.2C20.6435 55.2 20.1262 55.3333 19.7422 55.6C19.3582 55.856 19.1662 56.1867 19.1662 56.592ZM45.7144 54.144C45.7144 53.8347 45.8264 53.5947 46.0504 53.424C46.2744 53.2533 46.5198 53.168 46.7864 53.168C47.0531 53.168 47.2984 53.2533 47.5224 53.424C47.7464 53.5947 47.8584 53.8347 47.8584 54.144V58.256H49.1864C49.4638 58.256 49.6824 58.3413 49.8424 58.512C50.0024 58.6827 50.0824 58.9067 50.0824 59.184C50.0824 59.4613 50.0024 59.6853 49.8424 59.856C49.6824 60.0267 49.4638 60.112 49.1864 60.112H47.8584V68.112C47.8584 68.4213 47.7464 68.6613 47.5224 68.832C47.2984 69.0027 47.0531 69.088 46.7864 69.088C46.5198 69.088 46.2744 69.0027 46.0504 68.832C45.8264 68.6613 45.7144 68.4213 45.7144 68.112V54.144ZM35.8744 55.344C35.8744 55.0667 35.9491 54.8427 36.0984 54.672C36.2584 54.5013 36.4771 54.416 36.7544 54.416H42.7864C43.0744 54.416 43.3198 54.5013 43.5224 54.672C43.7251 54.8427 43.8264 55.072 43.8264 55.36C43.8264 56.1493 43.7091 56.9973 43.4744 57.904C42.7598 60.784 40.7918 63.0613 37.5704 64.736C37.4958 64.7893 37.4051 64.832 37.2984 64.864C37.1918 64.8853 37.0958 64.896 37.0104 64.896C36.7224 64.896 36.4718 64.7947 36.2584 64.592C36.0558 64.3893 35.9544 64.1493 35.9544 63.872C35.9544 63.6907 35.9971 63.536 36.0824 63.408C36.1784 63.2693 36.2958 63.1627 36.4344 63.088C37.7998 62.3947 38.8984 61.5627 39.7304 60.592C40.5731 59.6107 41.1438 58.544 41.4424 57.392C41.5491 56.912 41.6131 56.5387 41.6344 56.272H36.7544C36.4771 56.272 36.2584 56.1867 36.0984 56.016C35.9491 55.8453 35.8744 55.6213 35.8744 55.344ZM61.8098 54.144C61.8098 53.8347 61.9218 53.5947 62.1458 53.424C62.3698 53.2533 62.6151 53.168 62.8818 53.168C63.1485 53.168 63.3938 53.2533 63.6178 53.424C63.8418 53.5947 63.9538 53.8347 63.9538 54.144V60.912C63.9538 61.2213 63.8418 61.4613 63.6178 61.632C63.3938 61.8027 63.1485 61.888 62.8818 61.888C62.6151 61.888 62.3698 61.8027 62.1458 61.632C61.9218 61.4613 61.8098 61.2213 61.8098 60.912V54.144ZM51.2978 57.568C51.2978 56.8213 51.4845 56.1547 51.8578 55.568C52.2311 54.9813 52.7485 54.5227 53.4098 54.192C54.0711 53.8613 54.8178 53.696 55.6498 53.696C56.4818 53.696 57.2285 53.8613 57.8898 54.192C58.5511 54.5227 59.0685 54.9813 59.4418 55.568C59.8151 56.1547 60.0018 56.8213 60.0018 57.568C60.0018 58.3147 59.8151 58.976 59.4418 59.552C59.0685 60.128 58.5511 60.576 57.8898 60.896C57.2285 61.216 56.4818 61.376 55.6498 61.376C54.8178 61.376 54.0711 61.216 53.4098 60.896C52.7485 60.576 52.2311 60.128 51.8578 59.552C51.4845 58.976 51.2978 58.3147 51.2978 57.568ZM53.4098 57.568C53.4098 58.176 53.6125 58.6613 54.0178 59.024C54.4338 59.3867 54.9778 59.568 55.6498 59.568C56.3218 59.568 56.8605 59.3867 57.2658 59.024C57.6818 58.6613 57.8898 58.176 57.8898 57.568C57.8898 56.9493 57.6818 56.4533 57.2658 56.08C56.8498 55.696 56.3111 55.504 55.6498 55.504C54.9885 55.504 54.4498 55.696 54.0338 56.08C53.6178 56.4533 53.4098 56.9493 53.4098 57.568ZM53.6018 63.472C53.6018 63.1733 53.7138 62.944 53.9378 62.784C54.1618 62.6133 54.4071 62.528 54.6738 62.528C54.9405 62.528 55.1858 62.6133 55.4098 62.784C55.6338 62.944 55.7458 63.1733 55.7458 63.472V64.112H61.8098V63.472C61.8098 63.1733 61.9218 62.944 62.1458 62.784C62.3698 62.6133 62.6151 62.528 62.8818 62.528C63.1485 62.528 63.3938 62.6133 63.6178 62.784C63.8418 62.944 63.9538 63.1733 63.9538 63.472V67.968C63.9538 68.2773 63.8418 68.5227 63.6178 68.704C63.3938 68.8853 63.1058 68.976 62.7538 68.976H54.8018C54.4498 68.976 54.1618 68.8853 53.9378 68.704C53.7138 68.5227 53.6018 68.2773 53.6018 67.968V63.472ZM61.8098 65.84H55.7458V67.152H61.8098V65.84Z" fill="#75C382"/>
<path d="M18.928 10.252C18.928 9.71067 19.124 9.29067 19.516 8.992C19.908 8.69333 20.3373 8.544 20.804 8.544C21.2707 8.544 21.7 8.69333 22.092 8.992C22.484 9.29067 22.68 9.71067 22.68 10.252V14.228H25.004C25.4893 14.228 25.872 14.3773 26.152 14.676C26.432 14.9747 26.572 15.3667 26.572 15.852C26.572 16.3373 26.432 16.7293 26.152 17.028C25.872 17.3267 25.4893 17.476 25.004 17.476H22.68V22.264C22.68 22.8053 22.484 23.2253 22.092 23.524C21.7 23.8227 21.2707 23.972 20.804 23.972C20.3373 23.972 19.908 23.8227 19.516 23.524C19.124 23.2253 18.928 22.8053 18.928 22.264V10.252ZM1.316 21.396C1.316 21.0787 1.40933 20.78 1.596 20.5C1.78267 20.22 2.044 19.996 2.38 19.828C3.332 19.324 4.19067 18.708 4.956 17.98C5.72133 17.2333 6.28133 16.4307 6.636 15.572C6.89733 14.9373 7.084 14.3773 7.196 13.892C7.308 13.4067 7.364 12.8933 7.364 12.352V11.204C7.364 10.6627 7.56 10.2427 7.952 9.944C8.344 9.64533 8.77333 9.496 9.24 9.496C9.70667 9.496 10.136 9.64533 10.528 9.944C10.92 10.2427 11.116 10.6627 11.116 11.204V12.268C11.116 12.828 11.1627 13.36 11.256 13.864C11.368 14.368 11.5453 14.9187 11.788 15.516C12.3667 16.972 13.7013 18.316 15.792 19.548C16.52 19.9773 16.884 20.4813 16.884 21.06C16.884 21.5267 16.7253 21.928 16.408 22.264C16.0907 22.5813 15.6613 22.74 15.12 22.74C14.8027 22.74 14.4573 22.656 14.084 22.488C13.188 22.04 12.292 21.4333 11.396 20.668C10.5187 19.884 9.8 19.0253 9.24 18.092C8.64267 19.044 7.91467 19.9213 7.056 20.724C6.19733 21.5267 5.28267 22.18 4.312 22.684C3.93867 22.8707 3.50933 22.964 3.024 22.964C2.53867 22.964 2.128 22.824 1.792 22.544C1.47467 22.2453 1.316 21.8627 1.316 21.396ZM5.012 27.052C5.012 26.5107 5.208 26.0813 5.6 25.764C5.992 25.4467 6.496 25.288 7.112 25.288H20.58C21.196 25.288 21.7 25.4467 22.092 25.764C22.484 26.0813 22.68 26.5107 22.68 27.052V34.388C22.68 34.9293 22.484 35.3587 22.092 35.676C21.7 35.9933 21.196 36.152 20.58 36.152H7.112C6.496 36.152 5.992 35.9933 5.6 35.676C5.208 35.3587 5.012 34.9293 5.012 34.388V27.052ZM18.928 28.48H8.764V32.96H18.928V28.48ZM47.0949 10.252C47.0949 9.71067 47.2909 9.29067 47.6829 8.992C48.0749 8.69333 48.5042 8.544 48.9709 8.544C49.4376 8.544 49.8669 8.69333 50.2589 8.992C50.6509 9.29067 50.8469 9.71067 50.8469 10.252V34.696C50.8469 35.2373 50.6509 35.6573 50.2589 35.956C49.8669 36.2547 49.4376 36.404 48.9709 36.404C48.5042 36.404 48.0749 36.2547 47.6829 35.956C47.2909 35.6573 47.0949 35.2373 47.0949 34.696V10.252ZM28.4189 27.472C28.4189 26.9493 28.6616 26.492 29.1469 26.1C30.2856 25.1853 31.2656 24.1027 32.0869 22.852C32.9269 21.5827 33.5522 20.2853 33.9629 18.96C34.4482 17.3733 34.6909 15.7027 34.6909 13.948V11.82C34.6909 11.2787 34.8776 10.8587 35.2509 10.56C35.6242 10.2613 36.0536 10.112 36.5389 10.112C37.0429 10.112 37.4722 10.2613 37.8269 10.56C38.2002 10.8587 38.3869 11.2787 38.3869 11.82V13.948C38.3869 15.572 38.6109 17.224 39.0589 18.904C39.4322 20.3227 40.0389 21.62 40.8789 22.796C41.7376 23.9533 42.7456 24.952 43.9029 25.792C44.4256 26.2027 44.6869 26.66 44.6869 27.164C44.6869 27.6307 44.5002 28.032 44.1269 28.368C43.7536 28.704 43.3242 28.872 42.8389 28.872C42.4282 28.872 42.0362 28.7413 41.6629 28.48C39.5722 27.0053 37.8642 24.9987 36.5389 22.46C35.1016 25.1293 33.4589 27.2013 31.6109 28.676C31.1816 29.012 30.7336 29.18 30.2669 29.18C29.7816 29.18 29.3522 29.0213 28.9789 28.704C28.6056 28.368 28.4189 27.9573 28.4189 27.472ZM56.6978 28.508C56.2311 28.508 55.8298 28.3493 55.4938 28.032C55.1578 27.696 54.9898 27.2947 54.9898 26.828C54.9898 26.38 55.2045 25.9227 55.6338 25.456C56.5111 24.504 57.2111 23.5147 57.7338 22.488C58.2565 21.4613 58.6765 20.3133 58.9938 19.044C59.2178 18.204 59.3671 17.3827 59.4418 16.58C59.5351 15.7587 59.5818 14.8533 59.5818 13.864V11.736C59.5818 11.1947 59.7685 10.7747 60.1418 10.476C60.5338 10.1773 60.9631 10.028 61.4298 10.028C61.9151 10.028 62.3445 10.1773 62.7178 10.476C63.0911 10.756 63.2778 11.176 63.2778 11.736V13.864C63.2778 15.8987 63.4551 17.616 63.8098 19.016C64.1458 20.36 64.5658 21.5267 65.0698 22.516C65.5925 23.4867 66.2645 24.4573 67.0858 25.428C67.3098 25.6893 67.4871 25.9413 67.6178 26.184C67.7485 26.408 67.8138 26.6693 67.8138 26.968C67.8138 27.3787 67.6551 27.7427 67.3378 28.06C67.0205 28.3587 66.6285 28.508 66.1618 28.508C65.7511 28.508 65.3871 28.4053 65.0698 28.2C64.7525 27.9947 64.4351 27.696 64.1178 27.304C63.4645 26.464 62.8671 25.512 62.3258 24.448C61.8031 23.3653 61.4951 22.4133 61.4018 21.592C61.2898 22.4133 60.9725 23.356 60.4498 24.42C59.9271 25.4653 59.3391 26.4173 58.6858 27.276C58.3311 27.724 58.0231 28.0413 57.7618 28.228C57.5005 28.4147 57.1458 28.508 56.6978 28.508ZM65.6578 18.288C65.6578 17.8027 65.7978 17.4107 66.0778 17.112C66.3578 16.8133 66.7405 16.664 67.2258 16.664H69.0738V10.56C69.0738 10.0187 69.2698 9.59867 69.6618 9.3C70.0538 9.00133 70.4738 8.852 70.9218 8.852C71.3885 8.852 71.8085 9.00133 72.1818 9.3C72.5738 9.58 72.7698 10 72.7698 10.56V34.136C72.7698 34.696 72.5738 35.116 72.1818 35.396C71.8085 35.6947 71.3885 35.844 70.9218 35.844C70.4738 35.844 70.0538 35.6947 69.6618 35.396C69.2698 35.0973 69.0738 34.6773 69.0738 34.136V19.912H67.2258C66.7405 19.912 66.3578 19.7627 66.0778 19.464C65.7978 19.1653 65.6578 18.7733 65.6578 18.288ZM74.8698 10.252C74.8698 9.71067 75.0658 9.29067 75.4578 8.992C75.8498 8.69333 76.2698 8.544 76.7178 8.544C77.1845 8.544 77.6045 8.69333 77.9778 8.992C78.3698 9.272 78.5658 9.692 78.5658 10.252V34.64C78.5658 35.2 78.3698 35.62 77.9778 35.9C77.6045 36.1987 77.1845 36.348 76.7178 36.348C76.2698 36.348 75.8498 36.1987 75.4578 35.9C75.0658 35.6013 74.8698 35.1813 74.8698 34.64V10.252ZM100.853 10.252C100.853 9.71067 101.049 9.29067 101.441 8.992C101.833 8.69333 102.262 8.544 102.729 8.544C103.195 8.544 103.625 8.69333 104.017 8.992C104.409 9.29067 104.605 9.71067 104.605 10.252V34.696C104.605 35.2373 104.409 35.6573 104.017 35.956C103.625 36.2547 103.195 36.404 102.729 36.404C102.262 36.404 101.833 36.2547 101.441 35.956C101.049 35.6573 100.853 35.2373 100.853 34.696V10.252ZM82.5407 25.232C83.7914 23.3093 84.7527 21.3587 85.4247 19.38C86.1154 17.3827 86.4607 15.5627 86.4607 13.92H83.8007C83.3714 13.92 83.0354 13.7613 82.7927 13.444C82.5501 13.1267 82.4287 12.744 82.4287 12.296C82.4287 11.848 82.5501 11.4653 82.7927 11.148C83.0354 10.8307 83.3714 10.672 83.8007 10.672H88.2247C88.7474 10.672 89.1861 10.84 89.5407 11.176C89.9141 11.4933 90.1007 11.904 90.1007 12.408C90.1007 18.008 88.5421 22.992 85.4247 27.36C85.0701 27.8453 84.6127 28.088 84.0527 28.088C83.5674 28.088 83.1287 27.92 82.7367 27.584C82.3634 27.2293 82.1767 26.8093 82.1767 26.324C82.1767 25.9693 82.2981 25.6053 82.5407 25.232ZM91.1367 26.94C92.2941 24.812 93.1341 22.712 93.6567 20.64C94.1794 18.5493 94.4407 16.272 94.4407 13.808H92.1727C91.7994 13.808 91.5007 13.6493 91.2767 13.332C91.0714 12.996 90.9687 12.6133 90.9687 12.184C90.9687 11.7547 91.0714 11.3813 91.2767 11.064C91.5007 10.728 91.7994 10.56 92.1727 10.56H96.1767C96.6994 10.56 97.1381 10.728 97.4927 11.064C97.8661 11.3813 98.0527 11.792 98.0527 12.296C98.0527 15.88 97.7541 18.9133 97.1567 21.396C96.5781 23.86 95.5981 26.324 94.2167 28.788C93.9181 29.3107 93.4701 29.572 92.8727 29.572C92.3874 29.572 91.9394 29.3947 91.5287 29.04C91.1181 28.6853 90.9127 28.2653 90.9127 27.78C90.9127 27.4627 90.9874 27.1827 91.1367 26.94Z" fill="#75C382"/>
</svg>
