<svg width="74" height="74" viewBox="0 0 74 74" fill="none" xmlns="http://www.w3.org/2000/svg">
<path d="M17.7597 61.1266C21.3284 54.1271 28.6044 49.3334 37 49.3334C45.3309 49.3334 52.5591 54.0534 56.1571 60.9647M44.1944 32.2036C44.1944 36.3665 40.82 39.7409 36.6575 39.7409C32.495 39.7409 29.1204 36.3665 29.1204 32.2036C29.1204 28.0412 32.495 24.6667 36.6575 24.6667C40.82 24.6667 44.1944 28.0412 44.1944 32.2036ZM37 67.8334C19.9712 67.8334 6.16669 54.0287 6.16669 37.0001C6.16669 19.9713 19.9712 6.16675 37 6.16675C54.0287 6.16675 67.8334 19.9713 67.8334 37.0001C67.8334 54.0287 54.0287 67.8334 37 67.8334Z" stroke="black" stroke-width="2" stroke-linecap="round" stroke-linejoin="round"/>
</svg>
