<svg width="184" height="48" viewBox="0 0 184 48" fill="none" xmlns="http://www.w3.org/2000/svg">
<path d="M7.88275 11.484C9.17075 11.6893 10.7388 11.8293 12.5868 11.904V10.308C12.5868 9.804 12.7734 9.39333 13.1468 9.076C13.5201 8.74 13.9588 8.572 14.4628 8.572C14.9668 8.572 15.4054 8.74 15.7788 9.076C16.1521 9.39333 16.3388 9.804 16.3388 10.308V11.876C18.0934 11.82 19.5868 11.6987 20.8188 11.512C20.8934 11.4933 20.9868 11.484 21.0988 11.484C21.5468 11.484 21.9294 11.624 22.2468 11.904C22.5641 12.184 22.7228 12.576 22.7228 13.08C22.7228 13.4907 22.6014 13.836 22.3588 14.116C22.1161 14.3773 21.7801 14.5547 21.3508 14.648C20.6041 14.7787 19.5681 14.8907 18.2428 14.984C16.9174 15.0773 15.6574 15.124 14.4628 15.124C13.1934 15.124 11.9054 15.0867 10.5988 15.012C9.29208 14.9187 8.20942 14.7973 7.35075 14.648C6.92142 14.5547 6.58542 14.3773 6.34275 14.116C6.10008 13.836 5.97875 13.4907 5.97875 13.08C5.97875 12.52 6.16542 12.1 6.53875 11.82C6.93075 11.5213 7.37875 11.4093 7.88275 11.484ZM5.61475 30.104C5.61475 29.6187 5.77342 29.236 6.09075 28.956C6.40808 28.6573 6.80008 28.508 7.26675 28.508C7.41608 28.508 7.66808 28.5453 8.02275 28.62C9.23608 28.8813 10.7574 29.04 12.5868 29.096V26.24C11.1121 25.9413 9.93608 25.3347 9.05875 24.42C8.20008 23.4867 7.77075 22.4133 7.77075 21.2C7.77075 20.248 8.05075 19.3707 8.61075 18.568C9.17075 17.7653 9.95475 17.1307 10.9628 16.664C11.9894 16.1973 13.1561 15.964 14.4628 15.964C15.7694 15.964 16.9268 16.1973 17.9348 16.664C18.9614 17.1307 19.7548 17.7653 20.3148 18.568C20.8748 19.3707 21.1548 20.248 21.1548 21.2C21.1548 22.4133 20.7161 23.4867 19.8388 24.42C18.9801 25.3347 17.8134 25.9413 16.3388 26.24V29.04C18.2241 28.8907 19.8108 28.6107 21.0988 28.2C21.5468 28.0507 21.9014 27.976 22.1628 27.976C22.6294 27.976 23.0121 28.116 23.3108 28.396C23.6094 28.676 23.7588 29.0493 23.7588 29.516C23.7588 29.8707 23.6281 30.188 23.3668 30.468C23.1054 30.748 22.7414 30.972 22.2748 31.14C21.2854 31.5133 20.0814 31.8027 18.6628 32.008C17.2441 32.2133 15.7974 32.316 14.3228 32.316C11.1308 32.316 8.65742 32.0827 6.90275 31.616C6.52942 31.5227 6.22142 31.336 5.97875 31.056C5.73608 30.7947 5.61475 30.4773 5.61475 30.104ZM11.4108 21.2C11.4108 21.8347 11.6814 22.3573 12.2228 22.768C12.7828 23.16 13.5294 23.356 14.4628 23.356C15.3961 23.356 16.1334 23.16 16.6748 22.768C17.2348 22.3573 17.5148 21.8347 17.5148 21.2C17.5148 20.5653 17.2348 20.052 16.6748 19.66C16.1334 19.2493 15.3961 19.044 14.4628 19.044C13.5294 19.044 12.7828 19.2493 12.2228 19.66C11.6814 20.052 11.4108 20.5653 11.4108 21.2ZM24.9348 10.252C24.9348 9.71067 25.1308 9.29067 25.5228 8.992C25.9148 8.69333 26.3441 8.544 26.8108 8.544C27.2774 8.544 27.7068 8.69333 28.0988 8.992C28.4908 9.29067 28.6868 9.71067 28.6868 10.252V34.696C28.6868 35.2373 28.4908 35.6573 28.0988 35.956C27.7068 36.2547 27.2774 36.404 26.8108 36.404C26.3441 36.404 25.9148 36.2547 25.5228 35.956C25.1308 35.6573 24.9348 35.2373 24.9348 34.696V10.252ZM51.8137 10.252C51.8137 9.71067 52.0097 9.29067 52.4017 8.992C52.7937 8.69333 53.223 8.544 53.6897 8.544C54.1563 8.544 54.5857 8.69333 54.9777 8.992C55.3697 9.29067 55.5657 9.71067 55.5657 10.252V28.424C55.5657 28.9653 55.3697 29.3853 54.9777 29.684C54.5857 29.9827 54.1563 30.132 53.6897 30.132C53.223 30.132 52.7937 29.9827 52.4017 29.684C52.0097 29.3853 51.8137 28.9653 51.8137 28.424V28.228H47.0257C46.5217 28.228 46.1297 28.0973 45.8497 27.836C45.5883 27.556 45.4577 27.1733 45.4577 26.688C45.4577 26.2027 45.5883 25.8293 45.8497 25.568C46.1297 25.288 46.5217 25.148 47.0257 25.148H51.8137V10.252ZM32.6617 22.768C32.6617 22.3013 32.839 21.9187 33.1937 21.62C33.5483 21.3213 33.987 21.172 34.5097 21.172H41.0337C42.695 21.172 44.1043 21.1253 45.2617 21.032C46.419 20.9387 47.5017 20.78 48.5097 20.556C48.771 20.5187 48.9483 20.5 49.0417 20.5C49.527 20.5 49.9097 20.6493 50.1897 20.948C50.4883 21.228 50.6377 21.5827 50.6377 22.012C50.6377 22.404 50.5163 22.7493 50.2737 23.048C50.031 23.328 49.6763 23.524 49.2097 23.636C47.5297 24.028 45.523 24.2613 43.1897 24.336V27.22C43.1897 27.7613 42.9937 28.1533 42.6017 28.396C42.2283 28.6387 41.799 28.76 41.3137 28.76C40.8283 28.76 40.3897 28.6387 39.9977 28.396C39.6243 28.1533 39.4377 27.7613 39.4377 27.22V24.364H34.5097C33.987 24.364 33.5483 24.2147 33.1937 23.916C32.839 23.6173 32.6617 23.2347 32.6617 22.768ZM33.8937 14.536C33.8937 13.472 34.1923 12.52 34.7897 11.68C35.387 10.84 36.2457 10.1867 37.3657 9.72C38.4857 9.25333 39.8017 9.02 41.3137 9.02C42.8257 9.02 44.1417 9.25333 45.2617 9.72C46.3817 10.1867 47.2403 10.84 47.8377 11.68C48.435 12.52 48.7337 13.472 48.7337 14.536C48.7337 15.6 48.435 16.552 47.8377 17.392C47.2403 18.232 46.3817 18.8853 45.2617 19.352C44.1417 19.8187 42.8257 20.052 41.3137 20.052C39.8017 20.052 38.4857 19.8187 37.3657 19.352C36.2457 18.8853 35.387 18.232 34.7897 17.392C34.1923 16.552 33.8937 15.6 33.8937 14.536ZM35.6857 29.404C35.6857 28.8627 35.8817 28.4427 36.2737 28.144C36.6657 27.8453 37.095 27.696 37.5617 27.696C38.0283 27.696 38.4577 27.8453 38.8497 28.144C39.2417 28.4427 39.4377 28.8627 39.4377 29.404V32.176C39.4377 32.3067 39.475 32.4093 39.5497 32.484C39.6243 32.5587 39.727 32.596 39.8577 32.596H54.3057C54.791 32.596 55.1737 32.7453 55.4537 33.044C55.7337 33.3427 55.8737 33.7347 55.8737 34.22C55.8737 34.7053 55.7337 35.0973 55.4537 35.396C55.1737 35.6947 54.791 35.844 54.3057 35.844H38.0937C37.403 35.844 36.8243 35.6293 36.3577 35.2C35.9097 34.7707 35.6857 34.2293 35.6857 33.576V29.404ZM37.5897 14.536C37.5897 15.2453 37.9257 15.8333 38.5977 16.3C39.2697 16.748 40.175 16.972 41.3137 16.972C42.4337 16.972 43.3297 16.748 44.0017 16.3C44.6923 15.8333 45.0377 15.2453 45.0377 14.536C45.0377 13.8267 44.7017 13.248 44.0297 12.8C43.3577 12.3333 42.4523 12.1 41.3137 12.1C40.175 12.1 39.2697 12.3333 38.5977 12.8C37.9257 13.248 37.5897 13.8267 37.5897 14.536ZM84.0491 10.252C84.0491 9.71067 84.2451 9.29067 84.6371 8.992C85.0291 8.69333 85.4584 8.544 85.9251 8.544C86.3918 8.544 86.8211 8.69333 87.2131 8.992C87.6051 9.29067 87.8011 9.71067 87.8011 10.252V17.448H90.1251C90.6104 17.448 90.9931 17.5973 91.2731 17.896C91.5531 18.1947 91.6931 18.5867 91.6931 19.072C91.6931 19.5573 91.5531 19.9493 91.2731 20.248C90.9931 20.5467 90.6104 20.696 90.1251 20.696H87.8011V34.696C87.8011 35.2373 87.6051 35.6573 87.2131 35.956C86.8211 36.2547 86.3918 36.404 85.9251 36.404C85.4584 36.404 85.0291 36.2547 84.6371 35.956C84.2451 35.6573 84.0491 35.2373 84.0491 34.696V10.252ZM66.8291 12.352C66.8291 11.8667 66.9598 11.4747 67.2211 11.176C67.5011 10.8773 67.8838 10.728 68.3691 10.728H78.9251C79.4291 10.728 79.8584 10.8773 80.2131 11.176C80.5678 11.4747 80.7451 11.876 80.7451 12.38C80.7451 13.7613 80.5398 15.2453 80.1291 16.832C78.8784 21.872 75.4344 25.8573 69.7971 28.788C69.6664 28.8813 69.5078 28.956 69.3211 29.012C69.1344 29.0493 68.9664 29.068 68.8171 29.068C68.3131 29.068 67.8744 28.8907 67.5011 28.536C67.1464 28.1813 66.9691 27.7613 66.9691 27.276C66.9691 26.9587 67.0438 26.688 67.1931 26.464C67.3611 26.2213 67.5664 26.0347 67.8091 25.904C70.1984 24.6907 72.1211 23.2347 73.5771 21.536C75.0518 19.8187 76.0504 17.952 76.5731 15.936C76.7598 15.096 76.8718 14.4427 76.9091 13.976H68.3691C67.8838 13.976 67.5011 13.8267 67.2211 13.528C66.9598 13.2293 66.8291 12.8373 66.8291 12.352ZM112.216 10.252C112.216 9.71067 112.412 9.29067 112.804 8.992C113.196 8.69333 113.625 8.544 114.092 8.544C114.559 8.544 114.988 8.69333 115.38 8.992C115.772 9.29067 115.968 9.71067 115.968 10.252V22.096C115.968 22.6373 115.772 23.0573 115.38 23.356C114.988 23.6547 114.559 23.804 114.092 23.804C113.625 23.804 113.196 23.6547 112.804 23.356C112.412 23.0573 112.216 22.6373 112.216 22.096V10.252ZM93.82 16.244C93.82 14.9373 94.1467 13.7707 94.8 12.744C95.4533 11.7173 96.3587 10.9147 97.516 10.336C98.6733 9.75733 99.98 9.468 101.436 9.468C102.892 9.468 104.199 9.75733 105.356 10.336C106.513 10.9147 107.419 11.7173 108.072 12.744C108.725 13.7707 109.052 14.9373 109.052 16.244C109.052 17.5507 108.725 18.708 108.072 19.716C107.419 20.724 106.513 21.508 105.356 22.068C104.199 22.628 102.892 22.908 101.436 22.908C99.98 22.908 98.6733 22.628 97.516 22.068C96.3587 21.508 95.4533 20.724 94.8 19.716C94.1467 18.708 93.82 17.5507 93.82 16.244ZM97.516 16.244C97.516 17.308 97.8707 18.1573 98.58 18.792C99.308 19.4267 100.26 19.744 101.436 19.744C102.612 19.744 103.555 19.4267 104.264 18.792C104.992 18.1573 105.356 17.308 105.356 16.244C105.356 15.1613 104.992 14.2933 104.264 13.64C103.536 12.968 102.593 12.632 101.436 12.632C100.279 12.632 99.336 12.968 98.608 13.64C97.88 14.2933 97.516 15.1613 97.516 16.244ZM97.852 26.576C97.852 26.0533 98.048 25.652 98.44 25.372C98.832 25.0733 99.2613 24.924 99.728 24.924C100.195 24.924 100.624 25.0733 101.016 25.372C101.408 25.652 101.604 26.0533 101.604 26.576V27.696H112.216V26.576C112.216 26.0533 112.412 25.652 112.804 25.372C113.196 25.0733 113.625 24.924 114.092 24.924C114.559 24.924 114.988 25.0733 115.38 25.372C115.772 25.652 115.968 26.0533 115.968 26.576V34.444C115.968 34.9853 115.772 35.4147 115.38 35.732C114.988 36.0493 114.484 36.208 113.868 36.208H99.952C99.336 36.208 98.832 36.0493 98.44 35.732C98.048 35.4147 97.852 34.9853 97.852 34.444V26.576ZM112.216 30.72H101.604V33.016H112.216V30.72ZM144.451 10.252C144.451 9.71067 144.647 9.29067 145.039 8.992C145.431 8.69333 145.861 8.544 146.327 8.544C146.794 8.544 147.223 8.69333 147.615 8.992C148.007 9.29067 148.203 9.71067 148.203 10.252V15.768H150.527C151.013 15.768 151.395 15.9173 151.675 16.216C151.955 16.5147 152.095 16.9067 152.095 17.392C152.095 17.8773 151.955 18.2693 151.675 18.568C151.395 18.8667 151.013 19.016 150.527 19.016H148.203V28.256C148.203 28.7973 148.007 29.2173 147.615 29.516C147.223 29.8147 146.794 29.964 146.327 29.964C145.861 29.964 145.431 29.8147 145.039 29.516C144.647 29.2173 144.451 28.7973 144.451 28.256V10.252ZM126.307 24.644C126.307 24.1587 126.457 23.776 126.755 23.496C127.073 23.1973 127.483 23.048 127.987 23.048H132.607V21.144C130.965 20.8267 129.677 20.1453 128.743 19.1C127.829 18.036 127.371 16.7573 127.371 15.264C127.371 14.1067 127.651 13.0707 128.211 12.156C128.79 11.2413 129.611 10.5227 130.675 10C131.758 9.47733 133.027 9.216 134.483 9.216C135.939 9.216 137.199 9.47733 138.263 10C139.346 10.5227 140.167 11.2413 140.727 12.156C141.306 13.0707 141.595 14.1067 141.595 15.264C141.595 16.7573 141.129 18.036 140.195 19.1C139.281 20.1453 138.002 20.8267 136.359 21.144V23.02C138.338 22.9453 140.027 22.7493 141.427 22.432C141.689 22.3947 141.866 22.376 141.959 22.376C142.445 22.376 142.827 22.5253 143.107 22.824C143.406 23.104 143.555 23.4587 143.555 23.888C143.555 24.28 143.434 24.6253 143.191 24.924C142.949 25.204 142.594 25.4 142.127 25.512C141.045 25.7733 139.859 25.96 138.571 26.072C137.283 26.184 135.743 26.24 133.951 26.24H127.987C127.483 26.24 127.073 26.1 126.755 25.82C126.457 25.5213 126.307 25.1293 126.307 24.644ZM129.471 29.348C129.471 28.8067 129.667 28.3867 130.059 28.088C130.451 27.7893 130.881 27.64 131.347 27.64C131.814 27.64 132.243 27.7893 132.635 28.088C133.027 28.3867 133.223 28.8067 133.223 29.348V32.176C133.223 32.3067 133.261 32.4093 133.335 32.484C133.41 32.5587 133.513 32.596 133.643 32.596H147.167C147.653 32.596 148.035 32.7453 148.315 33.044C148.595 33.3427 148.735 33.7347 148.735 34.22C148.735 34.7053 148.595 35.0973 148.315 35.396C148.035 35.6947 147.653 35.844 147.167 35.844H131.879C131.189 35.844 130.61 35.6293 130.143 35.2C129.695 34.7707 129.471 34.2293 129.471 33.576V29.348ZM131.067 15.264C131.067 16.1227 131.375 16.8133 131.991 17.336C132.607 17.8587 133.438 18.12 134.483 18.12C135.529 18.12 136.359 17.8587 136.975 17.336C137.591 16.8133 137.899 16.1227 137.899 15.264C137.899 14.4053 137.591 13.7147 136.975 13.192C136.359 12.6693 135.529 12.408 134.483 12.408C133.438 12.408 132.607 12.6693 131.991 13.192C131.375 13.7147 131.067 14.4053 131.067 15.264ZM156.686 18.036C156.686 17.4947 156.882 17.0653 157.274 16.748C157.666 16.4307 158.17 16.272 158.786 16.272H171.162V13.36H158.03C157.47 13.36 157.069 13.2107 156.826 12.912C156.602 12.5947 156.49 12.212 156.49 11.764C156.49 11.2973 156.602 10.9147 156.826 10.616C157.069 10.3173 157.47 10.168 158.03 10.168H172.814C173.43 10.168 173.934 10.3267 174.326 10.644C174.718 10.9613 174.914 11.3907 174.914 11.932V17.868C174.914 18.316 174.728 18.6893 174.354 18.988C174 19.268 173.57 19.408 173.066 19.408H160.438V21.984C160.438 22.152 160.513 22.2547 160.662 22.292C161.241 22.4413 162.016 22.5627 162.986 22.656C163.957 22.7307 164.965 22.768 166.01 22.768C167.149 22.768 168.428 22.684 169.846 22.516C171.265 22.348 172.581 22.1147 173.794 21.816C174 21.76 174.186 21.732 174.354 21.732C174.858 21.732 175.26 21.9 175.558 22.236C175.857 22.5533 176.006 22.9267 176.006 23.356C176.006 23.7107 175.894 24.028 175.67 24.308C175.446 24.588 175.11 24.784 174.662 24.896C173.785 25.12 172.87 25.3067 171.918 25.456V29.572C173.43 29.3667 174.886 29.0867 176.286 28.732C176.398 28.6947 176.566 28.676 176.79 28.676C177.257 28.676 177.64 28.8347 177.938 29.152C178.237 29.4693 178.386 29.8427 178.386 30.272C178.386 30.6267 178.274 30.9533 178.05 31.252C177.826 31.5507 177.49 31.756 177.042 31.868C173.813 32.764 170.08 33.212 165.842 33.212C161.605 33.212 157.872 32.764 154.642 31.868C154.194 31.756 153.858 31.5507 153.634 31.252C153.41 30.9533 153.298 30.6267 153.298 30.272C153.298 29.8427 153.448 29.4693 153.746 29.152C154.045 28.816 154.428 28.648 154.894 28.648C155.062 28.648 155.23 28.676 155.398 28.732C156.705 29.0867 158.254 29.3853 160.046 29.628V25.428C159.412 25.2787 158.954 25.1573 158.674 25.064C157.965 24.8213 157.452 24.4853 157.134 24.056C156.836 23.608 156.686 23.048 156.686 22.376V18.036ZM163.798 29.936C164.246 29.9547 164.928 29.964 165.842 29.964C166.384 29.964 167.158 29.9453 168.166 29.908V25.876C167.42 25.932 166.701 25.96 166.01 25.96C165.506 25.96 164.769 25.9413 163.798 25.904V29.936Z" fill="#75C382"/>
</svg>
