<svg width="138" height="51" viewBox="0 0 138 51" fill="none" xmlns="http://www.w3.org/2000/svg">
<path d="M31.2529 20.55C31.9529 16.85 32.3029 13.4333 32.3029 10.3V9.4H9.15293C8.28626 9.4 7.60293 9.13333 7.10293 8.6C6.63626 8.06667 6.40293 7.36666 6.40293 6.5C6.40293 5.63333 6.63626 4.93333 7.10293 4.4C7.60293 3.86666 8.28626 3.6 9.15293 3.6H35.6029C36.5029 3.6 37.2863 3.88333 37.9529 4.45C38.6196 5.01667 38.9529 5.75 38.9529 6.65C38.9529 9.88333 38.8529 12.6667 38.6529 15C38.4863 17.3 38.1696 19.7333 37.7029 22.3C37.5696 23.0667 37.2029 23.6333 36.6029 24C36.0363 24.3333 35.4029 24.5 34.7029 24.5C33.7696 24.5 32.9029 24.2167 32.1029 23.65C31.3363 23.0833 31.0029 22.3833 31.1029 21.55L31.2529 20.55ZM0.60293 29.35C0.60293 28.5833 0.869596 27.9167 1.40293 27.35C1.93626 26.75 2.6196 26.45 3.45293 26.45C3.75293 26.45 4.05293 26.5 4.35293 26.6C9.98626 28.0667 16.2029 28.8 23.0029 28.8C29.8029 28.8 36.0196 28.0667 41.6529 26.6C41.8529 26.5333 42.1529 26.5 42.5529 26.5C43.3863 26.5 44.0696 26.7833 44.6029 27.35C45.1363 27.9167 45.4029 28.5833 45.4029 29.35C45.4029 29.9833 45.2029 30.5667 44.8029 31.1C44.4029 31.6333 43.8029 32 43.0029 32.2C38.1363 33.5667 32.5863 34.35 26.3529 34.55V47.6C26.3529 48.5333 26.0196 49.2667 25.3529 49.8C24.7196 50.3333 23.9363 50.6 23.0029 50.6C22.1029 50.6 21.3196 50.3333 20.6529 49.8C19.9863 49.2667 19.6529 48.5333 19.6529 47.6V34.55C13.4196 34.35 7.8696 33.5667 3.00293 32.2C2.20293 32 1.60293 31.6333 1.20293 31.1C0.80293 30.5667 0.60293 29.9833 0.60293 29.35ZM71.001 44.95C63.4343 44.95 56.7676 44.15 51.001 42.55C50.201 42.35 49.601 41.9833 49.201 41.45C48.801 40.9167 48.601 40.3333 48.601 39.7C48.601 38.9333 48.8676 38.2667 49.401 37.7C49.9343 37.1 50.6176 36.8 51.451 36.8C51.751 36.8 52.051 36.85 52.351 36.95C57.0176 38.1833 62.1176 38.9 67.651 39.1V29.45C62.6176 29.25 58.401 28.6833 55.001 27.75C54.201 27.5833 53.551 27.25 53.051 26.75C52.5843 26.25 52.351 25.6667 52.351 25C52.351 24.1333 52.601 23.4333 53.101 22.9C53.601 22.3667 54.2676 22.1 55.101 22.1C55.2676 22.1 55.4843 22.1167 55.751 22.15C56.0176 22.1833 56.2343 22.2167 56.401 22.25L57.401 22.45L59.651 22.9V10H56.051C55.151 10 54.4176 9.73333 53.851 9.2C53.2843 8.66667 53.001 7.98333 53.001 7.15C53.001 6.31667 53.2843 5.63333 53.851 5.1C54.4176 4.56666 55.151 4.3 56.051 4.3H85.451C86.351 4.3 87.0843 4.56666 87.651 5.1C88.2176 5.63333 88.501 6.31667 88.501 7.15C88.501 7.98333 88.2176 8.66667 87.651 9.2C87.0843 9.73333 86.351 10 85.451 10H81.851V22.9L84.101 22.45L85.101 22.25C85.2676 22.2167 85.4843 22.1833 85.751 22.15C86.0176 22.1167 86.2343 22.1 86.401 22.1C87.2343 22.1 87.901 22.3667 88.401 22.9C88.901 23.4333 89.151 24.1333 89.151 25C89.151 25.6667 88.901 26.25 88.401 26.75C87.9343 27.25 87.301 27.5833 86.501 27.75C83.101 28.65 79.051 29.2 74.351 29.4V39.1C79.8176 38.9 84.9176 38.1833 89.651 36.95C89.851 36.8833 90.151 36.85 90.551 36.85C91.3843 36.85 92.0676 37.1333 92.601 37.7C93.1343 38.2667 93.401 38.9333 93.401 39.7C93.401 40.3333 93.201 40.9167 92.801 41.45C92.401 41.9833 91.801 42.35 91.001 42.55C85.2343 44.15 78.5676 44.95 71.001 44.95ZM66.351 23.65C67.8176 23.75 69.2843 23.8 70.751 23.8C72.251 23.8 73.7176 23.75 75.151 23.65V10H66.351V23.65ZM131.099 3.95C131.099 2.98333 131.449 2.23333 132.149 1.7C132.849 1.16666 133.616 0.899998 134.449 0.899998C135.282 0.899998 136.049 1.16666 136.749 1.7C137.449 2.23333 137.799 2.98333 137.799 3.95V26.1C137.799 27.0667 137.449 27.8167 136.749 28.35C136.049 28.8833 135.282 29.15 134.449 29.15C133.616 29.15 132.849 28.8833 132.149 28.35C131.449 27.8167 131.099 27.0667 131.099 26.1V21.9H122.449C121.282 23.3333 119.766 24.45 117.899 25.25C116.032 26.0167 113.932 26.4 111.599 26.4C108.966 26.4 106.632 25.9 104.599 24.9C102.599 23.9 101.032 22.5167 99.899 20.75C98.799 18.95 98.249 16.8833 98.249 14.55C98.249 12.2167 98.799 10.15 99.899 8.35C101.032 6.55 102.599 5.16667 104.599 4.2C106.632 3.2 108.966 2.7 111.599 2.7C113.832 2.7 115.849 3.06667 117.649 3.8C119.449 4.5 120.932 5.5 122.099 6.8H131.099V3.95ZM104.849 14.55C104.849 16.3833 105.482 17.8833 106.749 19.05C108.016 20.1833 109.632 20.75 111.599 20.75C113.566 20.75 115.182 20.1833 116.449 19.05C117.716 17.8833 118.349 16.3833 118.349 14.55C118.349 12.7167 117.716 11.2333 116.449 10.1C115.182 8.93333 113.566 8.35 111.599 8.35C109.632 8.35 108.016 8.93333 106.749 10.1C105.482 11.2333 104.849 12.7167 104.849 14.55ZM106.049 34.15C106.049 33.2833 106.299 32.6 106.799 32.1C107.299 31.5667 107.999 31.3 108.899 31.3H134.049C135.149 31.3 136.049 31.5833 136.749 32.15C137.449 32.7167 137.799 33.4833 137.799 34.45V47.45C137.799 48.4167 137.449 49.1667 136.749 49.7C136.049 50.2333 135.282 50.5 134.449 50.5C133.616 50.5 132.849 50.2333 132.149 49.7C131.449 49.1667 131.099 48.4167 131.099 47.45V37H108.899C107.999 37 107.299 36.7333 106.799 36.2C106.299 35.6667 106.049 34.9833 106.049 34.15ZM124.799 12.5C124.899 13.1333 124.949 13.8167 124.949 14.55C124.949 14.9167 124.916 15.4667 124.849 16.2H131.099V12.5H124.799Z" fill="#75C382"/>
</svg>
