<svg width="31" height="19" viewBox="0 0 31 19" fill="none" xmlns="http://www.w3.org/2000/svg">
<path d="M5.408 1.072C5.408 0.917333 5.464 0.797333 5.576 0.712C5.688 0.626666 5.81067 0.584 5.944 0.584C6.07733 0.584 6.2 0.626666 6.312 0.712C6.424 0.797333 6.48 0.917333 6.48 1.072V3.288H7.144C7.28267 3.288 7.392 3.33067 7.472 3.416C7.552 3.50133 7.592 3.61333 7.592 3.752C7.592 3.89067 7.552 4.00267 7.472 4.088C7.392 4.17333 7.28267 4.216 7.144 4.216H6.48V8.056C6.48 8.21067 6.424 8.33067 6.312 8.416C6.2 8.50133 6.07733 8.544 5.944 8.544C5.81067 8.544 5.688 8.50133 5.576 8.416C5.464 8.33067 5.408 8.21067 5.408 8.056V1.072ZM0.176 6.648C0.176 6.50933 0.221333 6.4 0.312 6.32C0.402667 6.23467 0.514667 6.192 0.648 6.192C0.690667 6.192 0.762667 6.20267 0.864 6.224C1.17867 6.29867 1.60267 6.344 2.136 6.36V5.128C2.136 4.984 2.18933 4.86667 2.296 4.776C2.40267 4.68 2.528 4.632 2.672 4.632C2.816 4.632 2.94133 4.68 3.048 4.776C3.15467 4.86667 3.208 4.984 3.208 5.128V6.336C3.63467 6.29867 4.02933 6.22133 4.392 6.104C4.52 6.06133 4.62133 6.04 4.696 6.04C4.82933 6.04 4.93867 6.08 5.024 6.16C5.10933 6.24 5.152 6.34667 5.152 6.48C5.152 6.58133 5.11467 6.672 5.04 6.752C4.96533 6.832 4.86133 6.896 4.728 6.944C4.11467 7.168 3.39467 7.28 2.568 7.28C1.72 7.28 1.04533 7.21333 0.544 7.08C0.437333 7.05333 0.349333 7.00267 0.28 6.928C0.210667 6.848 0.176 6.75467 0.176 6.648ZM0.504 4.544C0.504 4.45867 0.525333 4.38667 0.568 4.328C0.616 4.264 0.704 4.18933 0.832 4.104C1.19467 3.864 1.50133 3.576 1.752 3.24C2.008 2.89867 2.136 2.58133 2.136 2.288V2.144C1.69333 2.11733 1.336 2.07467 1.064 2.016C0.92 1.984 0.810667 1.928 0.736 1.848C0.661333 1.76267 0.624 1.66667 0.624 1.56C0.624 1.40533 0.68 1.29067 0.792 1.216C0.904 1.14133 1.03733 1.112 1.192 1.128C1.74667 1.208 2.23467 1.248 2.656 1.248C3.08267 1.248 3.57067 1.208 4.12 1.128C4.27467 1.112 4.408 1.14133 4.52 1.216C4.632 1.29067 4.688 1.40533 4.688 1.56C4.688 1.66667 4.65067 1.76267 4.576 1.848C4.50133 1.928 4.392 1.984 4.248 2.016C3.96533 2.08 3.61867 2.12 3.208 2.136V2.288C3.208 2.58133 3.33333 2.896 3.584 3.232C3.84 3.568 4.152 3.86133 4.52 4.112C4.632 4.18667 4.712 4.25867 4.76 4.328C4.808 4.392 4.832 4.46133 4.832 4.536C4.832 4.65333 4.78933 4.76267 4.704 4.864C4.61867 4.96 4.504 5.008 4.36 5.008C4.32267 5.008 4.26667 4.99733 4.192 4.976C4.11733 4.95467 4.056 4.93067 4.008 4.904C3.72 4.71733 3.46933 4.51467 3.256 4.296C3.048 4.072 2.85333 3.816 2.672 3.528C2.30933 4.11467 1.86133 4.576 1.328 4.912C1.29067 4.93333 1.24533 4.95467 1.192 4.976C1.144 4.992 1.10133 5.00267 1.064 5.008C1.04267 5.01333 1.01333 5.016 0.976 5.016C0.832 5.016 0.717333 4.968 0.632 4.872C0.546667 4.77067 0.504 4.66133 0.504 4.544ZM13.4557 1.072C13.4557 0.917333 13.5117 0.797333 13.6237 0.712C13.7357 0.626666 13.8584 0.584 13.9917 0.584C14.125 0.584 14.2477 0.626666 14.3597 0.712C14.4717 0.797333 14.5277 0.917333 14.5277 1.072V4.616C14.5277 4.77067 14.4717 4.89067 14.3597 4.976C14.2477 5.06133 14.125 5.104 13.9917 5.104C13.8584 5.104 13.7357 5.06133 13.6237 4.976C13.5117 4.89067 13.4557 4.77067 13.4557 4.616V2.88H12.4077C12.269 2.88 12.1597 2.83733 12.0797 2.752C11.9997 2.66667 11.9597 2.55467 11.9597 2.416C11.9597 2.27733 11.9997 2.16533 12.0797 2.08C12.1597 1.99467 12.269 1.952 12.4077 1.952H13.4557V1.072ZM8.18369 4.28C8.18369 4.09867 8.28502 3.95733 8.48769 3.856C8.75969 3.712 9.00502 3.536 9.22369 3.328C9.44235 3.11467 9.60235 2.88533 9.70369 2.64C9.84235 2.304 9.91169 1.98133 9.91169 1.672V1.344C9.91169 1.18933 9.96769 1.06933 10.0797 0.984C10.1917 0.898667 10.3144 0.856 10.4477 0.856C10.581 0.856 10.7037 0.898667 10.8157 0.984C10.9277 1.06933 10.9837 1.18933 10.9837 1.344V1.648C10.9837 1.97333 11.0477 2.29867 11.1757 2.624C11.341 3.04 11.7224 3.424 12.3197 3.776C12.5277 3.89867 12.6317 4.04267 12.6317 4.208C12.6317 4.34133 12.5837 4.456 12.4877 4.552C12.3917 4.64267 12.2717 4.688 12.1277 4.688C12.037 4.688 11.9384 4.664 11.8317 4.616C11.5757 4.488 11.3197 4.31467 11.0637 4.096C10.813 3.872 10.6077 3.62667 10.4477 3.36C10.277 3.632 10.069 3.88267 9.82369 4.112C9.57835 4.34133 9.31702 4.528 9.03969 4.672C8.93302 4.72533 8.81035 4.752 8.67169 4.752C8.53302 4.752 8.41569 4.70667 8.31969 4.616C8.22902 4.52533 8.18369 4.41333 8.18369 4.28ZM9.44769 5.904C9.44769 5.76533 9.48769 5.656 9.56769 5.576C9.64769 5.49067 9.75969 5.448 9.90369 5.448H13.9277C14.1037 5.448 14.2477 5.49333 14.3597 5.584C14.4717 5.67467 14.5277 5.79733 14.5277 5.952V8.032C14.5277 8.18667 14.4717 8.30667 14.3597 8.392C14.2477 8.47733 14.125 8.52 13.9917 8.52C13.8584 8.52 13.7357 8.47733 13.6237 8.392C13.5117 8.30667 13.4557 8.18667 13.4557 8.032V6.36H9.90369C9.75969 6.36 9.64769 6.31733 9.56769 6.232C9.48769 6.14667 9.44769 6.03733 9.44769 5.904ZM21.1354 1.072C21.1354 0.917333 21.1914 0.797333 21.3034 0.712C21.4154 0.626666 21.538 0.584 21.6714 0.584C21.8047 0.584 21.9274 0.626666 22.0394 0.712C22.1514 0.797333 22.2074 0.917333 22.2074 1.072V5.656C22.2074 5.81067 22.1514 5.93067 22.0394 6.016C21.9274 6.10133 21.8047 6.144 21.6714 6.144C21.538 6.144 21.4154 6.10133 21.3034 6.016C21.1914 5.93067 21.1354 5.81067 21.1354 5.656V3.248H19.9514V3.888C19.9514 4.07467 19.922 4.21867 19.8634 4.32C19.81 4.416 19.7114 4.49867 19.5674 4.568C19.4127 4.64267 19.1994 4.70133 18.9274 4.744C18.6554 4.78667 18.3487 4.808 18.0074 4.808C17.666 4.808 17.354 4.78667 17.0714 4.744C16.794 4.70133 16.5807 4.64533 16.4314 4.576C16.282 4.50667 16.178 4.42133 16.1194 4.32C16.0607 4.21867 16.0314 4.07467 16.0314 3.888V1.392C16.0314 1.24267 16.0847 1.12267 16.1914 1.032C16.298 0.941333 16.4207 0.896 16.5594 0.896C16.698 0.896 16.8207 0.941333 16.9274 1.032C17.034 1.12267 17.0874 1.24267 17.0874 1.392V1.992H18.8954V1.392C18.8954 1.24267 18.946 1.12267 19.0474 1.032C19.154 0.941333 19.2794 0.896 19.4234 0.896C19.562 0.896 19.6847 0.941333 19.7914 1.032C19.898 1.12267 19.9514 1.24267 19.9514 1.392V2.32H21.1354V1.072ZM17.0314 5.928C17.0314 5.77333 17.0874 5.65333 17.1994 5.568C17.3114 5.48267 17.434 5.44 17.5674 5.44C17.7007 5.44 17.8234 5.48267 17.9354 5.568C18.0474 5.65333 18.1034 5.77333 18.1034 5.928V7.336C18.1034 7.37333 18.114 7.40267 18.1354 7.424C18.1567 7.44533 18.186 7.456 18.2234 7.456H21.9274C22.066 7.456 22.1754 7.49867 22.2554 7.584C22.3354 7.66933 22.3754 7.78133 22.3754 7.92C22.3754 8.05867 22.3354 8.17067 22.2554 8.256C22.1754 8.34133 22.066 8.384 21.9274 8.384H17.7194C17.522 8.384 17.3567 8.32267 17.2234 8.2C17.0954 8.07733 17.0314 7.92267 17.0314 7.736V5.928ZM17.0874 3.736C17.0874 3.77867 17.1087 3.80533 17.1514 3.816C17.3327 3.86933 17.618 3.896 18.0074 3.896C18.3754 3.896 18.65 3.86933 18.8314 3.816C18.874 3.80533 18.8954 3.77867 18.8954 3.736V2.904H17.0874V3.736ZM29.2151 4.352C29.2151 4.75733 29.0524 5.10133 28.7271 5.384C28.4017 5.66133 27.9644 5.83733 27.4151 5.912V6.792C28.2897 6.76 29.1057 6.64533 29.8631 6.448C29.8951 6.43733 29.9431 6.432 30.0071 6.432C30.1404 6.432 30.2497 6.47733 30.3351 6.568C30.4204 6.65867 30.4631 6.76533 30.4631 6.888C30.4631 6.98933 30.4311 7.08267 30.3671 7.168C30.3031 7.25333 30.2071 7.312 30.0791 7.344C29.1564 7.6 28.0897 7.728 26.8791 7.728C25.6684 7.728 24.6017 7.6 23.6791 7.344C23.5511 7.312 23.4551 7.25333 23.3911 7.168C23.3271 7.08267 23.2951 6.98933 23.2951 6.888C23.2951 6.76533 23.3377 6.65867 23.4231 6.568C23.5084 6.472 23.6177 6.424 23.7511 6.424C23.7991 6.424 23.8471 6.432 23.8951 6.448C24.6417 6.64533 25.4577 6.76 26.3431 6.792V5.912C25.7937 5.83733 25.3564 5.66133 25.0311 5.384C24.7057 5.10133 24.5431 4.75733 24.5431 4.352C24.5431 4.04267 24.6391 3.768 24.8311 3.528C25.0284 3.28267 25.3031 3.09333 25.6551 2.96C26.0124 2.82667 26.4204 2.76 26.8791 2.76C27.3377 2.76 27.7431 2.82667 28.0951 2.96C28.4524 3.09333 28.7271 3.28267 28.9191 3.528C29.1164 3.768 29.2151 4.04267 29.2151 4.352ZM23.8391 1.888C23.8391 1.75467 23.8817 1.64533 23.9671 1.56C24.0577 1.46933 24.1724 1.424 24.3111 1.424C24.3591 1.424 24.3937 1.42667 24.4151 1.432C24.9004 1.52267 25.5431 1.57867 26.3431 1.6V1.176C26.3431 1.02667 26.3964 0.909333 26.5031 0.824C26.6151 0.733333 26.7404 0.688 26.8791 0.688C27.0124 0.688 27.1351 0.733333 27.2471 0.824C27.3591 0.914666 27.4151 1.032 27.4151 1.176V1.6C28.2151 1.57867 28.8577 1.52267 29.3431 1.432C29.3644 1.42667 29.3991 1.424 29.4471 1.424C29.5857 1.424 29.6977 1.46933 29.7831 1.56C29.8737 1.64533 29.9191 1.75467 29.9191 1.888C29.9191 2 29.8791 2.096 29.7991 2.176C29.7191 2.256 29.6177 2.30933 29.4951 2.336C29.1804 2.4 28.7884 2.448 28.3191 2.48C27.8551 2.50667 27.3751 2.52 26.8791 2.52C26.3831 2.52 25.9004 2.50667 25.4311 2.48C24.9671 2.448 24.5777 2.4 24.2631 2.336C24.1404 2.30933 24.0391 2.256 23.9591 2.176C23.8791 2.096 23.8391 2 23.8391 1.888ZM25.6151 4.352C25.6151 4.56533 25.7271 4.736 25.9511 4.864C26.1804 4.98667 26.4897 5.048 26.8791 5.048C27.2684 5.048 27.5751 4.98667 27.7991 4.864C28.0284 4.736 28.1431 4.56533 28.1431 4.352C28.1431 4.128 28.0284 3.95467 27.7991 3.832C27.5751 3.704 27.2684 3.64 26.8791 3.64C26.4897 3.64 26.1804 3.704 25.9511 3.832C25.7271 3.95467 25.6151 4.128 25.6151 4.352ZM0.384 17.84C0.768 16.9707 1.11733 16.1147 1.432 15.272C1.752 14.424 2.04 13.5307 2.296 12.592C2.328 12.4747 2.39467 12.3867 2.496 12.328C2.59733 12.2693 2.712 12.24 2.84 12.24C2.968 12.24 3.08267 12.2693 3.184 12.328C3.28533 12.3867 3.352 12.4747 3.384 12.592C3.64 13.5307 3.92533 14.424 4.24 15.272C4.56 16.1147 4.912 16.9707 5.296 17.84C5.328 17.9253 5.344 18.0027 5.344 18.072C5.344 18.248 5.22933 18.3867 5 18.488C4.92 18.52 4.84267 18.536 4.768 18.536C4.66667 18.536 4.57333 18.5067 4.488 18.448C4.408 18.3947 4.344 18.312 4.296 18.2C4.10933 17.768 3.92533 17.312 3.744 16.832H1.936C1.75467 17.312 1.57067 17.768 1.384 18.2C1.28267 18.424 1.13067 18.536 0.928 18.536C0.853333 18.536 0.778667 18.52 0.704 18.488C0.453333 18.4027 0.328 18.264 0.328 18.072C0.328 17.9973 0.346667 17.92 0.384 17.84ZM3.416 15.92C3.192 15.2587 3 14.6373 2.84 14.056C2.68 14.6373 2.488 15.2587 2.264 15.92H3.416ZM10.1061 15.48C10.4581 15.2187 10.7168 14.968 10.8821 14.728C11.0528 14.4827 11.1381 14.2187 11.1381 13.936C11.1381 13.6587 11.0528 13.448 10.8821 13.304C10.7115 13.1547 10.5035 13.08 10.2581 13.08C10.0768 13.08 9.91679 13.1253 9.77813 13.216C9.64479 13.3067 9.52213 13.4453 9.41013 13.632C9.35679 13.728 9.28479 13.8027 9.19413 13.856C9.10879 13.9093 9.01546 13.936 8.91413 13.936C8.82346 13.936 8.73813 13.912 8.65813 13.864C8.57813 13.816 8.51413 13.7493 8.46613 13.664C8.43413 13.616 8.41813 13.5467 8.41813 13.456C8.41813 13.3867 8.43146 13.32 8.45813 13.256C8.58079 12.9627 8.80213 12.7093 9.12213 12.496C9.44213 12.2827 9.83146 12.176 10.2901 12.176C10.6581 12.176 10.9861 12.2533 11.2741 12.408C11.5675 12.5573 11.7968 12.768 11.9621 13.04C12.1275 13.3067 12.2101 13.6053 12.2101 13.936C12.2101 14.2507 12.1568 14.5333 12.0501 14.784C11.9435 15.0293 11.7835 15.264 11.5701 15.488C11.3568 15.712 11.0661 15.968 10.6981 16.256C10.4475 16.448 10.2128 16.6693 9.99413 16.92C9.78079 17.1653 9.61813 17.384 9.50613 17.576H11.9381C12.0661 17.576 12.1755 17.6187 12.2661 17.704C12.3568 17.784 12.4021 17.896 12.4021 18.04C12.4021 18.1893 12.3541 18.304 12.2581 18.384C12.1621 18.464 12.0555 18.504 11.9381 18.504H8.78613C8.62613 18.504 8.49546 18.4587 8.39413 18.368C8.29279 18.2827 8.24213 18.1493 8.24213 17.968C8.24213 17.632 8.43413 17.224 8.81813 16.744C9.20746 16.2587 9.63679 15.8373 10.1061 15.48ZM15.3816 14.832C16.1976 14.832 16.6056 14.544 16.6056 13.968C16.6056 13.68 16.5202 13.4613 16.3496 13.312C16.1842 13.1627 15.9736 13.088 15.7176 13.088C15.5416 13.088 15.3816 13.1253 15.2376 13.2C15.0936 13.2747 14.9576 13.392 14.8296 13.552C14.6909 13.7227 14.5309 13.808 14.3496 13.808C14.2696 13.808 14.1869 13.7867 14.1016 13.744C13.9416 13.648 13.8616 13.5173 13.8616 13.352C13.8616 13.2667 13.8882 13.1733 13.9416 13.072C14.1016 12.7947 14.3362 12.5787 14.6456 12.424C14.9602 12.264 15.3016 12.184 15.6696 12.184C16.2829 12.184 16.7709 12.344 17.1336 12.664C17.5016 12.9787 17.6856 13.4107 17.6856 13.96C17.6856 14.2213 17.6189 14.472 17.4856 14.712C17.3576 14.9467 17.1869 15.12 16.9736 15.232C17.2722 15.3653 17.5069 15.5653 17.6776 15.832C17.8482 16.0987 17.9336 16.3973 17.9336 16.728C17.9336 17.0853 17.8429 17.4027 17.6616 17.68C17.4802 17.952 17.2216 18.1653 16.8856 18.32C16.5549 18.4747 16.1709 18.552 15.7336 18.552C15.3976 18.552 15.0642 18.496 14.7336 18.384C14.4082 18.2773 14.1336 18.1253 13.9096 17.928C13.7709 17.8107 13.7016 17.68 13.7016 17.536C13.7016 17.4347 13.7416 17.336 13.8216 17.24C13.9176 17.128 14.0322 17.072 14.1656 17.072C14.2989 17.072 14.4296 17.1227 14.5576 17.224C14.7389 17.3627 14.9282 17.4693 15.1256 17.544C15.3229 17.6133 15.5389 17.648 15.7736 17.648C16.1042 17.648 16.3656 17.5707 16.5576 17.416C16.7549 17.256 16.8536 17.0213 16.8536 16.712C16.8536 16.36 16.7522 16.1147 16.5496 15.976C16.3469 15.832 16.0402 15.76 15.6296 15.76H14.9976C14.8322 15.76 14.7016 15.7227 14.6056 15.648C14.5096 15.568 14.4616 15.4533 14.4616 15.304C14.4616 15.1493 14.5122 15.032 14.6136 14.952C14.7149 14.872 14.8429 14.832 14.9976 14.832H15.3816Z" fill="#75C382"/>
</svg>
