<svg width="100" height="20" viewBox="0 0 100 20" fill="none" xmlns="http://www.w3.org/2000/svg">
<path d="M6.992 3.928C7.13067 3.928 7.23733 3.97067 7.312 4.056C7.38667 4.14133 7.424 4.24533 7.424 4.368C7.424 4.49067 7.38667 4.59467 7.312 4.68C7.23733 4.76533 7.13067 4.808 6.992 4.808H4.376V5.344H5.792C5.968 5.344 6.112 5.38933 6.224 5.48C6.336 5.57067 6.392 5.69333 6.392 5.848V6.8C6.392 6.94933 6.33867 7.06667 6.232 7.152C6.13067 7.23733 6 7.28 5.84 7.28H2.28V7.632H6.2C6.344 7.632 6.456 7.67467 6.536 7.76C6.616 7.84533 6.656 7.94933 6.656 8.072C6.656 8.18933 6.616 8.29067 6.536 8.376C6.456 8.46667 6.344 8.512 6.2 8.512H1.808C1.632 8.512 1.488 8.46667 1.376 8.376C1.264 8.28533 1.208 8.16267 1.208 8.008V7.048C1.208 6.89333 1.264 6.77067 1.376 6.68C1.488 6.58933 1.632 6.544 1.808 6.544H5.32V6.224H1.576C1.432 6.224 1.32 6.18133 1.24 6.096C1.16 6.00533 1.12 5.90133 1.12 5.784C1.12 5.66133 1.16 5.55733 1.24 5.472C1.32 5.38667 1.432 5.344 1.576 5.344H3.304V4.808H0.688C0.549333 4.808 0.442667 4.76533 0.368 4.68C0.293333 4.59467 0.256 4.49067 0.256 4.368C0.256 4.24533 0.293333 4.14133 0.368 4.056C0.442667 3.97067 0.549333 3.928 0.688 3.928H6.992ZM0.864 3.184C0.864 2.92267 1.03467 2.78133 1.376 2.76C1.824 2.72267 2.224 2.64267 2.576 2.52C2.928 2.39733 3.14933 2.23467 3.24 2.032C2.56267 2.02133 1.98667 1.97333 1.512 1.888C1.38933 1.86667 1.288 1.81867 1.208 1.744C1.128 1.66933 1.088 1.576 1.088 1.464C1.088 1.33067 1.128 1.22133 1.208 1.136C1.29333 1.05067 1.40533 1.008 1.544 1.008C1.592 1.008 1.65333 1.01333 1.728 1.024C2.224 1.09333 2.74933 1.13067 3.304 1.136V0.872C3.304 0.722666 3.35733 0.605333 3.464 0.52C3.576 0.429333 3.70133 0.384 3.84 0.384C3.97333 0.384 4.096 0.429333 4.208 0.52C4.32 0.610666 4.376 0.728 4.376 0.872V1.136C4.93067 1.13067 5.456 1.09333 5.952 1.024C6.02667 1.01333 6.088 1.008 6.136 1.008C6.27467 1.008 6.384 1.05067 6.464 1.136C6.54933 1.22133 6.592 1.33067 6.592 1.464C6.592 1.576 6.552 1.66933 6.472 1.744C6.392 1.81867 6.29067 1.86667 6.168 1.888C5.69333 1.97333 5.112 2.02133 4.424 2.032C4.50933 2.22933 4.73067 2.392 5.088 2.52C5.45067 2.64267 5.856 2.72267 6.304 2.76C6.64533 2.78133 6.816 2.92 6.816 3.176C6.816 3.32533 6.77067 3.44 6.68 3.52C6.58933 3.6 6.47467 3.64 6.336 3.64C6.24 3.64 6.10667 3.632 5.936 3.616C5.54133 3.568 5.17867 3.49333 4.848 3.392C4.52267 3.28533 4.28 3.168 4.12 3.04C3.98133 2.92267 3.888 2.83467 3.84 2.776C3.78133 2.85067 3.688 2.936 3.56 3.032C3.39467 3.16 3.14667 3.28 2.816 3.392C2.48533 3.49867 2.12 3.576 1.72 3.624C1.61333 3.63467 1.48533 3.64 1.336 3.64C1.20267 3.64 1.09067 3.6 1 3.52C0.909333 3.44 0.864 3.328 0.864 3.184ZM8.23969 1.28C8.23969 1.13067 8.29302 1.01067 8.39969 0.92C8.50635 0.829333 8.62902 0.784 8.76769 0.784C8.90635 0.784 9.02902 0.829333 9.13569 0.92C9.24235 1.01067 9.29569 1.13067 9.29569 1.28V1.704H11.0397V1.28C11.0397 1.13067 11.0904 1.01067 11.1917 0.92C11.2984 0.829333 11.4237 0.784 11.5677 0.784C11.7064 0.784 11.829 0.829333 11.9357 0.92C12.0424 1.01067 12.0957 1.13067 12.0957 1.28V3.392C12.0957 3.57867 12.0664 3.72267 12.0077 3.824C11.9544 3.92 11.8557 4.00267 11.7117 4.072C11.557 4.14667 11.3464 4.20533 11.0797 4.248C10.813 4.29067 10.509 4.312 10.1677 4.312C9.82635 4.312 9.52235 4.29067 9.25569 4.248C8.99435 4.20533 8.78902 4.14933 8.63969 4.08C8.49035 4.01067 8.38635 3.92533 8.32769 3.824C8.26902 3.72267 8.23969 3.57867 8.23969 3.392V1.28ZM9.02369 5.344C9.02369 5.22133 9.06369 5.11733 9.14369 5.032C9.22369 4.94133 9.33569 4.896 9.47969 4.896H13.5597C13.7357 4.896 13.8797 4.94133 13.9917 5.032C14.1037 5.12267 14.1597 5.24533 14.1597 5.4V6.608C14.1597 6.75733 14.1064 6.87467 13.9997 6.96C13.8984 7.04533 13.7677 7.088 13.6077 7.088H10.1837V7.616H13.9037C14.0477 7.616 14.1597 7.65867 14.2397 7.744C14.3197 7.83467 14.3597 7.94133 14.3597 8.064C14.3597 8.18667 14.3197 8.29067 14.2397 8.376C14.1597 8.46667 14.0477 8.512 13.9037 8.512H9.71169C9.53569 8.512 9.39169 8.46667 9.27969 8.376C9.16769 8.28533 9.11169 8.16267 9.11169 8.008V6.792C9.11169 6.63733 9.16769 6.51467 9.27969 6.424C9.39169 6.33333 9.53569 6.288 9.71169 6.288H13.0877V5.792H9.47969C9.33569 5.792 9.22369 5.74933 9.14369 5.664C9.06369 5.57333 9.02369 5.46667 9.02369 5.344ZM9.29569 3.24C9.29569 3.28267 9.31702 3.30933 9.35969 3.32C9.54102 3.37333 9.81035 3.4 10.1677 3.4C10.525 3.4 10.7944 3.37333 10.9757 3.32C11.0184 3.30933 11.0397 3.28267 11.0397 3.24V2.616H9.29569V3.24ZM13.0877 1.072C13.0877 0.917333 13.1437 0.797333 13.2557 0.712C13.3677 0.626666 13.4904 0.584 13.6237 0.584C13.757 0.584 13.8797 0.626666 13.9917 0.712C14.1037 0.797333 14.1597 0.917333 14.1597 1.072V2.048H14.8237C14.9624 2.048 15.0717 2.09067 15.1517 2.176C15.2317 2.26133 15.2717 2.37333 15.2717 2.512C15.2717 2.65067 15.2317 2.76267 15.1517 2.848C15.0717 2.93333 14.9624 2.976 14.8237 2.976H14.1597V4.056C14.1597 4.21067 14.1037 4.33067 13.9917 4.416C13.8797 4.50133 13.757 4.544 13.6237 4.544C13.4904 4.544 13.3677 4.50133 13.2557 4.416C13.1437 4.33067 13.0877 4.21067 13.0877 4.056V1.072ZM21.1354 1.072C21.1354 0.917333 21.1914 0.797333 21.3034 0.712C21.4154 0.626666 21.538 0.584 21.6714 0.584C21.8047 0.584 21.9274 0.626666 22.0394 0.712C22.1514 0.797333 22.2074 0.917333 22.2074 1.072V8.056C22.2074 8.21067 22.1514 8.33067 22.0394 8.416C21.9274 8.50133 21.8047 8.544 21.6714 8.544C21.538 8.544 21.4154 8.50133 21.3034 8.416C21.1914 8.33067 21.1354 8.21067 21.1354 8.056V1.072ZM15.7994 5.992C15.7994 5.84267 15.8687 5.712 16.0074 5.6C16.3327 5.33867 16.6127 5.02933 16.8474 4.672C17.0874 4.30933 17.266 3.93867 17.3834 3.56C17.522 3.10667 17.5914 2.62933 17.5914 2.128V1.52C17.5914 1.36533 17.6447 1.24533 17.7514 1.16C17.858 1.07467 17.9807 1.032 18.1194 1.032C18.2634 1.032 18.386 1.07467 18.4874 1.16C18.594 1.24533 18.6474 1.36533 18.6474 1.52V2.128C18.6474 2.592 18.7114 3.064 18.8394 3.544C18.946 3.94933 19.1194 4.32 19.3594 4.656C19.6047 4.98667 19.8927 5.272 20.2234 5.512C20.3727 5.62933 20.4474 5.76 20.4474 5.904C20.4474 6.03733 20.394 6.152 20.2874 6.248C20.1807 6.344 20.058 6.392 19.9194 6.392C19.802 6.392 19.69 6.35467 19.5834 6.28C18.986 5.85867 18.498 5.28533 18.1194 4.56C17.7087 5.32267 17.2394 5.91467 16.7114 6.336C16.5887 6.432 16.4607 6.48 16.3274 6.48C16.1887 6.48 16.066 6.43467 15.9594 6.344C15.8527 6.248 15.7994 6.13067 15.7994 5.992ZM28.4471 1.072C28.4471 0.917333 28.5031 0.797333 28.6151 0.712C28.7271 0.626666 28.8497 0.584 28.9831 0.584C29.1164 0.584 29.2391 0.626666 29.3511 0.712C29.4631 0.797333 29.5191 0.917333 29.5191 1.072V2.248H30.1831C30.3217 2.248 30.4311 2.29067 30.5111 2.376C30.5911 2.46133 30.6311 2.57333 30.6311 2.712C30.6311 2.85067 30.5911 2.96267 30.5111 3.048C30.4311 3.13333 30.3217 3.176 30.1831 3.176H29.5191V4.616C29.5191 4.77067 29.4631 4.89067 29.3511 4.976C29.2391 5.06133 29.1164 5.104 28.9831 5.104C28.8497 5.104 28.7271 5.06133 28.6151 4.976C28.5031 4.89067 28.4471 4.77067 28.4471 4.616V1.072ZM23.5431 4.448C23.5431 4.208 23.6577 4.05867 23.8871 4C24.5377 3.82933 25.0737 3.58933 25.4951 3.28C25.9164 2.97067 26.1857 2.61333 26.3031 2.208C26.3511 2.032 26.3777 1.92267 26.3831 1.88H24.0231C23.8844 1.88 23.7751 1.84 23.6951 1.76C23.6204 1.67467 23.5831 1.56267 23.5831 1.424C23.5831 1.28533 23.6204 1.176 23.6951 1.096C23.7751 1.01067 23.8844 0.968 24.0231 0.968H26.9751C27.1244 0.968 27.2471 1.008 27.3431 1.088C27.4444 1.168 27.4951 1.26933 27.4951 1.392C27.4951 1.67467 27.4337 2.032 27.3111 2.464C27.1457 3.02933 26.7991 3.528 26.2711 3.96C25.7484 4.38667 25.0924 4.69333 24.3031 4.88L24.0711 4.928C23.9431 4.94933 23.8231 4.912 23.7111 4.816C23.5991 4.72 23.5431 4.59733 23.5431 4.448ZM24.5191 5.904C24.5191 5.76533 24.5591 5.656 24.6391 5.576C24.7191 5.49067 24.8311 5.448 24.9751 5.448H28.9191C29.0951 5.448 29.2391 5.49333 29.3511 5.584C29.4631 5.67467 29.5191 5.79733 29.5191 5.952V8.032C29.5191 8.18667 29.4631 8.30667 29.3511 8.392C29.2391 8.47733 29.1164 8.52 28.9831 8.52C28.8497 8.52 28.7271 8.47733 28.6151 8.392C28.5031 8.30667 28.4471 8.18667 28.4471 8.032V6.36H24.9751C24.8311 6.36 24.7191 6.31733 24.6391 6.232C24.5591 6.14667 24.5191 6.03733 24.5191 5.904ZM2.528 15.48C2.88 15.2187 3.13867 14.968 3.304 14.728C3.47467 14.4827 3.56 14.2187 3.56 13.936C3.56 13.6587 3.47467 13.448 3.304 13.304C3.13333 13.1547 2.92533 13.08 2.68 13.08C2.49867 13.08 2.33867 13.1253 2.2 13.216C2.06667 13.3067 1.944 13.4453 1.832 13.632C1.77867 13.728 1.70667 13.8027 1.616 13.856C1.53067 13.9093 1.43733 13.936 1.336 13.936C1.24533 13.936 1.16 13.912 1.08 13.864C1 13.816 0.936 13.7493 0.888 13.664C0.856 13.616 0.84 13.5467 0.84 13.456C0.84 13.3867 0.853333 13.32 0.88 13.256C1.00267 12.9627 1.224 12.7093 1.544 12.496C1.864 12.2827 2.25333 12.176 2.712 12.176C3.08 12.176 3.408 12.2533 3.696 12.408C3.98933 12.5573 4.21867 12.768 4.384 13.04C4.54933 13.3067 4.632 13.6053 4.632 13.936C4.632 14.2507 4.57867 14.5333 4.472 14.784C4.36533 15.0293 4.20533 15.264 3.992 15.488C3.77867 15.712 3.488 15.968 3.12 16.256C2.86933 16.448 2.63467 16.6693 2.416 16.92C2.20267 17.1653 2.04 17.384 1.928 17.576H4.36C4.488 17.576 4.59733 17.6187 4.688 17.704C4.77867 17.784 4.824 17.896 4.824 18.04C4.824 18.1893 4.776 18.304 4.68 18.384C4.584 18.464 4.47733 18.504 4.36 18.504H1.208C1.048 18.504 0.917333 18.4587 0.816 18.368C0.714667 18.2827 0.664 18.1493 0.664 17.968C0.664 17.632 0.856 17.224 1.24 16.744C1.62933 16.2587 2.05867 15.8373 2.528 15.48ZM10.5074 15.392C10.5074 16.0267 10.4194 16.5813 10.2434 17.056C10.0728 17.5307 9.81944 17.8987 9.48344 18.16C9.15277 18.4213 8.75277 18.552 8.28344 18.552C7.8301 18.552 7.43544 18.4213 7.09944 18.16C6.76877 17.904 6.51277 17.5387 6.33144 17.064C6.15544 16.5893 6.06744 16.032 6.06744 15.392C6.06744 14.752 6.15544 14.1893 6.33144 13.704C6.51277 13.2187 6.76877 12.8453 7.09944 12.584C7.43544 12.3173 7.8301 12.184 8.28344 12.184C8.74744 12.184 9.14744 12.3173 9.48344 12.584C9.81944 12.8507 10.0728 13.2267 10.2434 13.712C10.4194 14.1973 10.5074 14.7573 10.5074 15.392ZM7.13944 15.376C7.13944 16.096 7.24077 16.6507 7.44344 17.04C7.6461 17.4293 7.9261 17.624 8.28344 17.624C8.65144 17.624 8.9341 17.432 9.13144 17.048C9.3341 16.6587 9.43544 16.1013 9.43544 15.376C9.43544 14.6293 9.3341 14.0667 9.13144 13.688C8.9341 13.304 8.65144 13.112 8.28344 13.112C7.92077 13.112 7.6381 13.304 7.43544 13.688C7.2381 14.072 7.13944 14.6347 7.13944 15.376ZM13.5749 15.48C13.9269 15.2187 14.1855 14.968 14.3509 14.728C14.5215 14.4827 14.6069 14.2187 14.6069 13.936C14.6069 13.6587 14.5215 13.448 14.3509 13.304C14.1802 13.1547 13.9722 13.08 13.7269 13.08C13.5455 13.08 13.3855 13.1253 13.2469 13.216C13.1135 13.3067 12.9909 13.4453 12.8789 13.632C12.8255 13.728 12.7535 13.8027 12.6629 13.856C12.5775 13.9093 12.4842 13.936 12.3829 13.936C12.2922 13.936 12.2069 13.912 12.1269 13.864C12.0469 13.816 11.9829 13.7493 11.9349 13.664C11.9029 13.616 11.8869 13.5467 11.8869 13.456C11.8869 13.3867 11.9002 13.32 11.9269 13.256C12.0495 12.9627 12.2709 12.7093 12.5909 12.496C12.9109 12.2827 13.3002 12.176 13.7589 12.176C14.1269 12.176 14.4549 12.2533 14.7429 12.408C15.0362 12.5573 15.2655 12.768 15.4309 13.04C15.5962 13.3067 15.6789 13.6053 15.6789 13.936C15.6789 14.2507 15.6255 14.5333 15.5189 14.784C15.4122 15.0293 15.2522 15.264 15.0389 15.488C14.8255 15.712 14.5349 15.968 14.1669 16.256C13.9162 16.448 13.6815 16.6693 13.4629 16.92C13.2495 17.1653 13.0869 17.384 12.9749 17.576H15.4069C15.5349 17.576 15.6442 17.6187 15.7349 17.704C15.8255 17.784 15.8709 17.896 15.8709 18.04C15.8709 18.1893 15.8229 18.304 15.7269 18.384C15.6309 18.464 15.5242 18.504 15.4069 18.504H12.2549C12.0949 18.504 11.9642 18.4587 11.8629 18.368C11.7615 18.2827 11.7109 18.1493 11.7109 17.968C11.7109 17.632 11.9029 17.224 12.2869 16.744C12.6762 16.2587 13.1055 15.8373 13.5749 15.48ZM18.8503 14.832C19.6663 14.832 20.0743 14.544 20.0743 13.968C20.0743 13.68 19.989 13.4613 19.8183 13.312C19.653 13.1627 19.4423 13.088 19.1863 13.088C19.0103 13.088 18.8503 13.1253 18.7063 13.2C18.5623 13.2747 18.4263 13.392 18.2983 13.552C18.1596 13.7227 17.9996 13.808 17.8183 13.808C17.7383 13.808 17.6556 13.7867 17.5703 13.744C17.4103 13.648 17.3303 13.5173 17.3303 13.352C17.3303 13.2667 17.357 13.1733 17.4103 13.072C17.5703 12.7947 17.805 12.5787 18.1143 12.424C18.429 12.264 18.7703 12.184 19.1383 12.184C19.7516 12.184 20.2396 12.344 20.6023 12.664C20.9703 12.9787 21.1543 13.4107 21.1543 13.96C21.1543 14.2213 21.0876 14.472 20.9543 14.712C20.8263 14.9467 20.6556 15.12 20.4423 15.232C20.741 15.3653 20.9756 15.5653 21.1463 15.832C21.317 16.0987 21.4023 16.3973 21.4023 16.728C21.4023 17.0853 21.3116 17.4027 21.1303 17.68C20.949 17.952 20.6903 18.1653 20.3543 18.32C20.0236 18.4747 19.6396 18.552 19.2023 18.552C18.8663 18.552 18.533 18.496 18.2023 18.384C17.877 18.2773 17.6023 18.1253 17.3783 17.928C17.2396 17.8107 17.1703 17.68 17.1703 17.536C17.1703 17.4347 17.2103 17.336 17.2903 17.24C17.3863 17.128 17.501 17.072 17.6343 17.072C17.7676 17.072 17.8983 17.1227 18.0263 17.224C18.2076 17.3627 18.397 17.4693 18.5943 17.544C18.7916 17.6133 19.0076 17.648 19.2423 17.648C19.573 17.648 19.8343 17.5707 20.0263 17.416C20.2236 17.256 20.3223 17.0213 20.3223 16.712C20.3223 16.36 20.221 16.1147 20.0183 15.976C19.8156 15.832 19.509 15.76 19.0983 15.76H18.4663C18.301 15.76 18.1703 15.7227 18.0743 15.648C17.9783 15.568 17.9303 15.4533 17.9303 15.304C17.9303 15.1493 17.981 15.032 18.0823 14.952C18.1836 14.872 18.3116 14.832 18.4663 14.832H18.8503ZM23.2458 17.688C23.4324 17.688 23.5871 17.7493 23.7098 17.872C23.8324 17.9893 23.8938 18.1387 23.8938 18.32C23.8938 18.5067 23.8324 18.6587 23.7098 18.776C23.5871 18.8987 23.4324 18.96 23.2458 18.96C23.0591 18.96 22.9044 18.8987 22.7818 18.776C22.6591 18.6587 22.5978 18.5067 22.5978 18.32C22.5978 18.1387 22.6591 17.9893 22.7818 17.872C22.9044 17.7493 23.0591 17.688 23.2458 17.688ZM29.3689 12.184C29.5235 12.184 29.6489 12.2267 29.7449 12.312C29.8409 12.392 29.8889 12.5173 29.8889 12.688V18.04C29.8889 18.2053 29.8382 18.3307 29.7369 18.416C29.6409 18.5013 29.5155 18.544 29.3609 18.544C29.2062 18.544 29.0782 18.5013 28.9769 18.416C28.8809 18.3307 28.8329 18.2053 28.8329 18.04V13.472L28.3689 13.744C28.2729 13.8027 28.1689 13.832 28.0569 13.832C27.8755 13.832 27.7395 13.7547 27.6489 13.6C27.6009 13.5093 27.5769 13.4267 27.5769 13.352C27.5769 13.192 27.6755 13.056 27.8729 12.944L28.8809 12.352C28.9769 12.2987 29.0595 12.2587 29.1289 12.232C29.2035 12.2 29.2835 12.184 29.3689 12.184ZM34.8923 12.184C35.047 12.184 35.1723 12.2267 35.2683 12.312C35.3643 12.392 35.4123 12.5173 35.4123 12.688V18.04C35.4123 18.2053 35.3616 18.3307 35.2603 18.416C35.1643 18.5013 35.039 18.544 34.8843 18.544C34.7296 18.544 34.6016 18.5013 34.5003 18.416C34.4043 18.3307 34.3563 18.2053 34.3563 18.04V13.472L33.8923 13.744C33.7963 13.8027 33.6923 13.832 33.5803 13.832C33.399 13.832 33.263 13.7547 33.1723 13.6C33.1243 13.5093 33.1003 13.4267 33.1003 13.352C33.1003 13.192 33.199 13.056 33.3963 12.944L34.4043 12.352C34.5003 12.2987 34.583 12.2587 34.6523 12.232C34.727 12.2 34.807 12.184 34.8923 12.184ZM38.4958 17.688C38.6824 17.688 38.8371 17.7493 38.9598 17.872C39.0824 17.9893 39.1438 18.1387 39.1438 18.32C39.1438 18.5067 39.0824 18.6587 38.9598 18.776C38.8371 18.8987 38.6824 18.96 38.4958 18.96C38.3091 18.96 38.1544 18.8987 38.0318 18.776C37.9091 18.6587 37.8478 18.5067 37.8478 18.32C37.8478 18.1387 37.9091 17.9893 38.0318 17.872C38.1544 17.7493 38.3091 17.688 38.4958 17.688ZM46.5309 15.392C46.5309 16.0267 46.4429 16.5813 46.2669 17.056C46.0962 17.5307 45.8429 17.8987 45.5069 18.16C45.1762 18.4213 44.7762 18.552 44.3069 18.552C43.8535 18.552 43.4589 18.4213 43.1229 18.16C42.7922 17.904 42.5362 17.5387 42.3549 17.064C42.1789 16.5893 42.0909 16.032 42.0909 15.392C42.0909 14.752 42.1789 14.1893 42.3549 13.704C42.5362 13.2187 42.7922 12.8453 43.1229 12.584C43.4589 12.3173 43.8535 12.184 44.3069 12.184C44.7709 12.184 45.1709 12.3173 45.5069 12.584C45.8429 12.8507 46.0962 13.2267 46.2669 13.712C46.4429 14.1973 46.5309 14.7573 46.5309 15.392ZM43.1629 15.376C43.1629 16.096 43.2642 16.6507 43.4669 17.04C43.6695 17.4293 43.9495 17.624 44.3069 17.624C44.6749 17.624 44.9575 17.432 45.1549 17.048C45.3575 16.6587 45.4589 16.1013 45.4589 15.376C45.4589 14.6293 45.3575 14.0667 45.1549 13.688C44.9575 13.304 44.6749 13.112 44.3069 13.112C43.9442 13.112 43.6615 13.304 43.4589 13.688C43.2615 14.072 43.1629 14.6347 43.1629 15.376ZM49.5983 15.48C49.9503 15.2187 50.209 14.968 50.3743 14.728C50.545 14.4827 50.6303 14.2187 50.6303 13.936C50.6303 13.6587 50.545 13.448 50.3743 13.304C50.2036 13.1547 49.9956 13.08 49.7503 13.08C49.569 13.08 49.409 13.1253 49.2703 13.216C49.137 13.3067 49.0143 13.4453 48.9023 13.632C48.849 13.728 48.777 13.8027 48.6863 13.856C48.601 13.9093 48.5076 13.936 48.4063 13.936C48.3156 13.936 48.2303 13.912 48.1503 13.864C48.0703 13.816 48.0063 13.7493 47.9583 13.664C47.9263 13.616 47.9103 13.5467 47.9103 13.456C47.9103 13.3867 47.9236 13.32 47.9503 13.256C48.073 12.9627 48.2943 12.7093 48.6143 12.496C48.9343 12.2827 49.3236 12.176 49.7823 12.176C50.1503 12.176 50.4783 12.2533 50.7663 12.408C51.0596 12.5573 51.289 12.768 51.4543 13.04C51.6196 13.3067 51.7023 13.6053 51.7023 13.936C51.7023 14.2507 51.649 14.5333 51.5423 14.784C51.4356 15.0293 51.2756 15.264 51.0623 15.488C50.849 15.712 50.5583 15.968 50.1903 16.256C49.9396 16.448 49.705 16.6693 49.4863 16.92C49.273 17.1653 49.1103 17.384 48.9983 17.576H51.4303C51.5583 17.576 51.6676 17.6187 51.7583 17.704C51.849 17.784 51.8943 17.896 51.8943 18.04C51.8943 18.1893 51.8463 18.304 51.7503 18.384C51.6543 18.464 51.5476 18.504 51.4303 18.504H48.2783C48.1183 18.504 47.9876 18.4587 47.8863 18.368C47.785 18.2827 47.7343 18.1493 47.7343 17.968C47.7343 17.632 47.9263 17.224 48.3103 16.744C48.6996 16.2587 49.129 15.8373 49.5983 15.48ZM57.5802 12.072C57.8309 12.1573 57.9562 12.3013 57.9562 12.504C57.9562 12.5573 57.9429 12.624 57.9162 12.704L56.0042 18.592C55.9669 18.7093 55.9029 18.7973 55.8122 18.856C55.7269 18.9147 55.6282 18.944 55.5162 18.944C55.4415 18.944 55.3722 18.9333 55.3082 18.912L55.2842 18.904C55.0335 18.8187 54.9082 18.6773 54.9082 18.48C54.9082 18.432 54.9215 18.3627 54.9482 18.272L56.8602 12.384C56.8975 12.2667 56.9589 12.1787 57.0442 12.12C57.1349 12.0613 57.2362 12.032 57.3482 12.032C57.4229 12.032 57.4922 12.0427 57.5562 12.064L57.5802 12.072ZM63.3454 12.184C63.5001 12.184 63.6254 12.2267 63.7214 12.312C63.8174 12.392 63.8654 12.5173 63.8654 12.688V18.04C63.8654 18.2053 63.8148 18.3307 63.7134 18.416C63.6174 18.5013 63.4921 18.544 63.3374 18.544C63.1828 18.544 63.0548 18.5013 62.9534 18.416C62.8574 18.3307 62.8094 18.2053 62.8094 18.04V13.472L62.3454 13.744C62.2494 13.8027 62.1454 13.832 62.0334 13.832C61.8521 13.832 61.7161 13.7547 61.6254 13.6C61.5774 13.5093 61.5534 13.4267 61.5534 13.352C61.5534 13.192 61.6521 13.056 61.8494 12.944L62.8574 12.352C62.9534 12.2987 63.0361 12.2587 63.1054 12.232C63.1801 12.2 63.2601 12.184 63.3454 12.184ZM66.5409 12.728C66.5409 12.5787 66.5889 12.464 66.6849 12.384C66.7809 12.304 66.8875 12.264 67.0049 12.264H70.0209C70.1755 12.264 70.3035 12.304 70.4049 12.384C70.5115 12.4587 70.5649 12.5733 70.5649 12.728C70.5649 12.8187 70.5462 12.9093 70.5089 13C70.4715 13.0853 70.4502 13.1333 70.4449 13.144C70.0715 13.9493 69.7382 14.7627 69.4449 15.584C69.1569 16.4 68.8822 17.2693 68.6209 18.192C68.5889 18.3093 68.5302 18.3973 68.4449 18.456C68.3595 18.5147 68.2635 18.544 68.1569 18.544C68.0929 18.544 68.0209 18.5307 67.9409 18.504C67.7062 18.4293 67.5889 18.2933 67.5889 18.096C67.5889 18.0427 67.5969 17.9787 67.6129 17.904C68.0769 16.2347 68.6315 14.664 69.2769 13.192H67.0049C66.8769 13.192 66.7675 13.152 66.6769 13.072C66.5862 12.9867 66.5409 12.872 66.5409 12.728ZM77.0963 12.072C77.0963 11.9173 77.1523 11.7973 77.2643 11.712C77.3763 11.6267 77.499 11.584 77.6323 11.584C77.7656 11.584 77.8883 11.6267 78.0003 11.712C78.1123 11.7973 78.1683 11.9173 78.1683 12.072V19.056C78.1683 19.2107 78.1123 19.3307 78.0003 19.416C77.8883 19.5013 77.7656 19.544 77.6323 19.544C77.499 19.544 77.3763 19.5013 77.2643 19.416C77.1523 19.3307 77.0963 19.2107 77.0963 19.056V12.072ZM71.7603 16.992C71.7603 16.8427 71.8296 16.712 71.9683 16.6C72.2936 16.3387 72.5736 16.0293 72.8083 15.672C73.0483 15.3093 73.227 14.9387 73.3443 14.56C73.483 14.1067 73.5523 13.6293 73.5523 13.128V12.52C73.5523 12.3653 73.6056 12.2453 73.7123 12.16C73.819 12.0747 73.9416 12.032 74.0803 12.032C74.2243 12.032 74.347 12.0747 74.4483 12.16C74.555 12.2453 74.6083 12.3653 74.6083 12.52V13.128C74.6083 13.592 74.6723 14.064 74.8003 14.544C74.907 14.9493 75.0803 15.32 75.3203 15.656C75.5656 15.9867 75.8536 16.272 76.1843 16.512C76.3336 16.6293 76.4083 16.76 76.4083 16.904C76.4083 17.0373 76.355 17.152 76.2483 17.248C76.1416 17.344 76.019 17.392 75.8803 17.392C75.763 17.392 75.651 17.3547 75.5443 17.28C74.947 16.8587 74.459 16.2853 74.0803 15.56C73.6696 16.3227 73.2003 16.9147 72.6723 17.336C72.5496 17.432 72.4216 17.48 72.2883 17.48C72.1496 17.48 72.027 17.4347 71.9203 17.344C71.8136 17.248 71.7603 17.1307 71.7603 16.992ZM83.1784 14.832C83.9944 14.832 84.4024 14.544 84.4024 13.968C84.4024 13.68 84.3171 13.4613 84.1464 13.312C83.9811 13.1627 83.7704 13.088 83.5144 13.088C83.3384 13.088 83.1784 13.1253 83.0344 13.2C82.8904 13.2747 82.7544 13.392 82.6264 13.552C82.4878 13.7227 82.3278 13.808 82.1464 13.808C82.0664 13.808 81.9838 13.7867 81.8984 13.744C81.7384 13.648 81.6584 13.5173 81.6584 13.352C81.6584 13.2667 81.6851 13.1733 81.7384 13.072C81.8984 12.7947 82.1331 12.5787 82.4424 12.424C82.7571 12.264 83.0984 12.184 83.4664 12.184C84.0798 12.184 84.5678 12.344 84.9304 12.664C85.2984 12.9787 85.4824 13.4107 85.4824 13.96C85.4824 14.2213 85.4158 14.472 85.2824 14.712C85.1544 14.9467 84.9838 15.12 84.7704 15.232C85.0691 15.3653 85.3038 15.5653 85.4744 15.832C85.6451 16.0987 85.7304 16.3973 85.7304 16.728C85.7304 17.0853 85.6398 17.4027 85.4584 17.68C85.2771 17.952 85.0184 18.1653 84.6824 18.32C84.3518 18.4747 83.9678 18.552 83.5304 18.552C83.1944 18.552 82.8611 18.496 82.5304 18.384C82.2051 18.2773 81.9304 18.1253 81.7064 17.928C81.5678 17.8107 81.4984 17.68 81.4984 17.536C81.4984 17.4347 81.5384 17.336 81.6184 17.24C81.7144 17.128 81.8291 17.072 81.9624 17.072C82.0958 17.072 82.2264 17.1227 82.3544 17.224C82.5358 17.3627 82.7251 17.4693 82.9224 17.544C83.1198 17.6133 83.3358 17.648 83.5704 17.648C83.9011 17.648 84.1624 17.5707 84.3544 17.416C84.5518 17.256 84.6504 17.0213 84.6504 16.712C84.6504 16.36 84.5491 16.1147 84.3464 15.976C84.1438 15.832 83.8371 15.76 83.4264 15.76H82.7944C82.6291 15.76 82.4984 15.7227 82.4024 15.648C82.3064 15.568 82.2584 15.4533 82.2584 15.304C82.2584 15.1493 82.3091 15.032 82.4104 14.952C82.5118 14.872 82.6398 14.832 82.7944 14.832H83.1784ZM88.7019 14.832C89.5179 14.832 89.9259 14.544 89.9259 13.968C89.9259 13.68 89.8405 13.4613 89.6699 13.312C89.5045 13.1627 89.2939 13.088 89.0379 13.088C88.8619 13.088 88.7019 13.1253 88.5579 13.2C88.4139 13.2747 88.2779 13.392 88.1499 13.552C88.0112 13.7227 87.8512 13.808 87.6699 13.808C87.5899 13.808 87.5072 13.7867 87.4219 13.744C87.2619 13.648 87.1819 13.5173 87.1819 13.352C87.1819 13.2667 87.2085 13.1733 87.2619 13.072C87.4219 12.7947 87.6565 12.5787 87.9659 12.424C88.2805 12.264 88.6219 12.184 88.9899 12.184C89.6032 12.184 90.0912 12.344 90.4539 12.664C90.8219 12.9787 91.0059 13.4107 91.0059 13.96C91.0059 14.2213 90.9392 14.472 90.8059 14.712C90.6779 14.9467 90.5072 15.12 90.2939 15.232C90.5925 15.3653 90.8272 15.5653 90.9979 15.832C91.1685 16.0987 91.2539 16.3973 91.2539 16.728C91.2539 17.0853 91.1632 17.4027 90.9819 17.68C90.8005 17.952 90.5419 18.1653 90.2059 18.32C89.8752 18.4747 89.4912 18.552 89.0539 18.552C88.7179 18.552 88.3845 18.496 88.0539 18.384C87.7285 18.2773 87.4539 18.1253 87.2299 17.928C87.0912 17.8107 87.0219 17.68 87.0219 17.536C87.0219 17.4347 87.0619 17.336 87.1419 17.24C87.2379 17.128 87.3525 17.072 87.4859 17.072C87.6192 17.072 87.7499 17.1227 87.8779 17.224C88.0592 17.3627 88.2485 17.4693 88.4459 17.544C88.6432 17.6133 88.8592 17.648 89.0939 17.648C89.4245 17.648 89.6859 17.5707 89.8779 17.416C90.0752 17.256 90.1739 17.0213 90.1739 16.712C90.1739 16.36 90.0725 16.1147 89.8699 15.976C89.6672 15.832 89.3605 15.76 88.9499 15.76H88.3179C88.1525 15.76 88.0219 15.7227 87.9259 15.648C87.8299 15.568 87.7819 15.4533 87.7819 15.304C87.7819 15.1493 87.8325 15.032 87.9339 14.952C88.0352 14.872 88.1632 14.832 88.3179 14.832H88.7019ZM93.1373 17.328C93.1373 17.1787 93.1906 17.0613 93.2973 16.976C93.4093 16.8853 93.5373 16.84 93.6813 16.84C93.8146 16.84 93.9373 16.8827 94.0493 16.968C94.1666 17.048 94.2253 17.168 94.2253 17.328V18.376C94.2253 18.4347 94.26 18.464 94.3293 18.464H98.0973C98.2413 18.464 98.364 18.5067 98.4653 18.592C98.572 18.6827 98.6253 18.7947 98.6253 18.928C98.6253 19.0613 98.572 19.1707 98.4653 19.256C98.364 19.3467 98.2413 19.392 98.0973 19.392H93.8253C93.628 19.392 93.4626 19.3307 93.3293 19.208C93.2013 19.0853 93.1373 18.9307 93.1373 18.744V17.328ZM92.2013 15.968C92.2013 15.8453 92.2386 15.7387 92.3133 15.648C92.388 15.5573 92.4946 15.512 92.6333 15.512H98.9373C99.076 15.512 99.1826 15.5573 99.2573 15.648C99.332 15.7387 99.3693 15.8453 99.3693 15.968C99.3693 16.0907 99.3293 16.1973 99.2493 16.288C99.1746 16.3787 99.0706 16.424 98.9373 16.424H96.3213V17.456C96.3213 17.6107 96.2653 17.7307 96.1533 17.816C96.0413 17.9013 95.9186 17.944 95.7853 17.944C95.652 17.944 95.5293 17.9013 95.4173 17.816C95.3053 17.7307 95.2493 17.6107 95.2493 17.456V16.424H92.6333C92.5 16.424 92.3933 16.3787 92.3133 16.288C92.2386 16.1973 92.2013 16.0907 92.2013 15.968ZM93.1773 12.312C93.1773 12.168 93.228 12.056 93.3293 11.976C93.436 11.896 93.5613 11.856 93.7053 11.856C93.8493 11.856 93.972 11.896 94.0733 11.976C94.18 12.056 94.2333 12.168 94.2333 12.312V12.624H97.3373V12.312C97.3373 12.168 97.388 12.056 97.4893 11.976C97.596 11.896 97.7213 11.856 97.8653 11.856C98.0093 11.856 98.132 11.896 98.2333 11.976C98.34 12.056 98.3933 12.168 98.3933 12.312V14.08C98.3933 14.2667 98.364 14.4107 98.3053 14.512C98.252 14.608 98.1533 14.6907 98.0093 14.76C97.8546 14.8347 97.5693 14.8987 97.1533 14.952C96.7426 15 96.2866 15.024 95.7853 15.024C95.2893 15.024 94.8333 15 94.4173 14.952C94.0066 14.8987 93.7266 14.8373 93.5773 14.768C93.428 14.6987 93.324 14.6133 93.2653 14.512C93.2066 14.4107 93.1773 14.2667 93.1773 14.08V12.312ZM94.2333 13.928C94.2333 13.9707 94.2546 13.9973 94.2973 14.008C94.3986 14.04 94.5933 14.0693 94.8813 14.096C95.1693 14.1173 95.4706 14.128 95.7853 14.128C96.1 14.128 96.4013 14.1173 96.6893 14.096C96.9773 14.0693 97.172 14.04 97.2733 14.008C97.316 13.9973 97.3373 13.9707 97.3373 13.928V13.488H94.2333V13.928Z" fill="#75C382"/>
</svg>
