<svg width="135" height="39" viewBox="0 0 135 39" fill="none" xmlns="http://www.w3.org/2000/svg">
<path d="M44.7064 1.848C45.4424 1.96533 46.3384 2.04533 47.3944 2.088V1.176C47.3944 0.888 47.5011 0.653333 47.7144 0.471999C47.9278 0.279999 48.1784 0.183999 48.4664 0.183999C48.7544 0.183999 49.0051 0.279999 49.2184 0.471999C49.4318 0.653333 49.5384 0.888 49.5384 1.176V2.072C50.5411 2.04 51.3944 1.97067 52.0984 1.864C52.1411 1.85333 52.1944 1.848 52.2584 1.848C52.5144 1.848 52.7331 1.928 52.9144 2.088C53.0958 2.248 53.1864 2.472 53.1864 2.76C53.1864 2.99467 53.1171 3.192 52.9784 3.352C52.8398 3.50133 52.6478 3.60267 52.4024 3.656C51.9758 3.73067 51.3838 3.79467 50.6264 3.848C49.8691 3.90133 49.1491 3.928 48.4664 3.928C47.7411 3.928 47.0051 3.90667 46.2584 3.864C45.5118 3.81067 44.8931 3.74133 44.4024 3.656C44.1571 3.60267 43.9651 3.50133 43.8264 3.352C43.6878 3.192 43.6184 2.99467 43.6184 2.76C43.6184 2.44 43.7251 2.2 43.9384 2.04C44.1624 1.86933 44.4184 1.80533 44.7064 1.848ZM43.4104 12.488C43.4104 12.2107 43.5011 11.992 43.6824 11.832C43.8638 11.6613 44.0878 11.576 44.3544 11.576C44.4398 11.576 44.5838 11.5973 44.7864 11.64C45.4798 11.7893 46.3491 11.88 47.3944 11.912V10.28C46.5518 10.1093 45.8798 9.76267 45.3784 9.24C44.8878 8.70667 44.6424 8.09333 44.6424 7.4C44.6424 6.856 44.8024 6.35467 45.1224 5.896C45.4424 5.43733 45.8904 5.07467 46.4664 4.808C47.0531 4.54133 47.7198 4.408 48.4664 4.408C49.2131 4.408 49.8744 4.54133 50.4504 4.808C51.0371 5.07467 51.4904 5.43733 51.8104 5.896C52.1304 6.35467 52.2904 6.856 52.2904 7.4C52.2904 8.09333 52.0398 8.70667 51.5384 9.24C51.0478 9.76267 50.3811 10.1093 49.5384 10.28V11.88C50.6158 11.7947 51.5224 11.6347 52.2584 11.4C52.5144 11.3147 52.7171 11.272 52.8664 11.272C53.1331 11.272 53.3518 11.352 53.5224 11.512C53.6931 11.672 53.7784 11.8853 53.7784 12.152C53.7784 12.3547 53.7038 12.536 53.5544 12.696C53.4051 12.856 53.1971 12.984 52.9304 13.08C52.3651 13.2933 51.6771 13.4587 50.8664 13.576C50.0558 13.6933 49.2291 13.752 48.3864 13.752C46.5624 13.752 45.1491 13.6187 44.1464 13.352C43.9331 13.2987 43.7571 13.192 43.6184 13.032C43.4798 12.8827 43.4104 12.7013 43.4104 12.488ZM46.7224 7.4C46.7224 7.76267 46.8771 8.06133 47.1864 8.296C47.5064 8.52 47.9331 8.632 48.4664 8.632C48.9998 8.632 49.4211 8.52 49.7304 8.296C50.0504 8.06133 50.2104 7.76267 50.2104 7.4C50.2104 7.03733 50.0504 6.744 49.7304 6.52C49.4211 6.28533 48.9998 6.168 48.4664 6.168C47.9331 6.168 47.5064 6.28533 47.1864 6.52C46.8771 6.744 46.7224 7.03733 46.7224 7.4ZM54.4504 1.144C54.4504 0.834666 54.5624 0.594666 54.7864 0.424C55.0104 0.253333 55.2558 0.167999 55.5224 0.167999C55.7891 0.167999 56.0344 0.253333 56.2584 0.424C56.4824 0.594666 56.5944 0.834666 56.5944 1.144V15.112C56.5944 15.4213 56.4824 15.6613 56.2584 15.832C56.0344 16.0027 55.7891 16.088 55.5224 16.088C55.2558 16.088 55.0104 16.0027 54.7864 15.832C54.5624 15.6613 54.4504 15.4213 54.4504 15.112V1.144ZM69.8098 1.144C69.8098 0.834666 69.9218 0.594666 70.1458 0.424C70.3698 0.253333 70.6151 0.167999 70.8818 0.167999C71.1485 0.167999 71.3938 0.253333 71.6178 0.424C71.8418 0.594666 71.9538 0.834666 71.9538 1.144V11.528C71.9538 11.8373 71.8418 12.0773 71.6178 12.248C71.3938 12.4187 71.1485 12.504 70.8818 12.504C70.6151 12.504 70.3698 12.4187 70.1458 12.248C69.9218 12.0773 69.8098 11.8373 69.8098 11.528V11.416H67.0738C66.7858 11.416 66.5618 11.3413 66.4018 11.192C66.2525 11.032 66.1778 10.8133 66.1778 10.536C66.1778 10.2587 66.2525 10.0453 66.4018 9.896C66.5618 9.736 66.7858 9.656 67.0738 9.656H69.8098V1.144ZM58.8658 8.296C58.8658 8.02933 58.9671 7.81067 59.1698 7.64C59.3725 7.46933 59.6231 7.384 59.9218 7.384H63.6498C64.5991 7.384 65.4045 7.35733 66.0658 7.304C66.7271 7.25067 67.3458 7.16 67.9218 7.032C68.0711 7.01067 68.1725 7 68.2258 7C68.5031 7 68.7218 7.08533 68.8818 7.256C69.0525 7.416 69.1378 7.61867 69.1378 7.864C69.1378 8.088 69.0685 8.28533 68.9298 8.456C68.7911 8.616 68.5885 8.728 68.3218 8.792C67.3618 9.016 66.2151 9.14933 64.8818 9.192V10.84C64.8818 11.1493 64.7698 11.3733 64.5458 11.512C64.3325 11.6507 64.0871 11.72 63.8098 11.72C63.5325 11.72 63.2818 11.6507 63.0578 11.512C62.8445 11.3733 62.7378 11.1493 62.7378 10.84V9.208H59.9218C59.6231 9.208 59.3725 9.12267 59.1698 8.952C58.9671 8.78133 58.8658 8.56267 58.8658 8.296ZM59.5698 3.592C59.5698 2.984 59.7405 2.44 60.0818 1.96C60.4231 1.48 60.9138 1.10667 61.5538 0.839999C62.1938 0.573333 62.9458 0.44 63.8098 0.44C64.6738 0.44 65.4258 0.573333 66.0658 0.839999C66.7058 1.10667 67.1965 1.48 67.5378 1.96C67.8791 2.44 68.0498 2.984 68.0498 3.592C68.0498 4.2 67.8791 4.744 67.5378 5.224C67.1965 5.704 66.7058 6.07733 66.0658 6.344C65.4258 6.61067 64.6738 6.744 63.8098 6.744C62.9458 6.744 62.1938 6.61067 61.5538 6.344C60.9138 6.07733 60.4231 5.704 60.0818 5.224C59.7405 4.744 59.5698 4.2 59.5698 3.592ZM60.5938 12.088C60.5938 11.7787 60.7058 11.5387 60.9298 11.368C61.1538 11.1973 61.3991 11.112 61.6658 11.112C61.9325 11.112 62.1778 11.1973 62.4018 11.368C62.6258 11.5387 62.7378 11.7787 62.7378 12.088V13.672C62.7378 13.7467 62.7591 13.8053 62.8018 13.848C62.8445 13.8907 62.9031 13.912 62.9778 13.912H71.2338C71.5111 13.912 71.7298 13.9973 71.8898 14.168C72.0498 14.3387 72.1298 14.5627 72.1298 14.84C72.1298 15.1173 72.0498 15.3413 71.8898 15.512C71.7298 15.6827 71.5111 15.768 71.2338 15.768H61.9698C61.5751 15.768 61.2445 15.6453 60.9778 15.4C60.7218 15.1547 60.5938 14.8453 60.5938 14.472V12.088ZM61.6818 3.592C61.6818 3.99733 61.8738 4.33333 62.2578 4.6C62.6418 4.856 63.1591 4.984 63.8098 4.984C64.4498 4.984 64.9618 4.856 65.3458 4.6C65.7405 4.33333 65.9378 3.99733 65.9378 3.592C65.9378 3.18667 65.7458 2.856 65.3618 2.6C64.9778 2.33333 64.4605 2.2 63.8098 2.2C63.1591 2.2 62.6418 2.33333 62.2578 2.6C61.8738 2.856 61.6818 3.18667 61.6818 3.592ZM77.2332 5.864C77.2332 5.94933 77.2759 6.00267 77.3612 6.024C77.7772 6.14133 78.4332 6.2 79.3292 6.2C80.2145 6.2 81.1639 6.07733 82.1772 5.832C82.3372 5.8 82.4439 5.784 82.4972 5.784C82.7532 5.784 82.9772 5.86933 83.1692 6.04C83.3612 6.2 83.4572 6.41333 83.4572 6.68C83.4572 6.89333 83.3825 7.08533 83.2332 7.256C83.0945 7.416 82.9132 7.528 82.6892 7.592C82.1772 7.73067 81.6172 7.83733 81.0092 7.912C80.4119 7.98667 79.8519 8.024 79.3292 8.024C78.0385 8.024 77.0039 7.90133 76.2252 7.656C75.8092 7.53867 75.5159 7.352 75.3452 7.096C75.1745 6.84 75.0892 6.51467 75.0892 6.12V1.768C75.0892 1.45867 75.2012 1.21867 75.4252 1.048C75.6492 0.877333 75.8945 0.792 76.1612 0.792C76.4279 0.792 76.6732 0.877333 76.8972 1.048C77.1212 1.21867 77.2332 1.45867 77.2332 1.768V5.864ZM76.9612 10.744C76.9612 10.4347 77.0732 10.1893 77.2972 10.008C77.5212 9.82667 77.8092 9.736 78.1612 9.736H86.1132C86.4652 9.736 86.7532 9.82667 86.9772 10.008C87.2012 10.1893 87.3132 10.4347 87.3132 10.744V14.936C87.3132 15.2453 87.2012 15.4907 86.9772 15.672C86.7532 15.8533 86.4652 15.944 86.1132 15.944H78.1612C77.8092 15.944 77.5212 15.8533 77.2972 15.672C77.0732 15.4907 76.9612 15.2453 76.9612 14.936V10.744ZM85.1692 11.56H79.1052V14.12H85.1692V11.56ZM85.1692 1.144C85.1692 0.834666 85.2812 0.594666 85.5052 0.424C85.7292 0.253333 85.9745 0.167999 86.2412 0.167999C86.5079 0.167999 86.7532 0.253333 86.9772 0.424C87.2012 0.594666 87.3132 0.834666 87.3132 1.144V8.008C87.3132 8.31733 87.2012 8.55733 86.9772 8.728C86.7532 8.89867 86.5079 8.984 86.2412 8.984C85.9745 8.984 85.7292 8.89867 85.5052 8.728C85.2812 8.55733 85.1692 8.31733 85.1692 8.008V1.144ZM90.3846 17.736C90.0859 17.672 89.8619 17.5387 89.7126 17.336C89.5632 17.144 89.5099 16.8827 89.5526 16.552L90.1446 13.288C90.1979 13.032 90.3206 12.8293 90.5126 12.68C90.7046 12.5307 90.9339 12.456 91.2006 12.456C91.5419 12.456 91.8352 12.5467 92.0806 12.728C92.3259 12.9093 92.4486 13.144 92.4486 13.432C92.4486 13.528 92.4326 13.6293 92.4006 13.736L91.6326 16.936C91.5579 17.2133 91.4299 17.4213 91.2486 17.56C91.0672 17.6987 90.8646 17.768 90.6406 17.768C90.5766 17.768 90.4912 17.7573 90.3846 17.736ZM1.61294 28.36C1.61294 27.816 1.7516 27.3307 2.02894 26.904C2.31694 26.4667 2.70094 26.1307 3.18094 25.896C3.6716 25.6613 4.22094 25.544 4.82894 25.544C5.43694 25.544 5.98094 25.6613 6.46094 25.896C6.9516 26.1307 7.3356 26.4613 7.61294 26.888C7.90094 27.3147 8.04494 27.8053 8.04494 28.36C8.04494 28.904 7.90094 29.3947 7.61294 29.832C7.3356 30.2587 6.9516 30.5893 6.46094 30.824C5.98094 31.0587 5.43694 31.176 4.82894 31.176C4.22094 31.176 3.6716 31.0587 3.18094 30.824C2.70094 30.5893 2.31694 30.2587 2.02894 29.832C1.7516 29.3947 1.61294 28.904 1.61294 28.36ZM0.812938 24.008C0.812938 23.7307 0.898271 23.5173 1.06894 23.368C1.2396 23.208 1.4476 23.128 1.69294 23.128C1.78894 23.128 1.85827 23.1333 1.90094 23.144C2.38094 23.2187 3.0156 23.2773 3.80494 23.32V22.776C3.80494 22.4773 3.90627 22.2533 4.10894 22.104C4.3116 21.944 4.5516 21.864 4.82894 21.864C5.0956 21.864 5.33027 21.9387 5.53294 22.088C5.74627 22.2373 5.85294 22.4667 5.85294 22.776V23.304C6.35427 23.2933 6.89294 23.24 7.46894 23.144C7.5116 23.1333 7.58094 23.128 7.67694 23.128C7.92227 23.128 8.13027 23.208 8.30094 23.368C8.4716 23.5173 8.55694 23.7307 8.55694 24.008C8.55694 24.2427 8.4876 24.44 8.34894 24.6C8.21027 24.7493 8.01827 24.8507 7.77294 24.904C7.00494 25.0533 6.04494 25.128 4.89294 25.128C3.45294 25.128 2.35427 25.0533 1.59694 24.904C1.3516 24.8507 1.1596 24.7493 1.02094 24.6C0.882271 24.44 0.812938 24.2427 0.812938 24.008ZM3.62894 28.36C3.62894 28.68 3.74094 28.9413 3.96494 29.144C4.18894 29.3467 4.47694 29.448 4.82894 29.448C5.18094 29.448 5.46894 29.3467 5.69294 29.144C5.91694 28.9413 6.02894 28.68 6.02894 28.36C6.02894 28.04 5.91694 27.7787 5.69294 27.576C5.46894 27.3733 5.18094 27.272 4.82894 27.272C4.47694 27.272 4.18894 27.3733 3.96494 27.576C3.74094 27.7787 3.62894 28.04 3.62894 28.36ZM4.22094 34.936C4.22094 34.3387 4.41294 33.8 4.79694 33.32C5.1916 32.84 5.77294 32.4613 6.54094 32.184C7.30894 31.896 8.2316 31.752 9.30894 31.752C10.3863 31.752 11.3089 31.896 12.0769 32.184C12.8449 32.4613 13.4209 32.84 13.8049 33.32C14.1996 33.8 14.3969 34.3387 14.3969 34.936C14.3969 35.5333 14.1996 36.072 13.8049 36.552C13.4209 37.032 12.8449 37.4107 12.0769 37.688C11.3089 37.976 10.3863 38.12 9.30894 38.12C8.2316 38.12 7.30894 37.976 6.54094 37.688C5.77294 37.4107 5.1916 37.032 4.79694 36.552C4.41294 36.072 4.22094 35.5333 4.22094 34.936ZM6.36494 34.936C6.36494 35.3307 6.5996 35.656 7.06894 35.912C7.53827 36.168 8.28494 36.296 9.30894 36.296C10.3329 36.296 11.0796 36.168 11.5489 35.912C12.0183 35.656 12.2529 35.3307 12.2529 34.936C12.2529 34.5413 12.0183 34.216 11.5489 33.96C11.0796 33.704 10.3329 33.576 9.30894 33.576C8.28494 33.576 7.53827 33.704 7.06894 33.96C6.5996 34.216 6.36494 34.5413 6.36494 34.936ZM9.05294 23.32C9.05294 23.0107 9.16494 22.7707 9.38894 22.6C9.61294 22.4293 9.85294 22.344 10.1089 22.344C10.3756 22.344 10.6156 22.4293 10.8289 22.6C11.0529 22.76 11.1649 23 11.1649 23.32V25.992H12.5249V23.144C12.5249 22.8347 12.6369 22.5947 12.8609 22.424C13.0849 22.2533 13.3249 22.168 13.5809 22.168C13.8476 22.168 14.0876 22.2533 14.3009 22.424C14.5249 22.584 14.6369 22.824 14.6369 23.144V31.064C14.6369 31.3733 14.5303 31.592 14.3169 31.72C14.1143 31.848 13.8689 31.912 13.5809 31.912C13.3036 31.912 13.0583 31.848 12.8449 31.72C12.6316 31.592 12.5249 31.3733 12.5249 31.064V27.848H11.1649V30.296C11.1649 30.6053 11.0583 30.824 10.8449 30.952C10.6423 31.08 10.3969 31.144 10.1089 31.144C9.8316 31.144 9.58627 31.08 9.37294 30.952C9.1596 30.824 9.05294 30.6053 9.05294 30.296V23.32ZM18.9723 34.36C18.6736 34.36 18.4336 34.2747 18.2523 34.104C18.071 33.9333 17.9803 33.7147 17.9803 33.448C17.9803 33.1707 18.071 32.952 18.2523 32.792C18.4336 32.6213 18.6736 32.536 18.9723 32.536H27.5803C27.9323 32.536 28.2203 32.6267 28.4443 32.808C28.6683 32.9893 28.7803 33.2347 28.7803 33.544V37.064C28.7803 37.3733 28.6683 37.6133 28.4443 37.784C28.2203 37.9547 27.975 38.04 27.7083 38.04C27.4416 38.04 27.1963 37.9547 26.9723 37.784C26.7483 37.6133 26.6363 37.3733 26.6363 37.064V34.36H18.9723ZM16.3323 30.712C16.3323 30.4667 16.407 30.2533 16.5563 30.072C16.7056 29.8907 16.919 29.8 17.1963 29.8H22.4283V28.968C21.6603 28.936 20.9723 28.872 20.3643 28.776C19.767 28.68 19.3403 28.5733 19.0843 28.456C18.7856 28.3173 18.5776 28.1467 18.4603 27.944C18.343 27.7413 18.2843 27.4533 18.2843 27.08V23.56C18.2843 23.272 18.3856 23.048 18.5883 22.888C18.8016 22.728 19.0523 22.648 19.3403 22.648C19.6283 22.648 19.8736 22.728 20.0763 22.888C20.2896 23.048 20.3963 23.272 20.3963 23.56V24.216H26.6043V23.56C26.6043 23.272 26.7056 23.048 26.9083 22.888C27.1216 22.728 27.3723 22.648 27.6603 22.648C27.9483 22.648 28.1936 22.728 28.3963 22.888C28.6096 23.048 28.7163 23.272 28.7163 23.56V27.08C28.7163 27.4533 28.6576 27.7413 28.5403 27.944C28.4336 28.136 28.2363 28.3013 27.9483 28.44C27.6923 28.568 27.255 28.68 26.6363 28.776C26.0283 28.872 25.3403 28.936 24.5723 28.968V29.8H29.8043C30.0816 29.8 30.295 29.8907 30.4443 30.072C30.5936 30.2533 30.6683 30.4667 30.6683 30.712C30.6683 30.9573 30.5883 31.1707 30.4283 31.352C30.279 31.5333 30.071 31.624 29.8043 31.624H17.1963C16.9296 31.624 16.7163 31.5333 16.5563 31.352C16.407 31.1707 16.3323 30.9573 16.3323 30.712ZM20.3963 26.776C20.3963 26.8507 20.439 26.904 20.5243 26.936C20.727 27 21.1163 27.064 21.6923 27.128C22.2683 27.1813 22.871 27.208 23.5003 27.208C24.1296 27.208 24.7323 27.1813 25.3083 27.128C25.8843 27.064 26.2736 27 26.4763 26.936C26.5616 26.904 26.6043 26.8507 26.6043 26.776V25.944H20.3963V26.776ZM41.9957 23.144C41.9957 22.8347 42.1077 22.5947 42.3317 22.424C42.5557 22.2533 42.801 22.168 43.0677 22.168C43.3344 22.168 43.5797 22.2533 43.8037 22.424C44.0277 22.5947 44.1397 22.8347 44.1397 23.144V26.376H45.4677C45.745 26.376 45.9637 26.4613 46.1237 26.632C46.2837 26.8027 46.3637 27.0267 46.3637 27.304C46.3637 27.5813 46.2837 27.8053 46.1237 27.976C45.9637 28.1467 45.745 28.232 45.4677 28.232H44.1397V32.792C44.1397 33.1013 44.0277 33.3413 43.8037 33.512C43.5797 33.6827 43.3344 33.768 43.0677 33.768C42.801 33.768 42.5557 33.6827 42.3317 33.512C42.1077 33.3413 41.9957 33.1013 41.9957 32.792V23.144ZM31.7237 24.312C31.7237 24.0347 31.809 23.816 31.9797 23.656C32.161 23.4853 32.3744 23.4 32.6197 23.4C32.705 23.4 32.769 23.4053 32.8117 23.416C33.5797 23.5333 34.4917 23.6027 35.5477 23.624V22.92C35.5477 22.6 35.6544 22.3653 35.8677 22.216C36.081 22.056 36.3317 21.976 36.6197 21.976C36.8864 21.976 37.1317 22.056 37.3557 22.216C37.5797 22.376 37.6917 22.6107 37.6917 22.92V23.624C38.6944 23.5813 39.521 23.512 40.1717 23.416C40.2144 23.4053 40.2784 23.4 40.3637 23.4C40.609 23.4 40.817 23.4853 40.9877 23.656C41.169 23.816 41.2597 24.0347 41.2597 24.312C41.2597 24.536 41.1904 24.7227 41.0517 24.872C40.913 25.0213 40.721 25.1227 40.4757 25.176C39.6117 25.336 38.2784 25.416 36.4757 25.416C34.6944 25.416 33.3717 25.336 32.5077 25.176C32.2624 25.1227 32.0704 25.0213 31.9317 24.872C31.793 24.7227 31.7237 24.536 31.7237 24.312ZM32.9077 28.968C32.9077 28.3813 33.0624 27.8587 33.3717 27.4C33.681 26.9307 34.1184 26.5627 34.6837 26.296C35.249 26.0293 35.8944 25.896 36.6197 25.896C37.345 25.896 37.9904 26.0293 38.5557 26.296C39.121 26.5627 39.5584 26.9307 39.8677 27.4C40.177 27.8587 40.3317 28.3813 40.3317 28.968C40.3317 29.5547 40.177 30.0827 39.8677 30.552C39.5584 31.0107 39.121 31.3733 38.5557 31.64C37.9904 31.9067 37.345 32.04 36.6197 32.04C35.8944 32.04 35.249 31.9067 34.6837 31.64C34.1184 31.3733 33.681 31.0107 33.3717 30.552C33.0624 30.0827 32.9077 29.5547 32.9077 28.968ZM34.0437 33.72C34.0437 33.4107 34.1557 33.1707 34.3797 33C34.6037 32.8293 34.849 32.744 35.1157 32.744C35.3824 32.744 35.6277 32.8293 35.8517 33C36.0757 33.1707 36.1877 33.4107 36.1877 33.72V35.672C36.1877 35.7467 36.209 35.8053 36.2517 35.848C36.2944 35.8907 36.353 35.912 36.4277 35.912H43.6757C43.953 35.912 44.1717 35.9973 44.3317 36.168C44.4917 36.3387 44.5717 36.5627 44.5717 36.84C44.5717 37.1173 44.4917 37.3413 44.3317 37.512C44.1717 37.6827 43.953 37.768 43.6757 37.768H35.4197C35.025 37.768 34.6944 37.6453 34.4277 37.4C34.1717 37.1547 34.0437 36.8453 34.0437 36.472V33.72ZM34.9877 28.968C34.9877 29.3627 35.1317 29.688 35.4197 29.944C35.7184 30.1893 36.1184 30.312 36.6197 30.312C37.121 30.312 37.5157 30.1893 37.8037 29.944C38.1024 29.688 38.2517 29.3627 38.2517 28.968C38.2517 28.5733 38.1024 28.2533 37.8037 28.008C37.5157 27.752 37.121 27.624 36.6197 27.624C36.1184 27.624 35.7184 27.752 35.4197 28.008C35.1317 28.2533 34.9877 28.5733 34.9877 28.968ZM61.8879 23.144C61.8879 22.8347 61.9999 22.5947 62.2239 22.424C62.4479 22.2533 62.6933 22.168 62.9599 22.168C63.2266 22.168 63.4719 22.2533 63.6959 22.424C63.9199 22.5947 64.0319 22.8347 64.0319 23.144V37.112C64.0319 37.4213 63.9199 37.6613 63.6959 37.832C63.4719 38.0027 63.2266 38.088 62.9599 38.088C62.6933 38.088 62.4479 38.0027 62.2239 37.832C61.9999 37.6613 61.8879 37.4213 61.8879 37.112V31.016H59.2959C58.9759 31.9547 58.4799 32.68 57.8079 33.192C57.1466 33.6933 56.3893 33.944 55.5359 33.944C54.7466 33.944 54.0373 33.7307 53.4079 33.304C52.7786 32.8667 52.2826 32.2373 51.9199 31.416C51.5573 30.584 51.3759 29.608 51.3759 28.488C51.3759 27.368 51.5573 26.3973 51.9199 25.576C52.2826 24.7547 52.7786 24.1307 53.4079 23.704C54.0373 23.2773 54.7466 23.064 55.5359 23.064C56.3039 23.064 56.9919 23.2667 57.5999 23.672C58.2186 24.0773 58.7093 24.6587 59.0719 25.416H61.8879V23.144ZM53.5199 28.488C53.5199 29.2773 53.6106 29.944 53.7919 30.488C53.9733 31.032 54.2133 31.4427 54.5119 31.72C54.8213 31.9867 55.1626 32.12 55.5359 32.12C55.9093 32.12 56.2453 31.9867 56.5439 31.72C56.8533 31.4427 57.0986 31.032 57.2799 30.488C57.4613 29.944 57.5519 29.2773 57.5519 28.488C57.5519 27.7093 57.4613 27.048 57.2799 26.504C57.0986 25.96 56.8533 25.5547 56.5439 25.288C56.2453 25.0107 55.9093 24.872 55.5359 24.872C55.1626 24.872 54.8213 25.0107 54.5119 25.288C54.2133 25.5547 53.9733 25.96 53.7919 26.504C53.6106 27.048 53.5199 27.7093 53.5199 28.488ZM59.6159 27.24C59.6693 27.6667 59.6959 28.0827 59.6959 28.488C59.6959 28.6587 59.6853 28.8933 59.6639 29.192H61.8879V27.24H59.6159ZM66.8473 28.36C66.8473 27.816 66.986 27.3307 67.2633 26.904C67.5513 26.4667 67.9353 26.1307 68.4153 25.896C68.906 25.6613 69.4553 25.544 70.0633 25.544C70.6713 25.544 71.2153 25.6613 71.6953 25.896C72.186 26.1307 72.57 26.4613 72.8473 26.888C73.1353 27.3147 73.2793 27.8053 73.2793 28.36C73.2793 28.904 73.1353 29.3947 72.8473 29.832C72.57 30.2587 72.186 30.5893 71.6953 30.824C71.2153 31.0587 70.6713 31.176 70.0633 31.176C69.4553 31.176 68.906 31.0587 68.4153 30.824C67.9353 30.5893 67.5513 30.2587 67.2633 29.832C66.986 29.3947 66.8473 28.904 66.8473 28.36ZM66.0473 24.008C66.0473 23.7307 66.1326 23.5173 66.3033 23.368C66.474 23.208 66.682 23.128 66.9273 23.128C67.0233 23.128 67.0926 23.1333 67.1353 23.144C67.6153 23.2187 68.25 23.2773 69.0393 23.32V22.776C69.0393 22.4773 69.1406 22.2533 69.3433 22.104C69.546 21.944 69.786 21.864 70.0633 21.864C70.33 21.864 70.5646 21.9387 70.7673 22.088C70.9806 22.2373 71.0873 22.4667 71.0873 22.776V23.304C71.5886 23.2933 72.1273 23.24 72.7033 23.144C72.746 23.1333 72.8153 23.128 72.9113 23.128C73.1566 23.128 73.3646 23.208 73.5353 23.368C73.706 23.5173 73.7913 23.7307 73.7913 24.008C73.7913 24.2427 73.722 24.44 73.5833 24.6C73.4446 24.7493 73.2526 24.8507 73.0073 24.904C72.2393 25.0533 71.2793 25.128 70.1273 25.128C68.6873 25.128 67.5886 25.0533 66.8313 24.904C66.586 24.8507 66.394 24.7493 66.2553 24.6C66.1166 24.44 66.0473 24.2427 66.0473 24.008ZM68.8633 28.36C68.8633 28.68 68.9753 28.9413 69.1993 29.144C69.4233 29.3467 69.7113 29.448 70.0633 29.448C70.4153 29.448 70.7033 29.3467 70.9273 29.144C71.1513 28.9413 71.2633 28.68 71.2633 28.36C71.2633 28.04 71.1513 27.7787 70.9273 27.576C70.7033 27.3733 70.4153 27.272 70.0633 27.272C69.7113 27.272 69.4233 27.3733 69.1993 27.576C68.9753 27.7787 68.8633 28.04 68.8633 28.36ZM69.4553 34.936C69.4553 34.3387 69.6473 33.8 70.0313 33.32C70.426 32.84 71.0073 32.4613 71.7753 32.184C72.5433 31.896 73.466 31.752 74.5433 31.752C75.6206 31.752 76.5433 31.896 77.3113 32.184C78.0793 32.4613 78.6553 32.84 79.0393 33.32C79.434 33.8 79.6313 34.3387 79.6313 34.936C79.6313 35.5333 79.434 36.072 79.0393 36.552C78.6553 37.032 78.0793 37.4107 77.3113 37.688C76.5433 37.976 75.6206 38.12 74.5433 38.12C73.466 38.12 72.5433 37.976 71.7753 37.688C71.0073 37.4107 70.426 37.032 70.0313 36.552C69.6473 36.072 69.4553 35.5333 69.4553 34.936ZM71.5993 34.936C71.5993 35.3307 71.834 35.656 72.3033 35.912C72.7726 36.168 73.5193 36.296 74.5433 36.296C75.5673 36.296 76.314 36.168 76.7833 35.912C77.2526 35.656 77.4873 35.3307 77.4873 34.936C77.4873 34.5413 77.2526 34.216 76.7833 33.96C76.314 33.704 75.5673 33.576 74.5433 33.576C73.5193 33.576 72.7726 33.704 72.3033 33.96C71.834 34.216 71.5993 34.5413 71.5993 34.936ZM74.2873 23.32C74.2873 23.0107 74.3993 22.7707 74.6233 22.6C74.8473 22.4293 75.0873 22.344 75.3433 22.344C75.61 22.344 75.85 22.4293 76.0633 22.6C76.2873 22.76 76.3993 23 76.3993 23.32V25.992H77.7593V23.144C77.7593 22.8347 77.8713 22.5947 78.0953 22.424C78.3193 22.2533 78.5593 22.168 78.8153 22.168C79.082 22.168 79.322 22.2533 79.5353 22.424C79.7593 22.584 79.8713 22.824 79.8713 23.144V31.064C79.8713 31.3733 79.7646 31.592 79.5513 31.72C79.3486 31.848 79.1033 31.912 78.8153 31.912C78.538 31.912 78.2926 31.848 78.0793 31.72C77.866 31.592 77.7593 31.3733 77.7593 31.064V27.848H76.3993V30.296C76.3993 30.6053 76.2926 30.824 76.0793 30.952C75.8766 31.08 75.6313 31.144 75.3433 31.144C75.066 31.144 74.8206 31.08 74.6073 30.952C74.394 30.824 74.2873 30.6053 74.2873 30.296V23.32ZM96.4036 23.144C96.4036 22.8347 96.5156 22.5947 96.7396 22.424C96.9636 22.2533 97.2089 22.168 97.4756 22.168C97.7422 22.168 97.9876 22.2533 98.2116 22.424C98.4356 22.5947 98.5476 22.8347 98.5476 23.144V37.112C98.5476 37.4213 98.4356 37.6613 98.2116 37.832C97.9876 38.0027 97.7422 38.088 97.4756 38.088C97.2089 38.088 96.9636 38.0027 96.7396 37.832C96.5156 37.6613 96.4036 37.4213 96.4036 37.112V23.144ZM85.3636 34.296C85.3636 34.0187 85.4542 33.8 85.6356 33.64C85.8169 33.4693 86.0409 33.384 86.3076 33.384C86.3929 33.384 86.5369 33.4053 86.7396 33.448C87.3262 33.576 88.1742 33.6667 89.2836 33.72V30.984C88.5156 30.9307 87.8756 30.8187 87.3636 30.648C86.9476 30.5307 86.6542 30.344 86.4836 30.088C86.3129 29.832 86.2276 29.5067 86.2276 29.112V24.264C86.2276 23.9547 86.3396 23.7093 86.5636 23.528C86.7876 23.3467 87.0756 23.256 87.4276 23.256H93.3316C93.6196 23.256 93.8382 23.3413 93.9876 23.512C94.1476 23.672 94.2276 23.8907 94.2276 24.168C94.2276 24.4453 94.1476 24.6693 93.9876 24.84C93.8382 25 93.6196 25.08 93.3316 25.08H88.3396V28.856C88.3396 28.9413 88.3822 28.9947 88.4676 29.016C88.6809 29.08 88.9689 29.128 89.3316 29.16C89.7049 29.192 90.0569 29.208 90.3876 29.208C90.7716 29.208 91.2249 29.1707 91.7476 29.096C92.2809 29.0213 92.8089 28.9093 93.3316 28.76C93.4916 28.728 93.5982 28.712 93.6516 28.712C93.9076 28.712 94.1316 28.792 94.3236 28.952C94.5156 29.112 94.6116 29.3253 94.6116 29.592C94.6116 29.8053 94.5369 29.9973 94.3876 30.168C94.2489 30.328 94.0676 30.44 93.8436 30.504C93.1076 30.7387 92.3022 30.8933 91.4276 30.968V33.704C92.4942 33.6293 93.4222 33.464 94.2116 33.208C94.4676 33.1227 94.6702 33.08 94.8196 33.08C95.0862 33.08 95.3049 33.16 95.4756 33.32C95.6462 33.48 95.7316 33.6933 95.7316 33.96C95.7316 34.1627 95.6569 34.344 95.5076 34.504C95.3582 34.664 95.1502 34.792 94.8836 34.888C94.3182 35.1013 93.6302 35.2667 92.8196 35.384C92.0089 35.5013 91.1822 35.56 90.3396 35.56C88.5156 35.56 87.1022 35.4267 86.0996 35.16C85.8862 35.1067 85.7102 35.0053 85.5716 34.856C85.4329 34.696 85.3636 34.5093 85.3636 34.296ZM101.891 33.576C101.624 33.576 101.395 33.4853 101.203 33.304C101.011 33.112 100.915 32.8827 100.915 32.616C100.915 32.36 101.038 32.0987 101.283 31.832C101.784 31.288 102.184 30.7227 102.483 30.136C102.782 29.5493 103.022 28.8933 103.203 28.168C103.331 27.688 103.416 27.2187 103.459 26.76C103.512 26.2907 103.539 25.7733 103.539 25.208V23.992C103.539 23.6827 103.646 23.4427 103.859 23.272C104.083 23.1013 104.328 23.016 104.595 23.016C104.872 23.016 105.118 23.1013 105.331 23.272C105.544 23.432 105.651 23.672 105.651 23.992V25.208C105.651 26.3707 105.752 27.352 105.955 28.152C106.147 28.92 106.387 29.5867 106.675 30.152C106.974 30.7067 107.358 31.2613 107.827 31.816C107.955 31.9653 108.056 32.1093 108.131 32.248C108.206 32.376 108.243 32.5253 108.243 32.696C108.243 32.9307 108.152 33.1387 107.971 33.32C107.79 33.4907 107.566 33.576 107.299 33.576C107.064 33.576 106.856 33.5173 106.675 33.4C106.494 33.2827 106.312 33.112 106.131 32.888C105.758 32.408 105.416 31.864 105.107 31.256C104.808 30.6373 104.632 30.0933 104.579 29.624C104.515 30.0933 104.334 30.632 104.035 31.24C103.736 31.8373 103.4 32.3813 103.027 32.872C102.824 33.128 102.648 33.3093 102.499 33.416C102.35 33.5227 102.147 33.576 101.891 33.576ZM107.011 27.736C107.011 27.4587 107.091 27.2347 107.251 27.064C107.411 26.8933 107.63 26.808 107.907 26.808H108.963V23.32C108.963 23.0107 109.075 22.7707 109.299 22.6C109.523 22.4293 109.763 22.344 110.019 22.344C110.286 22.344 110.526 22.4293 110.739 22.6C110.963 22.76 111.075 23 111.075 23.32V36.792C111.075 37.112 110.963 37.352 110.739 37.512C110.526 37.6827 110.286 37.768 110.019 37.768C109.763 37.768 109.523 37.6827 109.299 37.512C109.075 37.3413 108.963 37.1013 108.963 36.792V28.664H107.907C107.63 28.664 107.411 28.5787 107.251 28.408C107.091 28.2373 107.011 28.0133 107.011 27.736ZM112.275 23.144C112.275 22.8347 112.387 22.5947 112.611 22.424C112.835 22.2533 113.075 22.168 113.331 22.168C113.598 22.168 113.838 22.2533 114.051 22.424C114.275 22.584 114.387 22.824 114.387 23.144V37.08C114.387 37.4 114.275 37.64 114.051 37.8C113.838 37.9707 113.598 38.056 113.331 38.056C113.075 38.056 112.835 37.9707 112.611 37.8C112.387 37.6293 112.275 37.3893 112.275 37.08V23.144ZM123.25 31.64C122.728 31.64 122.232 31.592 121.762 31.496V34.376C122.424 34.3973 122.92 34.408 123.25 34.408C123.592 34.408 124.093 34.3973 124.754 34.376V31.496C124.296 31.592 123.794 31.64 123.25 31.64ZM116.082 34.584C116.082 34.3387 116.168 34.1253 116.338 33.944C116.509 33.752 116.728 33.656 116.994 33.656C117.09 33.656 117.186 33.672 117.282 33.704C118.072 33.9067 118.85 34.0613 119.618 34.168V30.568C119.085 30.184 118.674 29.7147 118.386 29.16C118.098 28.5947 117.954 27.976 117.954 27.304C117.954 26.4613 118.178 25.7147 118.626 25.064C119.074 24.4027 119.698 23.8907 120.498 23.528C121.298 23.1547 122.216 22.968 123.25 22.968C124.285 22.968 125.202 23.1547 126.002 23.528C126.802 23.8907 127.426 24.4027 127.874 25.064C128.322 25.7147 128.546 26.4613 128.546 27.304C128.546 27.9653 128.402 28.5787 128.114 29.144C127.826 29.7093 127.421 30.184 126.898 30.568V34.168C127.645 34.0613 128.418 33.9067 129.218 33.704C129.282 33.6827 129.378 33.672 129.506 33.672C129.773 33.672 129.992 33.7627 130.162 33.944C130.333 34.1253 130.418 34.3387 130.418 34.584C130.418 34.7867 130.354 34.9733 130.226 35.144C130.098 35.3147 129.906 35.432 129.65 35.496C127.805 36.008 125.672 36.264 123.25 36.264C120.829 36.264 118.696 36.008 116.85 35.496C116.594 35.432 116.402 35.3147 116.274 35.144C116.146 34.9733 116.082 34.7867 116.082 34.584ZM120.066 27.304C120.066 28.0507 120.349 28.6587 120.914 29.128C121.49 29.5867 122.269 29.816 123.25 29.816C124.232 29.816 125.005 29.5867 125.57 29.128C126.146 28.6587 126.434 28.0507 126.434 27.304C126.434 26.5573 126.146 25.9547 125.57 25.496C125.005 25.0267 124.232 24.792 123.25 24.792C122.269 24.792 121.49 25.0267 120.914 25.496C120.349 25.9547 120.066 26.5573 120.066 27.304ZM133.234 33.112C132.924 33.112 132.668 33.032 132.466 32.872C132.274 32.7013 132.172 32.4453 132.162 32.104L132.066 24.44C132.055 24.12 132.167 23.8693 132.402 23.688C132.636 23.496 132.914 23.4 133.234 23.4C133.554 23.4 133.826 23.4907 134.05 23.672C134.284 23.8533 134.396 24.1093 134.386 24.44L134.29 32.104C134.279 32.4347 134.178 32.6853 133.986 32.856C133.794 33.0267 133.543 33.112 133.234 33.112ZM131.938 35.64C131.938 35.2773 132.06 34.9787 132.306 34.744C132.551 34.4987 132.86 34.376 133.234 34.376C133.607 34.376 133.916 34.4987 134.162 34.744C134.407 34.9787 134.53 35.2773 134.53 35.64C134.53 36.0133 134.407 36.3173 134.162 36.552C133.916 36.7973 133.607 36.92 133.234 36.92C132.86 36.92 132.551 36.7973 132.306 36.552C132.06 36.3173 131.938 36.0133 131.938 35.64Z" fill="#F2F2F2"/>
</svg>
