<svg width="135" height="39" viewBox="0 0 135 39" fill="none" xmlns="http://www.w3.org/2000/svg">
<path d="M17.901 0.216C18.189 0.216 18.4397 0.296 18.653 0.455999C18.8663 0.615999 18.973 0.823999 18.973 1.08C18.973 1.26133 18.9197 1.44267 18.813 1.624C18.461 2.296 18.189 3.21333 17.997 4.376C17.8157 5.53867 17.725 6.776 17.725 8.088C17.725 9.37867 17.8157 10.6 17.997 11.752C18.189 12.8933 18.461 13.816 18.813 14.52C18.909 14.712 18.957 14.888 18.957 15.048C18.957 15.304 18.8503 15.512 18.637 15.672C18.4343 15.8427 18.1943 15.928 17.917 15.928C17.7037 15.928 17.5223 15.864 17.373 15.736C17.2237 15.6187 17.0797 15.432 16.941 15.176C16.4717 14.2053 16.1143 13.1067 15.869 11.88C15.6237 10.6533 15.501 9.39467 15.501 8.104C15.501 6.81333 15.6237 5.55467 15.869 4.328C16.1143 3.10133 16.4717 1.98133 16.941 0.967999C17.069 0.712 17.2077 0.525333 17.357 0.407999C17.5063 0.279999 17.6877 0.216 17.901 0.216ZM23.4754 6.168C23.4754 6.25333 23.518 6.30667 23.6034 6.328C24.0194 6.44533 24.6754 6.504 25.5714 6.504C26.4674 6.504 27.4167 6.38133 28.4194 6.136C28.5794 6.104 28.686 6.088 28.7394 6.088C28.9954 6.088 29.2194 6.17333 29.4114 6.344C29.6034 6.504 29.6994 6.71733 29.6994 6.984C29.6994 7.19733 29.6247 7.38933 29.4754 7.56C29.3367 7.72 29.1554 7.832 28.9314 7.896C28.43 8.03467 27.8754 8.14133 27.2674 8.216C26.67 8.29067 26.1047 8.328 25.5714 8.328C24.2807 8.328 23.246 8.20533 22.4674 7.96C22.0514 7.84267 21.758 7.656 21.5874 7.4C21.4167 7.144 21.3314 6.81867 21.3314 6.424V1.768C21.3314 1.45867 21.4434 1.21867 21.6674 1.048C21.8914 0.877333 22.1367 0.792 22.4034 0.792C22.67 0.792 22.9154 0.877333 23.1394 1.048C23.3634 1.21867 23.4754 1.45867 23.4754 1.768V6.168ZM23.3954 10.808C23.3954 10.5307 23.4754 10.312 23.6354 10.152C23.7954 9.98133 24.0194 9.896 24.3074 9.896H32.3554C32.7074 9.896 32.9954 9.98667 33.2194 10.168C33.4434 10.3493 33.5554 10.5947 33.5554 10.904V15.064C33.5554 15.3733 33.4434 15.6133 33.2194 15.784C32.9954 15.9547 32.75 16.04 32.4834 16.04C32.2167 16.04 31.9714 15.9547 31.7474 15.784C31.5234 15.6133 31.4114 15.3733 31.4114 15.064V11.72H24.3074C24.0194 11.72 23.7954 11.6347 23.6354 11.464C23.4754 11.2933 23.3954 11.0747 23.3954 10.808ZM31.4114 1.144C31.4114 0.834666 31.5234 0.594666 31.7474 0.424C31.9714 0.253333 32.2167 0.167999 32.4834 0.167999C32.75 0.167999 32.9954 0.253333 33.2194 0.424C33.4434 0.594666 33.5554 0.834666 33.5554 1.144V8.216C33.5554 8.52533 33.4434 8.76533 33.2194 8.936C32.9954 9.10667 32.75 9.192 32.4834 9.192C32.2167 9.192 31.9714 9.10667 31.7474 8.936C31.5234 8.76533 31.4114 8.52533 31.4114 8.216V1.144ZM47.2828 1.144C47.2828 0.834666 47.3948 0.594666 47.6188 0.424C47.8428 0.253333 48.0828 0.167999 48.3388 0.167999C48.6054 0.167999 48.8454 0.253333 49.0588 0.424C49.2828 0.584 49.3948 0.823999 49.3948 1.144V15.08C49.3948 15.4 49.2828 15.64 49.0588 15.8C48.8454 15.9707 48.6054 16.056 48.3388 16.056C48.0828 16.056 47.8428 15.9707 47.6188 15.8C47.3948 15.6293 47.2828 15.3893 47.2828 15.08V1.144ZM36.2747 2.2C36.2747 1.89067 36.3868 1.65067 36.6108 1.48C36.8348 1.30933 37.0801 1.224 37.3468 1.224C37.6134 1.224 37.8588 1.30933 38.0828 1.48C38.3068 1.65067 38.4188 1.89067 38.4188 2.2V9.48C38.4188 9.52267 38.4294 9.56 38.4508 9.592C38.4721 9.624 38.5041 9.64533 38.5468 9.656C38.9414 9.76267 39.4054 9.816 39.9388 9.816C40.3121 9.816 40.9148 9.74667 41.7468 9.608L42.0348 9.576C42.2908 9.576 42.5148 9.66133 42.7068 9.832C42.9094 10.0027 43.0108 10.2213 43.0108 10.488C43.0108 10.7013 42.9414 10.8933 42.8028 11.064C42.6641 11.224 42.4774 11.3253 42.2428 11.368C41.3361 11.5493 40.5681 11.64 39.9388 11.64C39.4908 11.64 39.0748 11.6133 38.6908 11.56C38.3174 11.5067 37.8908 11.416 37.4108 11.288C37.0054 11.1707 36.7121 10.984 36.5308 10.728C36.3601 10.472 36.2747 10.1467 36.2747 9.752V2.2ZM40.6588 5.496C40.6588 5.21867 40.7388 4.99467 40.8988 4.824C41.0588 4.65333 41.2774 4.568 41.5548 4.568H43.9708V1.32C43.9708 1.01067 44.0828 0.770666 44.3068 0.599999C44.5308 0.429333 44.7708 0.344 45.0268 0.344C45.2934 0.344 45.5334 0.429333 45.7468 0.599999C45.9708 0.759999 46.0828 0.999999 46.0828 1.32V14.792C46.0828 15.112 45.9708 15.352 45.7468 15.512C45.5334 15.6827 45.2934 15.768 45.0268 15.768C44.7708 15.768 44.5308 15.6827 44.3068 15.512C44.0828 15.3413 43.9708 15.1013 43.9708 14.792V6.424H41.5548C41.2774 6.424 41.0588 6.33867 40.8988 6.168C40.7388 5.99733 40.6588 5.77333 40.6588 5.496ZM56.0661 11.56V14.12H62.1301V11.56H56.0661ZM51.6181 4.568C51.6181 3.82133 51.8048 3.15467 52.1781 2.568C52.5515 1.98133 53.0688 1.52267 53.7301 1.192C54.3915 0.861333 55.1381 0.695999 55.9701 0.695999C56.8021 0.695999 57.5488 0.861333 58.2101 1.192C58.8715 1.52267 59.3888 1.98133 59.7621 2.568C60.1355 3.15467 60.3221 3.82133 60.3221 4.568C60.3221 5.31467 60.1355 5.976 59.7621 6.552C59.3888 7.128 58.8715 7.576 58.2101 7.896C57.5488 8.216 56.8021 8.376 55.9701 8.376C55.1381 8.376 54.3915 8.216 53.7301 7.896C53.0688 7.576 52.5515 7.128 52.1781 6.552C51.8048 5.976 51.6181 5.31467 51.6181 4.568ZM53.7301 4.568C53.7301 5.176 53.9328 5.66133 54.3381 6.024C54.7541 6.38667 55.2981 6.568 55.9701 6.568C56.6421 6.568 57.1808 6.38667 57.5861 6.024C58.0021 5.66133 58.2101 5.176 58.2101 4.568C58.2101 3.94933 58.0021 3.45333 57.5861 3.08C57.1701 2.696 56.6315 2.504 55.9701 2.504C55.3088 2.504 54.7701 2.696 54.3541 3.08C53.9381 3.45333 53.7301 3.94933 53.7301 4.568ZM53.9221 10.744C53.9221 10.4347 54.0341 10.1893 54.2581 10.008C54.4821 9.82667 54.7701 9.736 55.1221 9.736H63.0741C63.4261 9.736 63.7141 9.82667 63.9381 10.008C64.1621 10.1893 64.2741 10.4347 64.2741 10.744V14.936C64.2741 15.2453 64.1621 15.4907 63.9381 15.672C63.7141 15.8533 63.4261 15.944 63.0741 15.944H55.1221C54.7701 15.944 54.4821 15.8533 54.2581 15.672C54.0341 15.4907 53.9221 15.2453 53.9221 14.936V10.744ZM62.1301 1.144C62.1301 0.834666 62.2421 0.594666 62.4661 0.424C62.6901 0.253333 62.9355 0.167999 63.2021 0.167999C63.4688 0.167999 63.7141 0.253333 63.9381 0.424C64.1621 0.594666 64.2741 0.834666 64.2741 1.144V8.008C64.2741 8.31733 64.1621 8.55733 63.9381 8.728C63.7141 8.89867 63.4688 8.984 63.2021 8.984C62.9355 8.984 62.6901 8.89867 62.4661 8.728C62.2421 8.55733 62.1301 8.31733 62.1301 8.008V1.144ZM67.8895 0.216C68.1028 0.216 68.2842 0.279999 68.4335 0.407999C68.5828 0.525333 68.7215 0.712 68.8495 0.967999C69.3188 1.98133 69.6762 3.10133 69.9215 4.328C70.1668 5.55467 70.2895 6.81333 70.2895 8.104C70.2895 9.39467 70.1668 10.6533 69.9215 11.88C69.6762 13.1067 69.3188 14.2053 68.8495 15.176C68.7108 15.432 68.5668 15.6187 68.4175 15.736C68.2682 15.864 68.0868 15.928 67.8735 15.928C67.5855 15.928 67.3402 15.8427 67.1375 15.672C66.9348 15.512 66.8335 15.304 66.8335 15.048C66.8335 14.888 66.8815 14.712 66.9775 14.52C67.3295 13.816 67.5962 12.8933 67.7775 11.752C67.9695 10.6 68.0655 9.37867 68.0655 8.088C68.0655 6.776 67.9695 5.53867 67.7775 4.376C67.5962 3.21333 67.3295 2.296 66.9775 1.624C66.8708 1.44267 66.8175 1.26133 66.8175 1.08C66.8175 0.823999 66.9242 0.615999 67.1375 0.455999C67.3508 0.296 67.6015 0.216 67.8895 0.216ZM73.4799 1.848C74.2159 1.96533 75.1119 2.04533 76.1679 2.088V1.176C76.1679 0.888 76.2745 0.653333 76.4879 0.471999C76.7012 0.279999 76.9519 0.183999 77.2399 0.183999C77.5279 0.183999 77.7785 0.279999 77.9919 0.471999C78.2052 0.653333 78.3119 0.888 78.3119 1.176V2.072C79.3145 2.04 80.1679 1.97067 80.8719 1.864C80.9145 1.85333 80.9679 1.848 81.0319 1.848C81.2879 1.848 81.5065 1.928 81.6879 2.088C81.8692 2.248 81.9599 2.472 81.9599 2.76C81.9599 2.99467 81.8905 3.192 81.7519 3.352C81.6132 3.50133 81.4212 3.60267 81.1759 3.656C80.7492 3.73067 80.1572 3.79467 79.3999 3.848C78.6425 3.90133 77.9225 3.928 77.2399 3.928C76.5145 3.928 75.7785 3.90667 75.0319 3.864C74.2852 3.81067 73.6665 3.74133 73.1759 3.656C72.9305 3.60267 72.7385 3.50133 72.5999 3.352C72.4612 3.192 72.3919 2.99467 72.3919 2.76C72.3919 2.44 72.4985 2.2 72.7119 2.04C72.9359 1.86933 73.1919 1.80533 73.4799 1.848ZM72.1839 12.488C72.1839 12.2107 72.2745 11.992 72.4559 11.832C72.6372 11.6613 72.8612 11.576 73.1279 11.576C73.2132 11.576 73.3572 11.5973 73.5599 11.64C74.2532 11.7893 75.1225 11.88 76.1679 11.912V10.28C75.3252 10.1093 74.6532 9.76267 74.1519 9.24C73.6612 8.70667 73.4159 8.09333 73.4159 7.4C73.4159 6.856 73.5759 6.35467 73.8959 5.896C74.2159 5.43733 74.6639 5.07467 75.2399 4.808C75.8265 4.54133 76.4932 4.408 77.2399 4.408C77.9865 4.408 78.6479 4.54133 79.2239 4.808C79.8105 5.07467 80.2639 5.43733 80.5839 5.896C80.9039 6.35467 81.0639 6.856 81.0639 7.4C81.0639 8.09333 80.8132 8.70667 80.3119 9.24C79.8212 9.76267 79.1545 10.1093 78.3119 10.28V11.88C79.3892 11.7947 80.2959 11.6347 81.0319 11.4C81.2879 11.3147 81.4905 11.272 81.6399 11.272C81.9065 11.272 82.1252 11.352 82.2959 11.512C82.4665 11.672 82.5519 11.8853 82.5519 12.152C82.5519 12.3547 82.4772 12.536 82.3279 12.696C82.1785 12.856 81.9705 12.984 81.7039 13.08C81.1385 13.2933 80.4505 13.4587 79.6399 13.576C78.8292 13.6933 78.0025 13.752 77.1599 13.752C75.3359 13.752 73.9225 13.6187 72.9199 13.352C72.7065 13.2987 72.5305 13.192 72.3919 13.032C72.2532 12.8827 72.1839 12.7013 72.1839 12.488ZM75.4959 7.4C75.4959 7.76267 75.6505 8.06133 75.9599 8.296C76.2799 8.52 76.7065 8.632 77.2399 8.632C77.7732 8.632 78.1945 8.52 78.5039 8.296C78.8239 8.06133 78.9839 7.76267 78.9839 7.4C78.9839 7.03733 78.8239 6.744 78.5039 6.52C78.1945 6.28533 77.7732 6.168 77.2399 6.168C76.7065 6.168 76.2799 6.28533 75.9599 6.52C75.6505 6.744 75.4959 7.03733 75.4959 7.4ZM83.2239 1.144C83.2239 0.834666 83.3359 0.594666 83.5599 0.424C83.7839 0.253333 84.0292 0.167999 84.2959 0.167999C84.5625 0.167999 84.8079 0.253333 85.0319 0.424C85.2559 0.594666 85.3679 0.834666 85.3679 1.144V15.112C85.3679 15.4213 85.2559 15.6613 85.0319 15.832C84.8079 16.0027 84.5625 16.088 84.2959 16.088C84.0292 16.088 83.7839 16.0027 83.5599 15.832C83.3359 15.6613 83.2239 15.4213 83.2239 15.112V1.144ZM98.5833 1.144C98.5833 0.834666 98.6953 0.594666 98.9193 0.424C99.1433 0.253333 99.3886 0.167999 99.6553 0.167999C99.9219 0.167999 100.167 0.253333 100.391 0.424C100.615 0.594666 100.727 0.834666 100.727 1.144V11.528C100.727 11.8373 100.615 12.0773 100.391 12.248C100.167 12.4187 99.9219 12.504 99.6553 12.504C99.3886 12.504 99.1433 12.4187 98.9193 12.248C98.6953 12.0773 98.5833 11.8373 98.5833 11.528V11.416H95.8472C95.5593 11.416 95.3353 11.3413 95.1753 11.192C95.0259 11.032 94.9513 10.8133 94.9513 10.536C94.9513 10.2587 95.0259 10.0453 95.1753 9.896C95.3353 9.736 95.5593 9.656 95.8472 9.656H98.5833V1.144ZM87.6393 8.296C87.6393 8.02933 87.7406 7.81067 87.9433 7.64C88.1459 7.46933 88.3966 7.384 88.6953 7.384H92.4233C93.3726 7.384 94.1779 7.35733 94.8393 7.304C95.5006 7.25067 96.1193 7.16 96.6953 7.032C96.8446 7.01067 96.9459 7 96.9993 7C97.2766 7 97.4953 7.08533 97.6553 7.256C97.8259 7.416 97.9113 7.61867 97.9113 7.864C97.9113 8.088 97.8419 8.28533 97.7033 8.456C97.5646 8.616 97.3619 8.728 97.0953 8.792C96.1353 9.016 94.9886 9.14933 93.6553 9.192V10.84C93.6553 11.1493 93.5433 11.3733 93.3193 11.512C93.1059 11.6507 92.8606 11.72 92.5833 11.72C92.3059 11.72 92.0553 11.6507 91.8313 11.512C91.6179 11.3733 91.5113 11.1493 91.5113 10.84V9.208H88.6953C88.3966 9.208 88.1459 9.12267 87.9433 8.952C87.7406 8.78133 87.6393 8.56267 87.6393 8.296ZM88.3433 3.592C88.3433 2.984 88.5139 2.44 88.8553 1.96C89.1966 1.48 89.6873 1.10667 90.3273 0.839999C90.9673 0.573333 91.7193 0.44 92.5833 0.44C93.4473 0.44 94.1993 0.573333 94.8393 0.839999C95.4793 1.10667 95.9699 1.48 96.3113 1.96C96.6526 2.44 96.8233 2.984 96.8233 3.592C96.8233 4.2 96.6526 4.744 96.3113 5.224C95.9699 5.704 95.4793 6.07733 94.8393 6.344C94.1993 6.61067 93.4473 6.744 92.5833 6.744C91.7193 6.744 90.9673 6.61067 90.3273 6.344C89.6873 6.07733 89.1966 5.704 88.8553 5.224C88.5139 4.744 88.3433 4.2 88.3433 3.592ZM89.3673 12.088C89.3673 11.7787 89.4793 11.5387 89.7033 11.368C89.9273 11.1973 90.1726 11.112 90.4393 11.112C90.7059 11.112 90.9513 11.1973 91.1753 11.368C91.3993 11.5387 91.5113 11.7787 91.5113 12.088V13.672C91.5113 13.7467 91.5326 13.8053 91.5753 13.848C91.6179 13.8907 91.6766 13.912 91.7513 13.912H100.007C100.285 13.912 100.503 13.9973 100.663 14.168C100.823 14.3387 100.903 14.5627 100.903 14.84C100.903 15.1173 100.823 15.3413 100.663 15.512C100.503 15.6827 100.285 15.768 100.007 15.768H90.7433C90.3486 15.768 90.0179 15.6453 89.7513 15.4C89.4953 15.1547 89.3673 14.8453 89.3673 14.472V12.088ZM90.4553 3.592C90.4553 3.99733 90.6473 4.33333 91.0312 4.6C91.4153 4.856 91.9326 4.984 92.5833 4.984C93.2233 4.984 93.7353 4.856 94.1193 4.6C94.5139 4.33333 94.7113 3.99733 94.7113 3.592C94.7113 3.18667 94.5193 2.856 94.1353 2.6C93.7513 2.33333 93.2339 2.2 92.5833 2.2C91.9326 2.2 91.4153 2.33333 91.0312 2.6C90.6473 2.856 90.4553 3.18667 90.4553 3.592ZM106.007 5.864C106.007 5.94933 106.049 6.00267 106.135 6.024C106.551 6.14133 107.207 6.2 108.103 6.2C108.988 6.2 109.937 6.07733 110.951 5.832C111.111 5.8 111.217 5.784 111.271 5.784C111.527 5.784 111.751 5.86933 111.943 6.04C112.135 6.2 112.231 6.41333 112.231 6.68C112.231 6.89333 112.156 7.08533 112.007 7.256C111.868 7.416 111.687 7.528 111.463 7.592C110.951 7.73067 110.391 7.83733 109.783 7.912C109.185 7.98667 108.625 8.024 108.103 8.024C106.812 8.024 105.777 7.90133 104.999 7.656C104.583 7.53867 104.289 7.352 104.119 7.096C103.948 6.84 103.863 6.51467 103.863 6.12V1.768C103.863 1.45867 103.975 1.21867 104.199 1.048C104.423 0.877333 104.668 0.792 104.935 0.792C105.201 0.792 105.447 0.877333 105.671 1.048C105.895 1.21867 106.007 1.45867 106.007 1.768V5.864ZM105.735 10.744C105.735 10.4347 105.847 10.1893 106.071 10.008C106.295 9.82667 106.583 9.736 106.935 9.736H114.887C115.239 9.736 115.527 9.82667 115.751 10.008C115.975 10.1893 116.087 10.4347 116.087 10.744V14.936C116.087 15.2453 115.975 15.4907 115.751 15.672C115.527 15.8533 115.239 15.944 114.887 15.944H106.935C106.583 15.944 106.295 15.8533 106.071 15.672C105.847 15.4907 105.735 15.2453 105.735 14.936V10.744ZM113.943 11.56H107.879V14.12H113.943V11.56ZM113.943 1.144C113.943 0.834666 114.055 0.594666 114.279 0.424C114.503 0.253333 114.748 0.167999 115.015 0.167999C115.281 0.167999 115.527 0.253333 115.751 0.424C115.975 0.594666 116.087 0.834666 116.087 1.144V8.008C116.087 8.31733 115.975 8.55733 115.751 8.728C115.527 8.89867 115.281 8.984 115.015 8.984C114.748 8.984 114.503 8.89867 114.279 8.728C114.055 8.55733 113.943 8.31733 113.943 8.008V1.144ZM119.158 17.736C118.859 17.672 118.635 17.5387 118.486 17.336C118.337 17.144 118.283 16.8827 118.326 16.552L118.918 13.288C118.971 13.032 119.094 12.8293 119.286 12.68C119.478 12.5307 119.707 12.456 119.974 12.456C120.315 12.456 120.609 12.5467 120.854 12.728C121.099 12.9093 121.222 13.144 121.222 13.432C121.222 13.528 121.206 13.6293 121.174 13.736L120.406 16.936C120.331 17.2133 120.203 17.4213 120.022 17.56C119.841 17.6987 119.638 17.768 119.414 17.768C119.35 17.768 119.265 17.7573 119.158 17.736ZM1.61294 28.36C1.61294 27.816 1.7516 27.3307 2.02894 26.904C2.31694 26.4667 2.70094 26.1307 3.18094 25.896C3.6716 25.6613 4.22094 25.544 4.82894 25.544C5.43694 25.544 5.98094 25.6613 6.46094 25.896C6.9516 26.1307 7.3356 26.4613 7.61294 26.888C7.90094 27.3147 8.04494 27.8053 8.04494 28.36C8.04494 28.904 7.90094 29.3947 7.61294 29.832C7.3356 30.2587 6.9516 30.5893 6.46094 30.824C5.98094 31.0587 5.43694 31.176 4.82894 31.176C4.22094 31.176 3.6716 31.0587 3.18094 30.824C2.70094 30.5893 2.31694 30.2587 2.02894 29.832C1.7516 29.3947 1.61294 28.904 1.61294 28.36ZM0.812938 24.008C0.812938 23.7307 0.898271 23.5173 1.06894 23.368C1.2396 23.208 1.4476 23.128 1.69294 23.128C1.78894 23.128 1.85827 23.1333 1.90094 23.144C2.38094 23.2187 3.0156 23.2773 3.80494 23.32V22.776C3.80494 22.4773 3.90627 22.2533 4.10894 22.104C4.3116 21.944 4.5516 21.864 4.82894 21.864C5.0956 21.864 5.33027 21.9387 5.53294 22.088C5.74627 22.2373 5.85294 22.4667 5.85294 22.776V23.304C6.35427 23.2933 6.89294 23.24 7.46894 23.144C7.5116 23.1333 7.58094 23.128 7.67694 23.128C7.92227 23.128 8.13027 23.208 8.30094 23.368C8.4716 23.5173 8.55694 23.7307 8.55694 24.008C8.55694 24.2427 8.4876 24.44 8.34894 24.6C8.21027 24.7493 8.01827 24.8507 7.77294 24.904C7.00494 25.0533 6.04494 25.128 4.89294 25.128C3.45294 25.128 2.35427 25.0533 1.59694 24.904C1.3516 24.8507 1.1596 24.7493 1.02094 24.6C0.882271 24.44 0.812938 24.2427 0.812938 24.008ZM3.62894 28.36C3.62894 28.68 3.74094 28.9413 3.96494 29.144C4.18894 29.3467 4.47694 29.448 4.82894 29.448C5.18094 29.448 5.46894 29.3467 5.69294 29.144C5.91694 28.9413 6.02894 28.68 6.02894 28.36C6.02894 28.04 5.91694 27.7787 5.69294 27.576C5.46894 27.3733 5.18094 27.272 4.82894 27.272C4.47694 27.272 4.18894 27.3733 3.96494 27.576C3.74094 27.7787 3.62894 28.04 3.62894 28.36ZM4.22094 34.936C4.22094 34.3387 4.41294 33.8 4.79694 33.32C5.1916 32.84 5.77294 32.4613 6.54094 32.184C7.30894 31.896 8.2316 31.752 9.30894 31.752C10.3863 31.752 11.3089 31.896 12.0769 32.184C12.8449 32.4613 13.4209 32.84 13.8049 33.32C14.1996 33.8 14.3969 34.3387 14.3969 34.936C14.3969 35.5333 14.1996 36.072 13.8049 36.552C13.4209 37.032 12.8449 37.4107 12.0769 37.688C11.3089 37.976 10.3863 38.12 9.30894 38.12C8.2316 38.12 7.30894 37.976 6.54094 37.688C5.77294 37.4107 5.1916 37.032 4.79694 36.552C4.41294 36.072 4.22094 35.5333 4.22094 34.936ZM6.36494 34.936C6.36494 35.3307 6.5996 35.656 7.06894 35.912C7.53827 36.168 8.28494 36.296 9.30894 36.296C10.3329 36.296 11.0796 36.168 11.5489 35.912C12.0183 35.656 12.2529 35.3307 12.2529 34.936C12.2529 34.5413 12.0183 34.216 11.5489 33.96C11.0796 33.704 10.3329 33.576 9.30894 33.576C8.28494 33.576 7.53827 33.704 7.06894 33.96C6.5996 34.216 6.36494 34.5413 6.36494 34.936ZM9.05294 23.32C9.05294 23.0107 9.16494 22.7707 9.38894 22.6C9.61294 22.4293 9.85294 22.344 10.1089 22.344C10.3756 22.344 10.6156 22.4293 10.8289 22.6C11.0529 22.76 11.1649 23 11.1649 23.32V25.992H12.5249V23.144C12.5249 22.8347 12.6369 22.5947 12.8609 22.424C13.0849 22.2533 13.3249 22.168 13.5809 22.168C13.8476 22.168 14.0876 22.2533 14.3009 22.424C14.5249 22.584 14.6369 22.824 14.6369 23.144V31.064C14.6369 31.3733 14.5303 31.592 14.3169 31.72C14.1143 31.848 13.8689 31.912 13.5809 31.912C13.3036 31.912 13.0583 31.848 12.8449 31.72C12.6316 31.592 12.5249 31.3733 12.5249 31.064V27.848H11.1649V30.296C11.1649 30.6053 11.0583 30.824 10.8449 30.952C10.6423 31.08 10.3969 31.144 10.1089 31.144C9.8316 31.144 9.58627 31.08 9.37294 30.952C9.1596 30.824 9.05294 30.6053 9.05294 30.296V23.32ZM18.9723 34.36C18.6736 34.36 18.4336 34.2747 18.2523 34.104C18.071 33.9333 17.9803 33.7147 17.9803 33.448C17.9803 33.1707 18.071 32.952 18.2523 32.792C18.4336 32.6213 18.6736 32.536 18.9723 32.536H27.5803C27.9323 32.536 28.2203 32.6267 28.4443 32.808C28.6683 32.9893 28.7803 33.2347 28.7803 33.544V37.064C28.7803 37.3733 28.6683 37.6133 28.4443 37.784C28.2203 37.9547 27.975 38.04 27.7083 38.04C27.4416 38.04 27.1963 37.9547 26.9723 37.784C26.7483 37.6133 26.6363 37.3733 26.6363 37.064V34.36H18.9723ZM16.3323 30.712C16.3323 30.4667 16.407 30.2533 16.5563 30.072C16.7056 29.8907 16.919 29.8 17.1963 29.8H22.4283V28.968C21.6603 28.936 20.9723 28.872 20.3643 28.776C19.767 28.68 19.3403 28.5733 19.0843 28.456C18.7856 28.3173 18.5776 28.1467 18.4603 27.944C18.343 27.7413 18.2843 27.4533 18.2843 27.08V23.56C18.2843 23.272 18.3856 23.048 18.5883 22.888C18.8016 22.728 19.0523 22.648 19.3403 22.648C19.6283 22.648 19.8736 22.728 20.0763 22.888C20.2896 23.048 20.3963 23.272 20.3963 23.56V24.216H26.6043V23.56C26.6043 23.272 26.7056 23.048 26.9083 22.888C27.1216 22.728 27.3723 22.648 27.6603 22.648C27.9483 22.648 28.1936 22.728 28.3963 22.888C28.6096 23.048 28.7163 23.272 28.7163 23.56V27.08C28.7163 27.4533 28.6576 27.7413 28.5403 27.944C28.4336 28.136 28.2363 28.3013 27.9483 28.44C27.6923 28.568 27.255 28.68 26.6363 28.776C26.0283 28.872 25.3403 28.936 24.5723 28.968V29.8H29.8043C30.0816 29.8 30.295 29.8907 30.4443 30.072C30.5936 30.2533 30.6683 30.4667 30.6683 30.712C30.6683 30.9573 30.5883 31.1707 30.4283 31.352C30.279 31.5333 30.071 31.624 29.8043 31.624H17.1963C16.9296 31.624 16.7163 31.5333 16.5563 31.352C16.407 31.1707 16.3323 30.9573 16.3323 30.712ZM20.3963 26.776C20.3963 26.8507 20.439 26.904 20.5243 26.936C20.727 27 21.1163 27.064 21.6923 27.128C22.2683 27.1813 22.871 27.208 23.5003 27.208C24.1296 27.208 24.7323 27.1813 25.3083 27.128C25.8843 27.064 26.2736 27 26.4763 26.936C26.5616 26.904 26.6043 26.8507 26.6043 26.776V25.944H20.3963V26.776ZM41.9957 23.144C41.9957 22.8347 42.1077 22.5947 42.3317 22.424C42.5557 22.2533 42.801 22.168 43.0677 22.168C43.3344 22.168 43.5797 22.2533 43.8037 22.424C44.0277 22.5947 44.1397 22.8347 44.1397 23.144V26.376H45.4677C45.745 26.376 45.9637 26.4613 46.1237 26.632C46.2837 26.8027 46.3637 27.0267 46.3637 27.304C46.3637 27.5813 46.2837 27.8053 46.1237 27.976C45.9637 28.1467 45.745 28.232 45.4677 28.232H44.1397V32.792C44.1397 33.1013 44.0277 33.3413 43.8037 33.512C43.5797 33.6827 43.3344 33.768 43.0677 33.768C42.801 33.768 42.5557 33.6827 42.3317 33.512C42.1077 33.3413 41.9957 33.1013 41.9957 32.792V23.144ZM31.7237 24.312C31.7237 24.0347 31.809 23.816 31.9797 23.656C32.161 23.4853 32.3744 23.4 32.6197 23.4C32.705 23.4 32.769 23.4053 32.8117 23.416C33.5797 23.5333 34.4917 23.6027 35.5477 23.624V22.92C35.5477 22.6 35.6544 22.3653 35.8677 22.216C36.081 22.056 36.3317 21.976 36.6197 21.976C36.8864 21.976 37.1317 22.056 37.3557 22.216C37.5797 22.376 37.6917 22.6107 37.6917 22.92V23.624C38.6944 23.5813 39.521 23.512 40.1717 23.416C40.2144 23.4053 40.2784 23.4 40.3637 23.4C40.609 23.4 40.817 23.4853 40.9877 23.656C41.169 23.816 41.2597 24.0347 41.2597 24.312C41.2597 24.536 41.1904 24.7227 41.0517 24.872C40.913 25.0213 40.721 25.1227 40.4757 25.176C39.6117 25.336 38.2784 25.416 36.4757 25.416C34.6944 25.416 33.3717 25.336 32.5077 25.176C32.2624 25.1227 32.0704 25.0213 31.9317 24.872C31.793 24.7227 31.7237 24.536 31.7237 24.312ZM32.9077 28.968C32.9077 28.3813 33.0624 27.8587 33.3717 27.4C33.681 26.9307 34.1184 26.5627 34.6837 26.296C35.249 26.0293 35.8944 25.896 36.6197 25.896C37.345 25.896 37.9904 26.0293 38.5557 26.296C39.121 26.5627 39.5584 26.9307 39.8677 27.4C40.177 27.8587 40.3317 28.3813 40.3317 28.968C40.3317 29.5547 40.177 30.0827 39.8677 30.552C39.5584 31.0107 39.121 31.3733 38.5557 31.64C37.9904 31.9067 37.345 32.04 36.6197 32.04C35.8944 32.04 35.249 31.9067 34.6837 31.64C34.1184 31.3733 33.681 31.0107 33.3717 30.552C33.0624 30.0827 32.9077 29.5547 32.9077 28.968ZM34.0437 33.72C34.0437 33.4107 34.1557 33.1707 34.3797 33C34.6037 32.8293 34.849 32.744 35.1157 32.744C35.3824 32.744 35.6277 32.8293 35.8517 33C36.0757 33.1707 36.1877 33.4107 36.1877 33.72V35.672C36.1877 35.7467 36.209 35.8053 36.2517 35.848C36.2944 35.8907 36.353 35.912 36.4277 35.912H43.6757C43.953 35.912 44.1717 35.9973 44.3317 36.168C44.4917 36.3387 44.5717 36.5627 44.5717 36.84C44.5717 37.1173 44.4917 37.3413 44.3317 37.512C44.1717 37.6827 43.953 37.768 43.6757 37.768H35.4197C35.025 37.768 34.6944 37.6453 34.4277 37.4C34.1717 37.1547 34.0437 36.8453 34.0437 36.472V33.72ZM34.9877 28.968C34.9877 29.3627 35.1317 29.688 35.4197 29.944C35.7184 30.1893 36.1184 30.312 36.6197 30.312C37.121 30.312 37.5157 30.1893 37.8037 29.944C38.1024 29.688 38.2517 29.3627 38.2517 28.968C38.2517 28.5733 38.1024 28.2533 37.8037 28.008C37.5157 27.752 37.121 27.624 36.6197 27.624C36.1184 27.624 35.7184 27.752 35.4197 28.008C35.1317 28.2533 34.9877 28.5733 34.9877 28.968ZM61.8879 23.144C61.8879 22.8347 61.9999 22.5947 62.2239 22.424C62.4479 22.2533 62.6933 22.168 62.9599 22.168C63.2266 22.168 63.4719 22.2533 63.6959 22.424C63.9199 22.5947 64.0319 22.8347 64.0319 23.144V37.112C64.0319 37.4213 63.9199 37.6613 63.6959 37.832C63.4719 38.0027 63.2266 38.088 62.9599 38.088C62.6933 38.088 62.4479 38.0027 62.2239 37.832C61.9999 37.6613 61.8879 37.4213 61.8879 37.112V31.016H59.2959C58.9759 31.9547 58.4799 32.68 57.8079 33.192C57.1466 33.6933 56.3893 33.944 55.5359 33.944C54.7466 33.944 54.0373 33.7307 53.4079 33.304C52.7786 32.8667 52.2826 32.2373 51.9199 31.416C51.5573 30.584 51.3759 29.608 51.3759 28.488C51.3759 27.368 51.5573 26.3973 51.9199 25.576C52.2826 24.7547 52.7786 24.1307 53.4079 23.704C54.0373 23.2773 54.7466 23.064 55.5359 23.064C56.3039 23.064 56.9919 23.2667 57.5999 23.672C58.2186 24.0773 58.7093 24.6587 59.0719 25.416H61.8879V23.144ZM53.5199 28.488C53.5199 29.2773 53.6106 29.944 53.7919 30.488C53.9733 31.032 54.2133 31.4427 54.5119 31.72C54.8213 31.9867 55.1626 32.12 55.5359 32.12C55.9093 32.12 56.2453 31.9867 56.5439 31.72C56.8533 31.4427 57.0986 31.032 57.2799 30.488C57.4613 29.944 57.5519 29.2773 57.5519 28.488C57.5519 27.7093 57.4613 27.048 57.2799 26.504C57.0986 25.96 56.8533 25.5547 56.5439 25.288C56.2453 25.0107 55.9093 24.872 55.5359 24.872C55.1626 24.872 54.8213 25.0107 54.5119 25.288C54.2133 25.5547 53.9733 25.96 53.7919 26.504C53.6106 27.048 53.5199 27.7093 53.5199 28.488ZM59.6159 27.24C59.6693 27.6667 59.6959 28.0827 59.6959 28.488C59.6959 28.6587 59.6853 28.8933 59.6639 29.192H61.8879V27.24H59.6159ZM66.8473 28.36C66.8473 27.816 66.986 27.3307 67.2633 26.904C67.5513 26.4667 67.9353 26.1307 68.4153 25.896C68.906 25.6613 69.4553 25.544 70.0633 25.544C70.6713 25.544 71.2153 25.6613 71.6953 25.896C72.186 26.1307 72.57 26.4613 72.8473 26.888C73.1353 27.3147 73.2793 27.8053 73.2793 28.36C73.2793 28.904 73.1353 29.3947 72.8473 29.832C72.57 30.2587 72.186 30.5893 71.6953 30.824C71.2153 31.0587 70.6713 31.176 70.0633 31.176C69.4553 31.176 68.906 31.0587 68.4153 30.824C67.9353 30.5893 67.5513 30.2587 67.2633 29.832C66.986 29.3947 66.8473 28.904 66.8473 28.36ZM66.0473 24.008C66.0473 23.7307 66.1326 23.5173 66.3033 23.368C66.474 23.208 66.682 23.128 66.9273 23.128C67.0233 23.128 67.0926 23.1333 67.1353 23.144C67.6153 23.2187 68.25 23.2773 69.0393 23.32V22.776C69.0393 22.4773 69.1406 22.2533 69.3433 22.104C69.546 21.944 69.786 21.864 70.0633 21.864C70.33 21.864 70.5646 21.9387 70.7673 22.088C70.9806 22.2373 71.0873 22.4667 71.0873 22.776V23.304C71.5886 23.2933 72.1273 23.24 72.7033 23.144C72.746 23.1333 72.8153 23.128 72.9113 23.128C73.1566 23.128 73.3646 23.208 73.5353 23.368C73.706 23.5173 73.7913 23.7307 73.7913 24.008C73.7913 24.2427 73.722 24.44 73.5833 24.6C73.4446 24.7493 73.2526 24.8507 73.0073 24.904C72.2393 25.0533 71.2793 25.128 70.1273 25.128C68.6873 25.128 67.5886 25.0533 66.8313 24.904C66.586 24.8507 66.394 24.7493 66.2553 24.6C66.1166 24.44 66.0473 24.2427 66.0473 24.008ZM68.8633 28.36C68.8633 28.68 68.9753 28.9413 69.1993 29.144C69.4233 29.3467 69.7113 29.448 70.0633 29.448C70.4153 29.448 70.7033 29.3467 70.9273 29.144C71.1513 28.9413 71.2633 28.68 71.2633 28.36C71.2633 28.04 71.1513 27.7787 70.9273 27.576C70.7033 27.3733 70.4153 27.272 70.0633 27.272C69.7113 27.272 69.4233 27.3733 69.1993 27.576C68.9753 27.7787 68.8633 28.04 68.8633 28.36ZM69.4553 34.936C69.4553 34.3387 69.6473 33.8 70.0313 33.32C70.426 32.84 71.0073 32.4613 71.7753 32.184C72.5433 31.896 73.466 31.752 74.5433 31.752C75.6206 31.752 76.5433 31.896 77.3113 32.184C78.0793 32.4613 78.6553 32.84 79.0393 33.32C79.434 33.8 79.6313 34.3387 79.6313 34.936C79.6313 35.5333 79.434 36.072 79.0393 36.552C78.6553 37.032 78.0793 37.4107 77.3113 37.688C76.5433 37.976 75.6206 38.12 74.5433 38.12C73.466 38.12 72.5433 37.976 71.7753 37.688C71.0073 37.4107 70.426 37.032 70.0313 36.552C69.6473 36.072 69.4553 35.5333 69.4553 34.936ZM71.5993 34.936C71.5993 35.3307 71.834 35.656 72.3033 35.912C72.7726 36.168 73.5193 36.296 74.5433 36.296C75.5673 36.296 76.314 36.168 76.7833 35.912C77.2526 35.656 77.4873 35.3307 77.4873 34.936C77.4873 34.5413 77.2526 34.216 76.7833 33.96C76.314 33.704 75.5673 33.576 74.5433 33.576C73.5193 33.576 72.7726 33.704 72.3033 33.96C71.834 34.216 71.5993 34.5413 71.5993 34.936ZM74.2873 23.32C74.2873 23.0107 74.3993 22.7707 74.6233 22.6C74.8473 22.4293 75.0873 22.344 75.3433 22.344C75.61 22.344 75.85 22.4293 76.0633 22.6C76.2873 22.76 76.3993 23 76.3993 23.32V25.992H77.7593V23.144C77.7593 22.8347 77.8713 22.5947 78.0953 22.424C78.3193 22.2533 78.5593 22.168 78.8153 22.168C79.082 22.168 79.322 22.2533 79.5353 22.424C79.7593 22.584 79.8713 22.824 79.8713 23.144V31.064C79.8713 31.3733 79.7646 31.592 79.5513 31.72C79.3486 31.848 79.1033 31.912 78.8153 31.912C78.538 31.912 78.2926 31.848 78.0793 31.72C77.866 31.592 77.7593 31.3733 77.7593 31.064V27.848H76.3993V30.296C76.3993 30.6053 76.2926 30.824 76.0793 30.952C75.8766 31.08 75.6313 31.144 75.3433 31.144C75.066 31.144 74.8206 31.08 74.6073 30.952C74.394 30.824 74.2873 30.6053 74.2873 30.296V23.32ZM96.4036 23.144C96.4036 22.8347 96.5156 22.5947 96.7396 22.424C96.9636 22.2533 97.2089 22.168 97.4756 22.168C97.7422 22.168 97.9876 22.2533 98.2116 22.424C98.4356 22.5947 98.5476 22.8347 98.5476 23.144V37.112C98.5476 37.4213 98.4356 37.6613 98.2116 37.832C97.9876 38.0027 97.7422 38.088 97.4756 38.088C97.2089 38.088 96.9636 38.0027 96.7396 37.832C96.5156 37.6613 96.4036 37.4213 96.4036 37.112V23.144ZM85.3636 34.296C85.3636 34.0187 85.4542 33.8 85.6356 33.64C85.8169 33.4693 86.0409 33.384 86.3076 33.384C86.3929 33.384 86.5369 33.4053 86.7396 33.448C87.3262 33.576 88.1742 33.6667 89.2836 33.72V30.984C88.5156 30.9307 87.8756 30.8187 87.3636 30.648C86.9476 30.5307 86.6542 30.344 86.4836 30.088C86.3129 29.832 86.2276 29.5067 86.2276 29.112V24.264C86.2276 23.9547 86.3396 23.7093 86.5636 23.528C86.7876 23.3467 87.0756 23.256 87.4276 23.256H93.3316C93.6196 23.256 93.8382 23.3413 93.9876 23.512C94.1476 23.672 94.2276 23.8907 94.2276 24.168C94.2276 24.4453 94.1476 24.6693 93.9876 24.84C93.8382 25 93.6196 25.08 93.3316 25.08H88.3396V28.856C88.3396 28.9413 88.3822 28.9947 88.4676 29.016C88.6809 29.08 88.9689 29.128 89.3316 29.16C89.7049 29.192 90.0569 29.208 90.3876 29.208C90.7716 29.208 91.2249 29.1707 91.7476 29.096C92.2809 29.0213 92.8089 28.9093 93.3316 28.76C93.4916 28.728 93.5982 28.712 93.6516 28.712C93.9076 28.712 94.1316 28.792 94.3236 28.952C94.5156 29.112 94.6116 29.3253 94.6116 29.592C94.6116 29.8053 94.5369 29.9973 94.3876 30.168C94.2489 30.328 94.0676 30.44 93.8436 30.504C93.1076 30.7387 92.3022 30.8933 91.4276 30.968V33.704C92.4942 33.6293 93.4222 33.464 94.2116 33.208C94.4676 33.1227 94.6702 33.08 94.8196 33.08C95.0862 33.08 95.3049 33.16 95.4756 33.32C95.6462 33.48 95.7316 33.6933 95.7316 33.96C95.7316 34.1627 95.6569 34.344 95.5076 34.504C95.3582 34.664 95.1502 34.792 94.8836 34.888C94.3182 35.1013 93.6302 35.2667 92.8196 35.384C92.0089 35.5013 91.1822 35.56 90.3396 35.56C88.5156 35.56 87.1022 35.4267 86.0996 35.16C85.8862 35.1067 85.7102 35.0053 85.5716 34.856C85.4329 34.696 85.3636 34.5093 85.3636 34.296ZM101.891 33.576C101.624 33.576 101.395 33.4853 101.203 33.304C101.011 33.112 100.915 32.8827 100.915 32.616C100.915 32.36 101.038 32.0987 101.283 31.832C101.784 31.288 102.184 30.7227 102.483 30.136C102.782 29.5493 103.022 28.8933 103.203 28.168C103.331 27.688 103.416 27.2187 103.459 26.76C103.512 26.2907 103.539 25.7733 103.539 25.208V23.992C103.539 23.6827 103.646 23.4427 103.859 23.272C104.083 23.1013 104.328 23.016 104.595 23.016C104.872 23.016 105.118 23.1013 105.331 23.272C105.544 23.432 105.651 23.672 105.651 23.992V25.208C105.651 26.3707 105.752 27.352 105.955 28.152C106.147 28.92 106.387 29.5867 106.675 30.152C106.974 30.7067 107.358 31.2613 107.827 31.816C107.955 31.9653 108.056 32.1093 108.131 32.248C108.206 32.376 108.243 32.5253 108.243 32.696C108.243 32.9307 108.152 33.1387 107.971 33.32C107.79 33.4907 107.566 33.576 107.299 33.576C107.064 33.576 106.856 33.5173 106.675 33.4C106.494 33.2827 106.312 33.112 106.131 32.888C105.758 32.408 105.416 31.864 105.107 31.256C104.808 30.6373 104.632 30.0933 104.579 29.624C104.515 30.0933 104.334 30.632 104.035 31.24C103.736 31.8373 103.4 32.3813 103.027 32.872C102.824 33.128 102.648 33.3093 102.499 33.416C102.35 33.5227 102.147 33.576 101.891 33.576ZM107.011 27.736C107.011 27.4587 107.091 27.2347 107.251 27.064C107.411 26.8933 107.63 26.808 107.907 26.808H108.963V23.32C108.963 23.0107 109.075 22.7707 109.299 22.6C109.523 22.4293 109.763 22.344 110.019 22.344C110.286 22.344 110.526 22.4293 110.739 22.6C110.963 22.76 111.075 23 111.075 23.32V36.792C111.075 37.112 110.963 37.352 110.739 37.512C110.526 37.6827 110.286 37.768 110.019 37.768C109.763 37.768 109.523 37.6827 109.299 37.512C109.075 37.3413 108.963 37.1013 108.963 36.792V28.664H107.907C107.63 28.664 107.411 28.5787 107.251 28.408C107.091 28.2373 107.011 28.0133 107.011 27.736ZM112.275 23.144C112.275 22.8347 112.387 22.5947 112.611 22.424C112.835 22.2533 113.075 22.168 113.331 22.168C113.598 22.168 113.838 22.2533 114.051 22.424C114.275 22.584 114.387 22.824 114.387 23.144V37.08C114.387 37.4 114.275 37.64 114.051 37.8C113.838 37.9707 113.598 38.056 113.331 38.056C113.075 38.056 112.835 37.9707 112.611 37.8C112.387 37.6293 112.275 37.3893 112.275 37.08V23.144ZM123.25 31.64C122.728 31.64 122.232 31.592 121.762 31.496V34.376C122.424 34.3973 122.92 34.408 123.25 34.408C123.592 34.408 124.093 34.3973 124.754 34.376V31.496C124.296 31.592 123.794 31.64 123.25 31.64ZM116.082 34.584C116.082 34.3387 116.168 34.1253 116.338 33.944C116.509 33.752 116.728 33.656 116.994 33.656C117.09 33.656 117.186 33.672 117.282 33.704C118.072 33.9067 118.85 34.0613 119.618 34.168V30.568C119.085 30.184 118.674 29.7147 118.386 29.16C118.098 28.5947 117.954 27.976 117.954 27.304C117.954 26.4613 118.178 25.7147 118.626 25.064C119.074 24.4027 119.698 23.8907 120.498 23.528C121.298 23.1547 122.216 22.968 123.25 22.968C124.285 22.968 125.202 23.1547 126.002 23.528C126.802 23.8907 127.426 24.4027 127.874 25.064C128.322 25.7147 128.546 26.4613 128.546 27.304C128.546 27.9653 128.402 28.5787 128.114 29.144C127.826 29.7093 127.421 30.184 126.898 30.568V34.168C127.645 34.0613 128.418 33.9067 129.218 33.704C129.282 33.6827 129.378 33.672 129.506 33.672C129.773 33.672 129.992 33.7627 130.162 33.944C130.333 34.1253 130.418 34.3387 130.418 34.584C130.418 34.7867 130.354 34.9733 130.226 35.144C130.098 35.3147 129.906 35.432 129.65 35.496C127.805 36.008 125.672 36.264 123.25 36.264C120.829 36.264 118.696 36.008 116.85 35.496C116.594 35.432 116.402 35.3147 116.274 35.144C116.146 34.9733 116.082 34.7867 116.082 34.584ZM120.066 27.304C120.066 28.0507 120.349 28.6587 120.914 29.128C121.49 29.5867 122.269 29.816 123.25 29.816C124.232 29.816 125.005 29.5867 125.57 29.128C126.146 28.6587 126.434 28.0507 126.434 27.304C126.434 26.5573 126.146 25.9547 125.57 25.496C125.005 25.0267 124.232 24.792 123.25 24.792C122.269 24.792 121.49 25.0267 120.914 25.496C120.349 25.9547 120.066 26.5573 120.066 27.304ZM133.234 33.112C132.924 33.112 132.668 33.032 132.466 32.872C132.274 32.7013 132.172 32.4453 132.162 32.104L132.066 24.44C132.055 24.12 132.167 23.8693 132.402 23.688C132.636 23.496 132.914 23.4 133.234 23.4C133.554 23.4 133.826 23.4907 134.05 23.672C134.284 23.8533 134.396 24.1093 134.386 24.44L134.29 32.104C134.279 32.4347 134.178 32.6853 133.986 32.856C133.794 33.0267 133.543 33.112 133.234 33.112ZM131.938 35.64C131.938 35.2773 132.06 34.9787 132.306 34.744C132.551 34.4987 132.86 34.376 133.234 34.376C133.607 34.376 133.916 34.4987 134.162 34.744C134.407 34.9787 134.53 35.2773 134.53 35.64C134.53 36.0133 134.407 36.3173 134.162 36.552C133.916 36.7973 133.607 36.92 133.234 36.92C132.86 36.92 132.551 36.7973 132.306 36.552C132.06 36.3173 131.938 36.0133 131.938 35.64Z" fill="#F2F2F2"/>
</svg>
