<svg width="102" height="9" viewBox="0 0 102 9" fill="none" xmlns="http://www.w3.org/2000/svg">
<path d="M5.17541 1.072C5.17541 0.981333 5.20207 0.912 5.25541 0.864C5.31407 0.810667 5.38341 0.784 5.46341 0.784C5.54341 0.784 5.61007 0.810667 5.66341 0.864C5.72207 0.912 5.75141 0.981333 5.75141 1.072V8.056C5.75141 8.14667 5.72207 8.216 5.66341 8.264C5.61007 8.31733 5.54341 8.344 5.46341 8.344C5.38341 8.344 5.31407 8.31733 5.25541 8.264C5.20207 8.216 5.17541 8.14667 5.17541 8.056V1.072ZM0.0714063 1.536C0.0714063 1.45067 0.098073 1.38133 0.151406 1.328C0.20474 1.27467 0.271406 1.248 0.351406 1.248C0.431406 1.248 0.498073 1.27467 0.551406 1.328C0.60474 1.38133 0.631406 1.45067 0.631406 1.536V3.056H2.98341V1.536C2.98341 1.45067 3.00741 1.38133 3.05541 1.328C3.10874 1.27467 3.17807 1.248 3.26341 1.248C3.34341 1.248 3.41007 1.27467 3.46341 1.328C3.51674 1.38133 3.54341 1.45067 3.54341 1.536V5.424C3.54341 5.57333 3.52474 5.68 3.48741 5.744C3.45541 5.808 3.39141 5.86667 3.29541 5.92C3.15141 6 2.94874 6.064 2.68741 6.112C2.42607 6.16 2.13274 6.184 1.80741 6.184C1.48207 6.184 1.18874 6.16 0.927406 6.112C0.666073 6.064 0.463406 6 0.319406 5.92C0.223406 5.86667 0.15674 5.808 0.119406 5.744C0.0874063 5.68 0.0714063 5.57333 0.0714063 5.424V1.536ZM0.631406 5.336C0.631406 5.4 0.642073 5.448 0.663406 5.48C0.68474 5.50667 0.727406 5.53067 0.791406 5.552C0.89274 5.58933 1.03674 5.61867 1.22341 5.64C1.41541 5.66133 1.61007 5.672 1.80741 5.672C2.00474 5.672 2.19674 5.66133 2.38341 5.64C2.57541 5.61867 2.72207 5.58933 2.82341 5.552C2.88741 5.53067 2.93007 5.50667 2.95141 5.48C2.97274 5.448 2.98341 5.4 2.98341 5.336V3.568H0.631406V5.336ZM12.777 1.072C12.777 0.981333 12.8036 0.912 12.857 0.864C12.9156 0.816 12.985 0.792 13.065 0.792C13.145 0.792 13.2116 0.816 13.265 0.864C13.3236 0.912 13.353 0.981333 13.353 1.072V4.136C13.353 4.22667 13.3236 4.296 13.265 4.344C13.2116 4.392 13.145 4.416 13.065 4.416C12.985 4.416 12.9156 4.392 12.857 4.344C12.8036 4.296 12.777 4.22667 12.777 4.136V1.072ZM7.67297 1.424C7.67297 1.22667 7.7903 1.128 8.02497 1.128H10.825C11.0596 1.128 11.177 1.22667 11.177 1.424V3.448C11.177 3.59733 11.1583 3.704 11.121 3.768C11.089 3.832 11.025 3.89067 10.929 3.944C10.785 4.024 10.5796 4.088 10.313 4.136C10.0463 4.184 9.7503 4.208 9.42497 4.208C9.09964 4.208 8.80364 4.184 8.53697 4.136C8.2703 4.088 8.06497 4.024 7.92097 3.944C7.82497 3.89067 7.7583 3.832 7.72097 3.768C7.68897 3.704 7.67297 3.59733 7.67297 3.448V1.424ZM8.23297 3.376C8.23297 3.44 8.24364 3.488 8.26497 3.52C8.2863 3.54667 8.32897 3.57067 8.39297 3.592C8.4943 3.62933 8.64097 3.65867 8.83297 3.68C9.0303 3.70133 9.22764 3.712 9.42497 3.712C9.6223 3.712 9.81964 3.70133 10.017 3.68C10.2143 3.65867 10.361 3.62933 10.457 3.592C10.521 3.57067 10.5636 3.54667 10.585 3.52C10.6063 3.488 10.617 3.44 10.617 3.376V1.624H8.23297V3.376ZM8.59297 5.256C8.59297 5.18667 8.61697 5.128 8.66497 5.08C8.71297 5.032 8.7823 5.008 8.87297 5.008H13.009C13.2436 5.008 13.361 5.10667 13.361 5.304V6.584C13.361 6.76533 13.2596 6.856 13.057 6.856H9.24897V7.808H13.273C13.3636 7.808 13.433 7.832 13.481 7.88C13.529 7.928 13.553 7.98667 13.553 8.056C13.553 8.13067 13.529 8.18933 13.481 8.232C13.433 8.28 13.3636 8.304 13.273 8.304H9.02497C8.7903 8.304 8.67297 8.20533 8.67297 8.008V6.688C8.67297 6.49067 8.7903 6.392 9.02497 6.392H12.785V5.504H8.87297C8.7823 5.504 8.71297 5.48 8.66497 5.432C8.61697 5.384 8.59297 5.32533 8.59297 5.256ZM20.3785 1.072C20.3785 0.981333 20.4052 0.912 20.4585 0.864C20.5172 0.816 20.5865 0.792 20.6665 0.792C20.7465 0.792 20.8132 0.816 20.8665 0.864C20.9252 0.912 20.9545 0.981333 20.9545 1.072V5.656C20.9545 5.74667 20.9252 5.816 20.8665 5.864C20.8132 5.912 20.7465 5.936 20.6665 5.936C20.5865 5.936 20.5172 5.912 20.4585 5.864C20.4052 5.816 20.3785 5.74667 20.3785 5.656V3.04H18.6985V3.92C18.6985 4.06933 18.6799 4.176 18.6425 4.24C18.6105 4.304 18.5465 4.36267 18.4505 4.416C18.3012 4.496 18.0985 4.56 17.8425 4.608C17.5919 4.656 17.3065 4.68 16.9865 4.68C16.6665 4.68 16.3785 4.656 16.1225 4.608C15.8719 4.56 15.6719 4.496 15.5225 4.416C15.4265 4.36267 15.3599 4.304 15.3225 4.24C15.2905 4.176 15.2745 4.06933 15.2745 3.92V1.392C15.2745 1.30667 15.3012 1.23733 15.3545 1.184C15.4079 1.13067 15.4745 1.104 15.5545 1.104C15.6345 1.104 15.7012 1.13067 15.7545 1.184C15.8079 1.23733 15.8345 1.30667 15.8345 1.392V2.32H18.1385V1.392C18.1385 1.30667 18.1625 1.23733 18.2105 1.184C18.2639 1.13067 18.3332 1.104 18.4185 1.104C18.4985 1.104 18.5652 1.13067 18.6185 1.184C18.6719 1.23733 18.6985 1.30667 18.6985 1.392V2.528H20.3785V1.072ZM15.8345 3.848C15.8345 3.912 15.8452 3.96 15.8665 3.992C15.8879 4.01867 15.9305 4.04267 15.9945 4.064C16.1012 4.10133 16.2425 4.13067 16.4185 4.152C16.5999 4.17333 16.7892 4.184 16.9865 4.184C17.1839 4.184 17.3732 4.17333 17.5545 4.152C17.7359 4.13067 17.8772 4.10133 17.9785 4.064C18.0425 4.04267 18.0852 4.01867 18.1065 3.992C18.1279 3.96 18.1385 3.912 18.1385 3.848V2.816H15.8345V3.848ZM16.2745 5.848C16.2745 5.75733 16.3012 5.688 16.3545 5.64C16.4132 5.592 16.4825 5.568 16.5625 5.568C16.6425 5.568 16.7092 5.592 16.7625 5.64C16.8212 5.688 16.8505 5.75733 16.8505 5.848V7.536C16.8505 7.57333 16.8612 7.60267 16.8825 7.624C16.9092 7.65067 16.9412 7.664 16.9785 7.664H20.8585C20.9492 7.664 21.0185 7.688 21.0665 7.736C21.1145 7.784 21.1385 7.84533 21.1385 7.92C21.1385 7.99467 21.1145 8.056 21.0665 8.104C21.0185 8.152 20.9492 8.176 20.8585 8.176H16.7145C16.5865 8.176 16.4799 8.13333 16.3945 8.048C16.3145 7.968 16.2745 7.864 16.2745 7.736V5.848ZM27.9241 4.32C27.9241 4.74133 27.7641 5.08267 27.4441 5.344C27.1241 5.60533 26.6814 5.75733 26.1161 5.8L26.0841 5.832V7C26.9961 6.97867 27.9134 6.85333 28.8361 6.624C28.8521 6.61867 28.8788 6.616 28.9161 6.616C28.9961 6.616 29.0601 6.64267 29.1081 6.696C29.1561 6.74933 29.1801 6.81067 29.1801 6.88C29.1801 6.93333 29.1614 6.98133 29.1241 7.024C29.0921 7.072 29.0468 7.104 28.9881 7.12C28.0334 7.38667 26.9694 7.52 25.7961 7.52C24.6228 7.52 23.5588 7.38667 22.6041 7.12C22.5401 7.104 22.4921 7.07467 22.4601 7.032C22.4281 6.98933 22.4121 6.93867 22.4121 6.88C22.4121 6.80533 22.4361 6.744 22.4841 6.696C22.5321 6.64267 22.5961 6.616 22.6761 6.616C22.7134 6.616 22.7401 6.61867 22.7561 6.624C23.6788 6.85333 24.5961 6.97867 25.5081 7V5.832L25.4761 5.8C24.9108 5.75733 24.4681 5.60533 24.1481 5.344C23.8281 5.08267 23.6681 4.74133 23.6681 4.32C23.6681 3.856 23.8574 3.49333 24.2361 3.232C24.6148 2.96533 25.1348 2.832 25.7961 2.832C26.4574 2.832 26.9774 2.96533 27.3561 3.232C27.7348 3.49333 27.9241 3.856 27.9241 4.32ZM22.9961 1.904C22.9961 1.824 23.0254 1.75733 23.0841 1.704C23.1428 1.65067 23.2228 1.63467 23.3241 1.656C23.9214 1.75733 24.6494 1.81867 25.5081 1.84V1.184C25.5081 1.09867 25.5348 1.02933 25.5881 0.976C25.6414 0.922667 25.7108 0.896 25.7961 0.896C25.8814 0.896 25.9508 0.922667 26.0041 0.976C26.0574 1.02933 26.0841 1.09867 26.0841 1.184V1.84C26.9428 1.81867 27.6708 1.75733 28.2681 1.656C28.2841 1.65067 28.3054 1.648 28.3321 1.648C28.4121 1.648 28.4761 1.67467 28.5241 1.728C28.5721 1.776 28.5961 1.83467 28.5961 1.904C28.5961 2.032 28.5188 2.112 28.3641 2.144C27.7188 2.272 26.8628 2.336 25.7961 2.336C24.7294 2.336 23.8734 2.272 23.2281 2.144C23.0734 2.112 22.9961 2.032 22.9961 1.904ZM24.2441 4.32C24.2441 4.64 24.3828 4.888 24.6601 5.064C24.9374 5.24 25.3161 5.328 25.7961 5.328C26.2761 5.328 26.6548 5.24 26.9321 5.064C27.2094 4.888 27.3481 4.64 27.3481 4.32C27.3481 3.99467 27.2094 3.744 26.9321 3.568C26.6548 3.38667 26.2761 3.296 25.7961 3.296C25.3161 3.296 24.9374 3.38667 24.6601 3.568C24.3828 3.744 24.2441 3.99467 24.2441 4.32ZM33.4937 1.416C33.579 1.416 33.6457 1.44 33.6937 1.488C33.7417 1.536 33.7657 1.6 33.7657 1.68C33.7657 2.048 33.7097 2.456 33.5977 2.904C33.2457 4.30133 32.3017 5.39733 30.7657 6.192C30.7123 6.224 30.6617 6.24 30.6137 6.24C30.5337 6.24 30.467 6.21067 30.4137 6.152C30.3603 6.088 30.3337 6.016 30.3337 5.936C30.3337 5.84 30.3763 5.768 30.4617 5.72C31.171 5.35733 31.7443 4.92 32.1817 4.408C32.619 3.89067 32.9123 3.336 33.0617 2.744C33.1257 2.46133 33.163 2.18933 33.1737 1.928H30.5657C30.4803 1.928 30.4137 1.904 30.3657 1.856C30.3177 1.808 30.2937 1.74667 30.2937 1.672C30.2937 1.59733 30.3177 1.536 30.3657 1.488C30.4137 1.44 30.4803 1.416 30.5657 1.416H33.4937ZM35.2137 1.072C35.2137 0.981333 35.2403 0.912 35.2937 0.864C35.3523 0.816 35.4217 0.792 35.5017 0.792C35.5817 0.792 35.6483 0.816 35.7017 0.864C35.7603 0.912 35.7897 0.981333 35.7897 1.072V3.336H36.7017C36.7923 3.336 36.8617 3.36 36.9097 3.408C36.9577 3.456 36.9817 3.51733 36.9817 3.592C36.9817 3.66667 36.9577 3.728 36.9097 3.776C36.8617 3.824 36.7923 3.848 36.7017 3.848H35.7897V8.056C35.7897 8.14667 35.7603 8.216 35.7017 8.264C35.6483 8.312 35.5817 8.336 35.5017 8.336C35.4217 8.336 35.3523 8.312 35.2937 8.264C35.2403 8.216 35.2137 8.14667 35.2137 8.056V1.072ZM45.0817 1.072C45.0817 0.981333 45.1083 0.912 45.1617 0.864C45.2203 0.816 45.2897 0.792 45.3697 0.792C45.4497 0.792 45.5163 0.816 45.5697 0.864C45.6283 0.912 45.6577 0.981333 45.6577 1.072V4.136C45.6577 4.22667 45.6283 4.296 45.5697 4.344C45.5163 4.392 45.4497 4.416 45.3697 4.416C45.2897 4.416 45.2203 4.392 45.1617 4.344C45.1083 4.296 45.0817 4.22667 45.0817 4.136V1.072ZM39.8657 2.616C39.8657 2.28533 39.9483 1.99733 40.1137 1.752C40.279 1.50667 40.5057 1.32 40.7937 1.192C41.087 1.064 41.4203 1 41.7937 1C42.167 1 42.4977 1.064 42.7857 1.192C43.079 1.32 43.3083 1.50667 43.4737 1.752C43.639 1.99733 43.7217 2.28533 43.7217 2.616C43.7217 2.94667 43.639 3.23733 43.4737 3.488C43.3083 3.73333 43.079 3.92267 42.7857 4.056C42.4977 4.184 42.167 4.248 41.7937 4.248C41.4203 4.248 41.087 4.184 40.7937 4.056C40.5057 3.92267 40.279 3.73333 40.1137 3.488C39.9483 3.23733 39.8657 2.94667 39.8657 2.616ZM40.4257 2.616C40.4257 2.96267 40.551 3.24267 40.8017 3.456C41.0577 3.664 41.3883 3.768 41.7937 3.768C42.199 3.768 42.527 3.664 42.7777 3.456C43.0337 3.24267 43.1617 2.96267 43.1617 2.616C43.1617 2.26933 43.0337 1.992 42.7777 1.784C42.527 1.576 42.199 1.472 41.7937 1.472C41.3883 1.472 41.0577 1.576 40.8017 1.784C40.551 1.992 40.4257 2.26933 40.4257 2.616ZM40.8977 5.256C40.8977 5.18667 40.9217 5.128 40.9697 5.08C41.0177 5.032 41.087 5.008 41.1777 5.008H45.3137C45.5483 5.008 45.6657 5.10667 45.6657 5.304V6.584C45.6657 6.76533 45.5643 6.856 45.3617 6.856H41.5537V7.808H45.5777C45.6683 7.808 45.7377 7.832 45.7857 7.88C45.8337 7.928 45.8577 7.98667 45.8577 8.056C45.8577 8.13067 45.8337 8.18933 45.7857 8.232C45.7377 8.28 45.6683 8.304 45.5777 8.304H41.3297C41.095 8.304 40.9777 8.20533 40.9777 8.008V6.688C40.9777 6.49067 41.095 6.392 41.3297 6.392H45.0897V5.504H41.1777C41.087 5.504 41.0177 5.48 40.9697 5.432C40.9217 5.384 40.8977 5.32533 40.8977 5.256ZM52.6832 1.072C52.6832 0.981333 52.7099 0.912 52.7632 0.864C52.8219 0.816 52.8912 0.792 52.9712 0.792C53.0512 0.792 53.1179 0.816 53.1712 0.864C53.2299 0.912 53.2592 0.981333 53.2592 1.072V8.056C53.2592 8.14667 53.2299 8.216 53.1712 8.264C53.1179 8.312 53.0512 8.336 52.9712 8.336C52.8912 8.336 52.8219 8.312 52.7632 8.264C52.7099 8.216 52.6832 8.14667 52.6832 8.056V1.072ZM47.3792 6.024C47.3792 5.93333 47.4192 5.856 47.4992 5.792C47.8459 5.504 48.1606 5.176 48.4432 4.808C48.7259 4.44 48.9232 4.06933 49.0352 3.696C49.0886 3.51467 49.1232 3.33333 49.1392 3.152C49.1606 2.96533 49.1739 2.728 49.1792 2.44C48.6086 2.424 48.0859 2.38133 47.6112 2.312C47.4566 2.28 47.3792 2.2 47.3792 2.072C47.3792 1.98667 47.4059 1.92267 47.4592 1.88C47.5126 1.832 47.5846 1.81333 47.6752 1.824C48.1179 1.88267 48.6192 1.92267 49.1792 1.944V1.096C49.1792 1.01067 49.2032 0.941333 49.2512 0.888C49.3046 0.834666 49.3739 0.808 49.4592 0.808C49.5392 0.808 49.6059 0.834666 49.6592 0.888C49.7126 0.941333 49.7392 1.01067 49.7392 1.096V1.936C50.2672 1.92533 50.7659 1.888 51.2352 1.824C51.3259 1.81333 51.3979 1.832 51.4512 1.88C51.5046 1.92267 51.5312 1.98667 51.5312 2.072C51.5312 2.2 51.4539 2.28 51.2992 2.312C50.8139 2.38133 50.2939 2.42133 49.7392 2.432C49.7446 2.70933 49.7552 2.944 49.7712 3.136C49.7926 3.328 49.8246 3.50933 49.8672 3.68C49.9739 4.08533 50.1712 4.45867 50.4592 4.8C50.7472 5.14133 51.0726 5.44533 51.4352 5.712C51.5152 5.78133 51.5552 5.856 51.5552 5.936C51.5552 6.01067 51.5259 6.07733 51.4672 6.136C51.4139 6.18933 51.3499 6.216 51.2752 6.216C51.2379 6.216 51.1766 6.19467 51.0912 6.152C50.7446 5.90667 50.4219 5.60267 50.1232 5.24C49.8299 4.872 49.6086 4.46933 49.4592 4.032C49.3046 4.45867 49.0832 4.86133 48.7952 5.24C48.5072 5.61867 48.2032 5.94133 47.8832 6.208C47.8139 6.272 47.7392 6.304 47.6592 6.304C47.5792 6.304 47.5126 6.27733 47.4592 6.224C47.4059 6.16533 47.3792 6.09867 47.3792 6.024ZM59.9168 1.072C59.9168 0.981333 59.9434 0.912 59.9968 0.864C60.0554 0.816 60.1248 0.792 60.2048 0.792C60.2848 0.792 60.3514 0.816 60.4048 0.864C60.4634 0.912 60.4928 0.981333 60.4928 1.072V3.576H61.4048C61.4954 3.576 61.5648 3.6 61.6128 3.648C61.6608 3.696 61.6848 3.75733 61.6848 3.832C61.6848 3.90667 61.6608 3.968 61.6128 4.016C61.5648 4.064 61.4954 4.088 61.4048 4.088H60.4928V8.056C60.4928 8.14667 60.4634 8.216 60.4048 8.264C60.3514 8.312 60.2848 8.336 60.2048 8.336C60.1248 8.336 60.0554 8.312 59.9968 8.264C59.9434 8.216 59.9168 8.14667 59.9168 8.056V1.072ZM54.7648 2.024C54.7648 1.93867 54.7914 1.872 54.8448 1.824C54.8981 1.776 54.9701 1.76 55.0608 1.776C55.5514 1.85067 56.0954 1.89333 56.6928 1.904V1.072C56.6928 0.981333 56.7194 0.912 56.7728 0.864C56.8314 0.816 56.9008 0.792 56.9808 0.792C57.0608 0.792 57.1274 0.816 57.1808 0.864C57.2394 0.912 57.2688 0.981333 57.2688 1.072V1.904C57.5461 1.89867 57.8341 1.88533 58.1328 1.864C58.4368 1.84267 58.6821 1.81333 58.8688 1.776C58.8848 1.77067 58.9088 1.768 58.9408 1.768C59.0101 1.768 59.0634 1.792 59.1008 1.84C59.1434 1.888 59.1648 1.94933 59.1648 2.024C59.1648 2.14133 59.0874 2.21867 58.9328 2.256C58.7301 2.304 58.4421 2.34133 58.0688 2.368C57.7008 2.38933 57.3381 2.4 56.9808 2.4C56.6394 2.4 56.2848 2.38933 55.9168 2.368C55.5488 2.34133 55.2421 2.30667 54.9968 2.264C54.8421 2.232 54.7648 2.152 54.7648 2.024ZM55.3168 4.76C55.3168 4.42933 55.3834 4.136 55.5168 3.88C55.6554 3.624 55.8501 3.424 56.1008 3.28C56.3514 3.136 56.6448 3.064 56.9808 3.064C57.3168 3.064 57.6101 3.136 57.8608 3.28C58.1114 3.424 58.3034 3.624 58.4368 3.88C58.5754 4.136 58.6448 4.42933 58.6448 4.76C58.6448 5.08533 58.5754 5.376 58.4368 5.632C58.3034 5.888 58.1114 6.088 57.8608 6.232C57.6101 6.37067 57.3168 6.44 56.9808 6.44C56.6448 6.44 56.3514 6.37067 56.1008 6.232C55.8501 6.088 55.6554 5.888 55.5168 5.632C55.3834 5.376 55.3168 5.08533 55.3168 4.76ZM55.8608 4.76C55.8608 5.112 55.9621 5.4 56.1648 5.624C56.3674 5.848 56.6394 5.96 56.9808 5.96C57.3221 5.96 57.5941 5.848 57.7968 5.624C57.9994 5.4 58.1008 5.112 58.1008 4.76C58.1008 4.40267 57.9994 4.10933 57.7968 3.88C57.5941 3.64533 57.3221 3.528 56.9808 3.528C56.6394 3.528 56.3674 3.64533 56.1648 3.88C55.9621 4.10933 55.8608 4.40267 55.8608 4.76ZM67.8863 1.072C67.8863 0.981333 67.913 0.912 67.9663 0.864C68.025 0.816 68.0943 0.792 68.1743 0.792C68.2543 0.792 68.321 0.816 68.3743 0.864C68.433 0.912 68.4623 0.981333 68.4623 1.072V8.056C68.4623 8.14667 68.433 8.216 68.3743 8.264C68.321 8.312 68.2543 8.336 68.1743 8.336C68.0943 8.336 68.025 8.312 67.9663 8.264C67.913 8.216 67.8863 8.14667 67.8863 8.056V1.072ZM62.6063 5.944C62.6063 5.85333 62.6437 5.776 62.7183 5.712C63.0703 5.456 63.3797 5.14133 63.6463 4.768C63.913 4.38933 64.105 4.00533 64.2223 3.616C64.3397 3.23733 64.3983 2.72533 64.3983 2.08V1.944C63.897 1.928 63.4037 1.88533 62.9183 1.816C62.7637 1.784 62.6863 1.704 62.6863 1.576C62.6863 1.49067 62.713 1.42667 62.7663 1.384C62.8197 1.336 62.8917 1.31733 62.9823 1.328C63.5423 1.408 64.1023 1.448 64.6623 1.448C65.233 1.448 65.7983 1.408 66.3583 1.328C66.449 1.31733 66.521 1.336 66.5743 1.384C66.6277 1.42667 66.6543 1.49067 66.6543 1.576C66.6543 1.704 66.577 1.784 66.4223 1.816C65.9317 1.89067 65.4437 1.93067 64.9583 1.936V2.08C64.9583 2.69867 65.0117 3.20533 65.1183 3.6C65.2303 4.016 65.4223 4.4 65.6943 4.752C65.9663 5.104 66.281 5.39733 66.6383 5.632C66.6757 5.65867 66.705 5.69333 66.7263 5.736C66.7477 5.77867 66.7583 5.81867 66.7583 5.856C66.7583 5.93067 66.729 5.99733 66.6703 6.056C66.617 6.10933 66.553 6.136 66.4783 6.136C66.441 6.136 66.3797 6.11467 66.2943 6.072C65.9263 5.84267 65.5983 5.536 65.3103 5.152C65.0277 4.76267 64.817 4.34933 64.6783 3.912C64.5343 4.344 64.321 4.76 64.0383 5.16C63.761 5.56 63.4543 5.88267 63.1183 6.128C63.0383 6.192 62.961 6.224 62.8863 6.224C62.8063 6.224 62.7397 6.19733 62.6863 6.144C62.633 6.08533 62.6063 6.01867 62.6063 5.944ZM72.7223 5.448C72.7223 5.35733 72.749 5.288 72.8023 5.24C72.8557 5.192 72.9223 5.168 73.0023 5.168C73.0823 5.168 73.149 5.192 73.2023 5.24C73.2557 5.288 73.2823 5.35733 73.2823 5.448V7.552C73.2823 7.58933 73.293 7.61867 73.3143 7.64C73.341 7.66667 73.373 7.68 73.4103 7.68H74.7303C74.821 7.68 74.8903 7.704 74.9383 7.752C74.9863 7.8 75.0103 7.85867 75.0103 7.928C75.0103 8.00267 74.9863 8.06133 74.9383 8.104C74.8903 8.152 74.821 8.176 74.7303 8.176H73.1623C73.0343 8.176 72.9277 8.13333 72.8423 8.048C72.7623 7.968 72.7223 7.864 72.7223 7.736V5.448ZM72.0583 2.728C72.0583 2.40267 72.1357 2.11733 72.2903 1.872C72.4503 1.62133 72.669 1.42667 72.9463 1.288C73.229 1.14933 73.5517 1.08 73.9143 1.08C74.277 1.08 74.597 1.14933 74.8743 1.288C75.157 1.42667 75.3757 1.62133 75.5303 1.872C75.6903 2.11733 75.7703 2.40267 75.7703 2.728C75.7703 3.05333 75.6903 3.34133 75.5303 3.592C75.3757 3.83733 75.157 4.02933 74.8743 4.168C74.597 4.30667 74.277 4.376 73.9143 4.376C73.5517 4.376 73.229 4.30667 72.9463 4.168C72.669 4.02933 72.4503 3.83733 72.2903 3.592C72.1357 3.34133 72.0583 3.05333 72.0583 2.728ZM72.6343 2.728C72.6343 3.06933 72.749 3.34667 72.9783 3.56C73.213 3.77333 73.525 3.88 73.9143 3.88C74.3037 3.88 74.613 3.77333 74.8423 3.56C75.077 3.34667 75.1943 3.06933 75.1943 2.728C75.1943 2.38667 75.077 2.10933 74.8423 1.896C74.613 1.67733 74.3037 1.568 73.9143 1.568C73.525 1.568 73.213 1.67733 72.9783 1.896C72.749 2.10933 72.6343 2.38667 72.6343 2.728ZM74.8263 5.56C74.8263 5.49067 74.8503 5.43467 74.8983 5.392C74.9463 5.344 75.0157 5.32 75.1063 5.32H76.3303V4.832C76.3303 4.74133 76.357 4.672 76.4103 4.624C76.4637 4.576 76.5303 4.552 76.6103 4.552C76.6903 4.552 76.757 4.576 76.8103 4.624C76.8637 4.672 76.8903 4.74133 76.8903 4.832V5.32H77.9783C78.069 5.32 78.1383 5.344 78.1863 5.392C78.2343 5.43467 78.2583 5.49067 78.2583 5.56C78.2583 5.62933 78.2343 5.688 78.1863 5.736C78.1383 5.77867 78.069 5.8 77.9783 5.8H75.1063C75.0157 5.8 74.9463 5.77867 74.8983 5.736C74.8503 5.688 74.8263 5.62933 74.8263 5.56ZM75.3143 7.248C75.3143 6.93333 75.4317 6.68 75.6663 6.488C75.901 6.296 76.213 6.2 76.6023 6.2C76.997 6.2 77.3117 6.296 77.5463 6.488C77.781 6.68 77.8983 6.93333 77.8983 7.248C77.8983 7.56267 77.781 7.81333 77.5463 8C77.3117 8.18667 76.997 8.28 76.6023 8.28C76.213 8.28 75.901 8.18667 75.6663 8C75.4317 7.81333 75.3143 7.56267 75.3143 7.248ZM75.8263 7.248C75.8263 7.41867 75.8983 7.55467 76.0423 7.656C76.1917 7.76267 76.381 7.816 76.6103 7.816C76.8397 7.816 77.0263 7.76267 77.1703 7.656C77.3143 7.55467 77.3863 7.41867 77.3863 7.248C77.3863 7.06667 77.3143 6.92267 77.1703 6.816C77.0317 6.704 76.845 6.648 76.6103 6.648C76.3757 6.648 76.1863 6.704 76.0423 6.816C75.8983 6.92267 75.8263 7.06667 75.8263 7.248ZM77.0183 1.072C77.0183 0.981333 77.045 0.912 77.0983 0.864C77.157 0.816 77.2263 0.792 77.3063 0.792C77.3863 0.792 77.453 0.816 77.5063 0.864C77.565 0.912 77.5943 0.981333 77.5943 1.072V2.296H78.5063C78.597 2.296 78.6663 2.32 78.7143 2.368C78.7623 2.416 78.7863 2.47733 78.7863 2.552C78.7863 2.62667 78.7623 2.688 78.7143 2.736C78.6663 2.784 78.597 2.808 78.5063 2.808H77.5943V4.136C77.5943 4.22667 77.565 4.296 77.5063 4.344C77.453 4.392 77.3863 4.416 77.3063 4.416C77.2263 4.416 77.157 4.392 77.0983 4.344C77.045 4.296 77.0183 4.22667 77.0183 4.136V1.072ZM85.2039 7.984C85.2039 8.18133 85.0866 8.28 84.8519 8.28H80.7639C80.5292 8.28 80.4119 8.18133 80.4119 7.984V5.752C80.4119 5.66133 80.4386 5.592 80.4919 5.544C80.5506 5.496 80.6199 5.472 80.6999 5.472C80.7799 5.472 80.8466 5.496 80.8999 5.544C80.9586 5.592 80.9879 5.66133 80.9879 5.752V6.304H84.6279V5.752C84.6279 5.66133 84.6546 5.592 84.7079 5.544C84.7666 5.496 84.8359 5.472 84.9159 5.472C84.9959 5.472 85.0626 5.496 85.1159 5.544C85.1746 5.592 85.2039 5.66133 85.2039 5.752V7.984ZM79.3719 4.608C79.3719 4.53333 79.3959 4.47467 79.4439 4.432C79.4919 4.384 79.5612 4.36 79.6519 4.36H85.9559C86.0466 4.36 86.1159 4.384 86.1639 4.432C86.2119 4.47467 86.2359 4.53333 86.2359 4.608C86.2359 4.67733 86.2119 4.736 86.1639 4.784C86.1159 4.832 86.0466 4.856 85.9559 4.856H79.6519C79.5612 4.856 79.4919 4.832 79.4439 4.784C79.3959 4.736 79.3719 4.67733 79.3719 4.608ZM80.0999 3.488C80.0999 3.37067 80.1799 3.288 80.3399 3.24C80.7772 3.12267 81.1666 2.96267 81.5079 2.76C81.8492 2.55733 82.1159 2.32533 82.3079 2.064C82.4519 1.87733 82.5239 1.64267 82.5239 1.36V1.184C82.5239 1.088 82.5506 1.016 82.6039 0.968C82.6626 0.914666 82.7319 0.888 82.8119 0.888C82.8919 0.888 82.9586 0.914666 83.0119 0.968C83.0706 1.016 83.0999 1.088 83.0999 1.184V1.36C83.0999 1.64267 83.1719 1.87733 83.3159 2.064C83.5026 2.32533 83.7666 2.55733 84.1079 2.76C84.4546 2.95733 84.8466 3.11467 85.2839 3.232C85.4439 3.28 85.5239 3.36267 85.5239 3.48C85.5239 3.656 85.4306 3.744 85.2439 3.744C85.2226 3.744 85.1746 3.73867 85.0999 3.728C84.6626 3.632 84.2599 3.47467 83.8919 3.256C83.5292 3.032 83.2359 2.792 83.0119 2.536C82.9266 2.43467 82.8599 2.34933 82.8119 2.28C82.7692 2.34933 82.7026 2.43467 82.6119 2.536C82.3932 2.78667 82.0999 3.02133 81.7319 3.24C81.3692 3.45333 80.9666 3.616 80.5239 3.728C80.4706 3.744 80.4172 3.752 80.3639 3.752C80.2839 3.752 80.2199 3.73067 80.1719 3.688C80.1239 3.64 80.0999 3.57333 80.0999 3.488ZM84.6279 6.784H80.9879V7.784H84.6279V6.784ZM92.5895 1.072C92.5895 0.981333 92.6161 0.912 92.6695 0.864C92.7281 0.816 92.7975 0.792 92.8775 0.792C92.9575 0.792 93.0241 0.816 93.0775 0.864C93.1361 0.912 93.1655 0.981333 93.1655 1.072V8.056C93.1655 8.14667 93.1361 8.216 93.0775 8.264C93.0241 8.312 92.9575 8.336 92.8775 8.336C92.7975 8.336 92.7281 8.312 92.6695 8.264C92.6161 8.216 92.5895 8.14667 92.5895 8.056V1.072ZM87.5495 1.552C87.5495 1.46133 87.5761 1.392 87.6295 1.344C87.6881 1.296 87.7575 1.272 87.8375 1.272C87.9175 1.272 87.9841 1.296 88.0375 1.344C88.0961 1.392 88.1255 1.46133 88.1255 1.552V5.192C88.1255 5.26667 88.1388 5.32533 88.1655 5.368C88.1975 5.41067 88.2535 5.44267 88.3335 5.464C88.4508 5.496 88.6135 5.52267 88.8215 5.544C89.0295 5.56 89.2295 5.568 89.4215 5.568C89.6668 5.568 89.9495 5.54933 90.2695 5.512C90.5948 5.46933 90.8881 5.41067 91.1495 5.336C91.1921 5.32533 91.2241 5.32 91.2455 5.32C91.3201 5.32 91.3761 5.344 91.4135 5.392C91.4561 5.43467 91.4775 5.49067 91.4775 5.56C91.4775 5.61867 91.4588 5.672 91.4215 5.72C91.3895 5.76267 91.3388 5.79467 91.2695 5.816C90.9975 5.90133 90.6908 5.96533 90.3495 6.008C90.0081 6.04533 89.6988 6.064 89.4215 6.064C88.8401 6.064 88.3468 6.00533 87.9415 5.888C87.7975 5.85067 87.6961 5.78667 87.6375 5.696C87.5788 5.60533 87.5495 5.48 87.5495 5.32V1.552ZM99.823 1.072C99.823 0.981333 99.8497 0.912 99.903 0.864C99.9617 0.816 100.031 0.792 100.111 0.792C100.191 0.792 100.258 0.816 100.311 0.864C100.37 0.912 100.399 0.981333 100.399 1.072V3.336H101.311C101.402 3.336 101.471 3.36 101.519 3.408C101.567 3.456 101.591 3.51733 101.591 3.592C101.591 3.66667 101.567 3.728 101.519 3.776C101.471 3.824 101.402 3.848 101.311 3.848H100.399V8.056C100.399 8.14667 100.37 8.216 100.311 8.264C100.258 8.312 100.191 8.336 100.111 8.336C100.031 8.336 99.9617 8.312 99.903 8.264C99.8497 8.216 99.823 8.14667 99.823 8.056V1.072ZM95.015 1.632C95.015 1.43467 95.1324 1.336 95.367 1.336H98.143C98.2337 1.336 98.303 1.36 98.351 1.408C98.399 1.456 98.423 1.51467 98.423 1.584C98.423 1.65867 98.399 1.72 98.351 1.768C98.303 1.816 98.2337 1.84 98.143 1.84H95.591V5.304C95.591 5.384 95.6044 5.44267 95.631 5.48C95.663 5.51733 95.719 5.54933 95.799 5.576C95.9057 5.608 96.0577 5.63467 96.255 5.656C96.4577 5.672 96.6444 5.68 96.815 5.68C97.0177 5.68 97.2684 5.66133 97.567 5.624C97.871 5.58133 98.1537 5.52267 98.415 5.448C98.4577 5.43733 98.4897 5.432 98.511 5.432C98.5857 5.432 98.6417 5.456 98.679 5.504C98.7217 5.54667 98.743 5.60267 98.743 5.672C98.743 5.73067 98.7244 5.784 98.687 5.832C98.655 5.87467 98.6044 5.90667 98.535 5.928C98.263 6.01333 97.967 6.07733 97.647 6.12C97.3324 6.15733 97.055 6.176 96.815 6.176C96.255 6.176 95.7857 6.11733 95.407 6C95.263 5.95733 95.1617 5.89067 95.103 5.8C95.0444 5.70933 95.015 5.58667 95.015 5.432V1.632Z" fill="#8B3030"/>
</svg>
