<svg width="73" height="9" viewBox="0 0 73 9" fill="none" xmlns="http://www.w3.org/2000/svg">
<path d="M4.3985 3.752C4.3985 4.536 4.23317 5.152 3.9025 5.6C3.57717 6.04267 3.12383 6.264 2.5425 6.264C1.97183 6.264 1.52383 6.04267 1.1985 5.6C0.8785 5.152 0.7185 4.536 0.7185 3.752C0.7185 2.97333 0.8785 2.36 1.1985 1.912C1.52383 1.464 1.97183 1.24 2.5425 1.24C2.9265 1.24 3.25717 1.34133 3.5345 1.544C3.81183 1.74667 4.02517 2.03733 4.1745 2.416C4.32383 2.79467 4.3985 3.24 4.3985 3.752ZM1.2945 3.752C1.2945 4.376 1.4065 4.86933 1.6305 5.232C1.8545 5.58933 2.16117 5.768 2.5505 5.768C2.9505 5.768 3.2625 5.58933 3.4865 5.232C3.7105 4.86933 3.8225 4.376 3.8225 3.752C3.8225 3.13333 3.70783 2.64267 3.4785 2.28C3.2545 1.912 2.94517 1.728 2.5505 1.728C2.16117 1.728 1.8545 1.912 1.6305 2.28C1.4065 2.64267 1.2945 3.13333 1.2945 3.752ZM5.6785 1.072C5.6785 0.981333 5.70517 0.912 5.7585 0.864C5.81717 0.816 5.8865 0.792 5.9665 0.792C6.0465 0.792 6.11317 0.816 6.1665 0.864C6.22517 0.912 6.2545 0.981333 6.2545 1.072V3.336H7.1665C7.25717 3.336 7.3265 3.36 7.3745 3.408C7.4225 3.456 7.4465 3.51733 7.4465 3.592C7.4465 3.66667 7.4225 3.728 7.3745 3.776C7.3265 3.824 7.25717 3.848 7.1665 3.848H6.2545V8.056C6.2545 8.14667 6.22517 8.216 6.1665 8.264C6.11317 8.312 6.0465 8.336 5.9665 8.336C5.8865 8.336 5.81717 8.312 5.7585 8.264C5.70517 8.216 5.6785 8.14667 5.6785 8.056V1.072ZM13.6481 1.072C13.6481 0.981333 13.6747 0.912 13.7281 0.864C13.7867 0.816 13.8561 0.792 13.9361 0.792C14.0161 0.792 14.0827 0.816 14.1361 0.864C14.1947 0.912 14.2241 0.981333 14.2241 1.072V8.056C14.2241 8.14667 14.1947 8.216 14.1361 8.264C14.0827 8.312 14.0161 8.336 13.9361 8.336C13.8561 8.336 13.7867 8.312 13.7281 8.264C13.6747 8.216 13.6481 8.14667 13.6481 8.056V1.072ZM8.43206 3.752C8.43206 2.94133 8.60006 2.32 8.93606 1.888C9.2774 1.456 9.7414 1.24 10.3281 1.24C10.9201 1.24 11.3894 1.45867 11.7361 1.896C12.0827 2.328 12.2561 2.94667 12.2561 3.752C12.2561 4.55733 12.0827 5.17867 11.7361 5.616C11.3894 6.048 10.9201 6.264 10.3281 6.264C9.7414 6.264 9.2774 6.048 8.93606 5.616C8.60006 5.184 8.43206 4.56267 8.43206 3.752ZM9.00806 3.752C9.00806 4.16267 9.06406 4.52 9.17606 4.824C9.28806 5.128 9.4454 5.36267 9.64806 5.528C9.85073 5.688 10.0801 5.768 10.3361 5.768C10.5974 5.768 10.8294 5.688 11.0321 5.528C11.2401 5.36267 11.4001 5.128 11.5121 4.824C11.6241 4.52 11.6801 4.16267 11.6801 3.752C11.6801 3.34667 11.6214 2.992 11.5041 2.688C11.3921 2.37867 11.2347 2.14133 11.0321 1.976C10.8294 1.81067 10.5974 1.728 10.3361 1.728C10.0801 1.728 9.85073 1.81067 9.64806 1.976C9.4454 2.14133 9.28806 2.37867 9.17606 2.688C9.06406 2.992 9.00806 3.34667 9.00806 3.752ZM21.2496 1.072C21.2496 0.981333 21.2763 0.912 21.3296 0.864C21.3883 0.816 21.4576 0.792 21.5376 0.792C21.6176 0.792 21.6843 0.816 21.7376 0.864C21.7963 0.912 21.8256 0.981333 21.8256 1.072V8.056C21.8256 8.14667 21.7963 8.216 21.7376 8.264C21.6843 8.312 21.6176 8.336 21.5376 8.336C21.4576 8.336 21.3883 8.312 21.3296 8.264C21.2763 8.216 21.2496 8.14667 21.2496 8.056V1.072ZM16.1856 1.632C16.1856 1.43467 16.303 1.336 16.5376 1.336H19.4256C19.5163 1.336 19.5856 1.36 19.6336 1.408C19.6816 1.456 19.7056 1.51467 19.7056 1.584C19.7056 1.65867 19.6816 1.72 19.6336 1.768C19.5856 1.816 19.5163 1.84 19.4256 1.84H16.7616V5.304C16.7616 5.37867 16.775 5.43733 16.8016 5.48C16.8336 5.52267 16.8896 5.55467 16.9696 5.576C17.0816 5.608 17.2416 5.63467 17.4496 5.656C17.6576 5.672 17.8443 5.68 18.0096 5.68C18.223 5.68 18.4923 5.66133 18.8176 5.624C19.1483 5.58133 19.4416 5.52267 19.6976 5.448C19.7403 5.43733 19.7723 5.432 19.7936 5.432C19.8683 5.432 19.9243 5.456 19.9616 5.504C20.0043 5.54667 20.0256 5.60267 20.0256 5.672C20.0256 5.73067 20.007 5.784 19.9696 5.832C19.9376 5.87467 19.887 5.90667 19.8176 5.928C19.551 6.01333 19.2443 6.07733 18.8976 6.12C18.5563 6.15733 18.2603 6.176 18.0096 6.176C17.4603 6.176 16.983 6.11733 16.5776 6C16.4336 5.96267 16.3323 5.89867 16.2736 5.808C16.215 5.71733 16.1856 5.592 16.1856 5.432V1.632ZM25.7152 1.272C25.8539 1.32 25.9232 1.39467 25.9232 1.496C25.9232 1.51733 25.9125 1.56533 25.8912 1.64L23.9792 7.528C23.9365 7.66667 23.8565 7.736 23.7392 7.736C23.6965 7.736 23.6512 7.728 23.6032 7.712L23.5792 7.704C23.4405 7.656 23.3712 7.58133 23.3712 7.48C23.3712 7.432 23.3819 7.384 23.4032 7.336L25.3152 1.448C25.3579 1.30933 25.4379 1.24 25.5552 1.24C25.5979 1.24 25.6432 1.248 25.6912 1.264L25.7152 1.272ZM32.4137 1.072C32.4137 0.981333 32.4404 0.912 32.4937 0.864C32.5524 0.810667 32.6217 0.784 32.7017 0.784C32.7817 0.784 32.8484 0.810667 32.9017 0.864C32.9604 0.912 32.9897 0.981333 32.9897 1.072V8.056C32.9897 8.14667 32.9604 8.216 32.9017 8.264C32.8484 8.31733 32.7817 8.344 32.7017 8.344C32.6217 8.344 32.5524 8.31733 32.4937 8.264C32.4404 8.216 32.4137 8.14667 32.4137 8.056V1.072ZM27.3097 1.536C27.3097 1.45067 27.3364 1.38133 27.3897 1.328C27.443 1.27467 27.5097 1.248 27.5897 1.248C27.6697 1.248 27.7364 1.27467 27.7897 1.328C27.843 1.38133 27.8697 1.45067 27.8697 1.536V3.056H30.2217V1.536C30.2217 1.45067 30.2457 1.38133 30.2937 1.328C30.347 1.27467 30.4164 1.248 30.5017 1.248C30.5817 1.248 30.6484 1.27467 30.7017 1.328C30.755 1.38133 30.7817 1.45067 30.7817 1.536V5.424C30.7817 5.57333 30.763 5.68 30.7257 5.744C30.6937 5.808 30.6297 5.86667 30.5337 5.92C30.3897 6 30.187 6.064 29.9257 6.112C29.6644 6.16 29.371 6.184 29.0457 6.184C28.7204 6.184 28.427 6.16 28.1657 6.112C27.9044 6.064 27.7017 6 27.5577 5.92C27.4617 5.86667 27.395 5.808 27.3577 5.744C27.3257 5.68 27.3097 5.57333 27.3097 5.424V1.536ZM27.8697 5.336C27.8697 5.4 27.8804 5.448 27.9017 5.48C27.923 5.50667 27.9657 5.53067 28.0297 5.552C28.131 5.58933 28.275 5.61867 28.4617 5.64C28.6537 5.66133 28.8484 5.672 29.0457 5.672C29.243 5.672 29.435 5.66133 29.6217 5.64C29.8137 5.61867 29.9604 5.58933 30.0617 5.552C30.1257 5.53067 30.1684 5.50667 30.1897 5.48C30.211 5.448 30.2217 5.4 30.2217 5.336V3.568H27.8697V5.336ZM40.0153 1.072C40.0153 0.981333 40.0419 0.912 40.0953 0.864C40.1539 0.816 40.2233 0.792 40.3033 0.792C40.3833 0.792 40.4499 0.816 40.5033 0.864C40.5619 0.912 40.5913 0.981333 40.5913 1.072V4.136C40.5913 4.22667 40.5619 4.296 40.5033 4.344C40.4499 4.392 40.3833 4.416 40.3033 4.416C40.2233 4.416 40.1539 4.392 40.0953 4.344C40.0419 4.296 40.0153 4.22667 40.0153 4.136V1.072ZM34.9113 1.424C34.9113 1.22667 35.0286 1.128 35.2633 1.128H38.0633C38.2979 1.128 38.4153 1.22667 38.4153 1.424V3.448C38.4153 3.59733 38.3966 3.704 38.3593 3.768C38.3273 3.832 38.2633 3.89067 38.1673 3.944C38.0233 4.024 37.8179 4.088 37.5513 4.136C37.2846 4.184 36.9886 4.208 36.6633 4.208C36.3379 4.208 36.0419 4.184 35.7753 4.136C35.5086 4.088 35.3033 4.024 35.1593 3.944C35.0633 3.89067 34.9966 3.832 34.9593 3.768C34.9273 3.704 34.9113 3.59733 34.9113 3.448V1.424ZM35.4713 3.376C35.4713 3.44 35.4819 3.488 35.5033 3.52C35.5246 3.54667 35.5673 3.57067 35.6313 3.592C35.7326 3.62933 35.8793 3.65867 36.0713 3.68C36.2686 3.70133 36.4659 3.712 36.6633 3.712C36.8606 3.712 37.0579 3.70133 37.2553 3.68C37.4526 3.65867 37.5993 3.62933 37.6953 3.592C37.7593 3.57067 37.8019 3.54667 37.8233 3.52C37.8446 3.488 37.8553 3.44 37.8553 3.376V1.624H35.4713V3.376ZM35.8313 5.256C35.8313 5.18667 35.8553 5.128 35.9033 5.08C35.9513 5.032 36.0206 5.008 36.1113 5.008H40.2473C40.4819 5.008 40.5993 5.10667 40.5993 5.304V6.584C40.5993 6.76533 40.4979 6.856 40.2953 6.856H36.4873V7.808H40.5113C40.6019 7.808 40.6713 7.832 40.7193 7.88C40.7673 7.928 40.7913 7.98667 40.7913 8.056C40.7913 8.13067 40.7673 8.18933 40.7193 8.232C40.6713 8.28 40.6019 8.304 40.5113 8.304H36.2633C36.0286 8.304 35.9113 8.20533 35.9113 8.008V6.688C35.9113 6.49067 36.0286 6.392 36.2633 6.392H40.0233V5.504H36.1113C36.0206 5.504 35.9513 5.48 35.9033 5.432C35.8553 5.384 35.8313 5.32533 35.8313 5.256ZM47.6168 1.072C47.6168 0.981333 47.6435 0.912 47.6968 0.864C47.7555 0.816 47.8248 0.792 47.9048 0.792C47.9848 0.792 48.0515 0.816 48.1048 0.864C48.1635 0.912 48.1928 0.981333 48.1928 1.072V5.656C48.1928 5.74667 48.1635 5.816 48.1048 5.864C48.0515 5.912 47.9848 5.936 47.9048 5.936C47.8248 5.936 47.7555 5.912 47.6968 5.864C47.6435 5.816 47.6168 5.74667 47.6168 5.656V3.04H45.9368V3.92C45.9368 4.06933 45.9181 4.176 45.8808 4.24C45.8488 4.304 45.7848 4.36267 45.6888 4.416C45.5395 4.496 45.3368 4.56 45.0808 4.608C44.8301 4.656 44.5448 4.68 44.2248 4.68C43.9048 4.68 43.6168 4.656 43.3608 4.608C43.1101 4.56 42.9101 4.496 42.7608 4.416C42.6648 4.36267 42.5981 4.304 42.5608 4.24C42.5288 4.176 42.5128 4.06933 42.5128 3.92V1.392C42.5128 1.30667 42.5395 1.23733 42.5928 1.184C42.6461 1.13067 42.7128 1.104 42.7928 1.104C42.8728 1.104 42.9395 1.13067 42.9928 1.184C43.0461 1.23733 43.0728 1.30667 43.0728 1.392V2.32H45.3768V1.392C45.3768 1.30667 45.4008 1.23733 45.4488 1.184C45.5021 1.13067 45.5715 1.104 45.6568 1.104C45.7368 1.104 45.8035 1.13067 45.8568 1.184C45.9101 1.23733 45.9368 1.30667 45.9368 1.392V2.528H47.6168V1.072ZM43.0728 3.848C43.0728 3.912 43.0835 3.96 43.1048 3.992C43.1261 4.01867 43.1688 4.04267 43.2328 4.064C43.3395 4.10133 43.4808 4.13067 43.6568 4.152C43.8381 4.17333 44.0275 4.184 44.2248 4.184C44.4221 4.184 44.6115 4.17333 44.7928 4.152C44.9741 4.13067 45.1155 4.10133 45.2168 4.064C45.2808 4.04267 45.3235 4.01867 45.3448 3.992C45.3661 3.96 45.3768 3.912 45.3768 3.848V2.816H43.0728V3.848ZM43.5128 5.848C43.5128 5.75733 43.5395 5.688 43.5928 5.64C43.6515 5.592 43.7208 5.568 43.8008 5.568C43.8808 5.568 43.9475 5.592 44.0008 5.64C44.0595 5.688 44.0888 5.75733 44.0888 5.848V7.536C44.0888 7.57333 44.0995 7.60267 44.1208 7.624C44.1475 7.65067 44.1795 7.664 44.2168 7.664H48.0968C48.1875 7.664 48.2568 7.688 48.3048 7.736C48.3528 7.784 48.3768 7.84533 48.3768 7.92C48.3768 7.99467 48.3528 8.056 48.3048 8.104C48.2568 8.152 48.1875 8.176 48.0968 8.176H43.9528C43.8248 8.176 43.7181 8.13333 43.6328 8.048C43.5528 7.968 43.5128 7.864 43.5128 7.736V5.848ZM55.1624 4.32C55.1624 4.74133 55.0024 5.08267 54.6824 5.344C54.3624 5.60533 53.9197 5.75733 53.3544 5.8L53.3224 5.832V7C54.2344 6.97867 55.1517 6.85333 56.0744 6.624C56.0904 6.61867 56.117 6.616 56.1544 6.616C56.2344 6.616 56.2984 6.64267 56.3464 6.696C56.3944 6.74933 56.4184 6.81067 56.4184 6.88C56.4184 6.93333 56.3997 6.98133 56.3624 7.024C56.3304 7.072 56.285 7.104 56.2264 7.12C55.2717 7.38667 54.2077 7.52 53.0344 7.52C51.861 7.52 50.797 7.38667 49.8424 7.12C49.7784 7.104 49.7304 7.07467 49.6984 7.032C49.6664 6.98933 49.6504 6.93867 49.6504 6.88C49.6504 6.80533 49.6744 6.744 49.7224 6.696C49.7704 6.64267 49.8344 6.616 49.9144 6.616C49.9517 6.616 49.9784 6.61867 49.9944 6.624C50.917 6.85333 51.8344 6.97867 52.7464 7V5.832L52.7144 5.8C52.149 5.75733 51.7064 5.60533 51.3864 5.344C51.0664 5.08267 50.9064 4.74133 50.9064 4.32C50.9064 3.856 51.0957 3.49333 51.4744 3.232C51.853 2.96533 52.373 2.832 53.0344 2.832C53.6957 2.832 54.2157 2.96533 54.5944 3.232C54.973 3.49333 55.1624 3.856 55.1624 4.32ZM50.2344 1.904C50.2344 1.824 50.2637 1.75733 50.3224 1.704C50.381 1.65067 50.461 1.63467 50.5624 1.656C51.1597 1.75733 51.8877 1.81867 52.7464 1.84V1.184C52.7464 1.09867 52.773 1.02933 52.8264 0.976C52.8797 0.922667 52.949 0.896 53.0344 0.896C53.1197 0.896 53.189 0.922667 53.2424 0.976C53.2957 1.02933 53.3224 1.09867 53.3224 1.184V1.84C54.181 1.81867 54.909 1.75733 55.5064 1.656C55.5224 1.65067 55.5437 1.648 55.5704 1.648C55.6504 1.648 55.7144 1.67467 55.7624 1.728C55.8104 1.776 55.8344 1.83467 55.8344 1.904C55.8344 2.032 55.757 2.112 55.6024 2.144C54.957 2.272 54.101 2.336 53.0344 2.336C51.9677 2.336 51.1117 2.272 50.4664 2.144C50.3117 2.112 50.2344 2.032 50.2344 1.904ZM51.4824 4.32C51.4824 4.64 51.621 4.888 51.8984 5.064C52.1757 5.24 52.5544 5.328 53.0344 5.328C53.5144 5.328 53.893 5.24 54.1704 5.064C54.4477 4.888 54.5864 4.64 54.5864 4.32C54.5864 3.99467 54.4477 3.744 54.1704 3.568C53.893 3.38667 53.5144 3.296 53.0344 3.296C52.5544 3.296 52.1757 3.38667 51.8984 3.568C51.621 3.744 51.4824 3.99467 51.4824 4.32ZM64.3504 1.072C64.3504 0.981333 64.377 0.912 64.4304 0.864C64.489 0.816 64.5584 0.792 64.6384 0.792C64.7184 0.792 64.785 0.816 64.8384 0.864C64.897 0.912 64.9264 0.981333 64.9264 1.072V2.536H65.8384C65.929 2.536 65.9984 2.56 66.0464 2.608C66.0944 2.656 66.1184 2.71733 66.1184 2.792C66.1184 2.86667 66.0944 2.928 66.0464 2.976C65.9984 3.024 65.929 3.048 65.8384 3.048H64.9264V4.856C64.9264 4.94667 64.897 5.016 64.8384 5.064C64.785 5.112 64.7184 5.136 64.6384 5.136C64.5584 5.136 64.489 5.112 64.4304 5.064C64.377 5.016 64.3504 4.94667 64.3504 4.856V1.072ZM59.2944 4.488C59.2944 4.44 59.3104 4.39467 59.3424 4.352C59.3744 4.304 59.417 4.26933 59.4704 4.248C59.8544 4.072 60.185 3.84533 60.4624 3.568C60.745 3.28533 60.929 2.98667 61.0144 2.672C61.0517 2.53333 61.0704 2.344 61.0704 2.104C60.5104 2.088 60.017 2.04 59.5904 1.96C59.4357 1.928 59.3584 1.848 59.3584 1.72C59.3584 1.63467 59.385 1.568 59.4384 1.52C59.4917 1.472 59.5637 1.456 59.6544 1.472C60.065 1.54133 60.537 1.58667 61.0704 1.608V0.927999C61.0704 0.842666 61.097 0.773333 61.1504 0.72C61.2037 0.666667 61.273 0.64 61.3584 0.64C61.4437 0.64 61.513 0.666667 61.5664 0.72C61.6197 0.773333 61.6464 0.842666 61.6464 0.927999V1.608C61.993 1.59733 62.4277 1.55467 62.9504 1.48L63.0144 1.472C63.0837 1.472 63.1397 1.496 63.1824 1.544C63.225 1.58667 63.2464 1.64533 63.2464 1.72C63.2464 1.848 63.169 1.928 63.0144 1.96C62.5237 2.04533 62.065 2.09333 61.6384 2.104C61.6384 2.344 61.6544 2.528 61.6864 2.656C61.777 2.96 61.9504 3.23467 62.2064 3.48C62.4677 3.72533 62.7797 3.93333 63.1424 4.104C63.2064 4.13067 63.2544 4.168 63.2864 4.216C63.3237 4.264 63.3424 4.312 63.3424 4.36C63.3424 4.43467 63.3184 4.49867 63.2704 4.552C63.2277 4.6 63.1664 4.624 63.0864 4.624C63.017 4.624 62.9504 4.60533 62.8864 4.568C62.5664 4.41867 62.2597 4.21867 61.9664 3.968C61.6784 3.712 61.4784 3.448 61.3664 3.176C61.2117 3.48533 61.001 3.77067 60.7344 4.032C60.4677 4.29333 60.1557 4.512 59.7984 4.688C59.7237 4.73067 59.649 4.752 59.5744 4.752C59.4944 4.752 59.4277 4.728 59.3744 4.68C59.321 4.62667 59.2944 4.56267 59.2944 4.488ZM60.1104 8.04C60.1104 7.92267 60.193 7.84267 60.3584 7.8C60.753 7.69867 61.1104 7.56 61.4304 7.384C61.7504 7.208 61.9877 7.016 62.1424 6.808C62.2864 6.62133 62.3637 6.40267 62.3744 6.152H60.5024C60.4117 6.152 60.3397 6.128 60.2864 6.08C60.2384 6.032 60.2144 5.97333 60.2144 5.904C60.2144 5.83467 60.2384 5.776 60.2864 5.728C60.3397 5.68 60.4117 5.656 60.5024 5.656H64.8304C64.921 5.656 64.9904 5.68 65.0384 5.728C65.0864 5.77067 65.1104 5.82933 65.1104 5.904C65.1104 5.97333 65.0864 6.032 65.0384 6.08C64.9904 6.128 64.921 6.152 64.8304 6.152H62.9664C62.9717 6.36 63.025 6.56 63.1264 6.752C63.313 7.08267 63.937 7.42667 64.9984 7.784C65.1424 7.82667 65.2144 7.904 65.2144 8.016C65.2144 8.08533 65.185 8.14933 65.1264 8.208C65.0677 8.26667 64.9957 8.296 64.9104 8.296C64.8944 8.296 64.8597 8.29067 64.8064 8.28C64.305 8.13067 63.8677 7.94667 63.4944 7.728C63.1264 7.50933 62.8544 7.256 62.6784 6.968C62.209 7.61867 61.4784 8.064 60.4864 8.304C60.4704 8.30933 60.4437 8.312 60.4064 8.312C60.321 8.312 60.249 8.28267 60.1904 8.224C60.137 8.17067 60.1104 8.10933 60.1104 8.04ZM72.3199 1.072C72.3199 0.981333 72.3466 0.912 72.3999 0.864C72.4586 0.816 72.5279 0.792 72.6079 0.792C72.6879 0.792 72.7546 0.816 72.8079 0.864C72.8666 0.912 72.8959 0.981333 72.8959 1.072V8.056C72.8959 8.14667 72.8666 8.216 72.8079 8.264C72.7546 8.312 72.6879 8.336 72.6079 8.336C72.5279 8.336 72.4586 8.312 72.3999 8.264C72.3466 8.216 72.3199 8.14667 72.3199 8.056V1.072ZM67.1439 1.672C67.1439 1.59733 67.1679 1.536 67.2159 1.488C67.2639 1.44 67.3306 1.416 67.4159 1.416H70.4879C70.5733 1.416 70.6399 1.44 70.6879 1.488C70.7359 1.536 70.7599 1.6 70.7599 1.68C70.7599 1.89333 70.7466 2.09067 70.7199 2.272C70.6986 2.448 70.6613 2.65867 70.6079 2.904C70.5066 3.36267 70.3226 3.81067 70.0559 4.248C69.7893 4.68533 69.4533 5.07733 69.0479 5.424C68.6426 5.77067 68.1893 6.03467 67.6879 6.216C67.6133 6.23733 67.5653 6.248 67.5439 6.248C67.4533 6.248 67.3813 6.21867 67.3279 6.16C67.2746 6.096 67.2479 6.02133 67.2479 5.936C67.2479 5.89333 67.2613 5.85067 67.2879 5.808C67.3199 5.76533 67.3573 5.736 67.3999 5.72C68.0933 5.432 68.6773 5.02133 69.1519 4.488C69.6266 3.95467 69.9306 3.37333 70.0639 2.744C70.1173 2.49867 70.1519 2.22667 70.1679 1.928H67.4159C67.3306 1.928 67.2639 1.904 67.2159 1.856C67.1679 1.808 67.1439 1.74667 67.1439 1.672Z" fill="#454545"/>
</svg>
