<svg width="178" height="109" viewBox="0 0 178 109" fill="none" xmlns="http://www.w3.org/2000/svg">
<rect width="178" height="109" rx="15" fill="#75C382"/>
<path d="M48.6312 43.288C48.6312 42.6693 48.8552 42.1893 49.3032 41.848C49.7512 41.5067 50.2419 41.336 50.7752 41.336C51.3086 41.336 51.7992 41.5067 52.2472 41.848C52.6952 42.1893 52.9192 42.6693 52.9192 43.288V47.832H55.5752C56.1299 47.832 56.5672 48.0027 56.8872 48.344C57.2072 48.6853 57.3672 49.1333 57.3672 49.688C57.3672 50.2427 57.2072 50.6907 56.8872 51.032C56.5672 51.3733 56.1299 51.544 55.5752 51.544H52.9192V57.016C52.9192 57.6347 52.6952 58.1147 52.2472 58.456C51.7992 58.7973 51.3086 58.968 50.7752 58.968C50.2419 58.968 49.7512 58.7973 49.3032 58.456C48.8552 58.1147 48.6312 57.6347 48.6312 57.016V43.288ZM28.5032 56.024C28.5032 55.6613 28.6099 55.32 28.8232 55C29.0366 54.68 29.3352 54.424 29.7192 54.232C30.8072 53.656 31.7886 52.952 32.6632 52.12C33.5379 51.2667 34.1779 50.3493 34.5832 49.368C34.8819 48.6427 35.0952 48.0027 35.2232 47.448C35.3512 46.8933 35.4152 46.3067 35.4152 45.688V44.376C35.4152 43.7573 35.6392 43.2773 36.0872 42.936C36.5352 42.5947 37.0259 42.424 37.5592 42.424C38.0926 42.424 38.5832 42.5947 39.0312 42.936C39.4792 43.2773 39.7032 43.7573 39.7032 44.376V45.592C39.7032 46.232 39.7566 46.84 39.8632 47.416C39.9912 47.992 40.1939 48.6213 40.4712 49.304C41.1326 50.968 42.6579 52.504 45.0472 53.912C45.8792 54.4027 46.2952 54.9787 46.2952 55.64C46.2952 56.1733 46.1139 56.632 45.7512 57.016C45.3886 57.3787 44.8979 57.56 44.2792 57.56C43.9166 57.56 43.5219 57.464 43.0952 57.272C42.0712 56.76 41.0472 56.0667 40.0232 55.192C39.0206 54.296 38.1992 53.3147 37.5592 52.248C36.8766 53.336 36.0446 54.3387 35.0632 55.256C34.0819 56.1733 33.0366 56.92 31.9272 57.496C31.5006 57.7093 31.0099 57.816 30.4552 57.816C29.9006 57.816 29.4312 57.656 29.0472 57.336C28.6846 56.9947 28.5032 56.5573 28.5032 56.024ZM32.7272 62.488C32.7272 61.8693 32.9512 61.3787 33.3992 61.016C33.8472 60.6533 34.4232 60.472 35.1272 60.472H50.5192C51.2232 60.472 51.7992 60.6533 52.2472 61.016C52.6952 61.3787 52.9192 61.8693 52.9192 62.488V70.872C52.9192 71.4907 52.6952 71.9813 52.2472 72.344C51.7992 72.7067 51.2232 72.888 50.5192 72.888H35.1272C34.4232 72.888 33.8472 72.7067 33.3992 72.344C32.9512 71.9813 32.7272 71.4907 32.7272 70.872V62.488ZM48.6312 64.12H37.0152V69.24H48.6312V64.12ZM80.822 43.288C80.822 42.6693 81.046 42.1893 81.494 41.848C81.942 41.5067 82.4326 41.336 82.966 41.336C83.4993 41.336 83.99 41.5067 84.438 41.848C84.886 42.1893 85.11 42.6693 85.11 43.288V71.224C85.11 71.8427 84.886 72.3227 84.438 72.664C83.99 73.0053 83.4993 73.176 82.966 73.176C82.4326 73.176 81.942 73.0053 81.494 72.664C81.046 72.3227 80.822 71.8427 80.822 71.224V43.288ZM59.478 62.968C59.478 62.3707 59.7553 61.848 60.31 61.4C61.6113 60.3547 62.7313 59.1173 63.67 57.688C64.63 56.2373 65.3446 54.7547 65.814 53.24C66.3686 51.4267 66.646 49.5173 66.646 47.512V45.08C66.646 44.4613 66.8593 43.9813 67.286 43.64C67.7126 43.2987 68.2033 43.128 68.758 43.128C69.334 43.128 69.8246 43.2987 70.23 43.64C70.6566 43.9813 70.87 44.4613 70.87 45.08V47.512C70.87 49.368 71.126 51.256 71.638 53.176C72.0646 54.7973 72.758 56.28 73.718 57.624C74.6993 58.9467 75.8513 60.088 77.174 61.048C77.7713 61.5173 78.07 62.04 78.07 62.616C78.07 63.1493 77.8566 63.608 77.43 63.992C77.0033 64.376 76.5126 64.568 75.958 64.568C75.4886 64.568 75.0406 64.4187 74.614 64.12C72.2246 62.4347 70.2726 60.1413 68.758 57.24C67.1153 60.2907 65.238 62.6587 63.126 64.344C62.6353 64.728 62.1233 64.92 61.59 64.92C61.0353 64.92 60.5446 64.7387 60.118 64.376C59.6913 63.992 59.478 63.5227 59.478 62.968ZM91.7967 64.152C91.2634 64.152 90.8047 63.9707 90.4207 63.608C90.0367 63.224 89.8447 62.7653 89.8447 62.232C89.8447 61.72 90.0901 61.1973 90.5807 60.664C91.5834 59.576 92.3834 58.4453 92.9807 57.272C93.5781 56.0987 94.0581 54.7867 94.4207 53.336C94.6767 52.376 94.8474 51.4373 94.9327 50.52C95.0394 49.5813 95.0927 48.5467 95.0927 47.416V44.984C95.0927 44.3653 95.3061 43.8853 95.7327 43.544C96.1807 43.2027 96.6714 43.032 97.2047 43.032C97.7594 43.032 98.2501 43.2027 98.6767 43.544C99.1034 43.864 99.3167 44.344 99.3167 44.984V47.416C99.3167 49.7413 99.5194 51.704 99.9247 53.304C100.309 54.84 100.789 56.1733 101.365 57.304C101.962 58.4133 102.73 59.5227 103.669 60.632C103.925 60.9307 104.127 61.2187 104.277 61.496C104.426 61.752 104.501 62.0507 104.501 62.392C104.501 62.8613 104.319 63.2773 103.957 63.64C103.594 63.9813 103.146 64.152 102.613 64.152C102.143 64.152 101.727 64.0347 101.365 63.8C101.002 63.5653 100.639 63.224 100.277 62.776C99.5301 61.816 98.8474 60.728 98.2287 59.512C97.6314 58.2747 97.2794 57.1867 97.1727 56.248C97.0447 57.1867 96.6821 58.264 96.0847 59.48C95.4874 60.6747 94.8154 61.7627 94.0687 62.744C93.6634 63.256 93.3114 63.6187 93.0127 63.832C92.7141 64.0453 92.3087 64.152 91.7967 64.152ZM102.037 52.472C102.037 51.9173 102.197 51.4693 102.517 51.128C102.837 50.7867 103.274 50.616 103.829 50.616H105.941V43.64C105.941 43.0213 106.165 42.5413 106.613 42.2C107.061 41.8587 107.541 41.688 108.053 41.688C108.586 41.688 109.066 41.8587 109.493 42.2C109.941 42.52 110.165 43 110.165 43.64V70.584C110.165 71.224 109.941 71.704 109.493 72.024C109.066 72.3653 108.586 72.536 108.053 72.536C107.541 72.536 107.061 72.3653 106.613 72.024C106.165 71.6827 105.941 71.2027 105.941 70.584V54.328H103.829C103.274 54.328 102.837 54.1573 102.517 53.816C102.197 53.4747 102.037 53.0267 102.037 52.472ZM112.565 43.288C112.565 42.6693 112.789 42.1893 113.237 41.848C113.685 41.5067 114.165 41.336 114.677 41.336C115.21 41.336 115.69 41.5067 116.117 41.848C116.565 42.168 116.789 42.648 116.789 43.288V71.16C116.789 71.8 116.565 72.28 116.117 72.6C115.69 72.9413 115.21 73.112 114.677 73.112C114.165 73.112 113.685 72.9413 113.237 72.6C112.789 72.2587 112.565 71.7787 112.565 71.16V43.288ZM142.259 43.288C142.259 42.6693 142.483 42.1893 142.931 41.848C143.379 41.5067 143.87 41.336 144.403 41.336C144.937 41.336 145.427 41.5067 145.875 41.848C146.323 42.1893 146.547 42.6693 146.547 43.288V71.224C146.547 71.8427 146.323 72.3227 145.875 72.664C145.427 73.0053 144.937 73.176 144.403 73.176C143.87 73.176 143.379 73.0053 142.931 72.664C142.483 72.3227 142.259 71.8427 142.259 71.224V43.288ZM121.331 60.408C122.761 58.2107 123.859 55.9813 124.627 53.72C125.417 51.4373 125.811 49.3573 125.811 47.48H122.771C122.281 47.48 121.897 47.2987 121.619 46.936C121.342 46.5733 121.203 46.136 121.203 45.624C121.203 45.112 121.342 44.6747 121.619 44.312C121.897 43.9493 122.281 43.768 122.771 43.768H127.827C128.425 43.768 128.926 43.96 129.331 44.344C129.758 44.7067 129.971 45.176 129.971 45.752C129.971 52.152 128.19 57.848 124.627 62.84C124.222 63.3947 123.699 63.672 123.059 63.672C122.505 63.672 122.003 63.48 121.555 63.096C121.129 62.6907 120.915 62.2107 120.915 61.656C120.915 61.2507 121.054 60.8347 121.331 60.408ZM131.155 62.36C132.478 59.928 133.438 57.528 134.035 55.16C134.633 52.7707 134.931 50.168 134.931 47.352H132.339C131.913 47.352 131.571 47.1707 131.315 46.808C131.081 46.424 130.963 45.9867 130.963 45.496C130.963 45.0053 131.081 44.5787 131.315 44.216C131.571 43.832 131.913 43.64 132.339 43.64H136.915C137.513 43.64 138.014 43.832 138.419 44.216C138.846 44.5787 139.059 45.048 139.059 45.624C139.059 49.72 138.718 53.1867 138.035 56.024C137.374 58.84 136.254 61.656 134.675 64.472C134.334 65.0693 133.822 65.368 133.139 65.368C132.585 65.368 132.073 65.1653 131.603 64.76C131.134 64.3547 130.899 63.8747 130.899 63.32C130.899 62.9573 130.985 62.6373 131.155 62.36Z" fill="#F2F2F2"/>
</svg>
