<svg width="74" height="39" viewBox="0 0 74 39" fill="none" xmlns="http://www.w3.org/2000/svg">
<rect width="74" height="39" rx="15" fill="#75C382"/>
<path d="M13.3445 18.37C13.3445 18.1767 13.4145 18.0233 13.5545 17.91C13.6945 17.7967 13.8745 17.74 14.0945 17.74H18.5145V16.7H13.8245C13.6245 16.7 13.4811 16.6467 13.3945 16.54C13.3145 16.4267 13.2745 16.29 13.2745 16.13C13.2745 15.9633 13.3145 15.8267 13.3945 15.72C13.4811 15.6133 13.6245 15.56 13.8245 15.56H19.1045C19.3245 15.56 19.5045 15.6167 19.6445 15.73C19.7845 15.8433 19.8545 15.9967 19.8545 16.19V18.31C19.8545 18.47 19.7878 18.6033 19.6545 18.71C19.5278 18.81 19.3745 18.86 19.1945 18.86H14.6845V19.78C14.6845 19.84 14.7111 19.8767 14.7645 19.89C14.9711 19.9433 15.2478 19.9867 15.5945 20.02C15.9411 20.0467 16.3011 20.06 16.6745 20.06C17.0811 20.06 17.5378 20.03 18.0445 19.97C18.5511 19.91 19.0211 19.8267 19.4545 19.72C19.5278 19.7 19.5945 19.69 19.6545 19.69C19.8345 19.69 19.9778 19.75 20.0845 19.87C20.1911 19.9833 20.2445 20.1167 20.2445 20.27C20.2445 20.3967 20.2045 20.51 20.1245 20.61C20.0445 20.71 19.9245 20.78 19.7645 20.82C19.0445 21.0133 18.2178 21.1333 17.2845 21.18V22.62C18.3778 22.58 19.3978 22.4367 20.3445 22.19C20.3845 22.1767 20.4445 22.17 20.5245 22.17C20.6911 22.17 20.8278 22.2267 20.9345 22.34C21.0411 22.4533 21.0945 22.5867 21.0945 22.74C21.0945 22.8667 21.0545 22.9833 20.9745 23.09C20.8945 23.1967 20.7745 23.27 20.6145 23.31C19.4611 23.63 18.1278 23.79 16.6145 23.79C15.1011 23.79 13.7678 23.63 12.6145 23.31C12.4545 23.27 12.3345 23.1967 12.2545 23.09C12.1745 22.9833 12.1345 22.8667 12.1345 22.74C12.1345 22.5867 12.1878 22.4533 12.2945 22.34C12.4011 22.22 12.5378 22.16 12.7045 22.16C12.7645 22.16 12.8245 22.17 12.8845 22.19C13.8178 22.4367 14.8378 22.58 15.9445 22.62V21.18C15.1711 21.1467 14.5411 21.0467 14.0545 20.88C13.8011 20.7933 13.6178 20.6733 13.5045 20.52C13.3978 20.36 13.3445 20.16 13.3445 19.92V18.37ZM26.2141 23.79C24.7007 23.79 23.3674 23.63 22.2141 23.31C22.0541 23.27 21.9341 23.1967 21.8541 23.09C21.7741 22.9833 21.7341 22.8667 21.7341 22.74C21.7341 22.5867 21.7874 22.4533 21.8941 22.34C22.0007 22.22 22.1374 22.16 22.3041 22.16C22.3641 22.16 22.4241 22.17 22.4841 22.19C23.6107 22.4833 24.8541 22.63 26.2141 22.63C27.5741 22.63 28.8174 22.4833 29.9441 22.19C29.9841 22.1767 30.0441 22.17 30.1241 22.17C30.2907 22.17 30.4274 22.2267 30.5341 22.34C30.6407 22.4533 30.6941 22.5867 30.6941 22.74C30.6941 22.8667 30.6541 22.9833 30.5741 23.09C30.4941 23.1967 30.3741 23.27 30.2141 23.31C29.0607 23.63 27.7274 23.79 26.2141 23.79ZM22.8941 16.3C22.8941 16.1267 22.9407 15.9867 23.0341 15.88C23.1341 15.7733 23.2707 15.72 23.4441 15.72H28.7341C28.9141 15.72 29.0707 15.7767 29.2041 15.89C29.3374 16.0033 29.4041 16.15 29.4041 16.33C29.4041 17.3767 29.3807 18.1767 29.3341 18.73C29.2941 19.2833 29.1874 19.9667 29.0141 20.78C28.9807 20.9267 28.9007 21.0367 28.7741 21.11C28.6541 21.1767 28.5307 21.21 28.4041 21.21C28.2174 21.21 28.0507 21.1533 27.9041 21.04C27.7641 20.9267 27.6941 20.7833 27.6941 20.61C27.6941 20.61 27.7041 20.55 27.7241 20.43C27.9641 19.3633 28.0774 18.18 28.0641 16.88H23.4441C23.2707 16.88 23.1341 16.8267 23.0341 16.72C22.9407 16.6133 22.8941 16.4733 22.8941 16.3ZM38.2337 15.59C38.2337 15.3967 38.3037 15.2467 38.4437 15.14C38.5837 15.0333 38.737 14.98 38.9037 14.98C39.0703 14.98 39.2237 15.0333 39.3637 15.14C39.5037 15.2467 39.5737 15.3967 39.5737 15.59V21.32C39.5737 21.5133 39.5037 21.6633 39.3637 21.77C39.2237 21.8767 39.0703 21.93 38.9037 21.93C38.737 21.93 38.5837 21.8767 38.4437 21.77C38.3037 21.6633 38.2337 21.5133 38.2337 21.32V15.59ZM31.6637 17.89C31.6637 17.4233 31.7803 17.0033 32.0137 16.63C32.2537 16.25 32.5803 15.9533 32.9937 15.74C33.407 15.5267 33.8703 15.42 34.3837 15.42C34.897 15.42 35.3603 15.5267 35.7737 15.74C36.187 15.9533 36.5103 16.25 36.7437 16.63C36.9837 17.0033 37.1037 17.4233 37.1037 17.89C37.1037 18.3567 36.9837 18.7767 36.7437 19.15C36.5103 19.5233 36.187 19.82 35.7737 20.04C35.3603 20.2533 34.897 20.36 34.3837 20.36C33.8703 20.36 33.407 20.2533 32.9937 20.04C32.5803 19.82 32.2537 19.5233 32.0137 19.15C31.7803 18.7767 31.6637 18.3567 31.6637 17.89ZM32.9837 17.89C32.9837 18.2767 33.1137 18.5967 33.3737 18.85C33.6403 19.1033 33.977 19.23 34.3837 19.23C34.7903 19.23 35.1237 19.1033 35.3837 18.85C35.6503 18.5967 35.7837 18.2767 35.7837 17.89C35.7837 17.5033 35.6503 17.1833 35.3837 16.93C35.1237 16.6767 34.7903 16.55 34.3837 16.55C33.977 16.55 33.6403 16.6767 33.3737 16.93C33.1137 17.1833 32.9837 17.5033 32.9837 17.89ZM33.1037 21.66C33.1037 21.4667 33.1737 21.3167 33.3137 21.21C33.4537 21.1033 33.607 21.05 33.7737 21.05C33.9403 21.05 34.0937 21.1033 34.2337 21.21C34.3737 21.3167 34.4437 21.4667 34.4437 21.66V23.42C34.4437 23.4667 34.457 23.5033 34.4837 23.53C34.5103 23.5567 34.547 23.57 34.5937 23.57H39.2237C39.397 23.57 39.5337 23.6233 39.6337 23.73C39.7337 23.8367 39.7837 23.9767 39.7837 24.15C39.7837 24.3233 39.7337 24.4633 39.6337 24.57C39.5337 24.6767 39.397 24.73 39.2237 24.73H33.9637C33.717 24.73 33.5103 24.6533 33.3437 24.5C33.1837 24.3467 33.1037 24.1533 33.1037 23.92V21.66ZM46.3263 22.61C45.853 22.61 45.433 22.51 45.0663 22.31C44.7063 22.11 44.4263 21.8333 44.2263 21.48C44.033 21.1267 43.9363 20.7333 43.9363 20.3C43.9363 19.86 44.033 19.4633 44.2263 19.11C44.4263 18.7567 44.7063 18.48 45.0663 18.28C45.433 18.0733 45.853 17.97 46.3263 17.97C46.7997 17.97 47.2163 18.0733 47.5763 18.28C47.943 18.48 48.223 18.7567 48.4163 19.11C48.6163 19.4633 48.7163 19.86 48.7163 20.3C48.7163 20.7333 48.6163 21.1267 48.4163 21.48C48.223 21.8333 47.943 22.11 47.5763 22.31C47.2163 22.51 46.7997 22.61 46.3263 22.61ZM43.3263 16.7C43.3263 16.5267 43.3797 16.39 43.4863 16.29C43.5997 16.1833 43.733 16.13 43.8863 16.13C43.9397 16.13 43.9797 16.1333 44.0063 16.14C44.5063 16.2333 45.0563 16.29 45.6563 16.31V15.59C45.6563 15.39 45.723 15.24 45.8563 15.14C45.9897 15.0333 46.1463 14.98 46.3263 14.98C46.493 14.98 46.6463 15.0333 46.7863 15.14C46.9263 15.2467 46.9963 15.3967 46.9963 15.59V16.31C47.6563 16.27 48.1797 16.2133 48.5663 16.14C48.593 16.1333 48.633 16.13 48.6863 16.13C48.8397 16.13 48.9697 16.1833 49.0763 16.29C49.1897 16.39 49.2463 16.5267 49.2463 16.7C49.2463 16.8467 49.203 16.97 49.1163 17.07C49.0297 17.1633 48.9097 17.2267 48.7563 17.26C48.443 17.3267 48.0597 17.38 47.6063 17.42C47.1597 17.4533 46.7163 17.47 46.2763 17.47C45.843 17.47 45.403 17.4533 44.9563 17.42C44.5097 17.38 44.1297 17.3267 43.8163 17.26C43.663 17.2267 43.543 17.1633 43.4563 17.07C43.3697 16.97 43.3263 16.8467 43.3263 16.7ZM45.2363 20.3C45.2363 20.6667 45.3297 20.9567 45.5163 21.17C45.7097 21.3833 45.9797 21.49 46.3263 21.49C46.673 21.49 46.9397 21.3833 47.1263 21.17C47.3197 20.9567 47.4163 20.6667 47.4163 20.3C47.4163 19.92 47.3197 19.62 47.1263 19.4C46.9397 19.18 46.673 19.07 46.3263 19.07C45.9797 19.07 45.7097 19.18 45.5163 19.4C45.3297 19.62 45.2363 19.92 45.2363 20.3ZM49.7463 15.59C49.7463 15.3967 49.8163 15.2467 49.9563 15.14C50.0963 15.0333 50.2497 14.98 50.4163 14.98C50.583 14.98 50.7363 15.0333 50.8763 15.14C51.0163 15.2467 51.0863 15.3967 51.0863 15.59V18.46H51.9163C52.0897 18.46 52.2263 18.5133 52.3263 18.62C52.4263 18.7267 52.4763 18.8667 52.4763 19.04C52.4763 19.2133 52.4263 19.3533 52.3263 19.46C52.2263 19.5667 52.0897 19.62 51.9163 19.62H51.0863V24.32C51.0863 24.5133 51.0163 24.6633 50.8763 24.77C50.7363 24.8767 50.583 24.93 50.4163 24.93C50.2497 24.93 50.0963 24.8767 49.9563 24.77C49.8163 24.6633 49.7463 24.5133 49.7463 24.32V15.59ZM59.8059 15.59C59.8059 15.3967 59.8759 15.2467 60.0159 15.14C60.1559 15.0333 60.3093 14.98 60.4759 14.98C60.6426 14.98 60.7959 15.0333 60.9359 15.14C61.0759 15.2467 61.1459 15.3967 61.1459 15.59V24.32C61.1459 24.5133 61.0759 24.6633 60.9359 24.77C60.7959 24.8767 60.6426 24.93 60.4759 24.93C60.3093 24.93 60.1559 24.8767 60.0159 24.77C59.8759 24.6633 59.8059 24.5133 59.8059 24.32V15.59ZM53.3359 16.34C53.3359 16.1667 53.3826 16.0267 53.4759 15.92C53.5759 15.8133 53.7126 15.76 53.8859 15.76H57.8259C58.0059 15.76 58.1593 15.8133 58.2859 15.92C58.4126 16.0267 58.4759 16.17 58.4759 16.35C58.4759 16.8433 58.4026 17.3733 58.2559 17.94C58.0359 18.8333 57.6126 19.64 56.9859 20.36C56.3593 21.0733 55.4959 21.6933 54.3959 22.22C54.2626 22.28 54.1459 22.31 54.0459 22.31C53.8659 22.31 53.7093 22.2467 53.5759 22.12C53.4493 21.9933 53.3859 21.8433 53.3859 21.67C53.3859 21.4433 53.4893 21.28 53.6959 21.18C54.6226 20.7533 55.3559 20.2367 55.8959 19.63C56.4359 19.0233 56.7993 18.3533 56.9859 17.62C57.0526 17.32 57.0926 17.0867 57.1059 16.92H53.8859C53.7126 16.92 53.5759 16.8667 53.4759 16.76C53.3826 16.6533 53.3359 16.5133 53.3359 16.34Z" fill="#F2F2F2"/>
</svg>
