<svg width="74" height="39" viewBox="0 0 74 39" fill="none" xmlns="http://www.w3.org/2000/svg">
<rect width="74" height="39" rx="15" fill="#75C382"/>
<path d="M8.14465 16.03C8.60465 16.1033 9.16465 16.1533 9.82465 16.18V15.61C9.82465 15.43 9.89132 15.2833 10.0246 15.17C10.158 15.05 10.3146 14.99 10.4946 14.99C10.6746 14.99 10.8313 15.05 10.9646 15.17C11.098 15.2833 11.1646 15.43 11.1646 15.61V16.17C11.7913 16.15 12.3246 16.1067 12.7646 16.04C12.7913 16.0333 12.8246 16.03 12.8646 16.03C13.0246 16.03 13.1613 16.08 13.2746 16.18C13.388 16.28 13.4446 16.42 13.4446 16.6C13.4446 16.7467 13.4013 16.87 13.3146 16.97C13.228 17.0633 13.108 17.1267 12.9546 17.16C12.688 17.2067 12.318 17.2467 11.8446 17.28C11.3713 17.3133 10.9213 17.33 10.4946 17.33C10.0413 17.33 9.58132 17.3167 9.11465 17.29C8.64798 17.2567 8.26132 17.2133 7.95465 17.16C7.80132 17.1267 7.68132 17.0633 7.59465 16.97C7.50798 16.87 7.46465 16.7467 7.46465 16.6C7.46465 16.4 7.53132 16.25 7.66465 16.15C7.80465 16.0433 7.96465 16.0033 8.14465 16.03ZM7.33465 22.68C7.33465 22.5067 7.39132 22.37 7.50465 22.27C7.61798 22.1633 7.75798 22.11 7.92465 22.11C7.97798 22.11 8.06798 22.1233 8.19465 22.15C8.62798 22.2433 9.17132 22.3 9.82465 22.32V21.3C9.29798 21.1933 8.87798 20.9767 8.56465 20.65C8.25798 20.3167 8.10465 19.9333 8.10465 19.5C8.10465 19.16 8.20465 18.8467 8.40465 18.56C8.60465 18.2733 8.88465 18.0467 9.24465 17.88C9.61132 17.7133 10.028 17.63 10.4946 17.63C10.9613 17.63 11.3746 17.7133 11.7346 17.88C12.1013 18.0467 12.3846 18.2733 12.5846 18.56C12.7846 18.8467 12.8846 19.16 12.8846 19.5C12.8846 19.9333 12.728 20.3167 12.4146 20.65C12.108 20.9767 11.6913 21.1933 11.1646 21.3V22.3C11.838 22.2467 12.4046 22.1467 12.8646 22C13.0246 21.9467 13.1513 21.92 13.2446 21.92C13.4113 21.92 13.548 21.97 13.6546 22.07C13.7613 22.17 13.8146 22.3033 13.8146 22.47C13.8146 22.5967 13.768 22.71 13.6746 22.81C13.5813 22.91 13.4513 22.99 13.2846 23.05C12.9313 23.1833 12.5013 23.2867 11.9946 23.36C11.488 23.4333 10.9713 23.47 10.4446 23.47C9.30465 23.47 8.42132 23.3867 7.79465 23.22C7.66132 23.1867 7.55132 23.12 7.46465 23.02C7.37798 22.9267 7.33465 22.8133 7.33465 22.68ZM9.40465 19.5C9.40465 19.7267 9.50132 19.9133 9.69465 20.06C9.89465 20.2 10.1613 20.27 10.4946 20.27C10.828 20.27 11.0913 20.2 11.2846 20.06C11.4846 19.9133 11.5846 19.7267 11.5846 19.5C11.5846 19.2733 11.4846 19.09 11.2846 18.95C11.0913 18.8033 10.828 18.73 10.4946 18.73C10.1613 18.73 9.89465 18.8033 9.69465 18.95C9.50132 19.09 9.40465 19.2733 9.40465 19.5ZM14.2346 15.59C14.2346 15.3967 14.3046 15.2467 14.4446 15.14C14.5846 15.0333 14.738 14.98 14.9046 14.98C15.0713 14.98 15.2246 15.0333 15.3646 15.14C15.5046 15.2467 15.5746 15.3967 15.5746 15.59V24.32C15.5746 24.5133 15.5046 24.6633 15.3646 24.77C15.2246 24.8767 15.0713 24.93 14.9046 24.93C14.738 24.93 14.5846 24.8767 14.4446 24.77C14.3046 24.6633 14.2346 24.5133 14.2346 24.32V15.59ZM23.8343 15.59C23.8343 15.3967 23.9043 15.2467 24.0443 15.14C24.1843 15.0333 24.3376 14.98 24.5043 14.98C24.6709 14.98 24.8243 15.0333 24.9643 15.14C25.1043 15.2467 25.1743 15.3967 25.1743 15.59V22.08C25.1743 22.2733 25.1043 22.4233 24.9643 22.53C24.8243 22.6367 24.6709 22.69 24.5043 22.69C24.3376 22.69 24.1843 22.6367 24.0443 22.53C23.9043 22.4233 23.8343 22.2733 23.8343 22.08V22.01H22.1243C21.9443 22.01 21.8043 21.9633 21.7043 21.87C21.6109 21.77 21.5643 21.6333 21.5643 21.46C21.5643 21.2867 21.6109 21.1533 21.7043 21.06C21.8043 20.96 21.9443 20.91 22.1243 20.91H23.8343V15.59ZM16.9943 20.06C16.9943 19.8933 17.0576 19.7567 17.1843 19.65C17.3109 19.5433 17.4676 19.49 17.6543 19.49H19.9843C20.5776 19.49 21.0809 19.4733 21.4943 19.44C21.9076 19.4067 22.2943 19.35 22.6543 19.27C22.7476 19.2567 22.8109 19.25 22.8443 19.25C23.0176 19.25 23.1543 19.3033 23.2543 19.41C23.3609 19.51 23.4143 19.6367 23.4143 19.79C23.4143 19.93 23.3709 20.0533 23.2843 20.16C23.1976 20.26 23.0709 20.33 22.9043 20.37C22.3043 20.51 21.5876 20.5933 20.7543 20.62V21.65C20.7543 21.8433 20.6843 21.9833 20.5443 22.07C20.4109 22.1567 20.2576 22.2 20.0843 22.2C19.9109 22.2 19.7543 22.1567 19.6143 22.07C19.4809 21.9833 19.4143 21.8433 19.4143 21.65V20.63H17.6543C17.4676 20.63 17.3109 20.5767 17.1843 20.47C17.0576 20.3633 16.9943 20.2267 16.9943 20.06ZM17.4343 17.12C17.4343 16.74 17.5409 16.4 17.7543 16.1C17.9676 15.8 18.2743 15.5667 18.6743 15.4C19.0743 15.2333 19.5443 15.15 20.0843 15.15C20.6243 15.15 21.0943 15.2333 21.4943 15.4C21.8943 15.5667 22.2009 15.8 22.4143 16.1C22.6276 16.4 22.7343 16.74 22.7343 17.12C22.7343 17.5 22.6276 17.84 22.4143 18.14C22.2009 18.44 21.8943 18.6733 21.4943 18.84C21.0943 19.0067 20.6243 19.09 20.0843 19.09C19.5443 19.09 19.0743 19.0067 18.6743 18.84C18.2743 18.6733 17.9676 18.44 17.7543 18.14C17.5409 17.84 17.4343 17.5 17.4343 17.12ZM18.0743 22.43C18.0743 22.2367 18.1443 22.0867 18.2843 21.98C18.4243 21.8733 18.5776 21.82 18.7443 21.82C18.9109 21.82 19.0643 21.8733 19.2043 21.98C19.3443 22.0867 19.4143 22.2367 19.4143 22.43V23.42C19.4143 23.4667 19.4276 23.5033 19.4543 23.53C19.4809 23.5567 19.5176 23.57 19.5643 23.57H24.7243C24.8976 23.57 25.0343 23.6233 25.1343 23.73C25.2343 23.8367 25.2843 23.9767 25.2843 24.15C25.2843 24.3233 25.2343 24.4633 25.1343 24.57C25.0343 24.6767 24.8976 24.73 24.7243 24.73H18.9343C18.6876 24.73 18.4809 24.6533 18.3143 24.5C18.1543 24.3467 18.0743 24.1533 18.0743 23.92V22.43ZM18.7543 17.12C18.7543 17.3733 18.8743 17.5833 19.1143 17.75C19.3543 17.91 19.6776 17.99 20.0843 17.99C20.4843 17.99 20.8043 17.91 21.0443 17.75C21.2909 17.5833 21.4143 17.3733 21.4143 17.12C21.4143 16.8667 21.2943 16.66 21.0543 16.5C20.8143 16.3333 20.4909 16.25 20.0843 16.25C19.6776 16.25 19.3543 16.3333 19.1143 16.5C18.8743 16.66 18.7543 16.8667 18.7543 17.12ZM32.9739 15.59C32.9739 15.3967 33.0439 15.2467 33.1839 15.14C33.3239 15.0333 33.4772 14.98 33.6439 14.98C33.8105 14.98 33.9639 15.0333 34.1039 15.14C34.2439 15.2467 34.3139 15.3967 34.3139 15.59V18.16H35.1439C35.3172 18.16 35.4539 18.2133 35.5539 18.32C35.6539 18.4267 35.7039 18.5667 35.7039 18.74C35.7039 18.9133 35.6539 19.0533 35.5539 19.16C35.4539 19.2667 35.3172 19.32 35.1439 19.32H34.3139V24.32C34.3139 24.5133 34.2439 24.6633 34.1039 24.77C33.9639 24.8767 33.8105 24.93 33.6439 24.93C33.4772 24.93 33.3239 24.8767 33.1839 24.77C33.0439 24.6633 32.9739 24.5133 32.9739 24.32V15.59ZM26.8239 16.34C26.8239 16.1667 26.8705 16.0267 26.9639 15.92C27.0639 15.8133 27.2005 15.76 27.3739 15.76H31.1439C31.3239 15.76 31.4772 15.8133 31.6039 15.92C31.7305 16.0267 31.7939 16.17 31.7939 16.35C31.7939 16.8433 31.7205 17.3733 31.5739 17.94C31.1272 19.74 29.8972 21.1633 27.8839 22.21C27.8372 22.2433 27.7805 22.27 27.7139 22.29C27.6472 22.3033 27.5872 22.31 27.5339 22.31C27.3539 22.31 27.1972 22.2467 27.0639 22.12C26.9372 21.9933 26.8739 21.8433 26.8739 21.67C26.8739 21.5567 26.9005 21.46 26.9539 21.38C27.0139 21.2933 27.0872 21.2267 27.1739 21.18C28.0272 20.7467 28.7139 20.2267 29.2339 19.62C29.7605 19.0067 30.1172 18.34 30.3039 17.62C30.3705 17.32 30.4105 17.0867 30.4239 16.92H27.3739C27.2005 16.92 27.0639 16.8667 26.9639 16.76C26.8705 16.6533 26.8239 16.5133 26.8239 16.34ZM43.0335 15.59C43.0335 15.3967 43.1035 15.2467 43.2435 15.14C43.3835 15.0333 43.5368 14.98 43.7035 14.98C43.8701 14.98 44.0235 15.0333 44.1635 15.14C44.3035 15.2467 44.3735 15.3967 44.3735 15.59V19.82C44.3735 20.0133 44.3035 20.1633 44.1635 20.27C44.0235 20.3767 43.8701 20.43 43.7035 20.43C43.5368 20.43 43.3835 20.3767 43.2435 20.27C43.1035 20.1633 43.0335 20.0133 43.0335 19.82V15.59ZM36.4635 17.73C36.4635 17.2633 36.5801 16.8467 36.8135 16.48C37.0468 16.1133 37.3701 15.8267 37.7835 15.62C38.1968 15.4133 38.6635 15.31 39.1835 15.31C39.7035 15.31 40.1701 15.4133 40.5835 15.62C40.9968 15.8267 41.3201 16.1133 41.5535 16.48C41.7868 16.8467 41.9035 17.2633 41.9035 17.73C41.9035 18.1967 41.7868 18.61 41.5535 18.97C41.3201 19.33 40.9968 19.61 40.5835 19.81C40.1701 20.01 39.7035 20.11 39.1835 20.11C38.6635 20.11 38.1968 20.01 37.7835 19.81C37.3701 19.61 37.0468 19.33 36.8135 18.97C36.5801 18.61 36.4635 18.1967 36.4635 17.73ZM37.7835 17.73C37.7835 18.11 37.9101 18.4133 38.1635 18.64C38.4235 18.8667 38.7635 18.98 39.1835 18.98C39.6035 18.98 39.9401 18.8667 40.1935 18.64C40.4535 18.4133 40.5835 18.11 40.5835 17.73C40.5835 17.3433 40.4535 17.0333 40.1935 16.8C39.9335 16.56 39.5968 16.44 39.1835 16.44C38.7701 16.44 38.4335 16.56 38.1735 16.8C37.9135 17.0333 37.7835 17.3433 37.7835 17.73ZM37.9035 21.42C37.9035 21.2333 37.9735 21.09 38.1135 20.99C38.2535 20.8833 38.4068 20.83 38.5735 20.83C38.7401 20.83 38.8935 20.8833 39.0335 20.99C39.1735 21.09 39.2435 21.2333 39.2435 21.42V21.82H43.0335V21.42C43.0335 21.2333 43.1035 21.09 43.2435 20.99C43.3835 20.8833 43.5368 20.83 43.7035 20.83C43.8701 20.83 44.0235 20.8833 44.1635 20.99C44.3035 21.09 44.3735 21.2333 44.3735 21.42V24.23C44.3735 24.4233 44.3035 24.5767 44.1635 24.69C44.0235 24.8033 43.8435 24.86 43.6235 24.86H38.6535C38.4335 24.86 38.2535 24.8033 38.1135 24.69C37.9735 24.5767 37.9035 24.4233 37.9035 24.23V21.42ZM43.0335 22.9H39.2435V23.72H43.0335V22.9ZM51.1261 22.61C50.6528 22.61 50.2328 22.51 49.8661 22.31C49.5061 22.11 49.2261 21.8333 49.0261 21.48C48.8328 21.1267 48.7361 20.7333 48.7361 20.3C48.7361 19.86 48.8328 19.4633 49.0261 19.11C49.2261 18.7567 49.5061 18.48 49.8661 18.28C50.2328 18.0733 50.6528 17.97 51.1261 17.97C51.5995 17.97 52.0161 18.0733 52.3761 18.28C52.7428 18.48 53.0228 18.7567 53.2161 19.11C53.4161 19.4633 53.5161 19.86 53.5161 20.3C53.5161 20.7333 53.4161 21.1267 53.2161 21.48C53.0228 21.8333 52.7428 22.11 52.3761 22.31C52.0161 22.51 51.5995 22.61 51.1261 22.61ZM48.1261 16.7C48.1261 16.5267 48.1795 16.39 48.2861 16.29C48.3995 16.1833 48.5328 16.13 48.6861 16.13C48.7395 16.13 48.7795 16.1333 48.8061 16.14C49.3061 16.2333 49.8561 16.29 50.4561 16.31V15.59C50.4561 15.39 50.5228 15.24 50.6561 15.14C50.7895 15.0333 50.9461 14.98 51.1261 14.98C51.2928 14.98 51.4461 15.0333 51.5861 15.14C51.7261 15.2467 51.7961 15.3967 51.7961 15.59V16.31C52.4561 16.27 52.9795 16.2133 53.3661 16.14C53.3928 16.1333 53.4328 16.13 53.4861 16.13C53.6395 16.13 53.7695 16.1833 53.8761 16.29C53.9895 16.39 54.0461 16.5267 54.0461 16.7C54.0461 16.8467 54.0028 16.97 53.9161 17.07C53.8295 17.1633 53.7095 17.2267 53.5561 17.26C53.2428 17.3267 52.8595 17.38 52.4061 17.42C51.9595 17.4533 51.5161 17.47 51.0761 17.47C50.6428 17.47 50.2028 17.4533 49.7561 17.42C49.3095 17.38 48.9295 17.3267 48.6161 17.26C48.4628 17.2267 48.3428 17.1633 48.2561 17.07C48.1695 16.97 48.1261 16.8467 48.1261 16.7ZM50.0361 20.3C50.0361 20.6667 50.1295 20.9567 50.3161 21.17C50.5095 21.3833 50.7795 21.49 51.1261 21.49C51.4728 21.49 51.7395 21.3833 51.9261 21.17C52.1195 20.9567 52.2161 20.6667 52.2161 20.3C52.2161 19.92 52.1195 19.62 51.9261 19.4C51.7395 19.18 51.4728 19.07 51.1261 19.07C50.7795 19.07 50.5095 19.18 50.3161 19.4C50.1295 19.62 50.0361 19.92 50.0361 20.3ZM54.5461 15.59C54.5461 15.3967 54.6161 15.2467 54.7561 15.14C54.8961 15.0333 55.0495 14.98 55.2161 14.98C55.3828 14.98 55.5361 15.0333 55.6761 15.14C55.8161 15.2467 55.8861 15.3967 55.8861 15.59V18.46H56.7161C56.8895 18.46 57.0261 18.5133 57.1261 18.62C57.2261 18.7267 57.2761 18.8667 57.2761 19.04C57.2761 19.2133 57.2261 19.3533 57.1261 19.46C57.0261 19.5667 56.8895 19.62 56.7161 19.62H55.8861V24.32C55.8861 24.5133 55.8161 24.6633 55.6761 24.77C55.5361 24.8767 55.3828 24.93 55.2161 24.93C55.0495 24.93 54.8961 24.8767 54.7561 24.77C54.6161 24.6633 54.5461 24.5133 54.5461 24.32V15.59ZM64.6057 15.59C64.6057 15.3967 64.6757 15.2467 64.8157 15.14C64.9557 15.0333 65.1091 14.98 65.2757 14.98C65.4424 14.98 65.5957 15.0333 65.7357 15.14C65.8757 15.2467 65.9457 15.3967 65.9457 15.59V24.32C65.9457 24.5133 65.8757 24.6633 65.7357 24.77C65.5957 24.8767 65.4424 24.93 65.2757 24.93C65.1091 24.93 64.9557 24.8767 64.8157 24.77C64.6757 24.6633 64.6057 24.5133 64.6057 24.32V15.59ZM58.1357 16.34C58.1357 16.1667 58.1824 16.0267 58.2757 15.92C58.3757 15.8133 58.5124 15.76 58.6857 15.76H62.6257C62.8057 15.76 62.9591 15.8133 63.0857 15.92C63.2124 16.0267 63.2757 16.17 63.2757 16.35C63.2757 16.8433 63.2024 17.3733 63.0557 17.94C62.8357 18.8333 62.4124 19.64 61.7857 20.36C61.1591 21.0733 60.2957 21.6933 59.1957 22.22C59.0624 22.28 58.9457 22.31 58.8457 22.31C58.6657 22.31 58.5091 22.2467 58.3757 22.12C58.2491 21.9933 58.1857 21.8433 58.1857 21.67C58.1857 21.4433 58.2891 21.28 58.4957 21.18C59.4224 20.7533 60.1557 20.2367 60.6957 19.63C61.2357 19.0233 61.5991 18.3533 61.7857 17.62C61.8524 17.32 61.8924 17.0867 61.9057 16.92H58.6857C58.5124 16.92 58.3757 16.8667 58.2757 16.76C58.1824 16.6533 58.1357 16.5133 58.1357 16.34Z" fill="#F2F2F2"/>
</svg>
