<svg width="36" height="12" viewBox="0 0 36 12" fill="none" xmlns="http://www.w3.org/2000/svg">
<path d="M3.62873 3.76C3.77273 3.76 3.87673 3.796 3.94073 3.868C4.01273 3.932 4.04873 4.04 4.04873 4.192V5.932H5.86073C6.01273 5.932 6.12473 5.964 6.19673 6.028C6.26873 6.084 6.30473 6.176 6.30473 6.304C6.30473 6.432 6.26873 6.528 6.19673 6.592C6.13273 6.648 6.02073 6.676 5.86073 6.676H4.04873V8.536C4.04873 8.688 4.01273 8.8 3.94073 8.872C3.87673 8.936 3.77273 8.968 3.62873 8.968C3.34073 8.968 3.19673 8.824 3.19673 8.536V6.676H1.38473C1.22473 6.676 1.10873 6.648 1.03673 6.592C0.972734 6.536 0.940734 6.44 0.940734 6.304C0.940734 6.176 0.976734 6.084 1.04873 6.028C1.12073 5.964 1.23273 5.932 1.38473 5.932H3.19673V4.192C3.19673 4.04 3.22873 3.932 3.29273 3.868C3.36473 3.796 3.47673 3.76 3.62873 3.76ZM7.81345 7.492C7.81345 7.38 7.84945 7.288 7.92145 7.216C7.99345 7.136 8.08945 7.096 8.20945 7.096C8.26545 7.096 8.30545 7.1 8.32945 7.108C9.84945 7.492 11.3695 7.684 12.8895 7.684C14.4095 7.684 15.9295 7.492 17.4495 7.108C17.4735 7.1 17.5135 7.096 17.5695 7.096C17.6895 7.096 17.7855 7.136 17.8575 7.216C17.9295 7.296 17.9655 7.388 17.9655 7.492C17.9655 7.572 17.9375 7.648 17.8815 7.72C17.8335 7.784 17.7655 7.828 17.6775 7.852C16.3735 8.212 14.9215 8.412 13.3215 8.452V11.536C13.3215 11.672 13.2775 11.776 13.1895 11.848C13.1095 11.92 13.0095 11.956 12.8895 11.956C12.7695 11.956 12.6655 11.92 12.5775 11.848C12.4975 11.776 12.4575 11.672 12.4575 11.536V8.452C10.8575 8.412 9.40545 8.212 8.10145 7.852C8.00545 7.828 7.93345 7.784 7.88545 7.72C7.83745 7.656 7.81345 7.58 7.81345 7.492ZM8.79745 5.632C8.79745 5.4 8.92545 5.26 9.18145 5.212C9.87745 5.084 10.5015 4.888 11.0535 4.624C11.6135 4.352 12.0055 4.028 12.2295 3.652C12.3095 3.516 12.3655 3.376 12.3975 3.232C12.4295 3.088 12.4495 2.924 12.4575 2.74C11.2975 2.716 10.3055 2.62 9.48145 2.452C9.24945 2.404 9.13345 2.288 9.13345 2.104C9.13345 1.984 9.17745 1.884 9.26545 1.804C9.35345 1.724 9.47345 1.7 9.62545 1.732C10.5375 1.884 11.4815 1.972 12.4575 1.996V0.904C12.4575 0.776 12.4975 0.675999 12.5775 0.603999C12.6575 0.523999 12.7615 0.483999 12.8895 0.483999C13.0095 0.483999 13.1095 0.523999 13.1895 0.603999C13.2775 0.683999 13.3215 0.783999 13.3215 0.904V1.996C14.2975 1.972 15.2415 1.884 16.1535 1.732C16.1775 1.724 16.2135 1.72 16.2615 1.72C16.3735 1.72 16.4655 1.76 16.5375 1.84C16.6095 1.912 16.6455 2 16.6455 2.104C16.6455 2.288 16.5295 2.404 16.2975 2.452C15.4735 2.62 14.4815 2.716 13.3215 2.74C13.3375 3.116 13.4095 3.42 13.5375 3.652C13.7535 4.028 14.1415 4.352 14.7015 4.624C15.2615 4.888 15.8935 5.084 16.5975 5.212C16.8535 5.26 16.9815 5.396 16.9815 5.62C16.9815 5.868 16.8175 5.992 16.4895 5.992C16.4335 5.992 16.3575 5.984 16.2615 5.968C15.6135 5.856 15.0375 5.684 14.5335 5.452C14.0295 5.22 13.6415 4.96 13.3695 4.672C13.2015 4.504 13.0895 4.38 13.0335 4.3C12.9775 4.212 12.9295 4.116 12.8895 4.012C12.8575 4.108 12.8095 4.204 12.7455 4.3C12.6815 4.388 12.5775 4.508 12.4335 4.66C12.1695 4.948 11.7775 5.212 11.2575 5.452C10.7455 5.684 10.1615 5.856 9.50545 5.968C9.40945 5.984 9.33345 5.992 9.27745 5.992C8.95745 5.992 8.79745 5.872 8.79745 5.632ZM24.4358 1.624C24.5638 1.624 24.6638 1.66 24.7358 1.732C24.8078 1.804 24.8438 1.9 24.8438 2.02C24.8438 2.572 24.7598 3.184 24.5918 3.856C24.0638 5.952 22.6478 7.596 20.3438 8.788C20.2638 8.836 20.1878 8.86 20.1158 8.86C19.9958 8.86 19.8958 8.816 19.8158 8.728C19.7358 8.632 19.6958 8.524 19.6958 8.404C19.6958 8.26 19.7598 8.152 19.8878 8.08C20.9518 7.536 21.8118 6.88 22.4678 6.112C23.1238 5.336 23.5638 4.504 23.7878 3.616C23.8838 3.192 23.9398 2.784 23.9558 2.392H20.0438C19.9158 2.392 19.8158 2.356 19.7438 2.284C19.6718 2.212 19.6358 2.12 19.6358 2.008C19.6358 1.896 19.6718 1.804 19.7438 1.732C19.8158 1.66 19.9158 1.624 20.0438 1.624H24.4358ZM27.0158 1.108C27.0158 0.972 27.0558 0.868 27.1358 0.796C27.2238 0.724 27.3278 0.688 27.4478 0.688C27.5678 0.688 27.6678 0.724 27.7478 0.796C27.8358 0.868 27.8798 0.972 27.8798 1.108V4.504H29.2478C29.3838 4.504 29.4878 4.54 29.5598 4.612C29.6318 4.684 29.6678 4.776 29.6678 4.888C29.6678 5 29.6318 5.092 29.5598 5.164C29.4878 5.236 29.3838 5.272 29.2478 5.272H27.8798V11.584C27.8798 11.72 27.8358 11.824 27.7478 11.896C27.6678 11.968 27.5678 12.004 27.4478 12.004C27.3278 12.004 27.2238 11.968 27.1358 11.896C27.0558 11.824 27.0158 11.72 27.0158 11.584V1.108ZM31.4821 9.844C31.6581 9.844 31.8021 9.9 31.9141 10.012C32.0261 10.124 32.0821 10.26 32.0821 10.42C32.0821 10.588 32.0261 10.728 31.9141 10.84C31.8021 10.952 31.6581 11.008 31.4821 11.008C31.3061 11.008 31.1621 10.952 31.0501 10.84C30.9381 10.728 30.8821 10.588 30.8821 10.42C30.8821 10.26 30.9381 10.124 31.0501 10.012C31.1621 9.9 31.3061 9.844 31.4821 9.844ZM34.4587 9.844C34.6347 9.844 34.7787 9.9 34.8907 10.012C35.0027 10.124 35.0587 10.26 35.0587 10.42C35.0587 10.588 35.0027 10.728 34.8907 10.84C34.7787 10.952 34.6347 11.008 34.4587 11.008C34.2827 11.008 34.1387 10.952 34.0267 10.84C33.9147 10.728 33.8587 10.588 33.8587 10.42C33.8587 10.26 33.9147 10.124 34.0267 10.012C34.1387 9.9 34.2827 9.844 34.4587 9.844Z" fill="black"/>
</svg>
