<svg width="158" height="39" viewBox="0 0 158 39" fill="none" xmlns="http://www.w3.org/2000/svg">
<rect width="158" height="39" rx="15" fill="#75C382"/>
<path d="M42.5929 21.036C42.5929 20.82 42.6729 20.644 42.8329 20.508C42.9929 20.364 43.1809 20.292 43.3969 20.292C43.6129 20.292 43.8009 20.364 43.9609 20.508C44.1209 20.644 44.2009 20.82 44.2009 21.036V23.556C45.7769 23.54 47.2209 23.364 48.5329 23.028C48.5809 23.012 48.6529 23.004 48.7489 23.004C48.9489 23.004 49.1129 23.072 49.2409 23.208C49.3689 23.344 49.4329 23.504 49.4329 23.688C49.4329 23.84 49.3849 23.98 49.2889 24.108C49.1929 24.236 49.0489 24.324 48.8569 24.372C47.4729 24.756 45.8729 24.948 44.0569 24.948C42.2409 24.948 40.6409 24.756 39.2569 24.372C39.0649 24.324 38.9209 24.236 38.8249 24.108C38.7289 23.98 38.6809 23.84 38.6809 23.688C38.6809 23.504 38.7449 23.344 38.8729 23.208C39.0009 23.064 39.1649 22.992 39.3649 22.992C39.4369 22.992 39.5089 23.004 39.5809 23.028C40.5089 23.276 41.5129 23.436 42.5929 23.508V21.036ZM39.9769 18.852C39.9769 18.636 40.0289 18.464 40.1329 18.336C40.2369 18.208 40.3929 18.14 40.6009 18.132L46.3249 18.048C46.3489 17.72 46.3609 17.224 46.3609 16.56H40.8529C40.6449 16.56 40.4809 16.492 40.3609 16.356C40.2489 16.22 40.1929 16.06 40.1929 15.876C40.1929 15.684 40.2489 15.524 40.3609 15.396C40.4809 15.26 40.6449 15.192 40.8529 15.192H47.1649C47.3809 15.192 47.5689 15.26 47.7289 15.396C47.8889 15.532 47.9689 15.708 47.9689 15.924C47.9689 17.196 47.9409 18.176 47.8849 18.864C47.8369 19.544 47.7089 20.368 47.5009 21.336C47.4609 21.512 47.3649 21.644 47.2129 21.732C47.0689 21.812 46.9209 21.852 46.7689 21.852C46.5449 21.852 46.3449 21.784 46.1689 21.648C46.0009 21.512 45.9169 21.34 45.9169 21.132C45.9169 21.132 45.9289 21.06 45.9529 20.916C46.0809 20.332 46.1689 19.816 46.2169 19.368L40.6849 19.548C40.4689 19.556 40.2969 19.496 40.1689 19.368C40.0409 19.24 39.9769 19.068 39.9769 18.852ZM55.5764 24.948C53.7604 24.948 52.1604 24.756 50.7764 24.372C50.5844 24.324 50.4404 24.236 50.3444 24.108C50.2484 23.98 50.2004 23.84 50.2004 23.688C50.2004 23.504 50.2644 23.344 50.3924 23.208C50.5204 23.064 50.6844 22.992 50.8844 22.992C50.9564 22.992 51.0284 23.004 51.1004 23.028C52.4524 23.38 53.9444 23.556 55.5764 23.556C57.2084 23.556 58.7004 23.38 60.0524 23.028C60.1004 23.012 60.1724 23.004 60.2684 23.004C60.4684 23.004 60.6324 23.072 60.7604 23.208C60.8884 23.344 60.9524 23.504 60.9524 23.688C60.9524 23.84 60.9044 23.98 60.8084 24.108C60.7124 24.236 60.5684 24.324 60.3764 24.372C58.9924 24.756 57.3924 24.948 55.5764 24.948ZM51.3284 20.472C51.3284 20.296 51.3804 20.148 51.4844 20.028C51.5884 19.9 51.7284 19.8 51.9044 19.728C52.9364 19.32 53.7644 18.596 54.3884 17.556C54.5404 17.308 54.6404 17.076 54.6884 16.86C54.7444 16.644 54.7724 16.416 54.7724 16.176V15.792C54.7724 15.56 54.8564 15.384 55.0244 15.264C55.1924 15.136 55.3764 15.072 55.5764 15.072C55.7764 15.072 55.9604 15.136 56.1284 15.264C56.2964 15.384 56.3804 15.56 56.3804 15.792V16.176C56.3804 16.416 56.4044 16.644 56.4524 16.86C56.5084 17.076 56.6124 17.308 56.7644 17.556C57.3884 18.596 58.2164 19.32 59.2484 19.728C59.4244 19.8 59.5644 19.9 59.6684 20.028C59.7724 20.148 59.8244 20.296 59.8244 20.472C59.8244 20.672 59.7604 20.828 59.6324 20.94C59.5124 21.052 59.3524 21.112 59.1524 21.12C58.9444 21.136 58.7804 21.12 58.6604 21.072C58.0284 20.856 57.4764 20.54 57.0044 20.124C56.5404 19.7 56.0644 19.152 55.5764 18.48C55.0964 19.144 54.6164 19.688 54.1364 20.112C53.6564 20.536 53.0964 20.856 52.4564 21.072C52.3444 21.104 52.2284 21.12 52.1084 21.12C51.8764 21.12 51.6884 21.064 51.5444 20.952C51.4004 20.84 51.3284 20.68 51.3284 20.472ZM72.8476 15.108C72.8476 14.876 72.9316 14.696 73.0996 14.568C73.2676 14.44 73.4516 14.376 73.6516 14.376C73.8516 14.376 74.0356 14.44 74.2036 14.568C74.3716 14.696 74.4556 14.876 74.4556 15.108V25.584C74.4556 25.816 74.3716 25.996 74.2036 26.124C74.0356 26.252 73.8516 26.316 73.6516 26.316C73.4516 26.316 73.2676 26.252 73.0996 26.124C72.9316 25.996 72.8476 25.816 72.8476 25.584V19.368H71.6356C71.4276 19.368 71.2636 19.308 71.1436 19.188C71.0236 19.06 70.9636 18.896 70.9636 18.696C70.9636 18.496 71.0236 18.336 71.1436 18.216C71.2636 18.088 71.4276 18.024 71.6356 18.024H72.8476V15.108ZM64.8676 22.488C64.8676 22.264 64.9716 22.068 65.1796 21.9C66.2276 21.06 66.9156 20.112 67.2436 19.056C67.4116 18.512 67.4956 17.772 67.4956 16.836V16.716C66.7676 16.692 66.1836 16.628 65.7436 16.524C65.5276 16.476 65.3636 16.392 65.2516 16.272C65.1396 16.144 65.0836 16 65.0836 15.84C65.0836 15.608 65.1676 15.436 65.3356 15.324C65.5036 15.212 65.7036 15.168 65.9356 15.192C66.7516 15.312 67.5476 15.372 68.3236 15.372C69.0996 15.372 69.8956 15.312 70.7116 15.192C70.9436 15.168 71.1436 15.212 71.3116 15.324C71.4796 15.436 71.5636 15.608 71.5636 15.84C71.5636 16 71.5076 16.144 71.3956 16.272C71.2836 16.392 71.1196 16.476 70.9036 16.524C70.3756 16.636 69.7676 16.7 69.0796 16.716V16.836C69.0796 17.764 69.1556 18.496 69.3076 19.032C69.4676 19.6 69.7236 20.104 70.0756 20.544C70.4276 20.976 70.8676 21.384 71.3956 21.768C71.6116 21.936 71.7196 22.136 71.7196 22.368C71.7196 22.584 71.6396 22.76 71.4796 22.896C71.3196 23.032 71.1356 23.1 70.9276 23.1C70.7116 23.1 70.5156 23.04 70.3396 22.92C69.4836 22.312 68.7956 21.452 68.2756 20.34C68.0196 20.868 67.7196 21.36 67.3756 21.816C67.0316 22.272 66.6516 22.668 66.2356 23.004C66.0516 23.148 65.8596 23.22 65.6596 23.22C65.4516 23.22 65.2676 23.152 65.1076 23.016C64.9476 22.872 64.8676 22.696 64.8676 22.488ZM78.2831 23.676C78.2831 23.164 78.4311 22.708 78.7271 22.308C79.0311 21.9 79.4551 21.584 79.9991 21.36C80.5431 21.128 81.1631 21.012 81.8591 21.012C82.5551 21.012 83.1751 21.128 83.7191 21.36C84.2631 21.584 84.6831 21.9 84.9791 22.308C85.2831 22.708 85.4351 23.164 85.4351 23.676C85.4351 24.188 85.2831 24.644 84.9791 25.044C84.6831 25.452 84.2631 25.768 83.7191 25.992C83.1751 26.224 82.5551 26.34 81.8591 26.34C81.1631 26.34 80.5431 26.224 79.9991 25.992C79.4551 25.768 79.0311 25.452 78.7271 25.044C78.4311 24.644 78.2831 24.188 78.2831 23.676ZM76.1351 19.836C76.1351 19.54 76.2871 19.316 76.5911 19.164C78.0551 18.428 78.7871 17.576 78.7871 16.608V16.488C78.0511 16.464 77.4631 16.4 77.0231 16.296C76.8071 16.248 76.6431 16.164 76.5311 16.044C76.4191 15.916 76.3631 15.772 76.3631 15.612C76.3631 15.38 76.4471 15.208 76.6151 15.096C76.7831 14.984 76.9831 14.94 77.2151 14.964C78.0311 15.084 78.8271 15.144 79.6031 15.144C80.3791 15.144 81.1751 15.084 81.9911 14.964C82.2231 14.94 82.4231 14.984 82.5911 15.096C82.7591 15.208 82.8431 15.38 82.8431 15.612C82.8431 15.772 82.7871 15.916 82.6751 16.044C82.5631 16.164 82.3991 16.248 82.1831 16.296C81.7271 16.4 81.1311 16.464 80.3951 16.488V16.572C80.3951 17.092 80.5591 17.54 80.8871 17.916C81.2231 18.284 81.7711 18.676 82.5311 19.092C82.8431 19.26 82.9991 19.476 82.9991 19.74C82.9991 19.948 82.9231 20.12 82.7711 20.256C82.6191 20.392 82.4311 20.46 82.2071 20.46C82.0471 20.46 81.8871 20.424 81.7271 20.352C81.3271 20.152 80.9231 19.88 80.5151 19.536C80.1151 19.184 79.8071 18.812 79.5911 18.42C79.3671 18.812 79.0591 19.18 78.6671 19.524C78.2751 19.868 77.8591 20.156 77.4191 20.388C77.2591 20.468 77.0711 20.508 76.8551 20.508C76.6391 20.508 76.4631 20.444 76.3271 20.316C76.1991 20.18 76.1351 20.02 76.1351 19.836ZM79.8911 23.676C79.8911 24.068 80.0631 24.38 80.4071 24.612C80.7591 24.852 81.2431 24.972 81.8591 24.972C82.4751 24.972 82.9551 24.852 83.2991 24.612C83.6511 24.38 83.8271 24.068 83.8271 23.676C83.8271 23.284 83.6511 22.972 83.2991 22.74C82.9551 22.5 82.4751 22.38 81.8591 22.38C81.2431 22.38 80.7591 22.5 80.4071 22.74C80.0631 22.972 79.8911 23.284 79.8911 23.676ZM83.8151 15.108C83.8151 14.876 83.8991 14.696 84.0671 14.568C84.2351 14.44 84.4191 14.376 84.6191 14.376C84.8191 14.376 85.0031 14.44 85.1711 14.568C85.3391 14.696 85.4231 14.876 85.4231 15.108V16.812H86.4191C86.6271 16.812 86.7911 16.876 86.9111 17.004C87.0311 17.132 87.0911 17.3 87.0911 17.508C87.0911 17.716 87.0311 17.884 86.9111 18.012C86.7911 18.14 86.6271 18.204 86.4191 18.204H85.4231V20.304C85.4231 20.536 85.3391 20.716 85.1711 20.844C85.0031 20.972 84.8191 21.036 84.6191 21.036C84.4191 21.036 84.2351 20.972 84.0671 20.844C83.8991 20.716 83.8151 20.536 83.8151 20.304V15.108ZM91.2307 23.532C90.6627 23.532 90.1587 23.412 89.7187 23.172C89.2867 22.932 88.9507 22.6 88.7107 22.176C88.4787 21.752 88.3627 21.28 88.3627 20.76C88.3627 20.232 88.4787 19.756 88.7107 19.332C88.9507 18.908 89.2867 18.576 89.7187 18.336C90.1587 18.088 90.6627 17.964 91.2307 17.964C91.7987 17.964 92.2987 18.088 92.7307 18.336C93.1707 18.576 93.5067 18.908 93.7387 19.332C93.9787 19.756 94.0987 20.232 94.0987 20.76C94.0987 21.28 93.9787 21.752 93.7387 22.176C93.5067 22.6 93.1707 22.932 92.7307 23.172C92.2987 23.412 91.7987 23.532 91.2307 23.532ZM87.6307 16.44C87.6307 16.232 87.6947 16.068 87.8227 15.948C87.9587 15.82 88.1187 15.756 88.3027 15.756C88.3667 15.756 88.4147 15.76 88.4467 15.768C89.0467 15.88 89.7067 15.948 90.4267 15.972V15.108C90.4267 14.868 90.5067 14.688 90.6667 14.568C90.8267 14.44 91.0147 14.376 91.2307 14.376C91.4307 14.376 91.6147 14.44 91.7827 14.568C91.9507 14.696 92.0347 14.876 92.0347 15.108V15.972C92.8267 15.924 93.4547 15.856 93.9187 15.768C93.9507 15.76 93.9987 15.756 94.0627 15.756C94.2467 15.756 94.4027 15.82 94.5307 15.948C94.6667 16.068 94.7347 16.232 94.7347 16.44C94.7347 16.616 94.6827 16.764 94.5787 16.884C94.4747 16.996 94.3307 17.072 94.1467 17.112C93.7707 17.192 93.3107 17.256 92.7667 17.304C92.2307 17.344 91.6987 17.364 91.1707 17.364C90.6507 17.364 90.1227 17.344 89.5867 17.304C89.0507 17.256 88.5947 17.192 88.2187 17.112C88.0347 17.072 87.8907 16.996 87.7867 16.884C87.6827 16.764 87.6307 16.616 87.6307 16.44ZM89.9227 20.76C89.9227 21.2 90.0347 21.548 90.2587 21.804C90.4907 22.06 90.8147 22.188 91.2307 22.188C91.6467 22.188 91.9667 22.06 92.1907 21.804C92.4227 21.548 92.5387 21.2 92.5387 20.76C92.5387 20.304 92.4227 19.944 92.1907 19.68C91.9667 19.416 91.6467 19.284 91.2307 19.284C90.8147 19.284 90.4907 19.416 90.2587 19.68C90.0347 19.944 89.9227 20.304 89.9227 20.76ZM95.3347 15.108C95.3347 14.876 95.4187 14.696 95.5867 14.568C95.7547 14.44 95.9387 14.376 96.1387 14.376C96.3387 14.376 96.5227 14.44 96.6907 14.568C96.8587 14.696 96.9427 14.876 96.9427 15.108V18.552H97.9387C98.1467 18.552 98.3107 18.616 98.4307 18.744C98.5507 18.872 98.6107 19.04 98.6107 19.248C98.6107 19.456 98.5507 19.624 98.4307 19.752C98.3107 19.88 98.1467 19.944 97.9387 19.944H96.9427V25.584C96.9427 25.816 96.8587 25.996 96.6907 26.124C96.5227 26.252 96.3387 26.316 96.1387 26.316C95.9387 26.316 95.7547 26.252 95.5867 26.124C95.4187 25.996 95.3347 25.816 95.3347 25.584V15.108ZM107.406 15.108C107.406 14.876 107.49 14.696 107.658 14.568C107.826 14.44 108.01 14.376 108.21 14.376C108.41 14.376 108.594 14.44 108.762 14.568C108.93 14.696 109.014 14.876 109.014 15.108V25.584C109.014 25.816 108.93 25.996 108.762 26.124C108.594 26.252 108.41 26.316 108.21 26.316C108.01 26.316 107.826 26.252 107.658 26.124C107.49 25.996 107.406 25.816 107.406 25.584V15.108ZM99.6422 16.008C99.6422 15.8 99.6982 15.632 99.8102 15.504C99.9302 15.376 100.094 15.312 100.302 15.312H105.03C105.246 15.312 105.43 15.376 105.582 15.504C105.734 15.632 105.81 15.804 105.81 16.02C105.81 16.612 105.722 17.248 105.546 17.928C105.282 19 104.774 19.968 104.022 20.832C103.27 21.688 102.234 22.432 100.914 23.064C100.754 23.136 100.614 23.172 100.494 23.172C100.278 23.172 100.09 23.096 99.9302 22.944C99.7782 22.792 99.7022 22.612 99.7022 22.404C99.7022 22.132 99.8262 21.936 100.074 21.816C101.186 21.304 102.066 20.684 102.714 19.956C103.362 19.228 103.798 18.424 104.022 17.544C104.102 17.184 104.15 16.904 104.166 16.704H100.302C100.094 16.704 99.9302 16.64 99.8102 16.512C99.6982 16.384 99.6422 16.216 99.6422 16.008ZM112.326 23.52C112.15 23.632 111.962 23.688 111.762 23.688C111.49 23.688 111.29 23.592 111.162 23.4C111.05 23.24 110.994 23.092 110.994 22.956C110.994 22.724 111.13 22.52 111.402 22.344L114.738 20.448L111.414 18.552C111.142 18.376 111.006 18.172 111.006 17.94C111.006 17.804 111.062 17.656 111.174 17.496C111.302 17.304 111.502 17.208 111.774 17.208C111.974 17.208 112.162 17.264 112.338 17.376L116.37 19.836C116.69 20.036 116.85 20.236 116.85 20.436C116.85 20.652 116.686 20.86 116.358 21.06L112.326 23.52Z" fill="#F2F2F2"/>
</svg>
