<svg width="74" height="39" viewBox="0 0 74 39" fill="none" xmlns="http://www.w3.org/2000/svg">
<path d="M0 15C0 6.71573 6.71573 0 15 0H59C67.2843 0 74 6.71573 74 15V24C74 32.2843 67.2843 39 59 39H15C6.71573 39 0 32.2843 0 24V15Z" fill="#75C382"/>
<path d="M21.7475 15.108C21.7475 14.972 21.7875 14.868 21.8675 14.796C21.9555 14.724 22.0595 14.688 22.1795 14.688C22.2995 14.688 22.3995 14.724 22.4795 14.796C22.5675 14.868 22.6115 14.972 22.6115 15.108V25.584C22.6115 25.72 22.5675 25.824 22.4795 25.896C22.3995 25.968 22.2995 26.004 22.1795 26.004C22.0595 26.004 21.9555 25.968 21.8675 25.896C21.7875 25.824 21.7475 25.72 21.7475 25.584V15.108ZM13.8275 22.416C13.8275 22.28 13.8835 22.164 13.9955 22.068C14.5235 21.684 14.9875 21.212 15.3875 20.652C15.7875 20.084 16.0755 19.508 16.2515 18.924C16.4275 18.356 16.5155 17.588 16.5155 16.62V16.416C15.7635 16.392 15.0235 16.328 14.2955 16.224C14.0635 16.176 13.9475 16.056 13.9475 15.864C13.9475 15.736 13.9875 15.64 14.0675 15.576C14.1475 15.504 14.2555 15.476 14.3915 15.492C15.2315 15.612 16.0715 15.672 16.9115 15.672C17.7675 15.672 18.6155 15.612 19.4555 15.492C19.5915 15.476 19.6995 15.504 19.7795 15.576C19.8595 15.64 19.8995 15.736 19.8995 15.864C19.8995 16.056 19.7835 16.176 19.5515 16.224C18.8155 16.336 18.0835 16.396 17.3555 16.404V16.62C17.3555 17.548 17.4355 18.308 17.5955 18.9C17.7635 19.524 18.0515 20.1 18.4595 20.628C18.8675 21.156 19.3395 21.596 19.8755 21.948C19.9315 21.988 19.9755 22.04 20.0075 22.104C20.0395 22.168 20.0555 22.228 20.0555 22.284C20.0555 22.396 20.0115 22.496 19.9235 22.584C19.8435 22.664 19.7475 22.704 19.6355 22.704C19.5795 22.704 19.4875 22.672 19.3595 22.608C18.8075 22.264 18.3155 21.804 17.8835 21.228C17.4595 20.644 17.1435 20.024 16.9355 19.368C16.7195 20.016 16.3995 20.64 15.9755 21.24C15.5595 21.84 15.0995 22.324 14.5955 22.692C14.4755 22.788 14.3595 22.836 14.2475 22.836C14.1275 22.836 14.0275 22.796 13.9475 22.716C13.8675 22.628 13.8275 22.528 13.8275 22.416ZM27.5698 22.608C27.4258 22.608 27.3178 22.572 27.2458 22.5C27.1738 22.428 27.1378 22.34 27.1378 22.236C27.1378 22.124 27.1738 22.036 27.2458 21.972C27.3178 21.9 27.4258 21.864 27.5698 21.864H33.4858C33.8378 21.864 34.0138 22.012 34.0138 22.308V25.548C34.0138 25.684 33.9698 25.788 33.8818 25.86C33.8018 25.932 33.7018 25.968 33.5818 25.968C33.4618 25.968 33.3578 25.932 33.2698 25.86C33.1898 25.788 33.1498 25.684 33.1498 25.548V22.608H27.5698ZM25.3258 17.772C25.3258 17.268 25.4418 16.816 25.6738 16.416C25.9058 16.008 26.2338 15.692 26.6578 15.468C27.0898 15.236 27.5898 15.12 28.1578 15.12C28.6858 15.12 29.1538 15.22 29.5618 15.42C29.9698 15.62 30.2978 15.9 30.5458 16.26H33.1498V15.108C33.1498 14.972 33.1898 14.868 33.2698 14.796C33.3578 14.724 33.4618 14.688 33.5818 14.688C33.7018 14.688 33.8018 14.724 33.8818 14.796C33.9698 14.868 34.0138 14.972 34.0138 15.108V20.544C34.0138 20.68 33.9698 20.784 33.8818 20.856C33.8018 20.928 33.7018 20.964 33.5818 20.964C33.4618 20.964 33.3578 20.928 33.2698 20.856C33.1898 20.784 33.1498 20.68 33.1498 20.544V19.188H30.6178C30.3778 19.572 30.0458 19.876 29.6218 20.1C29.1978 20.316 28.7098 20.424 28.1578 20.424C27.5898 20.424 27.0898 20.312 26.6578 20.088C26.2338 19.856 25.9058 19.54 25.6738 19.14C25.4418 18.74 25.3258 18.284 25.3258 17.772ZM26.1658 17.772C26.1658 18.132 26.2498 18.46 26.4178 18.756C26.5858 19.044 26.8218 19.272 27.1258 19.44C27.4298 19.608 27.7738 19.692 28.1578 19.692C28.5418 19.692 28.8858 19.608 29.1898 19.44C29.4938 19.272 29.7298 19.044 29.8978 18.756C30.0658 18.46 30.1498 18.132 30.1498 17.772C30.1498 17.412 30.0658 17.088 29.8978 16.8C29.7298 16.504 29.4938 16.272 29.1898 16.104C28.8858 15.936 28.5418 15.852 28.1578 15.852C27.7738 15.852 27.4298 15.936 27.1258 16.104C26.8218 16.272 26.5858 16.504 26.4178 16.8C26.2498 17.088 26.1658 17.412 26.1658 17.772ZM30.8938 17.004C30.9578 17.22 30.9898 17.476 30.9898 17.772C30.9898 17.988 30.9658 18.212 30.9178 18.444H33.1498V17.004H30.8938ZM47.3998 15.108C47.3998 14.972 47.4398 14.868 47.5198 14.796C47.6078 14.724 47.7118 14.688 47.8318 14.688C47.9518 14.688 48.0518 14.724 48.1318 14.796C48.2198 14.868 48.2638 14.972 48.2638 15.108V25.584C48.2638 25.72 48.2198 25.824 48.1318 25.896C48.0518 25.968 47.9518 26.004 47.8318 26.004C47.7118 26.004 47.6078 25.968 47.5198 25.896C47.4398 25.824 47.3998 25.72 47.3998 25.584V15.108ZM39.5758 19.128C39.5758 17.912 39.8278 16.98 40.3318 16.332C40.8438 15.684 41.5398 15.36 42.4198 15.36C43.3078 15.36 44.0118 15.688 44.5318 16.344C45.0518 16.992 45.3118 17.92 45.3118 19.128C45.3118 20.336 45.0518 21.268 44.5318 21.924C44.0118 22.572 43.3078 22.896 42.4198 22.896C41.5398 22.896 40.8438 22.572 40.3318 21.924C39.8278 21.276 39.5758 20.344 39.5758 19.128ZM40.4398 19.128C40.4398 19.744 40.5238 20.28 40.6918 20.736C40.8598 21.192 41.0958 21.544 41.3998 21.792C41.7038 22.032 42.0478 22.152 42.4318 22.152C42.8238 22.152 43.1718 22.032 43.4758 21.792C43.7878 21.544 44.0278 21.192 44.1958 20.736C44.3638 20.28 44.4478 19.744 44.4478 19.128C44.4478 18.52 44.3598 17.988 44.1838 17.532C44.0158 17.068 43.7798 16.712 43.4758 16.464C43.1718 16.216 42.8238 16.092 42.4318 16.092C42.0478 16.092 41.7038 16.216 41.3998 16.464C41.0958 16.712 40.8598 17.068 40.6918 17.532C40.5238 17.988 40.4398 18.52 40.4398 19.128ZM60.2542 20.676C60.3902 20.676 60.4942 20.712 60.5662 20.784C60.6462 20.856 60.6862 20.944 60.6862 21.048C60.6862 21.144 60.6462 21.232 60.5662 21.312C60.4942 21.384 60.3902 21.42 60.2542 21.42H50.7982C50.6622 21.42 50.5542 21.384 50.4742 21.312C50.4022 21.232 50.3662 21.144 50.3662 21.048C50.3662 20.944 50.4022 20.856 50.4742 20.784C50.5542 20.712 50.6622 20.676 50.7982 20.676H60.2542ZM51.9982 23.004C51.9982 22.708 52.1742 22.56 52.5262 22.56H58.5262C58.8782 22.56 59.0542 22.708 59.0542 23.004V25.452C59.0542 25.748 58.8782 25.896 58.5262 25.896H52.5262C52.1742 25.896 51.9982 25.748 51.9982 25.452V23.004ZM52.0462 17.412C52.0462 17.116 52.2222 16.968 52.5742 16.968H58.1062V15.804H52.3462C52.2102 15.804 52.1022 15.768 52.0222 15.696C51.9502 15.624 51.9142 15.54 51.9142 15.444C51.9142 15.348 51.9502 15.264 52.0222 15.192C52.1022 15.12 52.2102 15.084 52.3462 15.084H58.4422C58.7942 15.084 58.9702 15.232 58.9702 15.528V17.28C58.9702 17.384 58.9342 17.472 58.8622 17.544C58.7902 17.608 58.6822 17.64 58.5382 17.64H52.9102V18.432C52.9102 18.552 52.9302 18.636 52.9702 18.684C53.0102 18.724 53.0902 18.756 53.2102 18.78C53.7542 18.892 54.5222 18.948 55.5142 18.948C56.0982 18.948 56.6902 18.924 57.2902 18.876C57.8902 18.828 58.4342 18.756 58.9222 18.66C58.9462 18.652 58.9822 18.648 59.0302 18.648C59.1422 18.648 59.2302 18.684 59.2942 18.756C59.3662 18.828 59.4022 18.912 59.4022 19.008C59.4022 19.088 59.3742 19.16 59.3182 19.224C59.2622 19.288 59.1822 19.332 59.0782 19.356C58.1342 19.564 56.9462 19.668 55.5142 19.668C54.2822 19.668 53.3182 19.576 52.6222 19.392C52.4062 19.336 52.2542 19.248 52.1662 19.128C52.0862 19.008 52.0462 18.82 52.0462 18.564V17.412ZM58.1902 23.28H52.8622V25.176H58.1902V23.28Z" fill="#F2F2F2"/>
</svg>
