<svg width="74" height="39" viewBox="0 0 74 39" fill="none" xmlns="http://www.w3.org/2000/svg">
<path d="M0 15C0 6.71573 6.71573 0 15 0H59C67.2843 0 74 6.71573 74 15V24C74 32.2843 67.2843 39 59 39H15C6.71573 39 0 32.2843 0 24V15Z" fill="#75C382"/>
<path d="M23.5553 15.108C23.5553 14.972 23.5953 14.868 23.6753 14.796C23.7553 14.724 23.8553 14.688 23.9753 14.688C24.0953 14.688 24.1953 14.724 24.2753 14.796C24.3553 14.868 24.3953 14.972 24.3953 15.108V25.56C24.3953 25.696 24.3553 25.8 24.2753 25.872C24.1953 25.944 24.0953 25.98 23.9753 25.98C23.8553 25.98 23.7553 25.944 23.6753 25.872C23.5953 25.8 23.5553 25.696 23.5553 25.56V19.872H21.8873V25.344C21.8873 25.48 21.8473 25.584 21.7673 25.656C21.6873 25.728 21.5873 25.764 21.4673 25.764C21.3473 25.764 21.2473 25.728 21.1673 25.656C21.0873 25.584 21.0473 25.48 21.0473 25.344V15.3C21.0473 15.164 21.0873 15.06 21.1673 14.988C21.2473 14.916 21.3473 14.88 21.4673 14.88C21.5873 14.88 21.6873 14.916 21.7673 14.988C21.8473 15.06 21.8873 15.164 21.8873 15.3V19.104H23.5553V15.108ZM14.7233 16.74C14.7233 16.62 14.7673 16.524 14.8553 16.452C14.9513 16.372 15.0713 16.348 15.2153 16.38C15.8633 16.484 16.4873 16.54 17.0873 16.548V15.156C17.0873 15.028 17.1233 14.924 17.1953 14.844C17.2753 14.764 17.3713 14.724 17.4833 14.724C17.5953 14.724 17.6873 14.764 17.7593 14.844C17.8393 14.924 17.8793 15.028 17.8793 15.156V16.548C18.5353 16.54 19.1673 16.48 19.7753 16.368C19.7993 16.36 19.8313 16.356 19.8713 16.356C19.9913 16.356 20.0833 16.392 20.1473 16.464C20.2193 16.536 20.2553 16.624 20.2553 16.728C20.2553 16.912 20.1433 17.032 19.9193 17.088C19.2233 17.232 18.4113 17.304 17.4833 17.304C16.4353 17.304 15.6313 17.24 15.0713 17.112C14.8393 17.056 14.7233 16.932 14.7233 16.74ZM15.3233 20.652C15.3233 19.94 15.5193 19.372 15.9113 18.948C16.3113 18.524 16.8353 18.312 17.4833 18.312C18.1313 18.312 18.6513 18.524 19.0433 18.948C19.4433 19.372 19.6433 19.94 19.6433 20.652C19.6433 21.1 19.5513 21.504 19.3673 21.864C19.1913 22.216 18.9393 22.492 18.6113 22.692C18.2833 22.892 17.9073 22.992 17.4833 22.992C17.0593 22.992 16.6833 22.892 16.3553 22.692C16.0273 22.492 15.7713 22.216 15.5873 21.864C15.4113 21.504 15.3233 21.1 15.3233 20.652ZM16.1273 20.652C16.1273 21.124 16.2513 21.512 16.4993 21.816C16.7473 22.12 17.0753 22.272 17.4833 22.272C17.8913 22.272 18.2193 22.12 18.4673 21.816C18.7153 21.512 18.8393 21.124 18.8393 20.652C18.8393 20.156 18.7153 19.76 18.4673 19.464C18.2193 19.168 17.8913 19.02 17.4833 19.02C17.0753 19.02 16.7473 19.168 16.4993 19.464C16.2513 19.76 16.1273 20.156 16.1273 20.652ZM27.4577 22.644C27.3377 22.74 27.2217 22.788 27.1097 22.788C26.9897 22.788 26.8897 22.748 26.8097 22.668C26.7297 22.58 26.6897 22.48 26.6897 22.368C26.6897 22.224 26.7457 22.108 26.8577 22.02C27.4017 21.612 27.8657 21.124 28.2497 20.556C28.6417 19.98 28.9297 19.396 29.1137 18.804C29.2097 18.484 29.2777 18.152 29.3177 17.808C29.3577 17.456 29.3777 17.044 29.3777 16.572V15.66C29.3777 15.524 29.4177 15.42 29.4977 15.348C29.5777 15.276 29.6777 15.24 29.7977 15.24C29.9177 15.24 30.0177 15.276 30.0977 15.348C30.1777 15.42 30.2177 15.524 30.2177 15.66V16.572C30.2177 17.452 30.2977 18.188 30.4577 18.78C30.6257 19.404 30.9057 19.988 31.2977 20.532C31.6977 21.068 32.1777 21.54 32.7377 21.948C32.8577 22.044 32.9177 22.156 32.9177 22.284C32.9177 22.396 32.8737 22.496 32.7857 22.584C32.7057 22.664 32.6097 22.704 32.4977 22.704C32.4257 22.704 32.3337 22.676 32.2217 22.62C31.6537 22.212 31.1617 21.716 30.7457 21.132C30.3297 20.548 30.0137 19.92 29.7977 19.248C29.5657 19.92 29.2457 20.556 28.8377 21.156C28.4377 21.748 27.9777 22.244 27.4577 22.644ZM34.5737 15.108C34.5737 14.972 34.6137 14.868 34.6937 14.796C34.7817 14.724 34.8857 14.688 35.0057 14.688C35.1257 14.688 35.2257 14.724 35.3057 14.796C35.3937 14.868 35.4377 14.972 35.4377 15.108V25.584C35.4377 25.72 35.3937 25.824 35.3057 25.896C35.2257 25.968 35.1257 26.004 35.0057 26.004C34.8857 26.004 34.7817 25.968 34.6937 25.896C34.6137 25.824 34.5737 25.72 34.5737 25.584V15.108ZM46.36 15.108C46.36 14.972 46.4 14.868 46.48 14.796C46.568 14.716 46.668 14.676 46.78 14.676C46.9 14.676 47 14.716 47.08 14.796C47.16 14.868 47.2 14.972 47.2 15.108V25.56C47.2 25.696 47.16 25.8 47.08 25.872C47 25.952 46.9 25.992 46.78 25.992C46.668 25.992 46.568 25.952 46.48 25.872C46.4 25.8 46.36 25.696 46.36 25.56V19.272H44.692V25.344C44.692 25.48 44.652 25.584 44.572 25.656C44.492 25.736 44.392 25.776 44.272 25.776C44.16 25.776 44.06 25.736 43.972 25.656C43.892 25.584 43.852 25.48 43.852 25.344V15.3C43.852 15.164 43.892 15.06 43.972 14.988C44.06 14.908 44.16 14.868 44.272 14.868C44.392 14.868 44.492 14.908 44.572 14.988C44.652 15.06 44.692 15.164 44.692 15.3V18.504H46.36V15.108ZM38.128 15.948C38.128 15.652 38.264 15.504 38.536 15.504H41.968C42.088 15.504 42.18 15.544 42.244 15.624C42.316 15.696 42.352 15.78 42.352 15.876C42.352 15.98 42.32 16.072 42.256 16.152C42.192 16.224 42.096 16.26 41.968 16.26H38.944V18.528H41.644C41.78 18.528 41.884 18.564 41.956 18.636C42.036 18.708 42.076 18.792 42.076 18.888C42.076 18.984 42.036 19.068 41.956 19.14C41.884 19.212 41.78 19.248 41.644 19.248H38.944V21.576C38.944 21.688 38.956 21.768 38.98 21.816C39.012 21.856 39.072 21.892 39.16 21.924C39.448 22.02 39.848 22.068 40.36 22.068C41.032 22.068 41.672 21.972 42.28 21.78C42.36 21.764 42.412 21.756 42.436 21.756C42.548 21.756 42.64 21.792 42.712 21.864C42.784 21.936 42.82 22.024 42.82 22.128C42.82 22.2 42.792 22.272 42.736 22.344C42.688 22.408 42.616 22.456 42.52 22.488C41.848 22.704 41.128 22.812 40.36 22.812C39.672 22.812 39.092 22.728 38.62 22.56C38.444 22.496 38.316 22.408 38.236 22.296C38.164 22.184 38.128 22.012 38.128 21.78V15.948ZM54.1023 24.636C52.3823 24.636 50.7863 24.436 49.3143 24.036C49.2103 24.012 49.1303 23.968 49.0743 23.904C49.0263 23.84 49.0023 23.768 49.0023 23.688C49.0023 23.576 49.0383 23.484 49.1103 23.412C49.1903 23.332 49.2943 23.292 49.4223 23.292C49.4783 23.292 49.5183 23.296 49.5423 23.304C51.0303 23.68 52.5503 23.868 54.1023 23.868C55.6543 23.868 57.1743 23.68 58.6623 23.304C58.6863 23.296 58.7263 23.292 58.7823 23.292C58.9103 23.292 59.0103 23.332 59.0823 23.412C59.1623 23.492 59.2023 23.584 59.2023 23.688C59.2023 23.768 59.1743 23.84 59.1183 23.904C59.0703 23.968 58.9943 24.012 58.8903 24.036C57.4183 24.436 55.8223 24.636 54.1023 24.636ZM50.4903 15.96C50.4903 15.848 50.5263 15.756 50.5983 15.684C50.6703 15.612 50.7703 15.576 50.8983 15.576H57.1263C57.2623 15.576 57.3663 15.616 57.4383 15.696C57.5183 15.776 57.5583 15.876 57.5583 15.996C57.5583 16.124 57.5623 16.22 57.5703 16.284V16.548C57.5703 17.42 57.5183 18.22 57.4143 18.948C57.3183 19.668 57.1623 20.436 56.9463 21.252C56.9223 21.348 56.8743 21.42 56.8023 21.468C56.7383 21.516 56.6623 21.54 56.5743 21.54C56.4463 21.54 56.3343 21.504 56.2383 21.432C56.1423 21.352 56.0943 21.252 56.0943 21.132C56.0943 21.108 56.1023 21.064 56.1183 21C56.5023 19.584 56.6943 18.156 56.6943 16.716V16.344H50.8983C50.7703 16.344 50.6703 16.308 50.5983 16.236C50.5263 16.164 50.4903 16.072 50.4903 15.96Z" fill="#F2F2F2"/>
</svg>
