<svg width="116" height="39" viewBox="0 0 116 39" fill="none" xmlns="http://www.w3.org/2000/svg">
<rect width="116" height="39" rx="15" fill="#75C382"/>
<path d="M38.1921 15.108C38.1921 14.876 38.2761 14.696 38.4441 14.568C38.6121 14.44 38.7961 14.376 38.9961 14.376C39.1961 14.376 39.3801 14.44 39.5481 14.568C39.7161 14.696 39.8001 14.876 39.8001 15.108V18.192H40.7961C41.0041 18.192 41.1681 18.256 41.2881 18.384C41.4081 18.512 41.4681 18.68 41.4681 18.888C41.4681 19.096 41.4081 19.264 41.2881 19.392C41.1681 19.52 41.0041 19.584 40.7961 19.584H39.8001V25.584C39.8001 25.816 39.7161 25.996 39.5481 26.124C39.3801 26.252 39.1961 26.316 38.9961 26.316C38.7961 26.316 38.6121 26.252 38.4441 26.124C38.2761 25.996 38.1921 25.816 38.1921 25.584V15.108ZM30.4521 22.488C30.4521 22.264 30.5561 22.068 30.7641 21.9C31.2521 21.508 31.6721 21.044 32.0241 20.508C32.3841 19.964 32.6521 19.408 32.8281 18.84C32.9241 18.536 32.9881 18.22 33.0201 17.892C33.0601 17.556 33.0801 17.156 33.0801 16.692V15.78C33.0801 15.548 33.1641 15.368 33.3321 15.24C33.5001 15.112 33.6801 15.048 33.8721 15.048C34.0721 15.048 34.2521 15.112 34.4121 15.24C34.5801 15.36 34.6641 15.54 34.6641 15.78V16.692C34.6641 17.532 34.7401 18.24 34.8921 18.816C35.0521 19.416 35.3121 19.968 35.6721 20.472C36.0401 20.976 36.4761 21.408 36.9801 21.768C37.2041 21.944 37.3161 22.14 37.3161 22.356C37.3161 22.556 37.2441 22.732 37.1001 22.884C36.9561 23.028 36.7801 23.1 36.5721 23.1C36.3561 23.1 36.1601 23.04 35.9841 22.92C35.5281 22.6 35.1201 22.22 34.7601 21.78C34.4001 21.332 34.1001 20.852 33.8601 20.34C33.6041 20.868 33.3041 21.36 32.9601 21.816C32.6161 22.272 32.2361 22.668 31.8201 23.004C31.6361 23.148 31.4441 23.22 31.2441 23.22C31.0361 23.22 30.8521 23.152 30.6921 23.016C30.5321 22.872 30.4521 22.696 30.4521 22.488ZM50.2636 15.108C50.2636 14.876 50.3476 14.696 50.5156 14.568C50.6836 14.44 50.8676 14.376 51.0676 14.376C51.2676 14.376 51.4516 14.44 51.6196 14.568C51.7876 14.696 51.8716 14.876 51.8716 15.108V21.984C51.8716 22.216 51.7876 22.396 51.6196 22.524C51.4516 22.652 51.2676 22.716 51.0676 22.716C50.8676 22.716 50.6836 22.652 50.5156 22.524C50.3476 22.396 50.2636 22.216 50.2636 21.984V15.108ZM42.1756 20.388C42.1756 20.092 42.3276 19.868 42.6316 19.716C43.3516 19.356 43.8956 18.94 44.2636 18.468C44.6396 17.988 44.8276 17.432 44.8276 16.8V16.56C44.0596 16.536 43.4516 16.472 43.0036 16.368C42.7876 16.32 42.6236 16.236 42.5116 16.116C42.3996 15.988 42.3436 15.844 42.3436 15.684C42.3436 15.452 42.4276 15.28 42.5956 15.168C42.7636 15.056 42.9636 15.012 43.1956 15.036C44.0116 15.156 44.8276 15.216 45.6436 15.216C46.4596 15.216 47.2756 15.156 48.0916 15.036C48.3236 15.012 48.5236 15.056 48.6916 15.168C48.8596 15.28 48.9436 15.452 48.9436 15.684C48.9436 15.844 48.8876 15.988 48.7756 16.116C48.6636 16.236 48.4996 16.32 48.2836 16.368C47.8356 16.472 47.2196 16.536 46.4356 16.56V16.764C46.4356 17.428 46.5996 17.972 46.9276 18.396C47.2636 18.812 47.8116 19.228 48.5716 19.644C48.8836 19.812 49.0396 20.028 49.0396 20.292C49.0396 20.508 48.9636 20.684 48.8116 20.82C48.6676 20.948 48.4836 21.012 48.2596 21.012C48.0756 21.012 47.9116 20.976 47.7676 20.904C47.3516 20.696 46.9436 20.428 46.5436 20.1C46.1436 19.772 45.8396 19.416 45.6316 19.032C45.4156 19.416 45.1116 19.772 44.7196 20.1C44.3356 20.42 43.9156 20.7 43.4596 20.94C43.2996 21.02 43.1156 21.06 42.9076 21.06C42.7156 21.06 42.5436 20.992 42.3916 20.856C42.2476 20.72 42.1756 20.564 42.1756 20.388ZM44.1076 22.392C44.1076 22.16 44.1916 21.98 44.3596 21.852C44.5276 21.724 44.7116 21.66 44.9116 21.66C45.1116 21.66 45.2956 21.724 45.4636 21.852C45.6316 21.98 45.7156 22.16 45.7156 22.392V24.504C45.7156 24.56 45.7316 24.604 45.7636 24.636C45.7956 24.668 45.8396 24.684 45.8956 24.684H51.4516C51.6596 24.684 51.8236 24.748 51.9436 24.876C52.0636 25.004 52.1236 25.172 52.1236 25.38C52.1236 25.588 52.0636 25.756 51.9436 25.884C51.8236 26.012 51.6596 26.076 51.4516 26.076H45.1396C44.8436 26.076 44.5956 25.984 44.3956 25.8C44.2036 25.616 44.1076 25.384 44.1076 25.104V22.392ZM57.6948 15.36C58.1988 15.448 58.7668 15.512 59.3988 15.552V14.892C59.3988 14.676 59.4788 14.5 59.6388 14.364C59.7988 14.22 59.9868 14.148 60.2028 14.148C60.4188 14.148 60.6068 14.22 60.7668 14.364C60.9268 14.5 61.0068 14.676 61.0068 14.892V15.552C61.4148 15.528 61.9188 15.468 62.5188 15.372C62.5508 15.364 62.5908 15.36 62.6388 15.36C62.8308 15.36 62.9948 15.42 63.1308 15.54C63.2668 15.66 63.3348 15.828 63.3348 16.044C63.3348 16.22 63.2828 16.368 63.1788 16.488C63.0748 16.6 62.9308 16.676 62.7468 16.716C62.1548 16.82 61.5788 16.888 61.0188 16.92C61.0188 17.152 61.0348 17.332 61.0668 17.46C61.1468 17.844 61.3628 18.208 61.7148 18.552C62.0668 18.888 62.5308 19.184 63.1068 19.44C63.4508 19.6 63.6228 19.82 63.6228 20.1C63.6228 20.324 63.5468 20.508 63.3948 20.652C63.2508 20.796 63.0868 20.868 62.9028 20.868C62.7588 20.868 62.5948 20.832 62.4108 20.76C62.0188 20.616 61.6148 20.384 61.1988 20.064C60.7908 19.736 60.4628 19.388 60.2148 19.02C59.9588 19.404 59.6308 19.76 59.2308 20.088C58.8388 20.416 58.4108 20.68 57.9468 20.88C57.7548 20.96 57.5868 21 57.4428 21C57.2428 21 57.0628 20.928 56.9028 20.784C56.7428 20.64 56.6628 20.456 56.6628 20.232C56.6628 20.12 56.7068 20.004 56.7948 19.884C56.8828 19.764 56.9988 19.672 57.1428 19.608C57.7428 19.352 58.2268 19.044 58.5948 18.684C58.9708 18.316 59.2108 17.924 59.3148 17.508C59.3468 17.38 59.3708 17.184 59.3868 16.92C58.6908 16.896 58.0508 16.828 57.4668 16.716C57.2828 16.676 57.1388 16.6 57.0348 16.488C56.9308 16.368 56.8788 16.22 56.8788 16.044C56.8788 15.804 56.9588 15.624 57.1188 15.504C57.2868 15.376 57.4788 15.328 57.6948 15.36ZM58.4748 22.548C58.4748 22.316 58.5588 22.132 58.7268 21.996C58.8948 21.86 59.1108 21.792 59.3748 21.792H65.3388C65.6028 21.792 65.8188 21.86 65.9868 21.996C66.1548 22.132 66.2388 22.316 66.2388 22.548V25.452C66.2388 25.684 66.1548 25.868 65.9868 26.004C65.8188 26.14 65.6028 26.208 65.3388 26.208H59.3748C59.1108 26.208 58.8948 26.14 58.7268 26.004C58.5588 25.868 58.4748 25.684 58.4748 25.452V22.548ZM64.6308 23.16H60.0828V24.84H64.6308V23.16ZM62.7108 17.892C62.7108 17.684 62.7708 17.516 62.8908 17.388C63.0108 17.26 63.1748 17.196 63.3828 17.196H64.6308V15.108C64.6308 14.876 64.7148 14.696 64.8828 14.568C65.0508 14.44 65.2348 14.376 65.4348 14.376C65.6348 14.376 65.8188 14.44 65.9868 14.568C66.1548 14.696 66.2388 14.876 66.2388 15.108V20.616C66.2388 20.848 66.1548 21.028 65.9868 21.156C65.8188 21.284 65.6348 21.348 65.4348 21.348C65.2348 21.348 65.0508 21.284 64.8828 21.156C64.7148 21.028 64.6308 20.848 64.6308 20.616V18.588H63.3828C63.1668 18.588 62.9988 18.524 62.8788 18.396C62.7668 18.268 62.7108 18.1 62.7108 17.892ZM77.1583 18.72C77.1583 19 77.1143 19.216 77.0263 19.368C76.9463 19.512 76.7983 19.636 76.5823 19.74C76.3423 19.852 75.9103 19.952 75.2863 20.04C74.6623 20.128 73.9823 20.172 73.2463 20.172C72.5183 20.172 71.8423 20.132 71.2183 20.052C70.5943 19.964 70.1663 19.864 69.9343 19.752C69.7103 19.648 69.5543 19.52 69.4663 19.368C69.3783 19.216 69.3343 19 69.3343 18.72V15.516C69.3343 15.3 69.4103 15.132 69.5623 15.012C69.7223 14.892 69.9103 14.832 70.1263 14.832C70.3423 14.832 70.5263 14.892 70.6783 15.012C70.8383 15.132 70.9183 15.3 70.9183 15.516V16.272H75.5743V15.516C75.5743 15.3 75.6503 15.132 75.8023 15.012C75.9623 14.892 76.1503 14.832 76.3663 14.832C76.5823 14.832 76.7663 14.892 76.9183 15.012C77.0783 15.132 77.1583 15.3 77.1583 15.516V18.72ZM67.8703 21.444C67.8703 21.26 67.9343 21.1 68.0623 20.964C68.1903 20.82 68.3543 20.748 68.5543 20.748C68.6263 20.748 68.6983 20.76 68.7703 20.784C70.1223 21.136 71.6143 21.312 73.2463 21.312C74.8783 21.312 76.3703 21.136 77.7223 20.784C77.7703 20.768 77.8423 20.76 77.9383 20.76C78.1383 20.76 78.3023 20.828 78.4303 20.964C78.5583 21.1 78.6223 21.26 78.6223 21.444C78.6223 21.596 78.5743 21.736 78.4783 21.864C78.3823 21.992 78.2383 22.08 78.0463 22.128C76.8783 22.456 75.5463 22.644 74.0503 22.692V25.584C74.0503 25.808 73.9703 25.984 73.8103 26.112C73.6583 26.24 73.4703 26.304 73.2463 26.304C73.0303 26.304 72.8423 26.24 72.6823 26.112C72.5223 25.984 72.4423 25.808 72.4423 25.584V22.692C70.9463 22.644 69.6143 22.456 68.4463 22.128C68.2543 22.08 68.1103 21.992 68.0143 21.864C67.9183 21.736 67.8703 21.596 67.8703 21.444ZM70.9183 18.492C70.9183 18.54 70.9503 18.572 71.0143 18.588C71.1823 18.636 71.4823 18.684 71.9143 18.732C72.3463 18.78 72.7903 18.804 73.2463 18.804C73.7023 18.804 74.1463 18.78 74.5783 18.732C75.0103 18.684 75.3103 18.636 75.4783 18.588C75.5423 18.572 75.5743 18.532 75.5743 18.468V17.604H70.9183V18.492ZM80.7339 23.532C81.0139 23.532 81.2459 23.624 81.4299 23.808C81.6139 23.984 81.7059 24.208 81.7059 24.48C81.7059 24.76 81.6139 24.988 81.4299 25.164C81.2459 25.348 81.0139 25.44 80.7339 25.44C80.4539 25.44 80.2219 25.348 80.0379 25.164C79.8539 24.988 79.7619 24.76 79.7619 24.48C79.7619 24.208 79.8539 23.984 80.0379 23.808C80.2219 23.624 80.4539 23.532 80.7339 23.532ZM84.1909 23.532C84.4709 23.532 84.7029 23.624 84.8869 23.808C85.0709 23.984 85.1629 24.208 85.1629 24.48C85.1629 24.76 85.0709 24.988 84.8869 25.164C84.7029 25.348 84.4709 25.44 84.1909 25.44C83.9109 25.44 83.6789 25.348 83.4949 25.164C83.3109 24.988 83.2189 24.76 83.2189 24.48C83.2189 24.208 83.3109 23.984 83.4949 23.808C83.6789 23.624 83.9109 23.532 84.1909 23.532Z" fill="#F2F2F2"/>
</svg>
