<svg width="114" height="14" viewBox="0 0 114 14" fill="none" xmlns="http://www.w3.org/2000/svg">
<path d="M0.385188 11.68C1.15319 9.94133 1.85185 8.22933 2.48119 6.544C3.12119 4.848 3.69719 3.06133 4.20919 1.184C4.27319 0.949333 4.40652 0.773333 4.60919 0.655999C4.81185 0.538666 5.04119 0.48 5.29719 0.48C5.55319 0.48 5.78252 0.538666 5.98519 0.655999C6.18785 0.773333 6.32119 0.949333 6.38519 1.184C6.89719 3.06133 7.46785 4.848 8.09719 6.544C8.73719 8.22933 9.44119 9.94133 10.2092 11.68C10.2732 11.8507 10.3052 12.0053 10.3052 12.144C10.3052 12.496 10.0759 12.7733 9.61719 12.976C9.45719 13.04 9.30252 13.072 9.15319 13.072C8.95052 13.072 8.76385 13.0133 8.59319 12.896C8.43319 12.7893 8.30519 12.624 8.20919 12.4C7.83585 11.536 7.46785 10.624 7.10519 9.664H3.48919C3.12652 10.624 2.75852 11.536 2.38519 12.4C2.18252 12.848 1.87852 13.072 1.47319 13.072C1.32385 13.072 1.17452 13.04 1.02519 12.976C0.523854 12.8053 0.273188 12.528 0.273188 12.144C0.273188 11.9947 0.310521 11.84 0.385188 11.68ZM6.44919 7.84C6.00119 6.51733 5.61719 5.27467 5.29719 4.112C4.97719 5.27467 4.59319 6.51733 4.14519 7.84H6.44919ZM17.2166 11.136C17.9099 11.136 18.4379 11.0027 18.8006 10.736C19.1632 10.4693 19.3446 10.0267 19.3446 9.408C19.3446 8.75733 19.1472 8.29333 18.7526 8.016C18.3686 7.73867 17.8032 7.6 17.0566 7.6H14.4966V11.136H17.2166ZM12.3686 1.792C12.3686 1.39733 12.4966 1.08267 12.7526 0.848C13.0086 0.613333 13.3446 0.495999 13.7606 0.495999H16.7206C18.0539 0.495999 19.1046 0.805333 19.8726 1.424C20.6406 2.032 21.0246 2.90133 21.0246 4.032C21.0246 4.52267 20.9179 4.98133 20.7046 5.408C20.5019 5.83467 20.2032 6.20267 19.8086 6.512C20.3419 6.77867 20.7579 7.168 21.0566 7.68C21.3659 8.18133 21.5206 8.768 21.5206 9.44C21.5206 10.5813 21.1366 11.4613 20.3686 12.08C19.6006 12.6987 18.5499 13.008 17.2166 13.008H14.0326C13.4352 13.008 13.0086 12.8907 12.7526 12.656C12.4966 12.432 12.3686 12.0373 12.3686 11.472V1.792ZM16.5606 5.728C17.3392 5.728 17.9152 5.59467 18.2886 5.328C18.6619 5.06133 18.8486 4.61867 18.8486 4C18.8486 3.36 18.6779 2.928 18.3366 2.704C17.9952 2.48 17.4566 2.368 16.7206 2.368H14.4966V5.728H16.5606ZM32.4643 0.367999C32.7736 0.367999 33.0243 0.453333 33.2163 0.624C33.4083 0.783999 33.5043 1.03467 33.5043 1.376V12.08C33.5043 12.4107 33.403 12.6613 33.2003 12.832C33.0083 13.0027 32.7576 13.088 32.4483 13.088C32.139 13.088 31.883 13.0027 31.6803 12.832C31.4883 12.6613 31.3923 12.4107 31.3923 12.08V2.944L30.4643 3.488C30.2723 3.60533 30.0643 3.664 29.8403 3.664C29.4776 3.664 29.2056 3.50933 29.0243 3.2C28.9283 3.01867 28.8803 2.85333 28.8803 2.704C28.8803 2.384 29.0776 2.112 29.4723 1.888L31.4883 0.704C31.6803 0.597333 31.8456 0.517333 31.9843 0.464C32.1336 0.399999 32.2936 0.367999 32.4643 0.367999ZM42.4232 6.96C43.1272 6.43733 43.6445 5.936 43.9752 5.456C44.3165 4.96533 44.4872 4.43733 44.4872 3.872C44.4872 3.31733 44.3165 2.896 43.9752 2.608C43.6339 2.30933 43.2179 2.16 42.7272 2.16C42.3645 2.16 42.0445 2.25067 41.7672 2.432C41.5005 2.61333 41.2552 2.89067 41.0312 3.264C40.9245 3.456 40.7805 3.60533 40.5992 3.712C40.4285 3.81867 40.2419 3.872 40.0392 3.872C39.8579 3.872 39.6872 3.824 39.5272 3.728C39.3672 3.632 39.2392 3.49867 39.1432 3.328C39.0792 3.232 39.0472 3.09333 39.0472 2.912C39.0472 2.77333 39.0739 2.64 39.1272 2.512C39.3725 1.92533 39.8152 1.41867 40.4552 0.992C41.0952 0.565333 41.8739 0.351999 42.7912 0.351999C43.5272 0.351999 44.1832 0.506666 44.7592 0.815999C45.3459 1.11467 45.8045 1.536 46.1352 2.08C46.4659 2.61333 46.6312 3.21067 46.6312 3.872C46.6312 4.50133 46.5245 5.06667 46.3112 5.568C46.0979 6.05867 45.7779 6.528 45.3512 6.976C44.9245 7.424 44.3432 7.936 43.6072 8.512C43.1059 8.896 42.6365 9.33867 42.1992 9.84C41.7725 10.3307 41.4472 10.768 41.2232 11.152H46.0872C46.3432 11.152 46.5619 11.2373 46.7432 11.408C46.9245 11.568 47.0152 11.792 47.0152 12.08C47.0152 12.3787 46.9192 12.608 46.7272 12.768C46.5352 12.928 46.3219 13.008 46.0872 13.008H39.7832C39.4632 13.008 39.2019 12.9173 38.9992 12.736C38.7965 12.5653 38.6952 12.2987 38.6952 11.936C38.6952 11.264 39.0792 10.448 39.8472 9.488C40.6259 8.51733 41.4845 7.67467 42.4232 6.96ZM52.9741 5.664C54.6061 5.664 55.4221 5.088 55.4221 3.936C55.4221 3.36 55.2514 2.92267 54.9101 2.624C54.5794 2.32533 54.1581 2.176 53.6461 2.176C53.2941 2.176 52.9741 2.25067 52.6861 2.4C52.3981 2.54933 52.1261 2.784 51.8701 3.104C51.5927 3.44533 51.2727 3.616 50.9101 3.616C50.7501 3.616 50.5847 3.57333 50.4141 3.488C50.0941 3.296 49.9341 3.03467 49.9341 2.704C49.9341 2.53333 49.9874 2.34667 50.0941 2.144C50.4141 1.58933 50.8834 1.15733 51.5021 0.848C52.1314 0.527999 52.8141 0.367999 53.5501 0.367999C54.7767 0.367999 55.7527 0.687999 56.4781 1.328C57.2141 1.95733 57.5821 2.82133 57.5821 3.92C57.5821 4.44267 57.4487 4.944 57.1821 5.424C56.9261 5.89333 56.5847 6.24 56.1581 6.464C56.7554 6.73067 57.2247 7.13067 57.5661 7.664C57.9074 8.19733 58.0781 8.79467 58.0781 9.456C58.0781 10.1707 57.8967 10.8053 57.5341 11.36C57.1714 11.904 56.6541 12.3307 55.9821 12.64C55.3207 12.9493 54.5527 13.104 53.6781 13.104C53.0061 13.104 52.3394 12.992 51.6781 12.768C51.0274 12.5547 50.4781 12.2507 50.0301 11.856C49.7527 11.6213 49.6141 11.36 49.6141 11.072C49.6141 10.8693 49.6941 10.672 49.8541 10.48C50.0461 10.256 50.2754 10.144 50.5421 10.144C50.8087 10.144 51.0701 10.2453 51.3261 10.448C51.6887 10.7253 52.0674 10.9387 52.4621 11.088C52.8567 11.2267 53.2887 11.296 53.7581 11.296C54.4194 11.296 54.9421 11.1413 55.3261 10.832C55.7207 10.512 55.9181 10.0427 55.9181 9.424C55.9181 8.72 55.7154 8.22933 55.3101 7.952C54.9047 7.664 54.2914 7.52 53.4701 7.52H52.2061C51.8754 7.52 51.6141 7.44533 51.4221 7.296C51.2301 7.136 51.1341 6.90667 51.1341 6.608C51.1341 6.29867 51.2354 6.064 51.4381 5.904C51.6407 5.744 51.8967 5.664 52.2061 5.664H52.9741ZM69.9569 9.072C69.9569 9.37067 69.8609 9.6 69.6689 9.76C69.4876 9.92 69.2743 10 69.0289 10H68.0049V12.08C68.0049 12.4107 67.9036 12.6613 67.7009 12.832C67.5089 13.0027 67.2583 13.088 66.9489 13.088C66.6396 13.088 66.3836 13.0027 66.1809 12.832C65.9889 12.6613 65.8929 12.4107 65.8929 12.08V10H61.3649C61.0556 10 60.8049 9.90933 60.6129 9.728C60.4209 9.54667 60.3249 9.32267 60.3249 9.056C60.3249 8.78933 60.4156 8.528 60.5969 8.272L65.6369 1.056C65.9356 0.629333 66.3303 0.415999 66.8209 0.415999H66.8369C67.1676 0.415999 67.4449 0.506666 67.6689 0.688C67.8929 0.869333 68.0049 1.11467 68.0049 1.424V8.144H69.0289C69.2956 8.144 69.5143 8.224 69.6849 8.384C69.8663 8.544 69.9569 8.77333 69.9569 9.072ZM65.8929 4.064L63.1729 8.144H65.8929V4.064ZM72.4598 11.936C72.2251 11.7013 72.1078 11.4507 72.1078 11.184C72.1078 10.96 72.1878 10.7627 72.3478 10.592C72.4971 10.4 72.7211 10.304 73.0198 10.304C73.3185 10.304 73.5745 10.4053 73.7878 10.608C74.1078 10.864 74.4118 11.0507 74.6998 11.168C74.9878 11.2747 75.3131 11.328 75.6758 11.328C76.3691 11.328 76.9291 11.12 77.3558 10.704C77.7825 10.288 77.9958 9.70133 77.9958 8.944C77.9958 8.18667 77.7825 7.62133 77.3558 7.248C76.9291 6.87467 76.4011 6.688 75.7718 6.688C75.2918 6.688 74.7425 6.81067 74.1238 7.056C73.7825 7.19467 73.5051 7.264 73.2918 7.264C73.1638 7.264 73.0251 7.232 72.8758 7.168C72.7158 7.09333 72.6091 6.98667 72.5558 6.848C72.5025 6.69867 72.4865 6.50133 72.5078 6.256L72.7318 1.824C72.7531 1.44 72.8811 1.13067 73.1158 0.896C73.3611 0.650667 73.6918 0.528 74.1078 0.528H78.9878C79.2225 0.528 79.4358 0.613333 79.6278 0.783999C79.8198 0.943999 79.9158 1.17333 79.9158 1.472C79.9158 1.74933 79.8251 1.97333 79.6438 2.144C79.4625 2.304 79.2438 2.384 78.9878 2.384H74.8278L74.7158 5.056C75.1211 4.93867 75.5745 4.88 76.0758 4.88C76.8865 4.88 77.5958 5.056 78.2038 5.408C78.8225 5.76 79.2971 6.24533 79.6278 6.864C79.9585 7.48267 80.1238 8.18133 80.1238 8.96C80.1238 9.74933 79.9478 10.4587 79.5958 11.088C79.2545 11.7067 78.7531 12.1973 78.0918 12.56C77.4411 12.9227 76.6625 13.104 75.7558 13.104C75.0411 13.104 74.4011 12.9973 73.8358 12.784C73.2705 12.5707 72.8118 12.288 72.4598 11.936ZM83.0107 5.248C83.192 3.94667 83.6134 2.832 84.2747 1.904C84.936 0.965333 85.9067 0.453333 87.1867 0.367999C87.2827 0.357333 87.432 0.351999 87.6347 0.351999C88.6587 0.351999 89.4747 0.570666 90.0827 1.008C90.4027 1.232 90.5627 1.50933 90.5627 1.84C90.5627 1.968 90.5254 2.10667 90.4507 2.256C90.28 2.55467 90.0294 2.704 89.6987 2.704C89.496 2.704 89.2934 2.64533 89.0907 2.528C88.632 2.272 88.1947 2.144 87.7787 2.144C87.6187 2.144 87.4587 2.16 87.2987 2.192C86.6267 2.32 86.1147 2.688 85.7627 3.296C85.4214 3.89333 85.208 4.70933 85.1227 5.744C85.4107 5.46667 85.752 5.25333 86.1467 5.104C86.5414 4.944 86.9627 4.864 87.4107 4.864C88.2107 4.864 88.904 5.056 89.4907 5.44C90.088 5.81333 90.5414 6.31467 90.8507 6.944C91.1707 7.56267 91.3307 8.23467 91.3307 8.96C91.3307 9.68533 91.1654 10.3627 90.8347 10.992C90.504 11.6213 90.0294 12.128 89.4107 12.512C88.8027 12.896 88.0827 13.088 87.2507 13.088C86.408 13.088 85.6827 12.896 85.0747 12.512C84.4667 12.1387 83.992 11.6427 83.6507 11.024C83.3094 10.4053 83.096 9.728 83.0107 8.992C82.9254 8.27733 82.8827 7.64267 82.8827 7.088C82.8827 6.56533 82.9254 5.952 83.0107 5.248ZM85.1547 8.976C85.1547 9.66933 85.3414 10.2293 85.7147 10.656C86.088 11.072 86.6 11.28 87.2507 11.28C87.8587 11.28 88.3334 11.072 88.6747 10.656C89.0267 10.2293 89.2027 9.66933 89.2027 8.976C89.2027 8.28267 89.0267 7.728 88.6747 7.312C88.3334 6.88533 87.8587 6.672 87.2507 6.672C86.6 6.672 86.088 6.88533 85.7147 7.312C85.3414 7.728 85.1547 8.28267 85.1547 8.976ZM93.7771 1.456C93.7771 1.15733 93.8731 0.927999 94.0651 0.768C94.2571 0.608 94.4704 0.528 94.7051 0.528H100.737C101.046 0.528 101.302 0.608 101.505 0.768C101.718 0.917333 101.825 1.14667 101.825 1.456C101.825 1.63733 101.788 1.81867 101.713 2C101.638 2.17067 101.596 2.26667 101.585 2.288C100.838 3.89867 100.172 5.52533 99.5851 7.168C99.0091 8.8 98.4597 10.5387 97.9371 12.384C97.8731 12.6187 97.7557 12.7947 97.5851 12.912C97.4144 13.0293 97.2224 13.088 97.0091 13.088C96.8811 13.088 96.7371 13.0613 96.5771 13.008C96.1077 12.8587 95.8731 12.5867 95.8731 12.192C95.8731 12.0853 95.8891 11.9573 95.9211 11.808C96.8491 8.46933 97.9584 5.328 99.2491 2.384H94.7051C94.4491 2.384 94.2304 2.304 94.0491 2.144C93.8677 1.97333 93.7771 1.744 93.7771 1.456ZM108.872 13.104C107.901 13.104 107.075 12.944 106.392 12.624C105.72 12.3147 105.213 11.888 104.872 11.344C104.541 10.8 104.376 10.1867 104.376 9.504C104.376 8.84267 104.541 8.24533 104.872 7.712C105.213 7.168 105.677 6.75733 106.264 6.48C105.816 6.24533 105.448 5.89867 105.16 5.44C104.872 4.97067 104.728 4.464 104.728 3.92C104.728 3.29067 104.893 2.704 105.224 2.16C105.555 1.616 106.029 1.17867 106.648 0.848C107.277 0.517333 108.019 0.351999 108.872 0.351999C109.715 0.351999 110.451 0.517333 111.08 0.848C111.709 1.17867 112.184 1.616 112.504 2.16C112.835 2.704 113 3.29067 113 3.92C113 4.45333 112.856 4.95467 112.568 5.424C112.28 5.89333 111.917 6.24533 111.48 6.48C112.056 6.75733 112.509 7.168 112.84 7.712C113.181 8.24533 113.352 8.84267 113.352 9.504C113.352 10.1867 113.181 10.8 112.84 11.344C112.509 11.888 112.008 12.3147 111.336 12.624C110.664 12.944 109.843 13.104 108.872 13.104ZM106.504 9.392C106.504 9.94667 106.712 10.4053 107.128 10.768C107.555 11.12 108.136 11.296 108.872 11.296C109.597 11.296 110.168 11.12 110.584 10.768C111.011 10.4053 111.224 9.94667 111.224 9.392C111.224 8.82667 111.016 8.368 110.6 8.016C110.184 7.65333 109.608 7.472 108.872 7.472C108.136 7.472 107.555 7.65333 107.128 8.016C106.712 8.368 106.504 8.82667 106.504 9.392ZM106.856 3.936C106.856 4.45867 107.032 4.88533 107.384 5.216C107.747 5.536 108.243 5.696 108.872 5.696C109.491 5.696 109.976 5.53067 110.328 5.2C110.691 4.86933 110.872 4.448 110.872 3.936C110.872 3.424 110.691 3.00267 110.328 2.672C109.976 2.34133 109.491 2.176 108.872 2.176C108.243 2.176 107.747 2.34133 107.384 2.672C107.032 2.992 106.856 3.41333 106.856 3.936Z" fill="#75C382"/>
</svg>
