<svg width="74" height="24" viewBox="0 0 74 24" fill="none" xmlns="http://www.w3.org/2000/svg">
<path d="M3 10.25V20C3 20.5523 3.44771 21 4 21H8.42857C8.98086 21 9.42857 20.5523 9.42857 20V13.2857H14.5714V20C14.5714 20.5523 15.0191 21 15.5714 21H20C20.5523 21 21 20.5523 21 20V10.25C21 9.93524 20.8518 9.63885 20.6 9.45L12 3L3.4 9.45C3.14819 9.63885 3 9.93524 3 10.25Z" stroke="#454545" stroke-width="2" stroke-linecap="round" stroke-linejoin="round"/>
<path d="M35.0089 8.108C35.0089 7.876 35.0929 7.696 35.2609 7.568C35.4289 7.44 35.6089 7.376 35.8009 7.376C36.0009 7.376 36.1809 7.44 36.3409 7.568C36.5089 7.688 36.5929 7.868 36.5929 8.108V18.56C36.5929 18.8 36.5089 18.98 36.3409 19.1C36.1809 19.228 36.0009 19.292 35.8009 19.292C35.6089 19.292 35.4289 19.228 35.2609 19.1C35.0929 18.972 35.0089 18.792 35.0089 18.56V8.108ZM26.6569 9.044C26.6569 8.804 26.7369 8.616 26.8969 8.48C27.0649 8.336 27.2849 8.264 27.5569 8.264H30.5329C30.8049 8.264 31.0209 8.336 31.1809 8.48C31.3489 8.616 31.4329 8.804 31.4329 9.044V11.192H32.5249V8.24C32.5249 8.008 32.6089 7.828 32.7769 7.7C32.9449 7.572 33.1249 7.508 33.3169 7.508C33.5169 7.508 33.6969 7.572 33.8569 7.7C34.0249 7.82 34.1089 8 34.1089 8.24V18.344C34.1089 18.584 34.0249 18.764 33.8569 18.884C33.6969 19.012 33.5169 19.076 33.3169 19.076C33.1249 19.076 32.9449 19.012 32.7769 18.884C32.6089 18.756 32.5249 18.576 32.5249 18.344V12.584H31.4329V14.672C31.4329 14.968 31.3929 15.196 31.3129 15.356C31.2329 15.516 31.0849 15.64 30.8689 15.728C30.4369 15.904 29.8289 15.992 29.0449 15.992C28.2609 15.992 27.6529 15.904 27.2209 15.728C27.0049 15.64 26.8569 15.52 26.7769 15.368C26.6969 15.208 26.6569 14.984 26.6569 14.696V9.044ZM28.2169 14.408C28.2169 14.48 28.2529 14.524 28.3249 14.54C28.5169 14.58 28.7569 14.6 29.0449 14.6C29.3329 14.6 29.5729 14.58 29.7649 14.54C29.8369 14.524 29.8729 14.48 29.8729 14.408V9.656H28.2169V14.408ZM46.1445 8.108C46.1445 7.876 46.2285 7.696 46.3965 7.568C46.5645 7.44 46.7485 7.376 46.9485 7.376C47.1485 7.376 47.3325 7.44 47.5005 7.568C47.6685 7.696 47.7525 7.876 47.7525 8.108V14.984C47.7525 15.216 47.6685 15.396 47.5005 15.524C47.3325 15.652 47.1485 15.716 46.9485 15.716C46.7485 15.716 46.5645 15.652 46.3965 15.524C46.2285 15.396 46.1445 15.216 46.1445 14.984V8.108ZM38.2605 10.868C38.2605 10.308 38.4005 9.804 38.6805 9.356C38.9685 8.9 39.3605 8.544 39.8565 8.288C40.3525 8.032 40.9085 7.904 41.5245 7.904C42.1405 7.904 42.6965 8.032 43.1925 8.288C43.6885 8.544 44.0765 8.9 44.3565 9.356C44.6445 9.804 44.7885 10.308 44.7885 10.868C44.7885 11.428 44.6445 11.932 44.3565 12.38C44.0765 12.828 43.6885 13.184 43.1925 13.448C42.6965 13.704 42.1405 13.832 41.5245 13.832C40.9085 13.832 40.3525 13.704 39.8565 13.448C39.3605 13.184 38.9685 12.828 38.6805 12.38C38.4005 11.932 38.2605 11.428 38.2605 10.868ZM39.8445 10.868C39.8445 11.332 40.0005 11.716 40.3125 12.02C40.6325 12.324 41.0365 12.476 41.5245 12.476C42.0125 12.476 42.4125 12.324 42.7245 12.02C43.0445 11.716 43.2045 11.332 43.2045 10.868C43.2045 10.404 43.0445 10.02 42.7245 9.716C42.4125 9.412 42.0125 9.26 41.5245 9.26C41.0365 9.26 40.6325 9.412 40.3125 9.716C40.0005 10.02 39.8445 10.404 39.8445 10.868ZM39.9885 15.392C39.9885 15.16 40.0725 14.98 40.2405 14.852C40.4085 14.724 40.5925 14.66 40.7925 14.66C40.9925 14.66 41.1765 14.724 41.3445 14.852C41.5125 14.98 41.5965 15.16 41.5965 15.392V17.504C41.5965 17.56 41.6125 17.604 41.6445 17.636C41.6765 17.668 41.7205 17.684 41.7765 17.684H47.3325C47.5405 17.684 47.7045 17.748 47.8245 17.876C47.9445 18.004 48.0045 18.172 48.0045 18.38C48.0045 18.588 47.9445 18.756 47.8245 18.884C47.7045 19.012 47.5405 19.076 47.3325 19.076H41.0205C40.7245 19.076 40.4765 18.984 40.2765 18.8C40.0845 18.616 39.9885 18.384 39.9885 18.104V15.392ZM54.76 14.6C53.992 14.6 53.304 14.46 52.696 14.18C52.096 13.892 51.628 13.496 51.292 12.992C50.956 12.488 50.788 11.92 50.788 11.288C50.788 10.656 50.956 10.088 51.292 9.584C51.628 9.08 52.096 8.688 52.696 8.408C53.304 8.12 53.992 7.976 54.76 7.976C55.528 7.976 56.212 8.12 56.812 8.408C57.42 8.688 57.892 9.08 58.228 9.584C58.564 10.088 58.732 10.656 58.732 11.288C58.732 11.92 58.564 12.488 58.228 12.992C57.892 13.496 57.42 13.892 56.812 14.18C56.212 14.46 55.528 14.6 54.76 14.6ZM49.384 16.688C49.384 16.504 49.448 16.344 49.576 16.208C49.704 16.064 49.868 15.992 50.068 15.992C50.14 15.992 50.212 16.004 50.284 16.028C51.636 16.38 53.128 16.556 54.76 16.556C56.392 16.556 57.884 16.38 59.236 16.028C59.284 16.012 59.356 16.004 59.452 16.004C59.652 16.004 59.816 16.072 59.944 16.208C60.072 16.344 60.136 16.504 60.136 16.688C60.136 16.84 60.088 16.98 59.992 17.108C59.896 17.236 59.752 17.324 59.56 17.372C58.176 17.756 56.576 17.948 54.76 17.948C52.944 17.948 51.344 17.756 49.96 17.372C49.768 17.324 49.624 17.236 49.528 17.108C49.432 16.98 49.384 16.84 49.384 16.688ZM52.372 11.288C52.372 11.656 52.468 11.988 52.66 12.284C52.852 12.58 53.128 12.812 53.488 12.98C53.848 13.148 54.272 13.232 54.76 13.232C55.248 13.232 55.672 13.148 56.032 12.98C56.392 12.812 56.668 12.58 56.86 12.284C57.052 11.988 57.148 11.656 57.148 11.288C57.148 10.92 57.052 10.588 56.86 10.292C56.668 9.996 56.392 9.764 56.032 9.596C55.672 9.428 55.248 9.344 54.76 9.344C54.272 9.344 53.848 9.428 53.488 9.596C53.128 9.764 52.852 9.996 52.66 10.292C52.468 10.588 52.372 10.92 52.372 11.288ZM62.3555 11.444C62.3555 11.212 62.4395 11.028 62.6075 10.892C62.7755 10.756 62.9915 10.688 63.2555 10.688H68.5595V9.44H62.9315C62.6915 9.44 62.5195 9.376 62.4155 9.248C62.3195 9.112 62.2715 8.948 62.2715 8.756C62.2715 8.556 62.3195 8.392 62.4155 8.264C62.5195 8.136 62.6915 8.072 62.9315 8.072H69.2675C69.5315 8.072 69.7475 8.14 69.9155 8.276C70.0835 8.412 70.1675 8.596 70.1675 8.828V11.372C70.1675 11.564 70.0875 11.724 69.9275 11.852C69.7755 11.972 69.5915 12.032 69.3755 12.032H63.9635V13.136C63.9635 13.208 63.9955 13.252 64.0595 13.268C64.3075 13.332 64.6395 13.384 65.0555 13.424C65.4715 13.456 65.9035 13.472 66.3515 13.472C66.8395 13.472 67.3875 13.436 67.9955 13.364C68.6035 13.292 69.1675 13.192 69.6875 13.064C69.7755 13.04 69.8555 13.028 69.9275 13.028C70.1435 13.028 70.3155 13.1 70.4435 13.244C70.5715 13.38 70.6355 13.54 70.6355 13.724C70.6355 13.876 70.5875 14.012 70.4915 14.132C70.3955 14.252 70.2515 14.336 70.0595 14.384C69.1955 14.616 68.2035 14.76 67.0835 14.816V16.544C68.3955 16.496 69.6195 16.324 70.7555 16.028C70.8035 16.012 70.8755 16.004 70.9715 16.004C71.1715 16.004 71.3355 16.072 71.4635 16.208C71.5915 16.344 71.6555 16.504 71.6555 16.688C71.6555 16.84 71.6075 16.98 71.5115 17.108C71.4155 17.236 71.2715 17.324 71.0795 17.372C69.6955 17.756 68.0955 17.948 66.2795 17.948C64.4635 17.948 62.8635 17.756 61.4795 17.372C61.2875 17.324 61.1435 17.236 61.0475 17.108C60.9515 16.98 60.9035 16.84 60.9035 16.688C60.9035 16.504 60.9675 16.344 61.0955 16.208C61.2235 16.064 61.3875 15.992 61.5875 15.992C61.6595 15.992 61.7315 16.004 61.8035 16.028C62.9235 16.324 64.1475 16.496 65.4755 16.544V14.816C64.5475 14.776 63.7915 14.656 63.2075 14.456C62.9035 14.352 62.6835 14.208 62.5475 14.024C62.4195 13.832 62.3555 13.592 62.3555 13.304V11.444Z" fill="#454545"/>
</svg>
