<svg width="113" height="13" viewBox="0 0 113 13" fill="none" xmlns="http://www.w3.org/2000/svg">
<path d="M6.66311 5.116C6.66311 5.996 6.52711 6.744 6.25511 7.36C5.99111 7.968 5.62311 8.428 5.15111 8.74C4.67911 9.052 4.13911 9.208 3.53111 9.208C2.92311 9.208 2.38311 9.052 1.91111 8.74C1.43911 8.428 1.06711 7.968 0.795109 7.36C0.531109 6.744 0.399109 5.996 0.399109 5.116C0.399109 4.236 0.531109 3.492 0.795109 2.884C1.06711 2.276 1.43911 1.82 1.91111 1.516C2.38311 1.204 2.92311 1.048 3.53111 1.048C4.13911 1.048 4.67911 1.204 5.15111 1.516C5.62311 1.82 5.99111 2.276 6.25511 2.884C6.52711 3.492 6.66311 4.236 6.66311 5.116ZM2.00711 5.116C2.00711 6.004 2.14711 6.68 2.42711 7.144C2.70711 7.608 3.07511 7.84 3.53111 7.84C3.98711 7.84 4.35511 7.608 4.63511 7.144C4.91511 6.68 5.05511 6.004 5.05511 5.116C5.05511 4.236 4.91511 3.564 4.63511 3.1C4.35511 2.636 3.98711 2.404 3.53111 2.404C3.07511 2.404 2.70711 2.636 2.42711 3.1C2.14711 3.564 2.00711 4.236 2.00711 5.116ZM7.89911 1.108C7.89911 0.875999 7.98311 0.696 8.15111 0.568C8.31911 0.44 8.50311 0.375999 8.70311 0.375999C8.90311 0.375999 9.08711 0.44 9.25511 0.568C9.42311 0.696 9.50711 0.875999 9.50711 1.108V4.192H10.5031C10.7111 4.192 10.8751 4.256 10.9951 4.384C11.1151 4.512 11.1751 4.68 11.1751 4.888C11.1751 5.096 11.1151 5.264 10.9951 5.392C10.8751 5.52 10.7111 5.584 10.5031 5.584H9.50711V11.584C9.50711 11.816 9.42311 11.996 9.25511 12.124C9.08711 12.252 8.90311 12.316 8.70311 12.316C8.50311 12.316 8.31911 12.252 8.15111 12.124C7.98311 11.996 7.89911 11.816 7.89911 11.584V1.108ZM19.9706 1.108C19.9706 0.875999 20.0546 0.696 20.2226 0.568C20.3906 0.44 20.5746 0.375999 20.7746 0.375999C20.9746 0.375999 21.1586 0.44 21.3266 0.568C21.4946 0.696 21.5786 0.875999 21.5786 1.108V11.584C21.5786 11.816 21.4946 11.996 21.3266 12.124C21.1586 12.252 20.9746 12.316 20.7746 12.316C20.5746 12.316 20.3906 12.252 20.2226 12.124C20.0546 11.996 19.9706 11.816 19.9706 11.584V1.108ZM12.0866 5.116C12.0866 4.268 12.2226 3.54 12.4946 2.932C12.7666 2.316 13.1466 1.848 13.6346 1.528C14.1226 1.208 14.6866 1.048 15.3266 1.048C15.9666 1.048 16.5306 1.208 17.0186 1.528C17.5066 1.848 17.8866 2.316 18.1586 2.932C18.4306 3.54 18.5666 4.268 18.5666 5.116C18.5666 5.964 18.4306 6.696 18.1586 7.312C17.8866 7.928 17.5066 8.4 17.0186 8.728C16.5306 9.048 15.9666 9.208 15.3266 9.208C14.6866 9.208 14.1226 9.048 13.6346 8.728C13.1466 8.4 12.7666 7.928 12.4946 7.312C12.2226 6.696 12.0866 5.964 12.0866 5.116ZM13.6946 5.116C13.6946 5.708 13.7666 6.208 13.9106 6.616C14.0626 7.024 14.2626 7.332 14.5106 7.54C14.7586 7.74 15.0306 7.84 15.3266 7.84C15.6226 7.84 15.8946 7.74 16.1426 7.54C16.3906 7.332 16.5866 7.024 16.7306 6.616C16.8826 6.208 16.9586 5.708 16.9586 5.116C16.9586 4.532 16.8826 4.036 16.7306 3.628C16.5866 3.22 16.3906 2.916 16.1426 2.716C15.8946 2.508 15.6226 2.404 15.3266 2.404C15.0306 2.404 14.7586 2.508 14.5106 2.716C14.2626 2.916 14.0626 3.22 13.9106 3.628C13.7666 4.036 13.6946 4.532 13.6946 5.116ZM24.7462 8.8C24.4342 8.712 24.2142 8.572 24.0862 8.38C23.9582 8.188 23.8942 7.944 23.8942 7.648V1.948C23.8942 1.716 23.9782 1.532 24.1462 1.396C24.3142 1.26 24.5302 1.192 24.7942 1.192H29.1742C29.3902 1.192 29.5542 1.256 29.6662 1.384C29.7862 1.504 29.8462 1.668 29.8462 1.876C29.8462 2.084 29.7862 2.252 29.6662 2.38C29.5462 2.508 29.3822 2.572 29.1742 2.572H25.5022V7.456C25.5022 7.52 25.5342 7.56 25.5982 7.576C25.9102 7.664 26.3662 7.708 26.9662 7.708C27.2542 7.708 27.6302 7.68 28.0942 7.624C28.5582 7.568 28.9822 7.492 29.3662 7.396C29.4302 7.372 29.5102 7.36 29.6062 7.36C29.7982 7.36 29.9662 7.424 30.1102 7.552C30.2542 7.672 30.3262 7.832 30.3262 8.032C30.3262 8.192 30.2702 8.336 30.1582 8.464C30.0542 8.584 29.9182 8.668 29.7502 8.716C29.3342 8.836 28.8582 8.928 28.3222 8.992C27.7942 9.048 27.3422 9.076 26.9662 9.076C26.0702 9.076 25.3302 8.984 24.7462 8.8ZM31.4902 1.108C31.4902 0.875999 31.5742 0.696 31.7422 0.568C31.9102 0.44 32.0942 0.375999 32.2942 0.375999C32.4942 0.375999 32.6782 0.44 32.8462 0.568C33.0142 0.696 33.0982 0.875999 33.0982 1.108V11.584C33.0982 11.816 33.0142 11.996 32.8462 12.124C32.6782 12.252 32.4942 12.316 32.2942 12.316C32.0942 12.316 31.9102 12.252 31.7422 12.124C31.5742 11.996 31.4902 11.816 31.4902 11.584V1.108ZM36.2537 3.208C36.2537 2.976 36.3377 2.792 36.5057 2.656C36.6737 2.52 36.8897 2.452 37.1537 2.452H42.3137V1.948H36.8657C36.6417 1.948 36.4657 1.888 36.3377 1.768C36.2097 1.64 36.1457 1.492 36.1457 1.324C36.1457 1.156 36.2097 1.012 36.3377 0.891999C36.4657 0.763999 36.6417 0.7 36.8657 0.7H43.0217C43.2857 0.7 43.5017 0.768 43.6697 0.904C43.8377 1.04 43.9217 1.224 43.9217 1.456V2.956C43.9217 3.148 43.8417 3.308 43.6817 3.436C43.5297 3.564 43.3417 3.628 43.1177 3.628H37.8617V3.928C37.8617 4 37.8977 4.044 37.9697 4.06C38.4737 4.132 39.1817 4.168 40.0937 4.168C40.6217 4.168 41.1937 4.152 41.8097 4.12C42.4257 4.08 42.9697 4.024 43.4417 3.952C43.4817 3.944 43.5377 3.94 43.6097 3.94C43.8337 3.932 44.0057 3.984 44.1257 4.096C44.2457 4.2 44.3057 4.344 44.3057 4.528C44.3057 4.688 44.2537 4.828 44.1497 4.948C44.0537 5.068 43.8977 5.144 43.6817 5.176C43.1857 5.256 42.6137 5.316 41.9657 5.356C41.3177 5.396 40.6937 5.416 40.0937 5.416C38.7657 5.416 37.7697 5.332 37.1057 5.164C36.7937 5.084 36.5737 4.956 36.4457 4.78C36.3177 4.604 36.2537 4.356 36.2537 4.036V3.208ZM35.3777 7.168C35.1777 7.168 35.0177 7.104 34.8977 6.976C34.7857 6.848 34.7297 6.696 34.7297 6.52C34.7297 6.352 34.7857 6.208 34.8977 6.088C35.0177 5.96 35.1777 5.896 35.3777 5.896H44.8337C45.0417 5.896 45.2017 5.96 45.3137 6.088C45.4257 6.208 45.4817 6.352 45.4817 6.52C45.4817 6.696 45.4257 6.848 45.3137 6.976C45.2017 7.104 45.0417 7.168 44.8337 7.168H35.3777ZM36.1217 8.296C36.1217 8.12 36.1777 7.976 36.2897 7.864C36.4017 7.744 36.5657 7.684 36.7817 7.684H42.9617C43.2257 7.684 43.4417 7.752 43.6097 7.888C43.7777 8.024 43.8617 8.208 43.8617 8.44V9.844C43.8617 10.068 43.7817 10.244 43.6217 10.372C43.4617 10.5 43.2617 10.564 43.0217 10.564H37.8377V11.044H43.5977C43.8217 11.044 43.9857 11.1 44.0897 11.212C44.2017 11.324 44.2577 11.472 44.2577 11.656C44.2577 11.832 44.2017 11.976 44.0897 12.088C43.9857 12.208 43.8217 12.268 43.5977 12.268H37.1297C36.8657 12.268 36.6497 12.2 36.4817 12.064C36.3137 11.928 36.2297 11.744 36.2297 11.512V10.12C36.2297 9.888 36.3137 9.704 36.4817 9.568C36.6497 9.432 36.8657 9.364 37.1297 9.364H42.2537V8.908H36.7817C36.5737 8.908 36.4097 8.852 36.2897 8.74C36.1777 8.62 36.1217 8.472 36.1217 8.296ZM56.0209 3.676C56.0209 4.236 55.8809 4.732 55.6009 5.164C55.3209 5.596 54.9329 5.932 54.4369 6.172C53.9409 6.412 53.3809 6.532 52.7569 6.532C52.1329 6.532 51.5729 6.412 51.0769 6.172C50.5809 5.932 50.1929 5.596 49.9129 5.164C49.6329 4.732 49.4929 4.236 49.4929 3.676C49.4929 3.116 49.6329 2.616 49.9129 2.176C50.1929 1.736 50.5809 1.392 51.0769 1.144C51.5729 0.895999 52.1329 0.771999 52.7569 0.771999C53.3809 0.771999 53.9409 0.895999 54.4369 1.144C54.9329 1.392 55.3209 1.736 55.6009 2.176C55.8809 2.616 56.0209 3.116 56.0209 3.676ZM50.7769 11.608C50.7769 11.464 50.8289 11.324 50.9329 11.188C51.0369 11.06 51.1729 10.98 51.3409 10.948C52.7889 10.62 53.7169 10.12 54.1249 9.448C54.2209 9.288 54.2849 9.112 54.3169 8.92H51.7129C51.4969 8.92 51.3289 8.856 51.2089 8.728C51.0889 8.6 51.0289 8.436 51.0289 8.236C51.0289 8.028 51.0889 7.864 51.2089 7.744C51.3289 7.616 51.4969 7.552 51.7129 7.552H58.5409C58.7569 7.552 58.9209 7.616 59.0329 7.744C59.1529 7.864 59.2129 8.028 59.2129 8.236C59.2129 8.444 59.1529 8.612 59.0329 8.74C58.9209 8.86 58.7569 8.92 58.5409 8.92H55.9609C55.9769 9.096 56.0209 9.244 56.0929 9.364C56.2769 9.676 56.5969 9.96 57.0529 10.216C57.5089 10.472 58.1169 10.712 58.8769 10.936C59.0289 10.984 59.1529 11.068 59.2489 11.188C59.3449 11.308 59.3929 11.436 59.3929 11.572C59.3929 11.756 59.3249 11.916 59.1889 12.052C59.0609 12.188 58.8929 12.256 58.6849 12.256C58.5329 12.256 58.3929 12.24 58.2649 12.208C57.6169 12.048 57.0169 11.816 56.4649 11.512C55.9209 11.216 55.4849 10.872 55.1569 10.48C54.8049 10.92 54.3369 11.292 53.7529 11.596C53.1769 11.9 52.5369 12.12 51.8329 12.256C51.6889 12.28 51.5729 12.292 51.4849 12.292C51.2529 12.292 51.0769 12.228 50.9569 12.1C50.8369 11.972 50.7769 11.808 50.7769 11.608ZM51.0769 3.676C51.0769 4.132 51.2289 4.496 51.5329 4.768C51.8449 5.04 52.2529 5.176 52.7569 5.176C53.2609 5.176 53.6649 5.04 53.9689 4.768C54.2809 4.496 54.4369 4.132 54.4369 3.676C54.4369 3.212 54.2809 2.84 53.9689 2.56C53.6569 2.272 53.2529 2.128 52.7569 2.128C52.2609 2.128 51.8569 2.272 51.5449 2.56C51.2329 2.84 51.0769 3.212 51.0769 3.676ZM57.3769 1.108C57.3769 0.875999 57.4609 0.696 57.6289 0.568C57.7969 0.44 57.9809 0.375999 58.1809 0.375999C58.3809 0.375999 58.5649 0.44 58.7329 0.568C58.9009 0.696 58.9849 0.875999 58.9849 1.108V6.256C58.9849 6.488 58.9009 6.668 58.7329 6.796C58.5649 6.924 58.3809 6.988 58.1809 6.988C57.9809 6.988 57.7969 6.924 57.6289 6.796C57.4609 6.668 57.3769 6.488 57.3769 6.256V1.108ZM65.9924 7.6C65.2244 7.6 64.5364 7.46 63.9284 7.18C63.3284 6.892 62.8604 6.496 62.5244 5.992C62.1884 5.488 62.0204 4.92 62.0204 4.288C62.0204 3.656 62.1884 3.088 62.5244 2.584C62.8604 2.08 63.3284 1.688 63.9284 1.408C64.5364 1.12 65.2244 0.976 65.9924 0.976C66.7604 0.976 67.4444 1.12 68.0444 1.408C68.6524 1.688 69.1244 2.08 69.4604 2.584C69.7964 3.088 69.9644 3.656 69.9644 4.288C69.9644 4.92 69.7964 5.488 69.4604 5.992C69.1244 6.496 68.6524 6.892 68.0444 7.18C67.4444 7.46 66.7604 7.6 65.9924 7.6ZM60.6164 9.688C60.6164 9.504 60.6804 9.344 60.8084 9.208C60.9364 9.064 61.1004 8.992 61.3004 8.992C61.3724 8.992 61.4444 9.004 61.5164 9.028C62.8684 9.38 64.3604 9.556 65.9924 9.556C67.6244 9.556 69.1164 9.38 70.4684 9.028C70.5164 9.012 70.5884 9.004 70.6844 9.004C70.8844 9.004 71.0484 9.072 71.1764 9.208C71.3044 9.344 71.3684 9.504 71.3684 9.688C71.3684 9.84 71.3204 9.98 71.2244 10.108C71.1284 10.236 70.9844 10.324 70.7924 10.372C69.4084 10.756 67.8084 10.948 65.9924 10.948C64.1764 10.948 62.5764 10.756 61.1924 10.372C61.0004 10.324 60.8564 10.236 60.7604 10.108C60.6644 9.98 60.6164 9.84 60.6164 9.688ZM63.6044 4.288C63.6044 4.656 63.7004 4.988 63.8924 5.284C64.0844 5.58 64.3604 5.812 64.7204 5.98C65.0804 6.148 65.5044 6.232 65.9924 6.232C66.4804 6.232 66.9044 6.148 67.2644 5.98C67.6244 5.812 67.9004 5.58 68.0924 5.284C68.2844 4.988 68.3804 4.656 68.3804 4.288C68.3804 3.92 68.2844 3.588 68.0924 3.292C67.9004 2.996 67.6244 2.764 67.2644 2.596C66.9044 2.428 66.4804 2.344 65.9924 2.344C65.5044 2.344 65.0804 2.428 64.7204 2.596C64.3604 2.764 64.0844 2.996 63.8924 3.292C63.7004 3.588 63.6044 3.92 63.6044 4.288ZM80.416 1.108C80.416 0.875999 80.5 0.696 80.668 0.568C80.836 0.44 81.02 0.375999 81.22 0.375999C81.42 0.375999 81.604 0.44 81.772 0.568C81.94 0.696 82.024 0.875999 82.024 1.108V6.184C82.024 6.416 81.94 6.596 81.772 6.724C81.604 6.852 81.42 6.916 81.22 6.916C81.02 6.916 80.836 6.852 80.668 6.724C80.5 6.596 80.416 6.416 80.416 6.184V4.972H79.204C78.988 4.972 78.824 4.912 78.712 4.792C78.6 4.664 78.544 4.504 78.544 4.312C78.544 4.112 78.6 3.952 78.712 3.832C78.832 3.712 78.996 3.652 79.204 3.652H80.416V2.956H79.084C78.868 2.956 78.704 2.896 78.592 2.776C78.48 2.648 78.424 2.488 78.424 2.296C78.424 2.096 78.48 1.936 78.592 1.816C78.712 1.696 78.876 1.636 79.084 1.636H80.416V1.108ZM72.508 5.932C72.508 5.66 72.66 5.448 72.964 5.296C73.364 5.088 73.728 4.816 74.056 4.48C74.392 4.144 74.636 3.788 74.788 3.412C74.9 3.14 74.98 2.896 75.028 2.68C75.076 2.464 75.1 2.24 75.1 2.008V1.516C75.1 1.284 75.184 1.104 75.352 0.976C75.52 0.848 75.704 0.784 75.904 0.784C76.104 0.784 76.288 0.848 76.456 0.976C76.624 1.104 76.708 1.284 76.708 1.516V1.972C76.708 2.46 76.804 2.932 76.996 3.388C77.148 3.748 77.376 4.08 77.68 4.384C77.992 4.688 78.336 4.952 78.712 5.176C79.024 5.36 79.18 5.576 79.18 5.824C79.18 6.024 79.108 6.196 78.964 6.34C78.82 6.476 78.64 6.544 78.424 6.544C78.288 6.544 78.14 6.508 77.98 6.436C77.612 6.252 77.236 5.984 76.852 5.632C76.476 5.28 76.16 4.9 75.904 4.492C75.648 4.924 75.336 5.312 74.968 5.656C74.608 6 74.216 6.288 73.792 6.52C73.632 6.6 73.448 6.64 73.24 6.64C73.032 6.64 72.856 6.572 72.712 6.436C72.576 6.3 72.508 6.132 72.508 5.932ZM73.096 11.596C73.096 11.388 73.208 11.2 73.432 11.032C73.768 10.784 74.068 10.48 74.332 10.12C74.596 9.768 74.772 9.42 74.86 9.076C74.932 8.796 74.968 8.512 74.968 8.224V8.032C74.968 7.824 75.048 7.66 75.208 7.54C75.368 7.412 75.552 7.348 75.76 7.348C75.968 7.348 76.152 7.412 76.312 7.54C76.472 7.66 76.552 7.824 76.552 8.032V8.224C76.552 8.384 76.56 8.52 76.576 8.632C76.592 8.744 76.628 8.884 76.684 9.052C76.78 9.34 76.936 9.644 77.152 9.964C77.368 10.276 77.6 10.552 77.848 10.792C78.096 10.552 78.332 10.268 78.556 9.94C78.78 9.604 78.936 9.296 79.024 9.016C79.072 8.872 79.104 8.744 79.12 8.632C79.136 8.52 79.144 8.384 79.144 8.224V8.032C79.144 7.824 79.224 7.66 79.384 7.54C79.544 7.412 79.728 7.348 79.936 7.348C80.144 7.348 80.328 7.412 80.488 7.54C80.648 7.66 80.728 7.824 80.728 8.032V8.224C80.728 8.496 80.76 8.784 80.824 9.088C80.904 9.432 81.076 9.776 81.34 10.12C81.612 10.464 81.912 10.756 82.24 10.996C82.456 11.164 82.564 11.356 82.564 11.572C82.564 11.78 82.488 11.952 82.336 12.088C82.184 12.224 82.004 12.292 81.796 12.292C81.724 12.292 81.644 12.28 81.556 12.256C81.468 12.232 81.388 12.192 81.316 12.136C80.732 11.72 80.252 11.2 79.876 10.576C79.5 11.16 79.04 11.684 78.496 12.148C78.408 12.22 78.308 12.276 78.196 12.316C78.084 12.356 77.972 12.376 77.86 12.376C77.628 12.376 77.404 12.292 77.188 12.124C76.964 11.948 76.728 11.724 76.48 11.452C76.24 11.188 76.016 10.896 75.808 10.576C75.456 11.176 74.976 11.704 74.368 12.16C74.224 12.256 74.056 12.304 73.864 12.304C73.656 12.304 73.476 12.236 73.324 12.1C73.172 11.972 73.096 11.804 73.096 11.596ZM85.8155 7.276C85.8155 7.348 85.8475 7.392 85.9115 7.408C86.0795 7.448 86.2955 7.48 86.5595 7.504C86.8235 7.528 87.0635 7.54 87.2795 7.54C87.9195 7.54 88.5915 7.448 89.2955 7.264C89.3675 7.24 89.4515 7.228 89.5475 7.228C89.7395 7.228 89.9075 7.292 90.0515 7.42C90.1955 7.54 90.2675 7.7 90.2675 7.9C90.2675 8.06 90.2115 8.204 90.0995 8.332C89.9955 8.452 89.8595 8.536 89.6915 8.584C88.9475 8.8 88.1435 8.908 87.2795 8.908C86.4235 8.908 85.6875 8.816 85.0715 8.632C84.7595 8.544 84.5355 8.404 84.3995 8.212C84.2715 8.02 84.2075 7.776 84.2075 7.48V1.828C84.2075 1.596 84.2915 1.416 84.4595 1.288C84.6275 1.16 84.8115 1.096 85.0115 1.096C85.2115 1.096 85.3955 1.16 85.5635 1.288C85.7315 1.416 85.8155 1.596 85.8155 1.828V7.276ZM91.3835 1.108C91.3835 0.875999 91.4675 0.696 91.6355 0.568C91.8035 0.44 91.9875 0.375999 92.1875 0.375999C92.3875 0.375999 92.5715 0.44 92.7395 0.568C92.9075 0.696 92.9915 0.875999 92.9915 1.108V4.192H93.9875C94.1955 4.192 94.3595 4.256 94.4795 4.384C94.5995 4.512 94.6595 4.68 94.6595 4.888C94.6595 5.096 94.5995 5.264 94.4795 5.392C94.3595 5.52 94.1955 5.584 93.9875 5.584H92.9915V11.584C92.9915 11.816 92.9075 11.996 92.7395 12.124C92.5715 12.252 92.3875 12.316 92.1875 12.316C91.9875 12.316 91.8035 12.252 91.6355 12.124C91.4675 11.996 91.3835 11.816 91.3835 11.584V1.108ZM100.551 7.48C100.159 7.48 99.787 7.444 99.435 7.372V9.532C99.931 9.548 100.303 9.556 100.551 9.556C100.807 9.556 101.183 9.548 101.679 9.532V7.372C101.335 7.444 100.959 7.48 100.551 7.48ZM95.175 9.688C95.175 9.504 95.239 9.344 95.367 9.208C95.495 9.064 95.659 8.992 95.859 8.992C95.931 8.992 96.003 9.004 96.075 9.028C96.667 9.18 97.251 9.296 97.827 9.376V6.676C97.427 6.388 97.119 6.036 96.903 5.62C96.687 5.196 96.579 4.732 96.579 4.228C96.579 3.596 96.747 3.036 97.083 2.548C97.419 2.052 97.887 1.668 98.487 1.396C99.087 1.116 99.775 0.976 100.551 0.976C101.327 0.976 102.015 1.116 102.615 1.396C103.215 1.668 103.683 2.052 104.019 2.548C104.355 3.036 104.523 3.596 104.523 4.228C104.523 4.724 104.415 5.184 104.199 5.608C103.983 6.032 103.679 6.388 103.287 6.676V9.376C103.847 9.296 104.427 9.18 105.027 9.028C105.075 9.012 105.147 9.004 105.243 9.004C105.443 9.004 105.607 9.072 105.735 9.208C105.863 9.344 105.927 9.504 105.927 9.688C105.927 9.84 105.879 9.98 105.783 10.108C105.687 10.236 105.543 10.324 105.351 10.372C103.967 10.756 102.367 10.948 100.551 10.948C98.735 10.948 97.135 10.756 95.751 10.372C95.559 10.324 95.415 10.236 95.319 10.108C95.223 9.98 95.175 9.84 95.175 9.688ZM98.163 4.228C98.163 4.788 98.375 5.244 98.799 5.596C99.231 5.94 99.815 6.112 100.551 6.112C101.287 6.112 101.867 5.94 102.291 5.596C102.723 5.244 102.939 4.788 102.939 4.228C102.939 3.668 102.723 3.216 102.291 2.872C101.867 2.52 101.287 2.344 100.551 2.344C99.815 2.344 99.231 2.52 98.799 2.872C98.375 3.216 98.163 3.668 98.163 4.228ZM109.047 5.776C109.423 5.584 109.735 5.404 109.983 5.236C110.231 5.068 110.435 4.864 110.595 4.624C110.763 4.376 110.847 4.084 110.847 3.748C110.847 3.38 110.727 3.096 110.487 2.896C110.247 2.688 109.951 2.584 109.599 2.584C109.399 2.584 109.195 2.64 108.987 2.752C108.779 2.856 108.591 3.016 108.423 3.232C108.231 3.496 107.987 3.628 107.691 3.628C107.547 3.628 107.415 3.592 107.295 3.52C107.071 3.392 106.959 3.208 106.959 2.968C106.959 2.848 106.987 2.728 107.043 2.608C107.235 2.208 107.555 1.876 108.003 1.612C108.451 1.348 108.963 1.216 109.539 1.216C110.155 1.216 110.683 1.332 111.123 1.564C111.563 1.788 111.895 2.096 112.119 2.488C112.351 2.872 112.467 3.3 112.467 3.772C112.467 4.476 112.255 5.068 111.831 5.548C111.415 6.028 110.843 6.456 110.115 6.832V7.828C110.115 8.076 110.043 8.264 109.899 8.392C109.755 8.512 109.567 8.572 109.335 8.572C109.103 8.572 108.911 8.512 108.759 8.392C108.607 8.264 108.531 8.076 108.531 7.828V6.556C108.531 6.204 108.703 5.944 109.047 5.776ZM108.351 10.48C108.351 10.208 108.443 9.984 108.627 9.808C108.811 9.624 109.043 9.532 109.323 9.532C109.603 9.532 109.835 9.624 110.019 9.808C110.203 9.984 110.295 10.208 110.295 10.48C110.295 10.76 110.203 10.988 110.019 11.164C109.835 11.348 109.603 11.44 109.323 11.44C109.043 11.44 108.811 11.348 108.627 11.164C108.443 10.988 108.351 10.76 108.351 10.48Z" fill="black"/>
</svg>
