<svg width="150" height="72" viewBox="0 0 150 72" fill="none" xmlns="http://www.w3.org/2000/svg">
<path d="M9.26956 60.488C9.26956 61.6613 9.08823 62.6587 8.72556 63.48C8.37356 64.2907 7.8829 64.904 7.25356 65.32C6.62423 65.736 5.90423 65.944 5.09356 65.944C4.2829 65.944 3.5629 65.736 2.93356 65.32C2.30423 64.904 1.80823 64.2907 1.44556 63.48C1.09356 62.6587 0.917563 61.6613 0.917563 60.488C0.917563 59.3147 1.09356 58.3227 1.44556 57.512C1.80823 56.7013 2.30423 56.0933 2.93356 55.688C3.5629 55.272 4.2829 55.064 5.09356 55.064C5.90423 55.064 6.62423 55.272 7.25356 55.688C7.8829 56.0933 8.37356 56.7013 8.72556 57.512C9.08823 58.3227 9.26956 59.3147 9.26956 60.488ZM3.06156 60.488C3.06156 61.672 3.24823 62.5733 3.62156 63.192C3.9949 63.8107 4.48556 64.12 5.09356 64.12C5.70156 64.12 6.19223 63.8107 6.56556 63.192C6.9389 62.5733 7.12556 61.672 7.12556 60.488C7.12556 59.3147 6.9389 58.4187 6.56556 57.8C6.19223 57.1813 5.70156 56.872 5.09356 56.872C4.48556 56.872 3.9949 57.1813 3.62156 57.8C3.24823 58.4187 3.06156 59.3147 3.06156 60.488ZM10.9176 55.144C10.9176 54.8347 11.0296 54.5947 11.2536 54.424C11.4776 54.2533 11.7229 54.168 11.9896 54.168C12.2562 54.168 12.5016 54.2533 12.7256 54.424C12.9496 54.5947 13.0616 54.8347 13.0616 55.144V59.256H14.3896C14.6669 59.256 14.8856 59.3413 15.0456 59.512C15.2056 59.6827 15.2856 59.9067 15.2856 60.184C15.2856 60.4613 15.2056 60.6853 15.0456 60.856C14.8856 61.0267 14.6669 61.112 14.3896 61.112H13.0616V69.112C13.0616 69.4213 12.9496 69.6613 12.7256 69.832C12.5016 70.0027 12.2562 70.088 11.9896 70.088C11.7229 70.088 11.4776 70.0027 11.2536 69.832C11.0296 69.6613 10.9176 69.4213 10.9176 69.112V55.144ZM27.0129 55.144C27.0129 54.8347 27.1249 54.5947 27.3489 54.424C27.5729 54.2533 27.8183 54.168 28.0849 54.168C28.3516 54.168 28.5969 54.2533 28.8209 54.424C29.0449 54.5947 29.1569 54.8347 29.1569 55.144V69.112C29.1569 69.4213 29.0449 69.6613 28.8209 69.832C28.5969 70.0027 28.3516 70.088 28.0849 70.088C27.8183 70.088 27.5729 70.0027 27.3489 69.832C27.1249 69.6613 27.0129 69.4213 27.0129 69.112V55.144ZM16.5009 60.488C16.5009 59.3573 16.6823 58.3867 17.0449 57.576C17.4076 56.7547 17.9143 56.1307 18.5649 55.704C19.2156 55.2773 19.9676 55.064 20.8209 55.064C21.6743 55.064 22.4263 55.2773 23.0769 55.704C23.7276 56.1307 24.2343 56.7547 24.5969 57.576C24.9596 58.3867 25.1409 59.3573 25.1409 60.488C25.1409 61.6187 24.9596 62.5947 24.5969 63.416C24.2343 64.2373 23.7276 64.8667 23.0769 65.304C22.4263 65.7307 21.6743 65.944 20.8209 65.944C19.9676 65.944 19.2156 65.7307 18.5649 65.304C17.9143 64.8667 17.4076 64.2373 17.0449 63.416C16.6823 62.5947 16.5009 61.6187 16.5009 60.488ZM18.6449 60.488C18.6449 61.2773 18.7409 61.944 18.9329 62.488C19.1356 63.032 19.4023 63.4427 19.7329 63.72C20.0636 63.9867 20.4263 64.12 20.8209 64.12C21.2156 64.12 21.5783 63.9867 21.9089 63.72C22.2396 63.4427 22.5009 63.032 22.6929 62.488C22.8956 61.944 22.9969 61.2773 22.9969 60.488C22.9969 59.7093 22.8956 59.048 22.6929 58.504C22.5009 57.96 22.2396 57.5547 21.9089 57.288C21.5783 57.0107 21.2156 56.872 20.8209 56.872C20.4263 56.872 20.0636 57.0107 19.7329 57.288C19.4023 57.5547 19.1356 57.96 18.9329 58.504C18.7409 59.048 18.6449 59.7093 18.6449 60.488ZM33.3803 65.4C32.9643 65.2827 32.671 65.096 32.5003 64.84C32.3296 64.584 32.2443 64.2587 32.2443 63.864V56.264C32.2443 55.9547 32.3563 55.7093 32.5803 55.528C32.8043 55.3467 33.0923 55.256 33.4443 55.256H39.2843C39.5723 55.256 39.791 55.3413 39.9403 55.512C40.1003 55.672 40.1803 55.8907 40.1803 56.168C40.1803 56.4453 40.1003 56.6693 39.9403 56.84C39.7803 57.0107 39.5616 57.096 39.2843 57.096H34.3883V63.608C34.3883 63.6933 34.431 63.7467 34.5163 63.768C34.9323 63.8853 35.5403 63.944 36.3403 63.944C36.7243 63.944 37.2256 63.9067 37.8443 63.832C38.463 63.7573 39.0283 63.656 39.5403 63.528C39.6256 63.496 39.7323 63.48 39.8603 63.48C40.1163 63.48 40.3403 63.5653 40.5323 63.736C40.7243 63.896 40.8203 64.1093 40.8203 64.376C40.8203 64.5893 40.7456 64.7813 40.5963 64.952C40.4576 65.112 40.2763 65.224 40.0523 65.288C39.4976 65.448 38.863 65.5707 38.1483 65.656C37.4443 65.7307 36.8416 65.768 36.3403 65.768C35.1456 65.768 34.159 65.6453 33.3803 65.4ZM42.3723 55.144C42.3723 54.8347 42.4843 54.5947 42.7083 54.424C42.9323 54.2533 43.1776 54.168 43.4443 54.168C43.711 54.168 43.9563 54.2533 44.1803 54.424C44.4043 54.5947 44.5163 54.8347 44.5163 55.144V69.112C44.5163 69.4213 44.4043 69.6613 44.1803 69.832C43.9563 70.0027 43.711 70.088 43.4443 70.088C43.1776 70.088 42.9323 70.0027 42.7083 69.832C42.4843 69.6613 42.3723 69.4213 42.3723 69.112V55.144ZM52.3557 55.144C52.857 55.3147 53.1077 55.6027 53.1077 56.008C53.1077 56.1147 53.081 56.248 53.0277 56.408L49.2037 68.184C49.129 68.4187 49.001 68.5947 48.8197 68.712C48.649 68.8293 48.4517 68.888 48.2277 68.888C48.0784 68.888 47.9397 68.8667 47.8117 68.824L47.7637 68.808C47.2624 68.6373 47.0117 68.3547 47.0117 67.96C47.0117 67.864 47.0384 67.7253 47.0917 67.544L50.9157 55.768C50.9904 55.5333 51.113 55.3573 51.2837 55.24C51.465 55.1227 51.6677 55.064 51.8917 55.064C52.041 55.064 52.1797 55.0853 52.3077 55.128L52.3557 55.144ZM65.4973 55.144C65.4973 54.8347 65.6093 54.5947 65.8333 54.424C66.0573 54.2533 66.3026 54.168 66.5693 54.168C66.836 54.168 67.0813 54.2533 67.3053 54.424C67.5293 54.5947 67.6413 54.8347 67.6413 55.144V69.112C67.6413 69.4213 67.5293 69.6613 67.3053 69.832C67.0813 70.0027 66.836 70.088 66.5693 70.088C66.3026 70.088 66.0573 70.0027 65.8333 69.832C65.6093 69.6613 65.4973 69.4213 65.4973 69.112V55.144ZM55.2893 56.072C55.2893 55.7733 55.396 55.5333 55.6093 55.352C55.8226 55.1707 56.068 55.08 56.3453 55.08C56.6226 55.08 56.868 55.1707 57.0813 55.352C57.2946 55.5333 57.4013 55.7733 57.4013 56.072V58.536H61.1133V56.072C61.1133 55.7733 61.2146 55.5333 61.4173 55.352C61.6306 55.1707 61.8813 55.08 62.1693 55.08C62.4466 55.08 62.692 55.1707 62.9053 55.352C63.1186 55.5333 63.2253 55.7733 63.2253 56.072V63.944C63.2253 64.3173 63.1666 64.6053 63.0493 64.808C62.9426 65 62.7453 65.1653 62.4573 65.304C61.7853 65.624 60.7186 65.784 59.2573 65.784C58.5853 65.784 57.9613 65.7413 57.3853 65.656C56.8093 65.5707 56.3773 65.4587 56.0893 65.32C55.7906 65.1813 55.5826 65.0107 55.4653 64.808C55.348 64.6053 55.2893 64.3173 55.2893 63.944V56.072ZM57.4013 63.608C57.4013 63.6933 57.444 63.7467 57.5293 63.768C57.892 63.8747 58.468 63.928 59.2573 63.928C60.0466 63.928 60.6226 63.8747 60.9853 63.768C61.0706 63.7467 61.1133 63.6933 61.1133 63.608V60.392H57.4013V63.608ZM80.8567 55.144C80.8567 54.8347 80.9687 54.5947 81.1927 54.424C81.4167 54.2533 81.662 54.168 81.9287 54.168C82.1954 54.168 82.4407 54.2533 82.6647 54.424C82.8887 54.5947 83.0007 54.8347 83.0007 55.144V61.112C83.0007 61.4213 82.8887 61.6613 82.6647 61.832C82.4407 62.0027 82.1954 62.088 81.9287 62.088C81.662 62.088 81.4167 62.0027 81.1927 61.832C80.9687 61.6613 80.8567 61.4213 80.8567 61.112V55.144ZM70.6487 55.848C70.6487 55.5387 70.7607 55.2933 70.9847 55.112C71.2087 54.9307 71.4967 54.84 71.8487 54.84H77.4487C77.8007 54.84 78.0887 54.9307 78.3127 55.112C78.5367 55.2933 78.6487 55.5387 78.6487 55.848V59.8C78.6487 60.1733 78.59 60.4613 78.4727 60.664C78.366 60.856 78.1687 61.0213 77.8807 61.16C77.5714 61.3093 77.1287 61.4267 76.5527 61.512C75.9767 61.5973 75.342 61.64 74.6487 61.64C73.9554 61.64 73.3207 61.5973 72.7447 61.512C72.1794 61.4267 71.7474 61.3147 71.4487 61.176C71.15 61.0373 70.942 60.8667 70.8247 60.664C70.7074 60.4613 70.6487 60.1733 70.6487 59.8V55.848ZM72.4567 63.688C72.4567 63.4427 72.5367 63.2347 72.6967 63.064C72.8567 62.8827 73.0807 62.792 73.3687 62.792H81.8007C82.1527 62.792 82.4407 62.8827 82.6647 63.064C82.8887 63.2453 83.0007 63.4907 83.0007 63.8V66.216C83.0007 66.5147 82.894 66.7493 82.6807 66.92C82.478 67.0907 82.2167 67.176 81.8967 67.176H74.7767V68.232H82.4887C82.7767 68.232 83.0007 68.3173 83.1607 68.488C83.3207 68.6693 83.4007 68.8827 83.4007 69.128C83.4007 69.3733 83.3207 69.5813 83.1607 69.752C83.0007 69.9333 82.7767 70.024 82.4887 70.024H73.8327C73.4807 70.024 73.1927 69.9333 72.9687 69.752C72.7447 69.5707 72.6327 69.3253 72.6327 69.016V66.584C72.6327 66.2747 72.7447 66.0293 72.9687 65.848C73.1927 65.6667 73.4807 65.576 73.8327 65.576H80.8567V64.584H73.3687C73.0807 64.584 72.8567 64.4987 72.6967 64.328C72.5367 64.1467 72.4567 63.9333 72.4567 63.688ZM72.7607 59.496C72.7607 59.5813 72.8034 59.6347 72.8887 59.656C73.2514 59.7627 73.838 59.816 74.6487 59.816C75.4594 59.816 76.046 59.7627 76.4087 59.656C76.494 59.6347 76.5367 59.5813 76.5367 59.496V56.664H72.7607V59.496ZM96.2161 55.144C96.2161 54.8347 96.3281 54.5947 96.5521 54.424C96.7761 54.2533 97.0214 54.168 97.2881 54.168C97.5547 54.168 97.8001 54.2533 98.0241 54.424C98.2481 54.5947 98.3601 54.8347 98.3601 55.144V64.312C98.3601 64.6213 98.2481 64.8613 98.0241 65.032C97.8001 65.2027 97.5547 65.288 97.2881 65.288C97.0214 65.288 96.7761 65.2027 96.5521 65.032C96.3281 64.8613 96.2161 64.6213 96.2161 64.312V59.496H93.8481V60.776C93.8481 61.1493 93.7894 61.4373 93.6721 61.64C93.5654 61.832 93.3681 61.9973 93.0801 62.136C92.7707 62.2853 92.3441 62.4027 91.8001 62.488C91.2561 62.5733 90.6427 62.616 89.9601 62.616C89.2774 62.616 88.6534 62.5733 88.0881 62.488C87.5334 62.4027 87.1067 62.2907 86.8081 62.152C86.5094 62.0133 86.3014 61.8427 86.1841 61.64C86.0667 61.4373 86.0081 61.1493 86.0081 60.776V55.784C86.0081 55.4853 86.1147 55.2453 86.3281 55.064C86.5414 54.8827 86.7867 54.792 87.0641 54.792C87.3414 54.792 87.5867 54.8827 87.8001 55.064C88.0134 55.2453 88.1201 55.4853 88.1201 55.784V56.984H91.7361V55.784C91.7361 55.4853 91.8374 55.2453 92.0401 55.064C92.2534 54.8827 92.5041 54.792 92.7921 54.792C93.0694 54.792 93.3147 54.8827 93.5281 55.064C93.7414 55.2453 93.8481 55.4853 93.8481 55.784V57.64H96.2161V55.144ZM88.0081 64.856C88.0081 64.5467 88.1201 64.3067 88.3441 64.136C88.5681 63.9653 88.8134 63.88 89.0801 63.88C89.3467 63.88 89.5921 63.9653 89.8161 64.136C90.0401 64.3067 90.1521 64.5467 90.1521 64.856V67.672C90.1521 67.7467 90.1734 67.8053 90.2161 67.848C90.2587 67.8907 90.3174 67.912 90.3921 67.912H97.8001C98.0774 67.912 98.2961 67.9973 98.4561 68.168C98.6161 68.3387 98.6961 68.5627 98.6961 68.84C98.6961 69.1173 98.6161 69.3413 98.4561 69.512C98.2961 69.6827 98.0774 69.768 97.8001 69.768H89.3841C88.9894 69.768 88.6587 69.6453 88.3921 69.4C88.1361 69.1547 88.0081 68.8453 88.0081 68.472V64.856ZM88.1201 60.472C88.1201 60.5573 88.1627 60.6107 88.2481 60.632C88.6107 60.7387 89.1814 60.792 89.9601 60.792C90.6961 60.792 91.2454 60.7387 91.6081 60.632C91.6934 60.6107 91.7361 60.5573 91.7361 60.472V58.808H88.1201V60.472ZM112.375 61.704C112.375 62.5147 112.05 63.2027 111.399 63.768C110.749 64.3227 109.874 64.6747 108.775 64.824V66.584C110.525 66.52 112.157 66.2907 113.671 65.896C113.735 65.8747 113.831 65.864 113.959 65.864C114.226 65.864 114.445 65.9547 114.615 66.136C114.786 66.3173 114.871 66.5307 114.871 66.776C114.871 66.9787 114.807 67.1653 114.679 67.336C114.551 67.5067 114.359 67.624 114.103 67.688C112.258 68.2 110.125 68.456 107.703 68.456C105.282 68.456 103.149 68.2 101.303 67.688C101.047 67.624 100.855 67.5067 100.727 67.336C100.599 67.1653 100.535 66.9787 100.535 66.776C100.535 66.5307 100.621 66.3173 100.791 66.136C100.962 65.944 101.181 65.848 101.447 65.848C101.543 65.848 101.639 65.864 101.735 65.896C103.229 66.2907 104.861 66.52 106.631 66.584V64.824C105.533 64.6747 104.658 64.3227 104.007 63.768C103.357 63.2027 103.031 62.5147 103.031 61.704C103.031 61.0853 103.223 60.536 103.607 60.056C104.002 59.5653 104.551 59.1867 105.255 58.92C105.97 58.6533 106.786 58.52 107.703 58.52C108.621 58.52 109.431 58.6533 110.135 58.92C110.85 59.1867 111.399 59.5653 111.783 60.056C112.178 60.536 112.375 61.0853 112.375 61.704ZM101.623 56.776C101.623 56.5093 101.709 56.2907 101.879 56.12C102.061 55.9387 102.29 55.848 102.567 55.848C102.663 55.848 102.733 55.8533 102.775 55.864C103.746 56.0453 105.031 56.1573 106.631 56.2V55.352C106.631 55.0533 106.738 54.8187 106.951 54.648C107.175 54.4667 107.426 54.376 107.703 54.376C107.97 54.376 108.215 54.4667 108.439 54.648C108.663 54.8293 108.775 55.064 108.775 55.352V56.2C110.375 56.1573 111.661 56.0453 112.631 55.864C112.674 55.8533 112.743 55.848 112.839 55.848C113.117 55.848 113.341 55.9387 113.511 56.12C113.693 56.2907 113.783 56.5093 113.783 56.776C113.783 57 113.703 57.192 113.543 57.352C113.383 57.512 113.181 57.6187 112.935 57.672C112.306 57.8 111.522 57.896 110.583 57.96C109.655 58.0133 108.695 58.04 107.703 58.04C106.711 58.04 105.746 58.0133 104.807 57.96C103.879 57.896 103.101 57.8 102.471 57.672C102.226 57.6187 102.023 57.512 101.863 57.352C101.703 57.192 101.623 57 101.623 56.776ZM105.175 61.704C105.175 62.1307 105.399 62.472 105.847 62.728C106.306 62.9733 106.925 63.096 107.703 63.096C108.482 63.096 109.095 62.9733 109.543 62.728C110.002 62.472 110.231 62.1307 110.231 61.704C110.231 61.256 110.002 60.9093 109.543 60.664C109.095 60.408 108.482 60.28 107.703 60.28C106.925 60.28 106.306 60.408 105.847 60.664C105.399 60.9093 105.175 61.256 105.175 61.704ZM129.996 55.144C129.996 54.8347 130.108 54.5947 130.332 54.424C130.556 54.2533 130.801 54.168 131.068 54.168C131.334 54.168 131.58 54.2533 131.804 54.424C132.028 54.5947 132.14 54.8347 132.14 55.144V57.816H133.468C133.745 57.816 133.964 57.9013 134.124 58.072C134.284 58.2427 134.364 58.4667 134.364 58.744C134.364 59.0213 134.284 59.2453 134.124 59.416C133.964 59.5867 133.745 59.672 133.468 59.672H132.14V62.488C132.14 62.7973 132.028 63.0373 131.804 63.208C131.58 63.3787 131.334 63.464 131.068 63.464C130.801 63.464 130.556 63.3787 130.332 63.208C130.108 63.0373 129.996 62.7973 129.996 62.488V55.144ZM119.884 61.88C119.884 61.7307 119.942 61.576 120.06 61.416C120.177 61.256 120.332 61.1333 120.524 61.048C121.249 60.7067 121.862 60.296 122.364 59.816C122.876 59.3253 123.19 58.8293 123.308 58.328C123.35 58.168 123.382 57.912 123.404 57.56C122.422 57.5067 121.606 57.416 120.956 57.288C120.71 57.2347 120.518 57.1333 120.38 56.984C120.241 56.824 120.172 56.6267 120.172 56.392C120.172 56.072 120.278 55.832 120.492 55.672C120.716 55.5013 120.972 55.4373 121.26 55.48C121.921 55.5973 122.646 55.6827 123.436 55.736V54.856C123.436 54.568 123.542 54.3333 123.756 54.152C123.969 53.96 124.22 53.864 124.508 53.864C124.796 53.864 125.046 53.96 125.26 54.152C125.473 54.3333 125.58 54.568 125.58 54.856V55.736C126.241 55.672 126.881 55.592 127.5 55.496C127.542 55.4853 127.596 55.48 127.66 55.48C127.916 55.48 128.134 55.56 128.316 55.72C128.497 55.88 128.588 56.104 128.588 56.392C128.588 56.6267 128.518 56.824 128.38 56.984C128.241 57.1333 128.049 57.2347 127.804 57.288C127.004 57.4373 126.268 57.528 125.596 57.56C125.617 57.8907 125.644 58.136 125.676 58.296C125.772 58.744 126.054 59.1813 126.524 59.608C127.004 60.0347 127.59 60.4187 128.284 60.76C128.742 60.984 128.972 61.2773 128.972 61.64C128.972 61.9387 128.87 62.184 128.668 62.376C128.476 62.568 128.257 62.664 128.012 62.664C127.82 62.664 127.601 62.616 127.356 62.52C126.833 62.3067 126.31 62.0027 125.788 61.608C125.276 61.2027 124.854 60.7707 124.524 60.312C124.172 60.8133 123.745 61.2773 123.244 61.704C122.753 62.1307 122.204 62.4773 121.596 62.744C121.34 62.8507 121.116 62.904 120.924 62.904C120.657 62.904 120.417 62.808 120.204 62.616C119.99 62.424 119.884 62.1787 119.884 61.88ZM121.388 69.144C121.388 68.952 121.457 68.7653 121.596 68.584C121.734 68.4133 121.916 68.3067 122.14 68.264C123.11 68.0507 123.894 67.8 124.492 67.512C125.089 67.2347 125.521 66.872 125.788 66.424C125.905 66.2427 125.98 66.0613 126.012 65.88H122.636C122.348 65.88 122.124 65.7947 121.964 65.624C121.804 65.4533 121.724 65.2347 121.724 64.968C121.724 64.6907 121.804 64.472 121.964 64.312C122.124 64.1413 122.348 64.056 122.636 64.056H131.612C131.9 64.056 132.118 64.1413 132.268 64.312C132.428 64.472 132.508 64.6907 132.508 64.968C132.508 65.2453 132.428 65.4693 132.268 65.64C132.118 65.8 131.9 65.88 131.612 65.88H128.252C128.294 66.0507 128.348 66.1947 128.412 66.312C128.646 66.7173 129.046 67.064 129.612 67.352C130.177 67.64 130.993 67.9387 132.06 68.248C132.262 68.312 132.428 68.424 132.556 68.584C132.684 68.744 132.748 68.9147 132.748 69.096C132.748 69.3413 132.657 69.5547 132.476 69.736C132.305 69.9173 132.081 70.008 131.804 70.008C131.601 70.008 131.414 69.9867 131.244 69.944C129.324 69.4747 127.964 68.76 127.164 67.8C126.3 68.888 124.844 69.624 122.796 70.008C122.604 70.04 122.449 70.056 122.332 70.056C122.022 70.056 121.788 69.9707 121.628 69.8C121.468 69.6293 121.388 69.4107 121.388 69.144ZM146.091 55.144C146.091 54.8347 146.203 54.5947 146.427 54.424C146.651 54.2533 146.896 54.168 147.163 54.168C147.43 54.168 147.675 54.2533 147.899 54.424C148.123 54.5947 148.235 54.8347 148.235 55.144V69.112C148.235 69.4213 148.123 69.6613 147.899 69.832C147.675 70.0027 147.43 70.088 147.163 70.088C146.896 70.088 146.651 70.0027 146.427 69.832C146.203 69.6613 146.091 69.4213 146.091 69.112V55.144ZM135.739 56.344C135.739 56.0667 135.814 55.8427 135.963 55.672C136.123 55.5013 136.342 55.416 136.619 55.416H142.923C143.211 55.416 143.456 55.5013 143.659 55.672C143.862 55.8427 143.963 56.072 143.963 56.36C143.963 57.1493 143.846 57.9973 143.611 58.904C143.259 60.3333 142.582 61.624 141.579 62.776C140.576 63.9173 139.195 64.9093 137.435 65.752C137.222 65.848 137.035 65.896 136.875 65.896C136.587 65.896 136.336 65.7947 136.123 65.592C135.92 65.3893 135.819 65.1493 135.819 64.872C135.819 64.5093 135.984 64.248 136.315 64.088C137.798 63.4053 138.971 62.5787 139.835 61.608C140.699 60.6373 141.28 59.5653 141.579 58.392C141.686 57.912 141.75 57.5387 141.771 57.272H136.619C136.342 57.272 136.123 57.1867 135.963 57.016C135.814 56.8453 135.739 56.6213 135.739 56.344Z" fill="#75C382"/>
<path d="M18.928 10.252C18.928 9.71067 19.124 9.29067 19.516 8.992C19.908 8.69333 20.3373 8.544 20.804 8.544C21.2707 8.544 21.7 8.69333 22.092 8.992C22.484 9.29067 22.68 9.71067 22.68 10.252V14.228H25.004C25.4893 14.228 25.872 14.3773 26.152 14.676C26.432 14.9747 26.572 15.3667 26.572 15.852C26.572 16.3373 26.432 16.7293 26.152 17.028C25.872 17.3267 25.4893 17.476 25.004 17.476H22.68V22.264C22.68 22.8053 22.484 23.2253 22.092 23.524C21.7 23.8227 21.2707 23.972 20.804 23.972C20.3373 23.972 19.908 23.8227 19.516 23.524C19.124 23.2253 18.928 22.8053 18.928 22.264V10.252ZM1.316 21.396C1.316 21.0787 1.40933 20.78 1.596 20.5C1.78267 20.22 2.044 19.996 2.38 19.828C3.332 19.324 4.19067 18.708 4.956 17.98C5.72133 17.2333 6.28133 16.4307 6.636 15.572C6.89733 14.9373 7.084 14.3773 7.196 13.892C7.308 13.4067 7.364 12.8933 7.364 12.352V11.204C7.364 10.6627 7.56 10.2427 7.952 9.944C8.344 9.64533 8.77333 9.496 9.24 9.496C9.70667 9.496 10.136 9.64533 10.528 9.944C10.92 10.2427 11.116 10.6627 11.116 11.204V12.268C11.116 12.828 11.1627 13.36 11.256 13.864C11.368 14.368 11.5453 14.9187 11.788 15.516C12.3667 16.972 13.7013 18.316 15.792 19.548C16.52 19.9773 16.884 20.4813 16.884 21.06C16.884 21.5267 16.7253 21.928 16.408 22.264C16.0907 22.5813 15.6613 22.74 15.12 22.74C14.8027 22.74 14.4573 22.656 14.084 22.488C13.188 22.04 12.292 21.4333 11.396 20.668C10.5187 19.884 9.8 19.0253 9.24 18.092C8.64267 19.044 7.91467 19.9213 7.056 20.724C6.19733 21.5267 5.28267 22.18 4.312 22.684C3.93867 22.8707 3.50933 22.964 3.024 22.964C2.53867 22.964 2.128 22.824 1.792 22.544C1.47467 22.2453 1.316 21.8627 1.316 21.396ZM5.012 27.052C5.012 26.5107 5.208 26.0813 5.6 25.764C5.992 25.4467 6.496 25.288 7.112 25.288H20.58C21.196 25.288 21.7 25.4467 22.092 25.764C22.484 26.0813 22.68 26.5107 22.68 27.052V34.388C22.68 34.9293 22.484 35.3587 22.092 35.676C21.7 35.9933 21.196 36.152 20.58 36.152H7.112C6.496 36.152 5.992 35.9933 5.6 35.676C5.208 35.3587 5.012 34.9293 5.012 34.388V27.052ZM18.928 28.48H8.764V32.96H18.928V28.48ZM47.0949 10.252C47.0949 9.71067 47.2909 9.29067 47.6829 8.992C48.0749 8.69333 48.5042 8.544 48.9709 8.544C49.4376 8.544 49.8669 8.69333 50.2589 8.992C50.6509 9.29067 50.8469 9.71067 50.8469 10.252V34.696C50.8469 35.2373 50.6509 35.6573 50.2589 35.956C49.8669 36.2547 49.4376 36.404 48.9709 36.404C48.5042 36.404 48.0749 36.2547 47.6829 35.956C47.2909 35.6573 47.0949 35.2373 47.0949 34.696V10.252ZM28.4189 27.472C28.4189 26.9493 28.6616 26.492 29.1469 26.1C30.2856 25.1853 31.2656 24.1027 32.0869 22.852C32.9269 21.5827 33.5522 20.2853 33.9629 18.96C34.4482 17.3733 34.6909 15.7027 34.6909 13.948V11.82C34.6909 11.2787 34.8776 10.8587 35.2509 10.56C35.6242 10.2613 36.0536 10.112 36.5389 10.112C37.0429 10.112 37.4722 10.2613 37.8269 10.56C38.2002 10.8587 38.3869 11.2787 38.3869 11.82V13.948C38.3869 15.572 38.6109 17.224 39.0589 18.904C39.4322 20.3227 40.0389 21.62 40.8789 22.796C41.7376 23.9533 42.7456 24.952 43.9029 25.792C44.4256 26.2027 44.6869 26.66 44.6869 27.164C44.6869 27.6307 44.5002 28.032 44.1269 28.368C43.7536 28.704 43.3242 28.872 42.8389 28.872C42.4282 28.872 42.0362 28.7413 41.6629 28.48C39.5722 27.0053 37.8642 24.9987 36.5389 22.46C35.1016 25.1293 33.4589 27.2013 31.6109 28.676C31.1816 29.012 30.7336 29.18 30.2669 29.18C29.7816 29.18 29.3522 29.0213 28.9789 28.704C28.6056 28.368 28.4189 27.9573 28.4189 27.472ZM56.6978 28.508C56.2311 28.508 55.8298 28.3493 55.4938 28.032C55.1578 27.696 54.9898 27.2947 54.9898 26.828C54.9898 26.38 55.2045 25.9227 55.6338 25.456C56.5111 24.504 57.2111 23.5147 57.7338 22.488C58.2565 21.4613 58.6765 20.3133 58.9938 19.044C59.2178 18.204 59.3671 17.3827 59.4418 16.58C59.5351 15.7587 59.5818 14.8533 59.5818 13.864V11.736C59.5818 11.1947 59.7685 10.7747 60.1418 10.476C60.5338 10.1773 60.9631 10.028 61.4298 10.028C61.9151 10.028 62.3445 10.1773 62.7178 10.476C63.0911 10.756 63.2778 11.176 63.2778 11.736V13.864C63.2778 15.8987 63.4551 17.616 63.8098 19.016C64.1458 20.36 64.5658 21.5267 65.0698 22.516C65.5925 23.4867 66.2645 24.4573 67.0858 25.428C67.3098 25.6893 67.4871 25.9413 67.6178 26.184C67.7485 26.408 67.8138 26.6693 67.8138 26.968C67.8138 27.3787 67.6551 27.7427 67.3378 28.06C67.0205 28.3587 66.6285 28.508 66.1618 28.508C65.7511 28.508 65.3871 28.4053 65.0698 28.2C64.7525 27.9947 64.4351 27.696 64.1178 27.304C63.4645 26.464 62.8671 25.512 62.3258 24.448C61.8031 23.3653 61.4951 22.4133 61.4018 21.592C61.2898 22.4133 60.9725 23.356 60.4498 24.42C59.9271 25.4653 59.3391 26.4173 58.6858 27.276C58.3311 27.724 58.0231 28.0413 57.7618 28.228C57.5005 28.4147 57.1458 28.508 56.6978 28.508ZM65.6578 18.288C65.6578 17.8027 65.7978 17.4107 66.0778 17.112C66.3578 16.8133 66.7405 16.664 67.2258 16.664H69.0738V10.56C69.0738 10.0187 69.2698 9.59867 69.6618 9.3C70.0538 9.00133 70.4738 8.852 70.9218 8.852C71.3885 8.852 71.8085 9.00133 72.1818 9.3C72.5738 9.58 72.7698 10 72.7698 10.56V34.136C72.7698 34.696 72.5738 35.116 72.1818 35.396C71.8085 35.6947 71.3885 35.844 70.9218 35.844C70.4738 35.844 70.0538 35.6947 69.6618 35.396C69.2698 35.0973 69.0738 34.6773 69.0738 34.136V19.912H67.2258C66.7405 19.912 66.3578 19.7627 66.0778 19.464C65.7978 19.1653 65.6578 18.7733 65.6578 18.288ZM74.8698 10.252C74.8698 9.71067 75.0658 9.29067 75.4578 8.992C75.8498 8.69333 76.2698 8.544 76.7178 8.544C77.1845 8.544 77.6045 8.69333 77.9778 8.992C78.3698 9.272 78.5658 9.692 78.5658 10.252V34.64C78.5658 35.2 78.3698 35.62 77.9778 35.9C77.6045 36.1987 77.1845 36.348 76.7178 36.348C76.2698 36.348 75.8498 36.1987 75.4578 35.9C75.0658 35.6013 74.8698 35.1813 74.8698 34.64V10.252ZM100.853 10.252C100.853 9.71067 101.049 9.29067 101.441 8.992C101.833 8.69333 102.262 8.544 102.729 8.544C103.195 8.544 103.625 8.69333 104.017 8.992C104.409 9.29067 104.605 9.71067 104.605 10.252V34.696C104.605 35.2373 104.409 35.6573 104.017 35.956C103.625 36.2547 103.195 36.404 102.729 36.404C102.262 36.404 101.833 36.2547 101.441 35.956C101.049 35.6573 100.853 35.2373 100.853 34.696V10.252ZM82.5407 25.232C83.7914 23.3093 84.7527 21.3587 85.4247 19.38C86.1154 17.3827 86.4607 15.5627 86.4607 13.92H83.8007C83.3714 13.92 83.0354 13.7613 82.7927 13.444C82.5501 13.1267 82.4287 12.744 82.4287 12.296C82.4287 11.848 82.5501 11.4653 82.7927 11.148C83.0354 10.8307 83.3714 10.672 83.8007 10.672H88.2247C88.7474 10.672 89.1861 10.84 89.5407 11.176C89.9141 11.4933 90.1007 11.904 90.1007 12.408C90.1007 18.008 88.5421 22.992 85.4247 27.36C85.0701 27.8453 84.6127 28.088 84.0527 28.088C83.5674 28.088 83.1287 27.92 82.7367 27.584C82.3634 27.2293 82.1767 26.8093 82.1767 26.324C82.1767 25.9693 82.2981 25.6053 82.5407 25.232ZM91.1367 26.94C92.2941 24.812 93.1341 22.712 93.6567 20.64C94.1794 18.5493 94.4407 16.272 94.4407 13.808H92.1727C91.7994 13.808 91.5007 13.6493 91.2767 13.332C91.0714 12.996 90.9687 12.6133 90.9687 12.184C90.9687 11.7547 91.0714 11.3813 91.2767 11.064C91.5007 10.728 91.7994 10.56 92.1727 10.56H96.1767C96.6994 10.56 97.1381 10.728 97.4927 11.064C97.8661 11.3813 98.0527 11.792 98.0527 12.296C98.0527 15.88 97.7541 18.9133 97.1567 21.396C96.5781 23.86 95.5981 26.324 94.2167 28.788C93.9181 29.3107 93.4701 29.572 92.8727 29.572C92.3874 29.572 91.9394 29.3947 91.5287 29.04C91.1181 28.6853 90.9127 28.2653 90.9127 27.78C90.9127 27.4627 90.9874 27.1827 91.1367 26.94Z" fill="#75C382"/>
</svg>
