<svg width="124" height="13" viewBox="0 0 124 13" fill="none" xmlns="http://www.w3.org/2000/svg">
<path d="M7.69134 1.108C7.69134 0.875999 7.77534 0.696 7.94334 0.568C8.11134 0.44 8.29534 0.375999 8.49534 0.375999C8.69534 0.375999 8.87934 0.44 9.04734 0.568C9.21534 0.696 9.29934 0.875999 9.29934 1.108V11.584C9.29934 11.816 9.21534 11.996 9.04734 12.124C8.87934 12.252 8.69534 12.316 8.49534 12.316C8.29534 12.316 8.11134 12.252 7.94334 12.124C7.77534 11.996 7.69134 11.816 7.69134 11.584V1.108ZM0.0353438 1.804C0.0353438 1.58 0.115344 1.4 0.275344 1.264C0.435344 1.128 0.619344 1.06 0.827344 1.06C1.03534 1.06 1.21934 1.128 1.37934 1.264C1.53934 1.4 1.61934 1.58 1.61934 1.804V3.652H4.40334V1.804C4.40334 1.58 4.47934 1.4 4.63134 1.264C4.79134 1.128 4.97934 1.06 5.19534 1.06C5.40334 1.06 5.58734 1.128 5.74734 1.264C5.90734 1.4 5.98734 1.58 5.98734 1.804V7.708C5.98734 7.988 5.94334 8.204 5.85534 8.356C5.77534 8.5 5.62734 8.624 5.41134 8.728C4.90734 8.968 4.10734 9.088 3.01134 9.088C2.50734 9.088 2.03934 9.056 1.60734 8.992C1.17534 8.928 0.851344 8.844 0.635344 8.74C0.411344 8.636 0.255344 8.508 0.167344 8.356C0.0793438 8.204 0.0353438 7.988 0.0353438 7.708V1.804ZM1.61934 7.456C1.61934 7.52 1.65134 7.56 1.71534 7.576C1.98734 7.656 2.41934 7.696 3.01134 7.696C3.60334 7.696 4.03534 7.656 4.30734 7.576C4.37134 7.56 4.40334 7.52 4.40334 7.456V5.044H1.61934V7.456ZM19.2109 1.108C19.2109 0.875999 19.2949 0.696 19.4629 0.568C19.6309 0.44 19.8149 0.375999 20.0149 0.375999C20.2149 0.375999 20.3989 0.44 20.5669 0.568C20.7349 0.696 20.8189 0.875999 20.8189 1.108V5.584C20.8189 5.816 20.7349 5.996 20.5669 6.124C20.3989 6.252 20.2149 6.316 20.0149 6.316C19.8149 6.316 19.6309 6.252 19.4629 6.124C19.2949 5.996 19.2109 5.816 19.2109 5.584V1.108ZM11.5549 1.636C11.5549 1.404 11.6389 1.22 11.8069 1.084C11.9749 0.947999 12.1909 0.879999 12.4549 0.879999H16.6549C16.9189 0.879999 17.1349 0.947999 17.3029 1.084C17.4709 1.22 17.5549 1.404 17.5549 1.636V4.6C17.5549 4.88 17.5109 5.096 17.4229 5.248C17.3429 5.392 17.1949 5.516 16.9789 5.62C16.7469 5.732 16.4149 5.82 15.9829 5.884C15.5509 5.948 15.0749 5.98 14.5549 5.98C14.0349 5.98 13.5589 5.948 13.1269 5.884C12.7029 5.82 12.3789 5.736 12.1549 5.632C11.9309 5.528 11.7749 5.4 11.6869 5.248C11.5989 5.096 11.5549 4.88 11.5549 4.6V1.636ZM12.9109 7.516C12.9109 7.332 12.9709 7.176 13.0909 7.048C13.2109 6.912 13.3789 6.844 13.5949 6.844H19.9189C20.1829 6.844 20.3989 6.912 20.5669 7.048C20.7349 7.184 20.8189 7.368 20.8189 7.6V9.412C20.8189 9.636 20.7389 9.812 20.5789 9.94C20.4269 10.068 20.2309 10.132 19.9909 10.132H14.6509V10.924H20.4349C20.6509 10.924 20.8189 10.988 20.9389 11.116C21.0589 11.252 21.1189 11.412 21.1189 11.596C21.1189 11.78 21.0589 11.936 20.9389 12.064C20.8189 12.2 20.6509 12.268 20.4349 12.268H13.9429C13.6789 12.268 13.4629 12.2 13.2949 12.064C13.1269 11.928 13.0429 11.744 13.0429 11.512V9.688C13.0429 9.456 13.1269 9.272 13.2949 9.136C13.4629 9 13.6789 8.932 13.9429 8.932H19.2109V8.188H13.5949C13.3789 8.188 13.2109 8.124 13.0909 7.996C12.9709 7.86 12.9109 7.7 12.9109 7.516ZM13.1389 4.372C13.1389 4.436 13.1709 4.476 13.2349 4.492C13.5069 4.572 13.9469 4.612 14.5549 4.612C15.1629 4.612 15.6029 4.572 15.8749 4.492C15.9389 4.476 15.9709 4.436 15.9709 4.372V2.248H13.1389V4.372ZM30.7304 1.108C30.7304 0.875999 30.8144 0.696 30.9824 0.568C31.1504 0.44 31.3344 0.375999 31.5344 0.375999C31.7344 0.375999 31.9184 0.44 32.0864 0.568C32.2544 0.696 32.3384 0.875999 32.3384 1.108V7.984C32.3384 8.216 32.2544 8.396 32.0864 8.524C31.9184 8.652 31.7344 8.716 31.5344 8.716C31.3344 8.716 31.1504 8.652 30.9824 8.524C30.8144 8.396 30.7304 8.216 30.7304 7.984V4.372H28.9544V5.332C28.9544 5.612 28.9104 5.828 28.8224 5.98C28.7424 6.124 28.5944 6.248 28.3784 6.352C28.1464 6.464 27.8264 6.552 27.4184 6.616C27.0104 6.68 26.5504 6.712 26.0384 6.712C25.5264 6.712 25.0584 6.68 24.6344 6.616C24.2184 6.552 23.8984 6.468 23.6744 6.364C23.4504 6.26 23.2944 6.132 23.2064 5.98C23.1184 5.828 23.0744 5.612 23.0744 5.332V1.588C23.0744 1.364 23.1544 1.184 23.3144 1.048C23.4744 0.912 23.6584 0.844 23.8664 0.844C24.0744 0.844 24.2584 0.912 24.4184 1.048C24.5784 1.184 24.6584 1.364 24.6584 1.588V2.488H27.3704V1.588C27.3704 1.364 27.4464 1.184 27.5984 1.048C27.7584 0.912 27.9464 0.844 28.1624 0.844C28.3704 0.844 28.5544 0.912 28.7144 1.048C28.8744 1.184 28.9544 1.364 28.9544 1.588V2.98H30.7304V1.108ZM24.5744 8.392C24.5744 8.16 24.6584 7.98 24.8264 7.852C24.9944 7.724 25.1784 7.66 25.3784 7.66C25.5784 7.66 25.7624 7.724 25.9304 7.852C26.0984 7.98 26.1824 8.16 26.1824 8.392V10.504C26.1824 10.56 26.1984 10.604 26.2304 10.636C26.2624 10.668 26.3064 10.684 26.3624 10.684H31.9184C32.1264 10.684 32.2904 10.748 32.4104 10.876C32.5304 11.004 32.5904 11.172 32.5904 11.38C32.5904 11.588 32.5304 11.756 32.4104 11.884C32.2904 12.012 32.1264 12.076 31.9184 12.076H25.6064C25.3104 12.076 25.0624 11.984 24.8624 11.8C24.6704 11.616 24.5744 11.384 24.5744 11.104V8.392ZM24.6584 5.104C24.6584 5.168 24.6904 5.208 24.7544 5.224C25.0264 5.304 25.4544 5.344 26.0384 5.344C26.5904 5.344 27.0024 5.304 27.2744 5.224C27.3384 5.208 27.3704 5.168 27.3704 5.104V3.856H24.6584V5.104ZM42.8499 6.028C42.8499 6.636 42.6059 7.152 42.1179 7.576C41.6299 7.992 40.9739 8.256 40.1499 8.368V9.688C41.4619 9.64 42.6859 9.468 43.8219 9.172C43.8699 9.156 43.9419 9.148 44.0379 9.148C44.2379 9.148 44.4019 9.216 44.5299 9.352C44.6579 9.488 44.7219 9.648 44.7219 9.832C44.7219 9.984 44.6739 10.124 44.5779 10.252C44.4819 10.38 44.3379 10.468 44.1459 10.516C42.7619 10.9 41.1619 11.092 39.3459 11.092C37.5299 11.092 35.9299 10.9 34.5459 10.516C34.3539 10.468 34.2099 10.38 34.1139 10.252C34.0179 10.124 33.9699 9.984 33.9699 9.832C33.9699 9.648 34.0339 9.488 34.1619 9.352C34.2899 9.208 34.4539 9.136 34.6539 9.136C34.7259 9.136 34.7979 9.148 34.8699 9.172C35.9899 9.468 37.2139 9.64 38.5419 9.688V8.368C37.7179 8.256 37.0619 7.992 36.5739 7.576C36.0859 7.152 35.8419 6.636 35.8419 6.028C35.8419 5.564 35.9859 5.152 36.2739 4.792C36.5699 4.424 36.9819 4.14 37.5099 3.94C38.0459 3.74 38.6579 3.64 39.3459 3.64C40.0339 3.64 40.6419 3.74 41.1699 3.94C41.7059 4.14 42.1179 4.424 42.4059 4.792C42.7019 5.152 42.8499 5.564 42.8499 6.028ZM34.7859 2.332C34.7859 2.132 34.8499 1.968 34.9779 1.84C35.1139 1.704 35.2859 1.636 35.4939 1.636C35.5659 1.636 35.6179 1.64 35.6499 1.648C36.3779 1.784 37.3419 1.868 38.5419 1.9V1.264C38.5419 1.04 38.6219 0.864 38.7819 0.736C38.9499 0.6 39.1379 0.532 39.3459 0.532C39.5459 0.532 39.7299 0.6 39.8979 0.736C40.0659 0.872 40.1499 1.048 40.1499 1.264V1.9C41.3499 1.868 42.3139 1.784 43.0419 1.648C43.0739 1.64 43.1259 1.636 43.1979 1.636C43.4059 1.636 43.5739 1.704 43.7019 1.84C43.8379 1.968 43.9059 2.132 43.9059 2.332C43.9059 2.5 43.8459 2.644 43.7259 2.764C43.6059 2.884 43.4539 2.964 43.2699 3.004C42.7979 3.1 42.2099 3.172 41.5059 3.22C40.8099 3.26 40.0899 3.28 39.3459 3.28C38.6019 3.28 37.8779 3.26 37.1739 3.22C36.4779 3.172 35.8939 3.1 35.4219 3.004C35.2379 2.964 35.0859 2.884 34.9659 2.764C34.8459 2.644 34.7859 2.5 34.7859 2.332ZM37.4499 6.028C37.4499 6.348 37.6179 6.604 37.9539 6.796C38.2979 6.98 38.7619 7.072 39.3459 7.072C39.9299 7.072 40.3899 6.98 40.7259 6.796C41.0699 6.604 41.2419 6.348 41.2419 6.028C41.2419 5.692 41.0699 5.432 40.7259 5.248C40.3899 5.056 39.9299 4.96 39.3459 4.96C38.7619 4.96 38.2979 5.056 37.9539 5.248C37.6179 5.432 37.4499 5.692 37.4499 6.028ZM47.0135 3.208C47.0135 2.976 47.0975 2.792 47.2655 2.656C47.4335 2.52 47.6495 2.452 47.9135 2.452H53.0735V1.948H47.6255C47.4015 1.948 47.2255 1.888 47.0975 1.768C46.9695 1.64 46.9055 1.492 46.9055 1.324C46.9055 1.156 46.9695 1.012 47.0975 0.891999C47.2255 0.763999 47.4015 0.7 47.6255 0.7H53.7815C54.0455 0.7 54.2615 0.768 54.4295 0.904C54.5975 1.04 54.6815 1.224 54.6815 1.456V2.956C54.6815 3.148 54.6015 3.308 54.4415 3.436C54.2895 3.564 54.1015 3.628 53.8775 3.628H48.6215V3.928C48.6215 4 48.6575 4.044 48.7295 4.06C49.2335 4.132 49.9415 4.168 50.8535 4.168C51.3815 4.168 51.9535 4.152 52.5695 4.12C53.1855 4.08 53.7295 4.024 54.2015 3.952C54.2415 3.944 54.2975 3.94 54.3695 3.94C54.5935 3.932 54.7655 3.984 54.8855 4.096C55.0055 4.2 55.0655 4.344 55.0655 4.528C55.0655 4.688 55.0135 4.828 54.9095 4.948C54.8135 5.068 54.6575 5.144 54.4415 5.176C53.9455 5.256 53.3735 5.316 52.7255 5.356C52.0775 5.396 51.4535 5.416 50.8535 5.416C49.5255 5.416 48.5295 5.332 47.8655 5.164C47.5535 5.084 47.3335 4.956 47.2055 4.78C47.0775 4.604 47.0135 4.356 47.0135 4.036V3.208ZM46.1375 7.168C45.9375 7.168 45.7775 7.104 45.6575 6.976C45.5455 6.848 45.4895 6.696 45.4895 6.52C45.4895 6.352 45.5455 6.208 45.6575 6.088C45.7775 5.96 45.9375 5.896 46.1375 5.896H55.5935C55.8015 5.896 55.9615 5.96 56.0735 6.088C56.1855 6.208 56.2415 6.352 56.2415 6.52C56.2415 6.696 56.1855 6.848 56.0735 6.976C55.9615 7.104 55.8015 7.168 55.5935 7.168H46.1375ZM46.8815 8.296C46.8815 8.12 46.9375 7.976 47.0495 7.864C47.1615 7.744 47.3255 7.684 47.5415 7.684H53.7215C53.9855 7.684 54.2015 7.752 54.3695 7.888C54.5375 8.024 54.6215 8.208 54.6215 8.44V9.844C54.6215 10.068 54.5415 10.244 54.3815 10.372C54.2215 10.5 54.0215 10.564 53.7815 10.564H48.5975V11.044H54.3575C54.5815 11.044 54.7455 11.1 54.8495 11.212C54.9615 11.324 55.0175 11.472 55.0175 11.656C55.0175 11.832 54.9615 11.976 54.8495 12.088C54.7455 12.208 54.5815 12.268 54.3575 12.268H47.8895C47.6255 12.268 47.4095 12.2 47.2415 12.064C47.0735 11.928 46.9895 11.744 46.9895 11.512V10.12C46.9895 9.888 47.0735 9.704 47.2415 9.568C47.4095 9.432 47.6255 9.364 47.8895 9.364H53.0135V8.908H47.5415C47.3335 8.908 47.1695 8.852 47.0495 8.74C46.9375 8.62 46.8815 8.472 46.8815 8.296ZM66.7807 3.676C66.7807 4.236 66.6407 4.732 66.3607 5.164C66.0807 5.596 65.6927 5.932 65.1967 6.172C64.7007 6.412 64.1407 6.532 63.5167 6.532C62.8927 6.532 62.3327 6.412 61.8367 6.172C61.3407 5.932 60.9527 5.596 60.6727 5.164C60.3927 4.732 60.2527 4.236 60.2527 3.676C60.2527 3.116 60.3927 2.616 60.6727 2.176C60.9527 1.736 61.3407 1.392 61.8367 1.144C62.3327 0.895999 62.8927 0.771999 63.5167 0.771999C64.1407 0.771999 64.7007 0.895999 65.1967 1.144C65.6927 1.392 66.0807 1.736 66.3607 2.176C66.6407 2.616 66.7807 3.116 66.7807 3.676ZM61.5367 11.608C61.5367 11.464 61.5887 11.324 61.6927 11.188C61.7967 11.06 61.9327 10.98 62.1007 10.948C63.5487 10.62 64.4767 10.12 64.8847 9.448C64.9807 9.288 65.0447 9.112 65.0767 8.92H62.4727C62.2567 8.92 62.0887 8.856 61.9687 8.728C61.8487 8.6 61.7887 8.436 61.7887 8.236C61.7887 8.028 61.8487 7.864 61.9687 7.744C62.0887 7.616 62.2567 7.552 62.4727 7.552H69.3007C69.5167 7.552 69.6807 7.616 69.7927 7.744C69.9127 7.864 69.9727 8.028 69.9727 8.236C69.9727 8.444 69.9127 8.612 69.7927 8.74C69.6807 8.86 69.5167 8.92 69.3007 8.92H66.7207C66.7367 9.096 66.7807 9.244 66.8527 9.364C67.0367 9.676 67.3567 9.96 67.8127 10.216C68.2687 10.472 68.8767 10.712 69.6367 10.936C69.7887 10.984 69.9127 11.068 70.0087 11.188C70.1047 11.308 70.1527 11.436 70.1527 11.572C70.1527 11.756 70.0847 11.916 69.9487 12.052C69.8207 12.188 69.6527 12.256 69.4447 12.256C69.2927 12.256 69.1527 12.24 69.0247 12.208C68.3767 12.048 67.7767 11.816 67.2247 11.512C66.6807 11.216 66.2447 10.872 65.9167 10.48C65.5647 10.92 65.0967 11.292 64.5127 11.596C63.9367 11.9 63.2967 12.12 62.5927 12.256C62.4487 12.28 62.3327 12.292 62.2447 12.292C62.0127 12.292 61.8367 12.228 61.7167 12.1C61.5967 11.972 61.5367 11.808 61.5367 11.608ZM61.8367 3.676C61.8367 4.132 61.9887 4.496 62.2927 4.768C62.6047 5.04 63.0127 5.176 63.5167 5.176C64.0207 5.176 64.4247 5.04 64.7287 4.768C65.0407 4.496 65.1967 4.132 65.1967 3.676C65.1967 3.212 65.0407 2.84 64.7287 2.56C64.4167 2.272 64.0127 2.128 63.5167 2.128C63.0207 2.128 62.6167 2.272 62.3047 2.56C61.9927 2.84 61.8367 3.212 61.8367 3.676ZM68.1367 1.108C68.1367 0.875999 68.2207 0.696 68.3887 0.568C68.5567 0.44 68.7407 0.375999 68.9407 0.375999C69.1407 0.375999 69.3247 0.44 69.4927 0.568C69.6607 0.696 69.7447 0.875999 69.7447 1.108V6.256C69.7447 6.488 69.6607 6.668 69.4927 6.796C69.3247 6.924 69.1407 6.988 68.9407 6.988C68.7407 6.988 68.5567 6.924 68.3887 6.796C68.2207 6.668 68.1367 6.488 68.1367 6.256V1.108ZM76.7522 7.6C75.9842 7.6 75.2962 7.46 74.6882 7.18C74.0882 6.892 73.6202 6.496 73.2842 5.992C72.9482 5.488 72.7802 4.92 72.7802 4.288C72.7802 3.656 72.9482 3.088 73.2842 2.584C73.6202 2.08 74.0882 1.688 74.6882 1.408C75.2962 1.12 75.9842 0.976 76.7522 0.976C77.5202 0.976 78.2042 1.12 78.8042 1.408C79.4122 1.688 79.8842 2.08 80.2202 2.584C80.5562 3.088 80.7242 3.656 80.7242 4.288C80.7242 4.92 80.5562 5.488 80.2202 5.992C79.8842 6.496 79.4122 6.892 78.8042 7.18C78.2042 7.46 77.5202 7.6 76.7522 7.6ZM71.3762 9.688C71.3762 9.504 71.4402 9.344 71.5682 9.208C71.6962 9.064 71.8602 8.992 72.0602 8.992C72.1322 8.992 72.2042 9.004 72.2762 9.028C73.6282 9.38 75.1202 9.556 76.7522 9.556C78.3842 9.556 79.8762 9.38 81.2282 9.028C81.2762 9.012 81.3482 9.004 81.4442 9.004C81.6442 9.004 81.8082 9.072 81.9362 9.208C82.0642 9.344 82.1282 9.504 82.1282 9.688C82.1282 9.84 82.0802 9.98 81.9842 10.108C81.8882 10.236 81.7442 10.324 81.5522 10.372C80.1682 10.756 78.5682 10.948 76.7522 10.948C74.9362 10.948 73.3362 10.756 71.9522 10.372C71.7602 10.324 71.6162 10.236 71.5202 10.108C71.4242 9.98 71.3762 9.84 71.3762 9.688ZM74.3642 4.288C74.3642 4.656 74.4602 4.988 74.6522 5.284C74.8442 5.58 75.1202 5.812 75.4802 5.98C75.8402 6.148 76.2642 6.232 76.7522 6.232C77.2402 6.232 77.6642 6.148 78.0242 5.98C78.3842 5.812 78.6602 5.58 78.8522 5.284C79.0442 4.988 79.1402 4.656 79.1402 4.288C79.1402 3.92 79.0442 3.588 78.8522 3.292C78.6602 2.996 78.3842 2.764 78.0242 2.596C77.6642 2.428 77.2402 2.344 76.7522 2.344C76.2642 2.344 75.8402 2.428 75.4802 2.596C75.1202 2.764 74.8442 2.996 74.6522 3.292C74.4602 3.588 74.3642 3.92 74.3642 4.288ZM91.1757 1.108C91.1757 0.875999 91.2597 0.696 91.4277 0.568C91.5957 0.44 91.7797 0.375999 91.9797 0.375999C92.1797 0.375999 92.3637 0.44 92.5317 0.568C92.6997 0.696 92.7837 0.875999 92.7837 1.108V6.184C92.7837 6.416 92.6997 6.596 92.5317 6.724C92.3637 6.852 92.1797 6.916 91.9797 6.916C91.7797 6.916 91.5957 6.852 91.4277 6.724C91.2597 6.596 91.1757 6.416 91.1757 6.184V4.972H89.9637C89.7477 4.972 89.5837 4.912 89.4717 4.792C89.3597 4.664 89.3037 4.504 89.3037 4.312C89.3037 4.112 89.3597 3.952 89.4717 3.832C89.5917 3.712 89.7557 3.652 89.9637 3.652H91.1757V2.956H89.8437C89.6277 2.956 89.4637 2.896 89.3517 2.776C89.2397 2.648 89.1837 2.488 89.1837 2.296C89.1837 2.096 89.2397 1.936 89.3517 1.816C89.4717 1.696 89.6357 1.636 89.8437 1.636H91.1757V1.108ZM83.2677 5.932C83.2677 5.66 83.4197 5.448 83.7237 5.296C84.1237 5.088 84.4877 4.816 84.8157 4.48C85.1517 4.144 85.3957 3.788 85.5477 3.412C85.6597 3.14 85.7397 2.896 85.7877 2.68C85.8357 2.464 85.8597 2.24 85.8597 2.008V1.516C85.8597 1.284 85.9437 1.104 86.1117 0.976C86.2797 0.848 86.4637 0.784 86.6637 0.784C86.8637 0.784 87.0477 0.848 87.2157 0.976C87.3837 1.104 87.4677 1.284 87.4677 1.516V1.972C87.4677 2.46 87.5637 2.932 87.7557 3.388C87.9077 3.748 88.1357 4.08 88.4397 4.384C88.7517 4.688 89.0957 4.952 89.4717 5.176C89.7837 5.36 89.9397 5.576 89.9397 5.824C89.9397 6.024 89.8677 6.196 89.7237 6.34C89.5797 6.476 89.3997 6.544 89.1837 6.544C89.0477 6.544 88.8997 6.508 88.7397 6.436C88.3717 6.252 87.9957 5.984 87.6117 5.632C87.2357 5.28 86.9197 4.9 86.6637 4.492C86.4077 4.924 86.0957 5.312 85.7277 5.656C85.3677 6 84.9757 6.288 84.5517 6.52C84.3917 6.6 84.2077 6.64 83.9997 6.64C83.7917 6.64 83.6157 6.572 83.4717 6.436C83.3357 6.3 83.2677 6.132 83.2677 5.932ZM83.8557 11.596C83.8557 11.388 83.9677 11.2 84.1917 11.032C84.5277 10.784 84.8277 10.48 85.0917 10.12C85.3557 9.768 85.5317 9.42 85.6197 9.076C85.6917 8.796 85.7277 8.512 85.7277 8.224V8.032C85.7277 7.824 85.8077 7.66 85.9677 7.54C86.1277 7.412 86.3117 7.348 86.5197 7.348C86.7277 7.348 86.9117 7.412 87.0717 7.54C87.2317 7.66 87.3117 7.824 87.3117 8.032V8.224C87.3117 8.384 87.3197 8.52 87.3357 8.632C87.3517 8.744 87.3877 8.884 87.4437 9.052C87.5397 9.34 87.6957 9.644 87.9117 9.964C88.1277 10.276 88.3597 10.552 88.6077 10.792C88.8557 10.552 89.0917 10.268 89.3157 9.94C89.5397 9.604 89.6957 9.296 89.7837 9.016C89.8317 8.872 89.8637 8.744 89.8797 8.632C89.8957 8.52 89.9037 8.384 89.9037 8.224V8.032C89.9037 7.824 89.9837 7.66 90.1437 7.54C90.3037 7.412 90.4877 7.348 90.6957 7.348C90.9037 7.348 91.0877 7.412 91.2477 7.54C91.4077 7.66 91.4877 7.824 91.4877 8.032V8.224C91.4877 8.496 91.5197 8.784 91.5837 9.088C91.6637 9.432 91.8357 9.776 92.0997 10.12C92.3717 10.464 92.6717 10.756 92.9997 10.996C93.2157 11.164 93.3237 11.356 93.3237 11.572C93.3237 11.78 93.2477 11.952 93.0957 12.088C92.9437 12.224 92.7637 12.292 92.5557 12.292C92.4837 12.292 92.4037 12.28 92.3157 12.256C92.2277 12.232 92.1477 12.192 92.0757 12.136C91.4917 11.72 91.0117 11.2 90.6357 10.576C90.2597 11.16 89.7997 11.684 89.2557 12.148C89.1677 12.22 89.0677 12.276 88.9557 12.316C88.8437 12.356 88.7317 12.376 88.6197 12.376C88.3877 12.376 88.1637 12.292 87.9477 12.124C87.7237 11.948 87.4877 11.724 87.2397 11.452C86.9997 11.188 86.7757 10.896 86.5677 10.576C86.2157 11.176 85.7357 11.704 85.1277 12.16C84.9837 12.256 84.8157 12.304 84.6237 12.304C84.4157 12.304 84.2357 12.236 84.0837 12.1C83.9317 11.972 83.8557 11.804 83.8557 11.596ZM96.5753 7.276C96.5753 7.348 96.6073 7.392 96.6713 7.408C96.8393 7.448 97.0553 7.48 97.3193 7.504C97.5833 7.528 97.8233 7.54 98.0393 7.54C98.6793 7.54 99.3513 7.448 100.055 7.264C100.127 7.24 100.211 7.228 100.307 7.228C100.499 7.228 100.667 7.292 100.811 7.42C100.955 7.54 101.027 7.7 101.027 7.9C101.027 8.06 100.971 8.204 100.859 8.332C100.755 8.452 100.619 8.536 100.451 8.584C99.7073 8.8 98.9033 8.908 98.0393 8.908C97.1833 8.908 96.4473 8.816 95.8313 8.632C95.5193 8.544 95.2953 8.404 95.1593 8.212C95.0313 8.02 94.9673 7.776 94.9673 7.48V1.828C94.9673 1.596 95.0513 1.416 95.2193 1.288C95.3873 1.16 95.5713 1.096 95.7713 1.096C95.9713 1.096 96.1553 1.16 96.3233 1.288C96.4913 1.416 96.5753 1.596 96.5753 1.828V7.276ZM102.143 1.108C102.143 0.875999 102.227 0.696 102.395 0.568C102.563 0.44 102.747 0.375999 102.947 0.375999C103.147 0.375999 103.331 0.44 103.499 0.568C103.667 0.696 103.751 0.875999 103.751 1.108V4.192H104.747C104.955 4.192 105.119 4.256 105.239 4.384C105.359 4.512 105.419 4.68 105.419 4.888C105.419 5.096 105.359 5.264 105.239 5.392C105.119 5.52 104.955 5.584 104.747 5.584H103.751V11.584C103.751 11.816 103.667 11.996 103.499 12.124C103.331 12.252 103.147 12.316 102.947 12.316C102.747 12.316 102.563 12.252 102.395 12.124C102.227 11.996 102.143 11.816 102.143 11.584V1.108ZM111.311 7.48C110.919 7.48 110.547 7.444 110.195 7.372V9.532C110.691 9.548 111.063 9.556 111.311 9.556C111.567 9.556 111.943 9.548 112.439 9.532V7.372C112.095 7.444 111.719 7.48 111.311 7.48ZM105.935 9.688C105.935 9.504 105.999 9.344 106.127 9.208C106.255 9.064 106.419 8.992 106.619 8.992C106.691 8.992 106.763 9.004 106.835 9.028C107.427 9.18 108.011 9.296 108.587 9.376V6.676C108.187 6.388 107.879 6.036 107.663 5.62C107.447 5.196 107.339 4.732 107.339 4.228C107.339 3.596 107.507 3.036 107.843 2.548C108.179 2.052 108.647 1.668 109.247 1.396C109.847 1.116 110.535 0.976 111.311 0.976C112.087 0.976 112.775 1.116 113.375 1.396C113.975 1.668 114.443 2.052 114.779 2.548C115.115 3.036 115.283 3.596 115.283 4.228C115.283 4.724 115.175 5.184 114.959 5.608C114.743 6.032 114.439 6.388 114.047 6.676V9.376C114.607 9.296 115.187 9.18 115.787 9.028C115.835 9.012 115.907 9.004 116.003 9.004C116.203 9.004 116.367 9.072 116.495 9.208C116.623 9.344 116.687 9.504 116.687 9.688C116.687 9.84 116.639 9.98 116.543 10.108C116.447 10.236 116.303 10.324 116.111 10.372C114.727 10.756 113.127 10.948 111.311 10.948C109.495 10.948 107.895 10.756 106.511 10.372C106.319 10.324 106.175 10.236 106.079 10.108C105.983 9.98 105.935 9.84 105.935 9.688ZM108.923 4.228C108.923 4.788 109.135 5.244 109.559 5.596C109.991 5.94 110.575 6.112 111.311 6.112C112.047 6.112 112.627 5.94 113.051 5.596C113.483 5.244 113.699 4.788 113.699 4.228C113.699 3.668 113.483 3.216 113.051 2.872C112.627 2.52 112.047 2.344 111.311 2.344C110.575 2.344 109.991 2.52 109.559 2.872C109.135 3.216 108.923 3.668 108.923 4.228ZM119.806 5.776C120.182 5.584 120.494 5.404 120.742 5.236C120.99 5.068 121.194 4.864 121.354 4.624C121.522 4.376 121.606 4.084 121.606 3.748C121.606 3.38 121.486 3.096 121.246 2.896C121.006 2.688 120.71 2.584 120.358 2.584C120.158 2.584 119.954 2.64 119.746 2.752C119.538 2.856 119.35 3.016 119.182 3.232C118.99 3.496 118.746 3.628 118.45 3.628C118.306 3.628 118.174 3.592 118.054 3.52C117.83 3.392 117.718 3.208 117.718 2.968C117.718 2.848 117.746 2.728 117.802 2.608C117.994 2.208 118.314 1.876 118.762 1.612C119.21 1.348 119.722 1.216 120.298 1.216C120.914 1.216 121.442 1.332 121.882 1.564C122.322 1.788 122.654 2.096 122.878 2.488C123.11 2.872 123.226 3.3 123.226 3.772C123.226 4.476 123.014 5.068 122.59 5.548C122.174 6.028 121.602 6.456 120.874 6.832V7.828C120.874 8.076 120.802 8.264 120.658 8.392C120.514 8.512 120.326 8.572 120.094 8.572C119.862 8.572 119.67 8.512 119.518 8.392C119.366 8.264 119.29 8.076 119.29 7.828V6.556C119.29 6.204 119.462 5.944 119.806 5.776ZM119.11 10.48C119.11 10.208 119.202 9.984 119.386 9.808C119.57 9.624 119.802 9.532 120.082 9.532C120.362 9.532 120.594 9.624 120.778 9.808C120.962 9.984 121.054 10.208 121.054 10.48C121.054 10.76 120.962 10.988 120.778 11.164C120.594 11.348 120.362 11.44 120.082 11.44C119.802 11.44 119.57 11.348 119.386 11.164C119.202 10.988 119.11 10.76 119.11 10.48Z" fill="black"/>
</svg>
